<svg width="48" height="48" viewBox="0 0 48 48" fill="none" xmlns="http://www.w3.org/2000/svg">
<rect width="48" height="48" rx="24" fill="#FEDCDC"/>
<mask id="mask0_269_1651" style="mask-type:alpha" maskUnits="userSpaceOnUse" x="12" y="12" width="24" height="24">
<rect x="12" y="12" width="24" height="24" fill="#D9D9D9"/>
</mask>
<g mask="url(#mask0_269_1651)">
<path d="M20.108 31.9003C19.6644 31.9003 19.2855 31.7433 18.9713 31.4293C18.6573 31.1152 18.5003 30.7362 18.5003 30.2926V18.6003H17.3003V17.3003H21.6003V16.2158H26.4003V17.3003H30.7003V18.6003H29.5003V30.2818C29.5003 30.7442 29.3449 31.1295 29.034 31.4378C28.7232 31.7462 28.3427 31.9003 27.8925 31.9003H20.108ZM28.2003 18.6003H19.8003V30.2926C19.8003 30.3824 19.8291 30.4562 19.8868 30.5138C19.9445 30.5715 20.0182 30.6003 20.108 30.6003H27.8925C27.9695 30.6003 28.04 30.5682 28.104 30.5041C28.1682 30.4401 28.2003 30.3696 28.2003 30.2926V18.6003ZM22.0043 28.8003H23.304V20.4003H22.0043V28.8003ZM24.6965 28.8003H25.9963V20.4003H24.6965V28.8003Z" fill="#E15E5E"/>
</g>
</svg>
