<svg width="48" height="48" viewBox="0 0 48 48" fill="none" xmlns="http://www.w3.org/2000/svg">
<g clip-path="url(#clip0_265_1383)">
<path fill-rule="evenodd" clip-rule="evenodd" d="M14.414 9.758C15.539 8.6327 17.0648 8.00034 18.656 8H26C26.5304 8 27.0391 8.21071 27.4142 8.58579C27.7893 8.96086 28 9.46957 28 10C28 10.5304 27.7893 11.0391 27.4142 11.4142C27.0391 11.7893 26.5304 12 26 12H18.656C18.1256 12.0001 17.617 12.2109 17.242 12.586L15.586 14.242C14.461 15.3673 12.9352 15.9997 11.344 16H8C7.46957 16 6.96086 16.2107 6.58579 16.5858C6.21071 16.9609 6 17.4696 6 18V38C6 38.5304 6.21071 39.0391 6.58579 39.4142C6.96086 39.7893 7.46957 40 8 40H36C36.5304 40 37.0391 39.7893 37.4142 39.4142C37.7893 39.0391 38 38.5304 38 38V24C38 23.4696 38.2107 22.9609 38.5858 22.5858C38.9609 22.2107 39.4696 22 40 22C40.5304 22 41.0391 22.2107 41.4142 22.5858C41.7893 22.9609 42 23.4696 42 24V38C42 39.5913 41.3679 41.1174 40.2426 42.2426C39.1174 43.3679 37.5913 44 36 44H8C6.4087 44 4.88258 43.3679 3.75736 42.2426C2.63214 41.1174 2 39.5913 2 38V18C2 16.4087 2.63214 14.8826 3.75736 13.7574C4.88258 12.6321 6.4087 12 8 12H11.344C11.8744 11.9999 12.383 11.7891 12.758 11.414L14.414 9.758Z" fill="#9E9E9E"/>
<path fill-rule="evenodd" clip-rule="evenodd" d="M12 28C12 25.3478 13.0536 22.8043 14.9289 20.9289C16.8043 19.0536 19.3478 18 22 18C24.6522 18 27.1957 19.0536 29.0711 20.9289C30.9464 22.8043 32 25.3478 32 28C32 30.6522 30.9464 33.1957 29.0711 35.0711C27.1957 36.9464 24.6522 38 22 38C19.3478 38 16.8043 36.9464 14.9289 35.0711C13.0536 33.1957 12 30.6522 12 28ZM22 22C21.2121 22 20.4319 22.1552 19.7039 22.4567C18.9759 22.7583 18.3145 23.2002 17.7574 23.7574C17.2002 24.3145 16.7583 24.9759 16.4567 25.7039C16.1552 26.4319 16 27.2121 16 28C16 28.7879 16.1552 29.5681 16.4567 30.2961C16.7583 31.0241 17.2002 31.6855 17.7574 32.2426C18.3145 32.7998 18.9759 33.2417 19.7039 33.5433C20.4319 33.8448 21.2121 34 22 34C23.5913 34 25.1174 33.3679 26.2426 32.2426C27.3679 31.1174 28 29.5913 28 28C28 26.4087 27.3679 24.8826 26.2426 23.7574C25.1174 22.6321 23.5913 22 22 22ZM32 10C32 9.46957 32.2107 8.96086 32.5858 8.58579C32.9609 8.21071 33.4696 8 34 8H46C46.5304 8 47.0391 8.21071 47.4142 8.58579C47.7893 8.96086 48 9.46957 48 10C48 10.5304 47.7893 11.0391 47.4142 11.4142C47.0391 11.7893 46.5304 12 46 12H34C33.4696 12 32.9609 11.7893 32.5858 11.4142C32.2107 11.0391 32 10.5304 32 10Z" fill="#9E9E9E"/>
<path fill-rule="evenodd" clip-rule="evenodd" d="M40 2C40.5304 2 41.0391 2.21071 41.4142 2.58579C41.7893 2.96086 42 3.46957 42 4V16C42 16.5304 41.7893 17.0391 41.4142 17.4142C41.0391 17.7893 40.5304 18 40 18C39.4696 18 38.9609 17.7893 38.5858 17.4142C38.2107 17.0391 38 16.5304 38 16V4C38 3.46957 38.2107 2.96086 38.5858 2.58579C38.9609 2.21071 39.4696 2 40 2Z" fill="#9E9E9E"/>
</g>
<defs>
<clipPath id="clip0_265_1383">
<rect width="48" height="48" fill="white"/>
</clipPath>
</defs>
</svg>
