<svg width="24" height="24" viewBox="0 0 24 24" fill="none" xmlns="http://www.w3.org/2000/svg">
<path fill-rule="evenodd" clip-rule="evenodd" d="M15.414 16.836L12.8685 17.739C12.7838 17.7692 12.6922 17.7747 12.6044 17.755C12.5167 17.7352 12.4363 17.6909 12.3727 17.6273C12.3091 17.5637 12.2648 17.4833 12.245 17.3956C12.2253 17.3078 12.2308 17.2162 12.261 17.1315L13.164 14.586C13.1689 14.5718 13.1771 14.5589 13.188 14.5485L19.9222 7.8135C20.0819 7.65389 20.2984 7.56422 20.5241 7.56422C20.7499 7.56422 20.9664 7.65389 21.126 7.8135L22.1865 8.874C22.3461 9.03364 22.4358 9.25013 22.4358 9.47587C22.4358 9.70162 22.3461 9.91811 22.1865 10.0778L15.4515 16.812C15.4411 16.8229 15.4282 16.8311 15.414 16.836ZM18 16.3853V18.75C18 19.347 17.763 19.9193 17.3407 20.3407C17.132 20.5498 16.884 20.7157 16.611 20.8288C16.3381 20.9419 16.0455 21.0001 15.75 21H3.75C3.45453 21.0001 3.16193 20.9419 2.88897 20.8288C2.61601 20.7157 2.36804 20.5498 2.15925 20.3407C1.95017 20.132 1.78432 19.884 1.6712 19.611C1.55808 19.3381 1.4999 19.0455 1.5 18.75V8.25H17.3647L12.1268 13.488C11.9583 13.6564 11.8297 13.8604 11.7502 14.085L10.8472 16.6298C10.7225 16.9817 10.7 17.3617 10.7823 17.7259C10.8647 18.0901 11.0485 18.4235 11.3125 18.6875C11.5765 18.9515 11.9099 19.1353 12.2741 19.2177C12.6383 19.3 13.0183 19.2775 13.3702 19.1528L15.915 18.2498C16.14 18.1702 18 16.3853 18 16.3853ZM5.25 17.25H7.62675C7.82566 17.25 8.01643 17.171 8.15708 17.0303C8.29773 16.8897 8.37675 16.6989 8.37675 16.5C8.37675 16.3011 8.29773 16.1103 8.15708 15.9697C8.01643 15.829 7.82566 15.75 7.62675 15.75H5.25C5.05109 15.75 4.86032 15.829 4.71967 15.9697C4.57902 16.1103 4.5 16.3011 4.5 16.5C4.5 16.6989 4.57902 16.8897 4.71967 17.0303C4.86032 17.171 5.05109 17.25 5.25 17.25ZM5.25 14.25H9.12675C9.32566 14.25 9.51643 14.171 9.65708 14.0303C9.79773 13.8897 9.87675 13.6989 9.87675 13.5C9.87675 13.3011 9.79773 13.1103 9.65708 12.9697C9.51643 12.829 9.32566 12.75 9.12675 12.75H5.25C5.05109 12.75 4.86032 12.829 4.71967 12.9697C4.57902 13.1103 4.5 13.3011 4.5 13.5C4.5 13.6989 4.57902 13.8897 4.71967 14.0303C4.86032 14.171 5.05109 14.25 5.25 14.25ZM5.25 11.25H12.1268C12.3257 11.25 12.5164 11.171 12.6571 11.0303C12.7977 10.8897 12.8768 10.6989 12.8768 10.5C12.8768 10.3011 12.7977 10.1103 12.6571 9.96967C12.5164 9.82902 12.3257 9.75 12.1268 9.75H5.25C5.05109 9.75 4.86032 9.82902 4.71967 9.96967C4.57902 10.1103 4.5 10.3011 4.5 10.5C4.5 10.6989 4.57902 10.8897 4.71967 11.0303C4.86032 11.171 5.05109 11.25 5.25 11.25ZM1.5 6.75V5.25C1.5 4.653 1.737 4.08075 2.15925 3.65925C2.36804 3.45017 2.61601 3.28432 2.88897 3.1712C3.16193 3.05808 3.45453 2.9999 3.75 3H15.75C16.347 3 16.9193 3.237 17.3407 3.65925C17.763 4.08075 18 4.653 18 5.25V6.75H1.5Z" fill="#04A391"/>
</svg>
