<svg width="16" height="16" viewBox="0 0 16 16" fill="none" xmlns="http://www.w3.org/2000/svg">
<mask id="mask0_1744_14520" style="mask-type:alpha" maskUnits="userSpaceOnUse" x="0" y="0" width="16" height="16">
<rect width="16" height="16" fill="#D9D9D9"/>
</mask>
<g mask="url(#mask0_1744_14520)">
<path d="M3.83333 14.6182L3 13.7682L4.76667 12.0016H3.4V10.8016H6.8V14.2016H5.6V12.8516L3.83333 14.6182ZM8 14.4016V13.2016H11.6V5.60156H8.8V2.80156H4.4V9.60156H3.2V2.80156C3.2 2.47156 3.3175 2.18906 3.5525 1.95406C3.7875 1.71906 4.07 1.60156 4.4 1.60156H9.6L12.8 4.80156V13.2016C12.8 13.5316 12.6825 13.8141 12.4475 14.0491C12.2125 14.2841 11.93 14.4016 11.6 14.4016H8Z" fill="white"/>
</g>
</svg>
