<svg width="24" height="24" viewBox="0 0 24 24" fill="none" xmlns="http://www.w3.org/2000/svg">
<g clip-path="url(#clip0_3054_7451)">
<path d="M5.22976 23.6068C4.6832 23.445 4.37125 22.8707 4.53301 22.3242L5.46123 19.188L7.44058 19.7738L6.51236 22.91C6.35055 23.4566 5.77633 23.7685 5.22976 23.6068ZM16.6713 23.6068C17.2179 23.445 17.5299 22.8707 17.3681 22.3242L16.4399 19.188L14.4605 19.7738L15.3888 22.91C15.5505 23.4566 16.1248 23.7685 16.6713 23.6068Z" fill="#E19974"/>
<path d="M7.44086 19.7738L6.51269 22.91C6.35106 23.4565 5.77651 23.7686 5.23 23.6065C5.15814 23.5855 5.08887 23.5565 5.02351 23.52C5.26075 23.3892 5.43669 23.1699 5.51303 22.91L6.565 19.5145L7.44086 19.7738ZM16.6715 23.6065C16.5403 23.6456 16.4026 23.6581 16.2665 23.6433C16.1303 23.6284 15.9985 23.5865 15.8788 23.52C16.2941 23.2916 16.5094 22.7974 16.3688 22.3242L15.521 19.4599L16.4403 19.188L17.3685 22.3242C17.5301 22.8708 17.2185 23.4448 16.6715 23.6065Z" fill="#DC8758"/>
<path d="M10.9493 22.2353C16.4128 22.2353 20.8418 17.8062 20.8418 12.3427C20.8418 6.87924 16.4128 2.4502 10.9493 2.4502C5.48576 2.4502 1.05672 6.87924 1.05672 12.3427C1.05672 17.8062 5.48576 22.2353 10.9493 22.2353Z" fill="#FE646F"/>
<path d="M20.8424 12.3428C20.8424 17.8061 16.4137 22.2354 10.9498 22.2354C8.66606 22.2354 6.56358 21.4618 4.88897 20.1618C6.366 21.0396 8.09152 21.5436 9.93431 21.5436C15.3977 21.5436 19.8269 17.1144 19.8269 11.651C19.8269 8.46991 18.3256 5.63969 15.9923 3.83008C18.8964 5.55414 20.8424 8.7212 20.8424 12.3428Z" fill="#FD4755"/>
<path d="M10.9507 20.2019C15.2909 20.2019 18.8094 16.6834 18.8094 12.3432C18.8094 8.00287 15.2909 4.48438 10.9507 4.48438C6.61037 4.48438 3.09187 8.00287 3.09187 12.3432C3.09187 16.6834 6.61037 20.2019 10.9507 20.2019Z" fill="#F9F8F9"/>
<path d="M18.8088 12.3429C18.8088 16.6834 15.2905 20.2017 10.95 20.2017C9.81634 20.2017 8.73915 19.9616 7.7657 19.53C8.48083 19.7439 9.23851 19.8588 10.0232 19.8588C14.3632 19.8588 17.882 16.3405 17.882 12.0001C17.882 8.79329 15.9612 6.03497 13.2076 4.81299C16.4475 5.78321 18.8088 8.78771 18.8088 12.3429Z" fill="#EFEDEF"/>
<path d="M10.9505 18.2309C14.2023 18.2309 16.8384 15.5948 16.8384 12.343C16.8384 9.09119 14.2023 6.45508 10.9505 6.45508C7.69869 6.45508 5.06258 9.09119 5.06258 12.343C5.06258 15.5948 7.69869 18.2309 10.9505 18.2309Z" fill="#FE646F"/>
<path d="M16.8378 12.3429C16.8378 15.5949 14.2019 18.2309 10.9498 18.2309C9.85485 18.2309 8.82951 17.9319 7.95135 17.4111C8.57728 17.6376 9.25275 17.7614 9.95667 17.7614C13.2087 17.7614 15.8447 15.1255 15.8447 11.8734C15.8447 9.71721 14.6853 7.83148 12.956 6.80566C15.2202 7.62593 16.8378 9.79568 16.8378 12.3429Z" fill="#FD4755"/>
<path d="M10.9503 16.1349C13.0446 16.1349 14.7424 14.4371 14.7424 12.3428C14.7424 10.2485 13.0446 8.55078 10.9503 8.55078C8.85604 8.55078 7.15828 10.2485 7.15828 12.3428C7.15828 14.4371 8.85604 16.1349 10.9503 16.1349Z" fill="#F9F8F9"/>
<path d="M14.7419 12.3429C14.7419 14.4374 13.0444 16.1349 10.9498 16.1349C10.1623 16.1349 9.43073 15.8948 8.82445 15.4843C9.20217 15.6063 9.59671 15.6682 9.99365 15.6678C12.0877 15.6678 13.7857 13.9703 13.7857 11.8758C13.7857 10.5688 13.1242 9.41591 12.1181 8.73486C13.6409 9.22672 14.7419 10.6566 14.7419 12.3429Z" fill="#EFEDEF"/>
<path d="M10.9509 14.0535C11.8957 14.0535 12.6615 13.2877 12.6615 12.3429C12.6615 11.3982 11.8957 10.6323 10.9509 10.6323C10.0062 10.6323 9.24031 11.3982 9.24031 12.3429C9.24031 13.2877 10.0062 14.0535 10.9509 14.0535Z" fill="#FE646F"/>
<path d="M12.6604 12.3428C12.6604 13.2877 11.8948 14.0533 10.9498 14.0533C10.5749 14.0538 10.2102 13.9307 9.91232 13.703C9.9651 13.7081 10.0184 13.7104 10.0725 13.7104C11.017 13.7104 11.7831 12.9448 11.7831 11.9999C11.7831 11.4454 11.5192 10.9521 11.11 10.6396C11.9798 10.7205 12.6604 11.4524 12.6604 12.3428Z" fill="#FD4755"/>
<path d="M20.6202 2.67356L20.347 0.514173C20.3275 0.360094 20.1395 0.295688 20.0296 0.405516L16.7227 3.71241C16.7013 3.7339 16.6853 3.76031 16.6764 3.78935C16.6674 3.81839 16.6656 3.84918 16.6713 3.87905L17.106 6.18764L20.6202 2.67356Z" fill="#FEE97D"/>
<path d="M20.6205 2.67334L17.1059 6.18747L16.8985 5.08459L20.4733 1.50977L20.6205 2.67334Z" fill="#FEDF30"/>
<path d="M20.6196 2.67383L22.779 2.94697C22.9331 2.96647 22.9975 3.15453 22.8877 3.26436L19.5808 6.57125C19.5593 6.59274 19.5329 6.60866 19.5038 6.61763C19.4748 6.6266 19.444 6.62835 19.4141 6.62272L17.1055 6.18795L20.6196 2.67383Z" fill="#FEDF30"/>
<path d="M22.8869 3.2639L19.5802 6.57107C19.5586 6.59246 19.5322 6.6083 19.5031 6.61725C19.4741 6.6262 19.4433 6.62798 19.4134 6.62245L18.3848 6.42857L21.8579 2.95555C21.89 2.92404 21.9094 2.88182 21.9125 2.83691L22.7781 2.9467C22.9322 2.96634 22.9967 3.15412 22.8869 3.2639Z" fill="#FED402"/>
<path d="M23.1351 3.51188C23.2065 3.44106 23.2564 3.3515 23.2791 3.25353C23.3019 3.15556 23.2964 3.05316 23.2635 2.95814C23.2313 2.86286 23.1729 2.77861 23.0949 2.71509C23.0169 2.65158 22.9226 2.6114 22.8227 2.59917L20.9328 2.36011L20.6938 0.470251C20.6816 0.37043 20.6414 0.276089 20.5779 0.198105C20.5144 0.120121 20.4302 0.0616684 20.3349 0.0294851C20.2399 -0.00348821 20.1374 -0.00893044 20.0395 0.013786C19.9415 0.0365024 19.8519 0.0864522 19.7811 0.157876L16.4743 3.46472C16.4241 3.5152 16.3845 3.57516 16.3577 3.64111C14.7504 2.63775 12.8917 2.10014 10.95 2.10014C8.214 2.10014 5.64178 3.16561 3.7072 5.10023C1.77253 7.03486 0.707108 9.60708 0.707108 12.343C0.707108 15.079 1.77253 17.6512 3.7072 19.5858C4.02387 19.9024 4.36065 20.1982 4.71544 20.4713L4.19648 22.2247C3.98015 22.9556 4.39879 23.7263 5.12972 23.9426C5.25961 23.981 5.39222 24.0001 5.52398 24.0001C5.75137 24.0001 5.97656 23.9434 6.18201 23.8318C6.50648 23.6555 6.74292 23.3634 6.84768 23.0093L7.18383 21.8736C8.367 22.3409 9.63956 22.5859 10.95 22.5859C12.2603 22.5859 13.5329 22.3409 14.7161 21.8736L15.0523 23.0093C15.157 23.3634 15.3934 23.6555 15.7179 23.8318C15.9233 23.9434 16.1485 24.0001 16.3759 24.0001C16.5077 24.0001 16.6402 23.9811 16.7702 23.9426C17.3925 23.7584 17.8072 23.1557 17.7563 22.5095C17.7481 22.4176 17.7039 22.3326 17.6334 22.273C17.563 22.2135 17.4718 22.1841 17.3798 22.1914C17.2878 22.1986 17.2024 22.2419 17.1421 22.3117C17.0818 22.3816 17.0515 22.4724 17.0578 22.5645C17.0828 22.8829 16.8783 23.1799 16.5713 23.2707C16.2156 23.376 15.829 23.1648 15.7241 22.8105L15.3634 21.5917C15.7848 21.3902 16.1917 21.1598 16.5814 20.9022L16.6295 21.0648C16.6426 21.1089 16.6642 21.15 16.6931 21.1858C16.7221 21.2216 16.7578 21.2513 16.7982 21.2732C16.8386 21.2952 16.883 21.309 16.9288 21.3138C16.9745 21.3186 17.0208 21.3143 17.0649 21.3013C17.109 21.2882 17.1501 21.2666 17.1859 21.2377C17.2216 21.2087 17.2513 21.173 17.2733 21.1326C17.2953 21.0922 17.309 21.0478 17.3139 21.0021C17.3187 20.9563 17.3144 20.91 17.3014 20.8659L17.1846 20.4713C17.5393 20.1981 17.8761 19.9023 18.1928 19.5857C20.1275 17.6511 21.1929 15.0789 21.1929 12.3429C21.1929 10.4014 20.6552 8.54302 19.6521 6.93591C19.718 6.90891 19.7779 6.86906 19.8283 6.81867L23.1351 3.51188ZM20.0405 0.889313L20.2502 2.54728L17.3267 5.47083L17.0307 3.8992L20.0405 0.889313ZM6.17583 22.8105C6.07059 23.166 5.685 23.3763 5.32861 23.2708C4.96814 23.1641 4.7617 22.784 4.86834 22.4235L5.31862 20.9022C5.70823 21.1598 6.11517 21.3902 6.53653 21.5918L6.17583 22.8105ZM20.4922 12.343C20.4922 17.6046 16.2116 21.8852 10.95 21.8852C5.68842 21.8852 1.4078 17.6046 1.4078 12.343C1.4078 7.08141 5.68837 2.80083 10.95 2.80083C12.9919 2.80083 14.8855 3.4463 16.439 4.54303L16.7267 6.07083L16.4987 6.29883C15.0365 4.95539 13.0875 4.13391 10.95 4.13391C6.42342 4.13391 2.74083 7.8165 2.74083 12.343C2.74083 16.8695 6.42342 20.5521 10.95 20.5521C15.4765 20.5521 19.1591 16.8695 19.1591 12.343C19.1591 10.2055 18.3376 8.25652 16.9942 6.7943L17.2222 6.5663L18.7498 6.85397C19.8465 8.40745 20.4922 10.301 20.4922 12.343ZM7.31386 7.69847C7.34005 7.73629 7.37343 7.76859 7.4121 7.79351C7.45078 7.81843 7.49398 7.83549 7.53924 7.84371C7.58451 7.85193 7.63095 7.85116 7.67592 7.84143C7.72088 7.8317 7.76349 7.81321 7.80131 7.78702C8.72864 7.14483 9.81745 6.80541 10.95 6.80541C12.3509 6.80541 13.6317 7.32858 14.608 8.18949L13.6193 9.17817C12.8978 8.5687 11.9662 8.20064 10.95 8.20064C8.66583 8.20064 6.80756 10.0589 6.80756 12.343C6.80756 14.6272 8.66583 16.4854 10.95 16.4854C13.2341 16.4854 15.0924 14.6272 15.0924 12.343C15.0924 11.3268 14.7243 10.3951 14.1149 9.67364L15.1035 8.68495C15.9644 9.66127 16.4876 10.9421 16.4876 12.343C16.4876 15.3965 14.0035 17.8806 10.95 17.8806C7.89651 17.8806 5.41237 15.3965 5.41237 12.343C5.41237 11.0671 5.85679 9.82186 6.66365 8.83669C6.69281 8.8011 6.71467 8.76012 6.72798 8.71608C6.7413 8.67204 6.74581 8.62581 6.74125 8.58003C6.7367 8.53426 6.72318 8.48982 6.70146 8.44927C6.67973 8.40871 6.65024 8.37283 6.61465 8.34368C6.57906 8.31453 6.53807 8.29267 6.49404 8.27935C6.45 8.26604 6.40377 8.26153 6.35799 8.26608C6.31221 8.27063 6.26778 8.28415 6.22722 8.30588C6.18667 8.3276 6.15079 8.3571 6.12164 8.39269C5.2124 9.50274 4.71173 10.9057 4.71173 12.343C4.71173 15.7828 7.51022 18.5813 10.95 18.5813C14.3898 18.5813 17.1883 15.7828 17.1883 12.343C17.1883 10.7489 16.587 9.29283 15.5996 8.18888L16.4987 7.28977C17.7155 8.62472 18.4584 10.3987 18.4584 12.343C18.4584 16.4831 15.0902 19.8514 10.95 19.8514C6.80981 19.8514 3.44156 16.4831 3.44156 12.343C3.44156 8.20284 6.80981 4.83455 10.95 4.83455C12.8943 4.83455 14.6683 5.57747 16.0033 6.7943L15.1042 7.69341C14.0002 6.70608 12.5441 6.10472 10.95 6.10472C9.67425 6.10472 8.44753 6.48727 7.40245 7.21097C7.36462 7.23716 7.33232 7.27055 7.3074 7.30922C7.28247 7.3479 7.26541 7.3911 7.25718 7.43637C7.24896 7.48164 7.24973 7.52809 7.25945 7.57306C7.26917 7.61803 7.28766 7.66064 7.31386 7.69847ZM10.7022 12.5907C10.7707 12.6591 10.8603 12.6933 10.95 12.6933C11.0396 12.6933 11.1292 12.6591 11.1977 12.5907L12.1266 11.6618C12.247 11.8686 12.3104 12.1037 12.3102 12.343C12.3102 13.093 11.7 13.7033 10.9499 13.7033C10.1999 13.7033 9.58964 13.093 9.58964 12.343C9.58964 11.5929 10.1999 10.9827 10.9499 10.9827C11.1892 10.9825 11.4243 11.0458 11.6311 11.1663L10.7021 12.0953C10.6365 12.161 10.5996 12.2501 10.5996 12.343C10.5996 12.4359 10.6365 12.525 10.7022 12.5907ZM12.1374 10.6601C11.8014 10.4223 11.3919 10.282 10.95 10.282C9.81356 10.282 8.88904 11.2065 8.88904 12.343C8.88904 13.4794 9.81356 14.4039 10.95 14.4039C12.0863 14.4039 13.0109 13.4794 13.0109 12.343C13.0109 11.901 12.8706 11.4915 12.6329 11.1555L13.6174 10.171C14.101 10.7638 14.3917 11.52 14.3917 12.3429C14.3917 14.2407 12.8477 15.7846 10.95 15.7846C9.05222 15.7846 7.50825 14.2407 7.50825 12.3429C7.50825 10.4452 9.05222 8.90124 10.95 8.90124C11.7729 8.90124 12.5291 9.19191 13.1219 9.67552L12.1374 10.6601ZM19.3938 6.26227L17.8222 5.9663L20.7457 3.04275L22.4036 3.25247L19.3938 6.26227Z" fill="black"/>
</g>
<defs>
<clipPath id="clip0_3054_7451">
<rect width="24" height="24" fill="white"/>
</clipPath>
</defs>
</svg>
