<svg width="80" height="80" viewBox="0 0 80 80" fill="none" xmlns="http://www.w3.org/2000/svg">
<path fill-rule="evenodd" clip-rule="evenodd" d="M46.5844 41.1487H33.4151C32.9933 41.1487 32.6184 40.9612 32.4309 40.5863C29.9001 36.1809 28.5879 30.9788 28.5879 25.5424C28.5879 16.1223 32.6184 7.54589 39.367 2.67184C39.742 2.43751 40.3044 2.43751 40.7261 2.67184C47.3811 7.54589 51.4116 16.1223 51.4116 25.5424C51.4116 30.9788 50.0993 36.0872 47.6154 40.5863C47.3811 40.9612 47.053 41.1487 46.5844 41.1487ZM34.0243 38.8991H45.9283C48.0372 34.9155 49.1151 30.3227 49.1151 25.5424C49.1151 17.294 45.6002 9.51425 39.9763 5.01513C34.3055 9.51425 30.7906 17.294 30.7906 25.5424C30.7906 30.3227 31.9154 34.9155 34.0243 38.8991Z" fill="url(#paint0_linear_1637_5732)"/>
<path fill-rule="evenodd" clip-rule="evenodd" d="M49.6308 32.7124H30.2752C29.619 32.7124 29.1035 32.1969 29.1035 31.5408C29.1035 30.8847 29.619 30.3691 30.2752 30.3691H49.6308C50.2869 30.3691 50.8024 30.8847 50.8024 31.5408C50.8024 32.1969 50.2869 32.7124 49.6308 32.7124Z" fill="url(#paint1_linear_1637_5732)"/>
<path fill-rule="evenodd" clip-rule="evenodd" d="M26.198 46.444C26.0574 46.444 25.9168 46.444 25.8699 46.3503C25.4013 46.2097 25.0732 45.7879 25.0732 45.3193L24.5577 31.8219C24.5577 31.5407 24.6046 31.2595 24.792 31.0252L28.8225 26.1043C29.1506 25.6825 29.6192 25.5419 30.0879 25.6825C30.5565 25.8231 30.8377 26.2917 30.8377 26.7135C30.9783 30.4159 31.775 33.9309 33.181 37.1177C33.4153 37.5395 33.3216 37.9613 33.0873 38.2894L27.1353 45.9754C26.901 46.2097 26.5729 46.444 26.198 46.444ZM26.8073 32.15L27.2291 42.0855L30.8377 37.3989C29.8067 35.0088 29.1506 32.3843 28.8225 29.6661L26.8073 32.15ZM53.7551 46.444C53.4271 46.444 53.099 46.3035 52.8178 45.9754L46.9127 38.2894C46.6315 37.9613 46.5847 37.5395 46.7721 37.1177C48.225 33.8371 48.9748 30.3222 49.1154 26.7135C49.1154 26.2917 49.4435 25.8231 49.9121 25.6825C50.3808 25.5419 50.8963 25.6825 51.1306 26.1043L55.1142 31.0252C55.3017 31.2126 55.3486 31.4938 55.3486 31.8219L54.9268 45.3193C54.9268 45.7879 54.5987 46.2097 54.1301 46.3503C53.9895 46.3503 53.8489 46.444 53.7551 46.444ZM49.1154 37.3989L52.7709 42.0855L53.099 32.15L51.1306 29.7129C50.8026 32.3374 50.1465 34.9151 49.1154 37.3989ZM52.068 59.7071H27.8852C24.8389 59.7071 22.4019 57.7856 22.4019 55.536C22.4019 54.0832 23.4329 52.7241 25.0732 52.0211C25.5419 49.8653 27.932 48.3187 30.9315 48.3187C31.5876 48.3187 32.15 48.3656 32.7592 48.5061C33.2747 47.85 33.9309 47.2876 34.7745 46.7721V39.9766C34.7745 39.3204 35.29 38.8049 35.9461 38.8049H44.1008C44.7569 38.8049 45.2724 39.3204 45.2724 39.9766V46.819C46.116 47.3345 46.7721 47.9438 47.2876 48.553C47.8969 48.4593 48.4593 48.3656 49.1154 48.3656C52.1148 48.3656 54.5987 49.959 54.9736 52.068C56.6139 52.8178 57.645 54.1769 57.645 55.5829C57.5513 57.8793 55.1611 59.7071 52.068 59.7071ZM30.8377 50.5682C28.9162 50.5682 27.2291 51.5524 27.2291 52.7241V52.8178C27.2291 53.3333 26.901 53.7083 26.4323 53.8957C25.4013 54.2238 24.6983 54.8799 24.6983 55.536C24.6983 56.3796 26.0574 57.4107 27.8852 57.4107H52.068C53.9426 57.4107 55.3017 56.4265 55.3017 55.536C55.3017 54.8799 54.5987 54.2238 53.5208 53.8957C53.0053 53.7551 52.6772 53.3333 52.6772 52.8647V52.8178C52.6772 51.6462 50.99 50.662 48.9748 50.662C48.2718 50.662 47.7094 50.8026 47.1002 50.99C46.5847 51.1775 45.9285 50.99 45.6942 50.4745C45.2724 49.6778 44.5226 49.0217 43.5384 48.5061C43.1634 48.3187 42.8823 47.9438 42.8823 47.4751V41.1482H36.9772V47.4751C36.9772 47.9438 36.696 48.3187 36.321 48.5061C35.29 49.0217 34.4933 49.6778 34.1652 50.3808C33.9309 50.8963 33.2747 51.1775 32.7592 50.99C32.2437 50.7088 31.5876 50.5682 30.8377 50.5682ZM39.9766 14.3878C37.2115 14.3878 34.7745 13.263 32.853 11.3415C32.4312 10.8729 32.478 10.1699 32.9467 9.70123C33.4153 9.23257 34.1183 9.3263 34.587 9.74809C35.993 11.2478 37.9613 12.0914 40.0234 12.0914C42.0855 12.0914 44.1008 11.2478 45.5067 9.74809C45.9285 9.3263 46.6315 9.23257 47.1002 9.70123C47.5688 10.1699 47.6157 10.8729 47.1939 11.3415C45.2724 13.263 42.6948 14.3878 39.9766 14.3878ZM39.9766 26.198C37.5395 26.198 35.618 24.2765 35.618 21.8395C35.618 19.4493 37.5395 17.4341 39.9766 17.4341C42.3667 17.4341 44.382 19.4025 44.382 21.8395C44.382 24.1828 42.3667 26.198 39.9766 26.198ZM39.9766 19.7305C38.8049 19.7305 37.8676 20.6678 37.8676 21.8395C37.8676 23.0111 38.8049 23.9484 39.9766 23.9484C41.1482 23.9484 42.0855 23.0111 42.0855 21.8395C42.0855 20.621 41.1482 19.7305 39.9766 19.7305ZM73.9543 77.5161H5.95196C2.67135 77.5161 0 74.8447 0 71.5173V66.3152C0 65.659 0.515524 65.1435 1.17165 65.1435H78.8284C79.4845 65.1435 80 65.659 80 66.3152V71.5173C79.9531 74.751 77.2818 77.5161 73.9543 77.5161ZM2.24956 67.4399V71.4704C2.24956 73.5325 3.93673 75.1728 5.95196 75.1728H73.9074C75.9695 75.1728 77.6098 73.4856 77.6098 71.4704V67.4399H2.24956Z" fill="url(#paint2_linear_1637_5732)"/>
<path fill-rule="evenodd" clip-rule="evenodd" d="M48.5542 72.4085H31.4481C30.792 72.4085 30.2765 71.893 30.2765 71.2368C30.2765 70.6276 30.792 70.0652 31.4481 70.0652H48.5542C49.2103 70.0652 49.7258 70.6276 49.7258 71.2368C49.7258 71.893 49.1166 72.4085 48.5542 72.4085ZM72.9244 67.4407C72.2683 67.4407 71.7528 66.8783 71.7528 66.2691V26.1988H50.2413C49.5852 26.1988 49.0697 25.6832 49.0697 25.0271C49.0697 24.371 49.5852 23.8555 50.2413 23.8555H71.9871C73.1119 23.8555 74.0023 24.8397 74.0023 25.9644V66.1753C74.0023 66.8783 73.4868 67.4407 72.9244 67.4407ZM7.0779 67.4407C6.42177 67.4407 5.90625 66.8783 5.90625 66.2691V26.0113C5.90625 24.8397 6.7967 23.9492 7.92148 23.9492H29.6204C30.2765 23.9492 30.792 24.4647 30.792 25.1208C30.792 25.777 30.2765 26.2925 29.6204 26.2925H8.15581V66.3159C8.15581 66.8783 7.73402 67.4407 7.0779 67.4407Z" fill="url(#paint3_linear_1637_5732)"/>
<defs>
<linearGradient id="paint0_linear_1637_5732" x1="39.9997" y1="2.49609" x2="39.9997" y2="41.1487" gradientUnits="userSpaceOnUse">
<stop stop-color="#0A7D70"/>
<stop offset="1" stop-color="#12E3CB"/>
</linearGradient>
<linearGradient id="paint1_linear_1637_5732" x1="39.953" y1="30.3691" x2="39.953" y2="32.7124" gradientUnits="userSpaceOnUse">
<stop stop-color="#0A7D70"/>
<stop offset="1" stop-color="#12E3CB"/>
</linearGradient>
<linearGradient id="paint2_linear_1637_5732" x1="40" y1="9.38867" x2="40" y2="77.5161" gradientUnits="userSpaceOnUse">
<stop stop-color="#0A7D70"/>
<stop offset="1" stop-color="#12E3CB"/>
</linearGradient>
<linearGradient id="paint3_linear_1637_5732" x1="39.9543" y1="23.8555" x2="39.9543" y2="72.4085" gradientUnits="userSpaceOnUse">
<stop stop-color="#0A7D70"/>
<stop offset="1" stop-color="#12E3CB"/>
</linearGradient>
</defs>
</svg>
