<svg width="80" height="80" viewBox="0 0 80 80" fill="none" xmlns="http://www.w3.org/2000/svg">
<path d="M44.5499 72.9746H35.4449C34.7799 72.9746 34.2449 72.4396 34.2449 71.7746C34.2449 71.1096 34.7799 70.5746 35.4449 70.5746H44.5499C45.2149 70.5746 45.7499 71.1096 45.7499 71.7746C45.7499 72.4396 45.2099 72.9746 44.5499 72.9746ZM18.7449 18.8996C18.0799 18.8996 17.5449 18.3646 17.5449 17.6996V5.79961C17.5449 3.48461 19.4299 1.59961 21.7449 1.59961H58.2449C60.5599 1.59961 62.4449 3.48461 62.4449 5.79961V11.3946C62.4449 12.0596 61.9099 12.5946 61.2449 12.5946C60.5799 12.5946 60.0449 12.0596 60.0449 11.3946V5.79961C60.0449 4.80461 59.2399 3.99961 58.2449 3.99961H21.7449C20.7499 3.99961 19.9449 4.80461 19.9449 5.79961V17.6996C19.9449 18.3646 19.4099 18.8996 18.7449 18.8996ZM18.7449 49.4446C18.0799 49.4446 17.5449 48.9096 17.5449 48.2446V27.2946C17.5449 26.6296 18.0799 26.0946 18.7449 26.0946C19.4099 26.0946 19.9449 26.6296 19.9449 27.2946V48.2446C19.9449 48.9046 19.4099 49.4446 18.7449 49.4446Z" fill="#04A391"/>
<path d="M58.2449 78.3997H21.7449C19.4299 78.3997 17.5449 76.5147 17.5449 74.1997V60.1897C17.5449 59.5247 18.0799 58.9897 18.7449 58.9897C19.4099 58.9897 19.9449 59.5247 19.9449 60.1897V74.1997C19.9449 75.1947 20.7499 75.9997 21.7449 75.9997H58.2449C59.2399 75.9997 60.0449 75.1947 60.0449 74.1997V66.3497C60.0449 65.6847 60.5799 65.1497 61.2449 65.1497C61.9099 65.1497 62.4449 65.6847 62.4449 66.3497V74.1997C62.4449 76.5147 60.5599 78.3997 58.2449 78.3997ZM61.2449 45.9697C60.5799 45.9697 60.0449 45.4347 60.0449 44.7697V32.2547C60.0449 31.5897 60.5799 31.0547 61.2449 31.0547C61.9099 31.0547 62.4449 31.5897 62.4449 32.2547V44.7697C62.4449 45.4297 61.9099 45.9697 61.2449 45.9697Z" fill="#04A391"/>
<path d="M61.243 67.5503H18.743C18.078 67.5503 17.543 67.0153 17.543 66.3503V60.1903C17.543 59.5253 18.078 58.9903 18.743 58.9903C19.408 58.9903 19.943 59.5253 19.943 60.1903V65.1503H60.043V61.0153C60.043 60.3503 60.578 59.8153 61.243 59.8153C61.908 59.8153 62.443 60.3503 62.443 61.0153V66.3503C62.443 67.0153 61.908 67.5503 61.243 67.5503ZM18.743 49.4453C18.078 49.4453 17.543 48.9103 17.543 48.2453V27.2953C17.543 26.6303 18.078 26.0953 18.743 26.0953C19.408 26.0953 19.943 26.6303 19.943 27.2953V48.2453C19.943 48.9053 19.408 49.4453 18.743 49.4453ZM18.743 18.9003C18.078 18.9003 17.543 18.3653 17.543 17.7003V11.3953C17.543 10.7303 18.078 10.1953 18.743 10.1953H61.243C61.908 10.1953 62.443 10.7303 62.443 11.3953V15.9853C62.443 16.6503 61.908 17.1853 61.243 17.1853C60.578 17.1853 60.043 16.6503 60.043 15.9853V12.5953H19.943V17.7003C19.943 18.3653 19.408 18.9003 18.743 18.9003ZM32.198 43.1503C31.443 43.1503 30.753 42.6403 30.553 41.8753L29.168 36.5453C29.053 36.1053 29.118 35.6453 29.348 35.2553C29.578 34.8653 29.948 34.5853 30.388 34.4703L40.943 31.7303C41.253 31.6503 41.578 31.6953 41.853 31.8553C42.128 32.0153 42.328 32.2803 42.408 32.5903L44.043 38.8903C44.208 39.5303 43.823 40.1853 43.183 40.3553L32.628 43.0953C32.483 43.1353 32.338 43.1503 32.198 43.1503ZM31.668 36.6203L32.698 40.5953L41.413 38.3353L40.383 34.3603L31.668 36.6203Z" fill="#04A391"/>
<path d="M28.4541 42.694C27.9041 42.694 27.3641 42.549 26.8791 42.264C26.1591 41.844 25.6491 41.164 25.4391 40.359C25.2291 39.554 25.3491 38.714 25.7691 37.994C26.1891 37.274 26.8691 36.764 27.6741 36.554L30.2391 35.889C30.5491 35.809 30.8741 35.854 31.1491 36.014C31.4241 36.174 31.6241 36.439 31.7041 36.749L32.6691 40.464C32.8341 41.104 32.4491 41.759 31.8091 41.929L29.2441 42.594C28.9841 42.659 28.7191 42.694 28.4541 42.694ZM29.6841 38.519L28.2841 38.884C28.0991 38.934 27.9441 39.049 27.8441 39.214C27.7441 39.379 27.7191 39.574 27.7691 39.759C27.8191 39.944 27.9341 40.099 28.0991 40.199C28.2641 40.299 28.4591 40.324 28.6441 40.274L30.0441 39.909L29.6841 38.519ZM50.1591 41.519C50.0991 41.519 50.0391 41.514 49.9741 41.504L42.6941 40.384C42.2191 40.309 41.8341 39.964 41.7141 39.499L40.0791 33.199C39.9591 32.734 40.1241 32.244 40.5041 31.949L46.3191 27.429C46.8441 27.024 47.5941 27.119 48.0041 27.639C48.4091 28.164 48.3141 28.914 47.7941 29.324L42.6041 33.359L43.8441 38.129L50.3441 39.129C50.9991 39.229 51.4491 39.844 51.3491 40.499C51.2541 41.094 50.7441 41.519 50.1591 41.519Z" fill="#04A391"/>
<path d="M50.7433 43.7752C50.2083 43.7752 49.7233 43.4152 49.5833 42.8752L45.3133 26.4202C45.1483 25.7802 45.5333 25.1252 46.1733 24.9552C46.8133 24.7902 47.4683 25.1752 47.6383 25.8152L51.9083 42.2702C52.0733 42.9102 51.6883 43.5652 51.0483 43.7352C50.9433 43.7652 50.8433 43.7752 50.7433 43.7752ZM38.0033 50.5802C36.6033 50.5802 35.3233 49.6402 34.9533 48.2252L33.2583 41.6952C33.1783 41.3852 33.2233 41.0602 33.3833 40.7852C33.5433 40.5102 33.8083 40.3102 34.1183 40.2302L37.8883 39.2502C38.5283 39.0852 39.1833 39.4702 39.3533 40.1102L41.0483 46.6452C41.4833 48.3252 40.4733 50.0452 38.7933 50.4852C38.5283 50.5502 38.2633 50.5802 38.0033 50.5802ZM35.8833 42.2502L37.2783 47.6202C37.3833 48.0202 37.7933 48.2602 38.1883 48.1552C38.5883 48.0502 38.8283 47.6452 38.7233 47.2452L37.3283 41.8752L35.8833 42.2502ZM24.1183 28.5002H24.1133L13.3083 28.4802C11.8183 28.4752 10.6133 27.2652 10.6133 25.7752L10.6283 19.1852C10.6283 18.4652 10.9133 17.7852 11.4233 17.2752C11.9333 16.7652 12.6083 16.4902 13.3283 16.4902H13.3333L24.1383 16.5102C24.8583 16.5102 25.5383 16.7952 26.0483 17.3052C26.5583 17.8152 26.8383 18.4952 26.8333 19.2152L26.8183 25.8052C26.8183 26.5252 26.5333 27.2052 26.0233 27.7152C25.5133 28.2252 24.8383 28.5002 24.1183 28.5002ZM13.3233 18.8902C13.2183 18.8902 13.1533 18.9402 13.1133 18.9802C13.0733 19.0202 13.0233 19.0902 13.0233 19.1902L13.0083 25.7802C13.0083 25.9452 13.1433 26.0802 13.3083 26.0802L24.1133 26.1002C24.2133 26.1002 24.2833 26.0552 24.3233 26.0152C24.3633 25.9752 24.4133 25.9052 24.4133 25.8052L24.4283 19.2152C24.4283 19.1102 24.3783 19.0452 24.3383 19.0002C24.2983 18.9602 24.2283 18.9102 24.1283 18.9102L13.3233 18.8902Z" fill="#04A391"/>
<path d="M18.7245 24.3344C18.0945 24.3344 17.4695 24.1144 16.9545 23.6744L11.5245 19.0094C11.0195 18.5794 10.9645 17.8194 11.3945 17.3194C11.8245 16.8144 12.5845 16.7594 13.0845 17.1894L18.5145 21.8544C18.6345 21.9544 18.8045 21.9544 18.9245 21.8544L24.3745 17.2094C24.8795 16.7794 25.6345 16.8394 26.0645 17.3444C26.4945 17.8494 26.4345 18.6044 25.9295 19.0344L20.4795 23.6794C19.9745 24.1144 19.3495 24.3344 18.7245 24.3344ZM60.7595 62.2294C55.6095 62.2294 51.4195 58.0394 51.4195 52.8894C51.4195 47.7394 55.6095 43.5494 60.7595 43.5494C65.9095 43.5494 70.0995 47.7394 70.0995 52.8894C70.0995 58.0394 65.9095 62.2294 60.7595 62.2294ZM60.7595 45.9544C56.9345 45.9544 53.8195 49.0644 53.8195 52.8944C53.8195 56.7244 56.9295 59.8344 60.7595 59.8344C64.5895 59.8344 67.6995 56.7244 67.6995 52.8944C67.6995 49.0644 64.5845 45.9544 60.7595 45.9544Z" fill="#04A391"/>
<path d="M59.0341 57.4845C58.8391 57.4845 58.6441 57.4345 58.4641 57.3395C58.2735 57.2371 58.1142 57.0849 58.0033 56.8991C57.8923 56.7133 57.8339 56.5009 57.8341 56.2845V49.4995C57.8341 49.0595 58.0741 48.6545 58.4641 48.4445C58.8541 48.2345 59.3241 48.2545 59.6941 48.4995L64.8541 51.8895C65.1941 52.1095 65.3941 52.4895 65.3941 52.8945C65.3941 53.2995 65.1891 53.6745 64.8541 53.8995L59.6941 57.2895C59.4941 57.4145 59.2641 57.4845 59.0341 57.4845ZM60.2341 51.7245V54.0595L62.0091 52.8945L60.2341 51.7245ZM13.1191 65.1845C12.9291 65.1845 12.7341 65.1395 12.5591 65.0445C12.1691 64.8395 11.9241 64.4295 11.9191 63.9895L11.9091 60.9795L10.6591 60.9845H10.6541C9.99406 60.9845 9.45406 60.4495 9.45406 59.7895L9.41406 48.2795C9.41406 47.9595 9.53906 47.6545 9.76406 47.4295C9.98906 47.2045 10.2941 47.0745 10.6091 47.0745L26.8641 47.0195H26.8691C27.1841 47.0195 27.4891 47.1445 27.7141 47.3695C27.9391 47.5945 28.0691 47.8995 28.0691 48.2145L28.1091 59.7245C28.1091 60.3895 27.5741 60.9245 26.9141 60.9295L19.7641 60.9545L13.7941 64.9795C13.5891 65.1145 13.3541 65.1845 13.1191 65.1845ZM13.1041 58.5745C13.4191 58.5745 13.7241 58.6995 13.9491 58.9245C14.1741 59.1495 14.3041 59.4545 14.3041 59.7695L14.3091 61.7295L18.7191 58.7545C18.9141 58.6195 19.1491 58.5495 19.3841 58.5495L25.6991 58.5295L25.6691 49.4195L11.8141 49.4645L11.8441 58.5745H13.1041Z" fill="#04A391"/>
<path d="M14.8055 53.3846C14.1455 53.3846 13.6055 52.8496 13.6055 52.1896C13.6055 51.5246 14.1405 50.9896 14.8005 50.9846L22.7105 50.9596H22.7155C23.3755 50.9596 23.9155 51.4946 23.9155 52.1546C23.9155 52.8196 23.3805 53.3546 22.7205 53.3596L14.8055 53.3846ZM14.8155 57.0446C14.1555 57.0446 13.6155 56.5096 13.6155 55.8496C13.6155 55.1846 14.1505 54.6496 14.8105 54.6446L22.7205 54.6196H22.7255C23.3855 54.6196 23.9255 55.1546 23.9255 55.8146C23.9255 56.4796 23.3905 57.0146 22.7305 57.0196L14.8155 57.0446ZM61.2855 29.3796C61.1205 29.3796 60.9555 29.3446 60.8055 29.2796C59.3355 28.6346 58.0205 27.4346 57.1055 25.8996C56.7505 25.3046 56.5205 24.7496 56.4005 24.2046C56.2355 23.4646 56.2805 22.7346 56.5205 22.0896C56.8055 21.3296 57.3805 20.6896 58.1055 20.3196C59.0855 19.8246 60.2605 19.8696 61.2105 20.3796C62.1505 19.8496 63.3255 19.7796 64.3155 20.2596C65.0455 20.6096 65.6355 21.2446 65.9305 21.9946C66.1855 22.6346 66.2405 23.3646 66.0905 24.1096C65.9805 24.6596 65.7605 25.2146 65.4205 25.8146C64.5355 27.3696 63.2505 28.5946 61.7905 29.2696C61.6305 29.3446 61.4605 29.3796 61.2855 29.3796ZM59.5855 22.3696C59.4455 22.3696 59.3105 22.3996 59.1905 22.4596C59.0005 22.5546 58.8455 22.7296 58.7705 22.9296C58.6955 23.1346 58.6855 23.4046 58.7455 23.6846C58.8105 23.9746 58.9455 24.2996 59.1655 24.6696C59.7055 25.5796 60.4555 26.3446 61.2705 26.8246C62.0755 26.3246 62.8055 25.5496 63.3305 24.6296C63.5455 24.2546 63.6755 23.9296 63.7355 23.6396C63.7905 23.3546 63.7805 23.0896 63.6955 22.8846C63.6155 22.6896 63.4555 22.5146 63.2655 22.4246C62.9055 22.2496 62.4055 22.3596 62.1355 22.6796C61.9105 22.9446 61.5805 23.0996 61.2355 23.0996C60.8905 23.1046 60.5555 22.9546 60.3255 22.6946C60.1405 22.4846 59.8605 22.3696 59.5855 22.3696Z" fill="#04A391"/>
<path d="M61.2452 33.4552C56.0952 33.4552 51.9102 29.2652 51.9102 24.1202C51.9102 18.9752 56.1002 14.7852 61.2452 14.7852C66.3902 14.7852 70.5802 18.9752 70.5802 24.1202C70.5852 29.2702 66.3952 33.4552 61.2452 33.4552ZM61.2452 17.1852C57.4202 17.1852 54.3102 20.2952 54.3102 24.1202C54.3102 27.9452 57.4202 31.0552 61.2452 31.0552C65.0702 31.0552 68.1802 27.9452 68.1802 24.1202C68.1852 20.2952 65.0702 17.1852 61.2452 17.1852Z" fill="#04A391"/>
</svg>
