<svg width="80" height="80" viewBox="0 0 80 80" fill="none" xmlns="http://www.w3.org/2000/svg">
<g clip-path="url(#clip0_1082_29667)">
<path d="M7.00627 23.2859C6.93438 23.4103 6.8387 23.5193 6.72468 23.6067C6.61067 23.6941 6.48055 23.7582 6.34176 23.7953C6.20298 23.8324 6.05824 23.8418 5.91583 23.8229C5.77341 23.8041 5.6361 23.7574 5.51174 23.6855L0.547209 20.8156C0.420547 20.7449 0.309203 20.6498 0.219659 20.5357C0.130115 20.4216 0.0641581 20.2908 0.0256278 20.151C-0.0129025 20.0112 -0.023237 19.8651 -0.0047742 19.7212C0.0136886 19.5774 0.0605798 19.4386 0.133171 19.313C0.205761 19.1875 0.302602 19.0776 0.418056 18.9898C0.53351 18.902 0.665272 18.8381 0.805674 18.8017C0.946075 18.7653 1.09231 18.7572 1.23587 18.7779C1.37943 18.7985 1.51745 18.8475 1.6419 18.922L6.60674 21.7919C6.85781 21.937 7.04094 22.176 7.11587 22.4562C7.19079 22.7363 7.15137 23.0348 7.00627 23.2859ZM43.7297 13.5923C43.8541 13.6642 43.9914 13.7108 44.1339 13.7295C44.2763 13.7482 44.421 13.7387 44.5598 13.7015C44.6985 13.6643 44.8286 13.6002 44.9426 13.5127C45.0565 13.4252 45.1521 13.3161 45.2239 13.1917L48.1912 8.04984C48.3363 7.79855 48.3756 7.49993 48.3004 7.21968C48.2253 6.93943 48.0419 6.70051 47.7906 6.55547C47.5393 6.41043 47.2407 6.37115 46.9605 6.44628C46.6802 6.52141 46.4413 6.7048 46.2962 6.95609L43.3284 12.098C43.2566 12.2224 43.21 12.3598 43.1913 12.5023C43.1726 12.6448 43.1822 12.7895 43.2194 12.9283C43.2567 13.0671 43.3209 13.1971 43.4085 13.3111C43.496 13.425 43.6052 13.5206 43.7297 13.5923ZM30.3519 10.0895C30.642 10.0895 30.9202 9.97429 31.1253 9.76917C31.3304 9.56406 31.4456 9.28586 31.4456 8.99578V2.97656C31.4456 2.68648 31.3304 2.40828 31.1253 2.20316C30.9202 1.99805 30.642 1.88281 30.3519 1.88281C30.0618 1.88281 29.7836 1.99805 29.5785 2.20316C29.3734 2.40828 29.2581 2.68648 29.2581 2.97656V8.99546C29.2581 9.13912 29.2864 9.28138 29.3413 9.41412C29.3962 9.54686 29.4768 9.66747 29.5784 9.76906C29.6799 9.87066 29.8005 9.95125 29.9332 10.0062C30.066 10.0612 30.2082 10.0895 30.3519 10.0895ZM15.4847 13.1962C15.5565 13.3207 15.6521 13.4297 15.7661 13.5171C15.8801 13.6046 16.0101 13.6688 16.1489 13.7059C16.2876 13.7431 16.4323 13.7526 16.5748 13.7339C16.7172 13.7151 16.8545 13.6685 16.9789 13.5967C17.1033 13.5249 17.2124 13.4293 17.2998 13.3153C17.3873 13.2014 17.4514 13.0713 17.4886 12.9325C17.5258 12.7938 17.5353 12.6491 17.5166 12.5067C17.4978 12.3642 17.4512 12.2269 17.3794 12.1025L14.4074 6.95593C14.2623 6.70468 14.0234 6.52134 13.7432 6.44624C13.463 6.37113 13.1644 6.41043 12.9131 6.55547C12.6619 6.70051 12.4785 6.93941 12.4034 7.21964C12.3283 7.49986 12.3676 7.79843 12.5127 8.04968L15.4847 13.1962ZM51.1147 37.8012H49.6097C49.3196 37.8012 49.0414 37.9165 48.8363 38.1216C48.6312 38.3267 48.5159 38.6049 48.5159 38.895C48.5159 39.1851 48.6312 39.4633 48.8363 39.6684C49.0414 39.8735 49.3196 39.9887 49.6097 39.9887H51.1155C51.4055 39.9887 51.6837 39.8735 51.8889 39.6684C52.094 39.4633 52.2092 39.1851 52.2092 38.895C52.2092 38.6049 52.094 38.3267 51.8889 38.1216C51.6837 37.9165 51.4055 37.8012 51.1155 37.8012H51.1147ZM80.0003 34.0454C80.0003 44.1367 72.8862 52.5965 63.4094 54.679V73.5782C63.4023 74.7776 62.9209 75.9254 62.0704 76.771C61.2198 77.6166 60.0691 78.0913 58.8698 78.0913C57.6704 78.0913 56.5197 77.6166 55.6691 76.771C54.8186 75.9254 54.3372 74.7776 54.3301 73.5782V54.679C51.6402 54.0868 49.0928 52.9719 46.8325 51.3978C46.3611 51.9893 45.8853 52.5697 45.4198 53.1354C43.5033 55.4662 41.6834 57.6823 40.5473 60.2917C41.1168 60.6445 41.5791 61.1461 41.8842 61.7425C42.1893 62.3388 42.3258 63.0072 42.2787 63.6755C42.2317 64.3437 42.003 64.9864 41.6174 65.5341C41.2317 66.0819 40.7037 66.5138 40.0905 66.7834C40.4059 67.3428 40.5693 67.9752 40.5642 68.6175C40.5591 69.2597 40.3857 69.8894 40.0613 70.4438C39.737 70.9981 39.273 71.4578 38.7156 71.7769C38.1583 72.0961 37.527 72.2635 36.8847 72.2626H35.2503V73.2189C35.254 73.8642 35.13 74.5038 34.8856 75.101C34.6412 75.6983 34.2811 76.2413 33.8261 76.6989C33.3711 77.1565 32.8301 77.5196 32.2342 77.7674C31.6384 78.0152 30.9995 78.1428 30.3541 78.1428C29.7088 78.1428 29.0699 78.0152 28.474 77.7674C27.8782 77.5196 27.3372 77.1565 26.8822 76.6989C26.4272 76.2413 26.0671 75.6983 25.8227 75.101C25.5783 74.5038 25.4543 73.8642 25.458 73.2189V72.2626H23.8238C23.1814 72.2637 22.5499 72.0963 21.9924 71.7772C21.4348 71.4581 20.9707 70.9984 20.6463 70.4439C20.3219 69.8895 20.1485 69.2597 20.1434 68.6173C20.1384 67.9749 20.3018 67.3424 20.6175 66.7829C20.0032 66.5141 19.4742 66.0823 19.0877 65.5344C18.7013 64.9864 18.4721 64.3432 18.425 63.6743C18.3779 63.0055 18.5147 62.3364 18.8206 61.7397C19.1265 61.1431 19.5898 60.6414 20.1603 60.2892C19.0253 57.6848 17.2072 55.4692 15.2917 53.1398C11.8174 48.9137 7.87971 44.1242 7.87971 36.1314C7.87971 23.7408 17.9606 13.6591 30.3519 13.6591C35.4774 13.6565 40.4495 15.4084 44.4412 18.6236C48.3485 14.953 53.5089 12.9114 58.8698 12.9151C70.5212 12.9151 80.0003 22.3942 80.0003 34.0454ZM22.3022 59.7376H26.1667V39.4356H23.8769C22.9919 39.4352 22.1269 39.1724 21.3913 38.6804C20.6556 38.1885 20.0823 37.4895 19.7439 36.6718C19.4054 35.8542 19.317 34.9545 19.4897 34.0865C19.6624 33.2186 20.0886 32.4213 20.7144 31.7956C21.3401 31.1698 22.1374 30.7436 23.0053 30.5708C23.8733 30.398 24.7729 30.4864 25.5906 30.8249C26.4083 31.1633 27.1073 31.7366 27.5993 32.4722C28.0913 33.2079 28.3541 34.0728 28.3545 34.9578V37.2476H32.3545V34.9578C32.3536 34.2688 32.512 33.589 32.8174 32.9715C33.1228 32.3539 33.5669 31.8154 34.115 31.3979C34.6631 30.9805 35.3003 30.6955 35.9768 30.5653C36.6533 30.435 37.3508 30.463 38.0147 30.647C38.6451 26.7785 40.3423 23.1627 42.9156 20.2062C39.9251 17.8468 36.3306 16.3771 32.5437 15.9654C28.7567 15.5537 24.9304 16.2167 21.5027 17.8785C18.0751 19.5403 15.1846 22.1337 13.1622 25.3617C11.1399 28.5898 10.0674 32.3221 10.0675 36.1314C10.0675 43.3401 13.5831 47.6157 16.9817 51.7504C18.9847 54.1862 21.0472 56.6998 22.3022 59.7376ZM37.7397 34.0454C37.7397 33.6533 37.7514 33.2642 37.7725 32.8765C37.4243 32.7187 37.0422 32.6507 36.6609 32.6788C36.2797 32.7068 35.9116 32.83 35.5902 33.037C35.2689 33.244 35.0046 33.5283 34.8214 33.8639C34.6383 34.1994 34.5423 34.5755 34.542 34.9578V37.2476H36.8317C37.2204 37.2473 37.6025 37.1467 37.9411 36.9558C37.8072 35.9914 37.7398 35.019 37.7394 34.0454H37.7397ZM28.3548 39.4361V59.7376H32.3548V39.4356L28.3548 39.4361ZM23.8769 32.672C23.2702 32.672 22.6884 32.913 22.2594 33.342C21.8304 33.771 21.5894 34.3528 21.5894 34.9595C21.5894 35.5662 21.8304 36.148 22.2594 36.577C22.6884 37.006 23.2702 37.247 23.8769 37.247H26.1667V34.9578C26.1656 34.3512 25.9239 33.7698 25.4946 33.3413C25.0653 32.9128 24.4835 32.6721 23.8769 32.672ZM33.0628 72.2626H27.6458V73.2189C27.6431 73.5763 27.7111 73.9307 27.846 74.2616C27.9809 74.5926 28.18 74.8936 28.4317 75.1473C28.6835 75.401 28.983 75.6023 29.3129 75.7397C29.6429 75.8771 29.9967 75.9479 30.3541 75.9479C30.7116 75.9479 31.0654 75.8771 31.3954 75.7397C31.7253 75.6023 32.0248 75.401 32.2766 75.1473C32.5283 74.8936 32.7274 74.5926 32.8623 74.2616C32.9972 73.9307 33.0652 73.5763 33.0625 73.2189L33.0628 72.2626ZM38.3775 68.5865C38.377 68.1908 38.2196 67.8115 37.9398 67.5318C37.66 67.252 37.2807 67.0946 36.885 67.0942H23.8238C23.6268 67.0922 23.4313 67.1292 23.2488 67.2032C23.0662 67.2772 22.9001 67.3866 22.7601 67.5252C22.6201 67.6638 22.5089 67.8288 22.4331 68.0106C22.3572 68.1924 22.3182 68.3874 22.3182 68.5844C22.3182 68.7814 22.3572 68.9764 22.4331 69.1582C22.5089 69.3401 22.6201 69.505 22.7601 69.6436C22.9001 69.7822 23.0662 69.8916 23.2488 69.9656C23.4313 70.0396 23.6268 70.0767 23.8238 70.0746H36.8847C37.2798 70.0748 37.6588 69.9182 37.9386 69.6392C38.2184 69.3602 38.3762 68.9816 38.3772 68.5865H38.3775ZM40.1003 63.4136C40.0998 63.019 39.9429 62.6408 39.6639 62.3619C39.3849 62.0829 39.0067 61.926 38.6122 61.9256H22.0966C21.7013 61.9256 21.3223 62.0826 21.0428 62.3621C20.7633 62.6416 20.6063 63.0206 20.6063 63.4159C20.6063 63.8111 20.7633 64.1902 21.0428 64.4697C21.3223 64.7492 21.7013 64.9062 22.0966 64.9062H38.6122C39.0073 64.9051 39.3858 64.7473 39.6647 64.4675C39.9436 64.1877 40.1002 63.8086 40.1 63.4136H40.1003ZM45.103 50.057C41.7858 47.2088 39.4326 43.4027 38.3672 39.1623C37.8754 39.343 37.3556 39.4355 36.8317 39.4356H34.5417V59.7376H38.4066C39.6623 56.6961 41.7269 54.1817 43.7306 51.745C44.1834 51.1934 44.6466 50.6287 45.1026 50.057H45.103ZM61.2217 55.04C59.6589 55.2154 58.0814 55.2154 56.5186 55.04V73.5782C56.5257 74.1972 56.7766 74.7884 57.2168 75.2236C57.6571 75.6588 58.2511 75.9028 58.8701 75.9028C59.4892 75.9028 60.0832 75.6588 60.5234 75.2236C60.9637 74.7884 61.2146 74.1972 61.2217 73.5782V55.04ZM77.8128 34.0454C77.8138 30.2988 76.7037 26.6359 74.6228 23.5202C72.542 20.4045 69.5839 17.9758 66.1227 16.5413C62.6615 15.1068 58.8527 14.731 55.1779 15.4613C51.5031 16.1917 48.1274 17.9954 45.4777 20.6443C42.8281 23.2933 41.0235 26.6685 40.2922 30.3431C39.5608 34.0177 39.9357 37.8267 41.3692 41.2883C42.8028 44.7498 45.2307 47.7085 48.3459 49.7902C51.4611 51.8718 55.1236 52.9829 58.8703 52.9829C63.8916 52.9773 68.7056 50.9804 72.2566 47.4303C75.8077 43.8802 77.8058 39.0667 77.8128 34.0454ZM51.1152 32.9517H49.6097C49.3196 32.9517 49.0414 33.0669 48.8363 33.272C48.6312 33.4772 48.5159 33.7554 48.5159 34.0454C48.5159 34.3355 48.6312 34.6137 48.8363 34.8188C49.0414 35.024 49.3196 35.1392 49.6097 35.1392H51.1155C51.4055 35.1392 51.6837 35.024 51.8889 34.8188C52.094 34.6137 52.2092 34.3355 52.2092 34.0454C52.2092 33.7554 52.094 33.4772 51.8889 33.272C51.6837 33.0669 51.4055 32.9517 51.1155 32.9517H51.1152ZM51.1152 28.0975H49.6097C49.3196 28.0975 49.0414 28.2127 48.8363 28.4178C48.6312 28.623 48.5159 28.9012 48.5159 29.1912C48.5159 29.4813 48.6312 29.7595 48.8363 29.9646C49.0414 30.1697 49.3196 30.285 49.6097 30.285H51.1155C51.4055 30.285 51.6837 30.1697 51.8889 29.9646C52.094 29.7595 52.2092 29.4813 52.2092 29.1912C52.2092 28.9012 52.094 28.623 51.8889 28.4178C51.6837 28.2127 51.4055 28.0975 51.1155 28.0975H51.1152ZM54.1401 30.285H68.1311C68.4212 30.285 68.6994 30.1697 68.9045 29.9646C69.1096 29.7595 69.2248 29.4813 69.2248 29.1912C69.2248 28.9012 69.1096 28.623 68.9045 28.4178C68.6994 28.2127 68.4212 28.0975 68.1311 28.0975H54.1397C53.8496 28.0975 53.5714 28.2127 53.3663 28.4178C53.1612 28.623 53.0459 28.9012 53.0459 29.1912C53.0459 29.4813 53.1612 29.7595 53.3663 29.9646C53.5714 30.1697 53.8496 30.285 54.1397 30.285H54.1401ZM75.6953 34.0454C75.6949 37.3738 74.7076 40.6273 72.8582 43.3945C71.0088 46.1617 68.3803 48.3183 65.3052 49.5916C62.2301 50.865 58.8464 51.1978 55.5821 50.5481C52.3178 49.8984 49.3195 48.2952 46.9664 45.9415C44.6132 43.5877 43.0108 40.5889 42.362 37.3245C41.7131 34.06 42.0468 30.6764 43.3209 27.6017C44.5951 24.5269 46.7524 21.899 49.5201 20.0503C52.2878 18.2016 55.5415 17.2151 58.8698 17.2156C63.3314 17.2207 67.6088 18.9956 70.7632 22.1508C73.9176 25.306 75.6914 29.5838 75.6953 34.0454ZM73.5078 34.0454C73.5082 31.1498 72.6499 28.319 71.0414 25.9112C69.4329 23.5033 67.1465 21.6265 64.4714 20.5182C61.7962 19.4099 58.8524 19.1198 56.0123 19.6846C53.1723 20.2495 50.5635 21.6438 48.516 23.6914C46.4684 25.739 45.0741 28.3477 44.5093 31.1878C43.9445 34.0279 44.2346 36.9716 45.343 39.6468C46.4513 42.322 48.3281 44.6084 50.736 46.2168C53.1438 47.8253 55.9746 48.6836 58.8703 48.6831C62.7508 48.678 66.471 47.1342 69.2148 44.3902C71.9587 41.6462 73.5024 37.926 73.5073 34.0454H73.5078ZM68.1311 32.9517H54.1397C53.8496 32.9517 53.5714 33.0669 53.3663 33.272C53.1612 33.4772 53.0459 33.7554 53.0459 34.0454C53.0459 34.3355 53.1612 34.6137 53.3663 34.8188C53.5714 35.024 53.8496 35.1392 54.1397 35.1392H68.1306C68.4207 35.1392 68.6989 35.024 68.904 34.8188C69.1091 34.6137 69.2244 34.3355 69.2244 34.0454C69.2244 33.7554 69.1091 33.4772 68.904 33.272C68.6989 33.0669 68.4207 32.9517 68.1306 32.9517H68.1311ZM68.1311 37.8014H54.1397C53.8496 37.8014 53.5714 37.9166 53.3663 38.1217C53.1612 38.3269 53.0459 38.605 53.0459 38.8951C53.0459 39.1852 53.1612 39.4634 53.3663 39.6685C53.5714 39.8736 53.8496 39.9889 54.1397 39.9889H68.1306C68.4207 39.9889 68.6989 39.8736 68.904 39.6685C69.1091 39.4634 69.2244 39.1852 69.2244 38.8951C69.2244 38.605 69.1091 38.3269 68.904 38.1217C68.6989 37.9166 68.4207 37.8014 68.1306 37.8014H68.1311Z" fill="#858585"/>
</g>
<defs>
<clipPath id="clip0_1082_29667">
<rect width="80" height="80" fill="white"/>
</clipPath>
</defs>
</svg>
