<svg width="80" height="80" viewBox="0 0 80 80" fill="none" xmlns="http://www.w3.org/2000/svg">
<g clip-path="url(#clip0_1075_29540)">
<path d="M41.25 65.1125V61.2125C41.0831 61.2275 40.9188 61.25 40.7475 61.25H39.2525C39.0819 61.25 38.9169 61.2275 38.75 61.2125V65.1125C36.8958 65.4259 35.2269 66.4245 34.0742 67.9103C32.9215 69.3962 32.369 71.2608 32.5263 73.1348C32.6835 75.0088 33.5391 76.7553 34.9233 78.0282C36.3075 79.3011 38.1195 80.0076 40 80.0076C41.8806 80.0076 43.6925 79.3011 45.0767 78.0282C46.461 76.7553 47.3165 75.0088 47.4737 73.1348C47.631 71.2608 47.0785 69.3962 45.9258 67.9103C44.7731 66.4245 43.1042 65.4259 41.25 65.1125ZM40 77.5C39.0111 77.5 38.0444 77.2068 37.2222 76.6573C36.3999 76.1079 35.759 75.327 35.3806 74.4134C35.0022 73.4998 34.9031 72.4945 35.0961 71.5246C35.289 70.5546 35.7652 69.6637 36.4645 68.9645C37.1637 68.2652 38.0546 67.789 39.0246 67.5961C39.9945 67.4031 40.9998 67.5022 41.9134 67.8806C42.8271 68.259 43.6079 68.8999 44.1574 69.7221C44.7068 70.5444 45 71.5111 45 72.5C44.9983 73.8256 44.471 75.0964 43.5337 76.0337C42.5964 76.971 41.3256 77.4983 40 77.5ZM68.75 65.1125V52.4925C68.7464 50.1737 67.8231 47.951 66.1827 46.312C64.5423 44.673 62.3188 43.7517 60 43.75H57.5V44.4981C57.4987 45.0933 57.4033 45.6846 57.2175 46.25H60C61.6559 46.2508 63.2439 46.9085 64.4156 48.0786C65.5873 49.2488 66.247 50.8359 66.25 52.4919V65.1131C64.3958 65.4266 62.7269 66.4251 61.5742 67.911C60.4215 69.3968 59.869 71.2615 60.0263 73.1354C60.1835 75.0094 61.0391 76.7559 62.4233 78.0288C63.8075 79.3018 65.6195 80.0082 67.5 80.0082C69.3806 80.0082 71.1925 79.3018 72.5767 78.0288C73.961 76.7559 74.8165 75.0094 74.9737 73.1354C75.131 71.2615 74.5785 69.3968 73.4258 67.911C72.2731 66.4251 70.6043 65.4259 68.75 65.1125ZM67.5 77.5C66.5111 77.5 65.5444 77.2068 64.7222 76.6573C63.8999 76.1079 63.259 75.327 62.8806 74.4134C62.5022 73.4998 62.4032 72.4945 62.5961 71.5246C62.789 70.5546 63.2652 69.6637 63.9645 68.9645C64.6637 68.2652 65.5546 67.789 66.5246 67.5961C67.4945 67.4031 68.4998 67.5022 69.4134 67.8806C70.3271 68.259 71.1079 68.8999 71.6574 69.7221C72.2068 70.5444 72.5 71.5111 72.5 72.5C72.4984 73.8256 71.971 75.0964 71.0337 76.0337C70.0964 76.971 68.8256 77.4983 67.5 77.5ZM28.75 22.5H38.75V26.2875C38.9169 26.2725 39.0813 26.25 39.2525 26.25H40.7475C40.9181 26.25 41.0831 26.2725 41.25 26.2875V22.5H50C52.9837 22.5 55.8452 21.3147 57.955 19.205C60.0647 17.0952 61.25 14.2337 61.25 11.25C61.25 8.26631 60.0647 5.40483 57.955 3.29505C55.8452 1.18526 52.9837 0 50 0L28.75 0C25.7663 0 22.9048 1.18526 20.795 3.29505C18.6853 5.40483 17.5 8.26631 17.5 11.25C17.5 14.2337 18.6853 17.0952 20.795 19.205C22.9048 21.3147 25.7663 22.5 28.75 22.5ZM28.75 2.5H50C52.3206 2.5 54.5462 3.42187 56.1872 5.06282C57.8281 6.70376 58.75 8.92936 58.75 11.25C58.75 13.5706 57.8281 15.7962 56.1872 17.4372C54.5462 19.0781 52.3206 20 50 20H28.75C26.4294 20 24.2038 19.0781 22.5628 17.4372C20.9219 15.7962 20 13.5706 20 11.25C20 8.92936 20.9219 6.70376 22.5628 5.06282C24.2038 3.42187 26.4294 2.5 28.75 2.5Z" fill="#04A391"/>
<path d="M27.5 17.5H32.5C32.8315 17.5 33.1495 17.3683 33.3839 17.1339C33.6183 16.8995 33.75 16.5815 33.75 16.25C33.75 15.9185 33.6183 15.6005 33.3839 15.3661C33.1495 15.1317 32.8315 15 32.5 15H28.75V12.5H32.5C32.8315 12.5 33.1495 12.3683 33.3839 12.1339C33.6183 11.8995 33.75 11.5815 33.75 11.25C33.75 10.9185 33.6183 10.6005 33.3839 10.3661C33.1495 10.1317 32.8315 10 32.5 10H28.75V7.5H32.5C32.8315 7.5 33.1495 7.3683 33.3839 7.13388C33.6183 6.89946 33.75 6.58152 33.75 6.25C33.75 5.91848 33.6183 5.60054 33.3839 5.36612C33.1495 5.1317 32.8315 5 32.5 5H27.5C27.1685 5 26.8505 5.1317 26.6161 5.36612C26.3817 5.60054 26.25 5.91848 26.25 6.25V16.25C26.25 16.5815 26.3817 16.8995 26.6161 17.1339C26.8505 17.3683 27.1685 17.5 27.5 17.5ZM37.5 17.5C37.8315 17.5 38.1495 17.3683 38.3839 17.1339C38.6183 16.8995 38.75 16.5815 38.75 16.25V14.2675L41.6163 17.1337C41.8527 17.3642 42.1698 17.4932 42.5 17.4932C42.8302 17.4932 43.1473 17.3642 43.3838 17.1337C43.6181 16.8993 43.7497 16.5815 43.7497 16.25C43.7497 15.9185 43.6181 15.6007 43.3838 15.3662L40.4963 12.4787C41.3895 12.3816 42.2155 11.9582 42.8159 11.2898C43.4164 10.6213 43.749 9.75478 43.75 8.85625V8.64375C43.7488 7.67772 43.3646 6.75159 42.6815 6.06851C41.9984 5.38542 41.0723 5.00116 40.1063 5H37.5C37.1685 5 36.8505 5.1317 36.6161 5.36612C36.3817 5.60054 36.25 5.91848 36.25 6.25V16.25C36.25 16.5815 36.3817 16.8995 36.6161 17.1339C36.8505 17.3683 37.1685 17.5 37.5 17.5ZM38.75 7.5H40.1063C40.4094 7.5005 40.7001 7.62116 40.9145 7.83554C41.1288 8.04993 41.2495 8.34056 41.25 8.64375V8.85625C41.2495 9.15944 41.1288 9.45007 40.9145 9.66446C40.7001 9.87884 40.4094 9.9995 40.1063 10H38.75V7.5ZM47.5 17.5C47.8315 17.5 48.1495 17.3683 48.3839 17.1339C48.6183 16.8995 48.75 16.5815 48.75 16.25V12.5H50.1063C51.0723 12.4988 51.9984 12.1146 52.6815 11.4315C53.3646 10.7484 53.7488 9.82228 53.75 8.85625V8.64375C53.7488 7.67772 53.3646 6.75159 52.6815 6.06851C51.9984 5.38542 51.0723 5.00116 50.1063 5H47.5C47.1685 5 46.8505 5.1317 46.6161 5.36612C46.3817 5.60054 46.25 5.91848 46.25 6.25V16.25C46.25 16.5815 46.3817 16.8995 46.6161 17.1339C46.8505 17.3683 47.1685 17.5 47.5 17.5ZM48.75 7.5H50.1063C50.4094 7.5005 50.7001 7.62116 50.9145 7.83554C51.1288 8.04993 51.2495 8.34056 51.25 8.64375V8.85625C51.2495 9.15944 51.1288 9.45007 50.9145 9.66446C50.7001 9.87884 50.4094 9.9995 50.1063 10H48.75V7.5ZM22.5 43.75H20C17.6813 43.7516 15.4579 44.6729 13.8175 46.3118C12.1772 47.9506 11.2538 50.1731 11.25 52.4919V65.1131C9.39577 65.4265 7.72693 66.4251 6.57421 67.911C5.42149 69.3968 4.86902 71.2615 5.02629 73.1354C5.18355 75.0094 6.03907 76.7559 7.4233 78.0288C8.80754 79.3018 10.6195 80.0082 12.5 80.0082C14.3806 80.0082 16.1925 79.3018 17.5767 78.0288C18.961 76.7559 19.8165 75.0094 19.9737 73.1354C20.131 71.2615 19.5785 69.3968 18.4258 67.911C17.2731 66.4251 15.6043 65.4265 13.75 65.1131V52.4919C13.753 50.8359 14.4127 49.2488 15.5844 48.0786C16.7561 46.9085 18.3441 46.2508 20 46.25H22.7825C22.5967 45.6846 22.5014 45.0933 22.5 44.4981V43.75ZM17.5 72.5C17.5 73.4889 17.2068 74.4556 16.6574 75.2778C16.108 76.1001 15.3271 76.741 14.4134 77.1194C13.4998 77.4978 12.4945 77.5968 11.5246 77.4039C10.5547 77.211 9.66374 76.7348 8.96448 76.0355C8.26522 75.3363 7.78901 74.4454 7.59609 73.4754C7.40316 72.5055 7.50218 71.5002 7.88062 70.5866C8.25905 69.6729 8.89992 68.8921 9.72216 68.3426C10.5444 67.7932 11.5111 67.5 12.5 67.5C13.8256 67.5016 15.0964 68.029 16.0337 68.9663C16.971 69.9036 17.4984 71.1744 17.5 72.5ZM51.3313 39.1669C51.3058 39.104 51.2798 39.041 51.2531 38.9781C51.6041 38.6108 51.8751 38.1748 52.0492 37.6975C52.2232 37.2202 52.2965 36.712 52.2644 36.205C52.2034 35.2343 51.7882 34.3198 51.0975 33.635L50.1163 32.6537C49.3751 31.9094 48.3704 31.4873 47.32 31.4787C46.3702 31.4728 45.4558 31.8384 44.7719 32.4975C44.7094 32.4708 44.6465 32.4446 44.5831 32.4187C44.5433 31.4201 44.1138 30.4768 43.3868 29.791C42.6597 29.1053 41.693 28.7316 40.6938 28.75H39.3063C38.3071 28.7317 37.3405 29.1055 36.6136 29.7913C35.8868 30.477 35.4574 31.4202 35.4175 32.4187C35.3542 32.4446 35.2911 32.4708 35.2281 32.4975C34.5443 31.8383 33.6298 31.4727 32.68 31.4787C31.6303 31.487 30.6262 31.9085 29.885 32.6519L28.9019 33.635C28.1577 34.3766 27.7361 35.3819 27.7288 36.4325C27.7236 37.3814 28.0892 38.2948 28.7475 38.9781C28.7208 39.0406 28.6946 39.1035 28.6688 39.1669C27.6702 39.2069 26.727 39.6364 26.0412 40.3634C25.3555 41.0904 24.9817 42.057 25 43.0562V44.4444C24.9817 45.4435 25.3555 46.4101 26.0413 47.137C26.727 47.8639 27.6702 48.2933 28.6688 48.3331L28.7475 48.5219C28.3964 48.8891 28.1251 49.3251 27.9508 49.8024C27.7766 50.2797 27.7031 50.7879 27.735 51.295C27.7962 52.2653 28.2111 53.1795 28.9013 53.8644L29.8838 54.8475C30.6253 55.5912 31.6299 56.0129 32.68 56.0212C33.6298 56.0271 34.5442 55.6615 35.2281 55.0025C35.2906 55.0296 35.3538 55.0558 35.4175 55.0812C35.4574 56.0798 35.8868 57.023 36.6136 57.7087C37.3405 58.3945 38.3071 58.7683 39.3063 58.75H40.6938C41.693 58.7684 42.6597 58.3947 43.3868 57.7089C44.1138 57.0232 44.5433 56.0799 44.5831 55.0812C44.6465 55.0554 44.7096 55.0292 44.7725 55.0025C45.4561 55.6616 46.3704 56.0272 47.32 56.0212C48.3693 56.0131 49.3731 55.5921 50.1144 54.8494L51.0981 53.8656C51.7884 53.1804 52.2034 52.2657 52.2644 51.295C52.2964 50.788 52.2231 50.2799 52.049 49.8026C51.875 49.3253 51.604 48.8893 51.2531 48.5219C51.2798 48.4594 51.3058 48.3965 51.3313 48.3331C52.3299 48.2932 53.2732 47.8638 53.959 47.1368C54.6447 46.4097 55.0185 45.443 55 44.4437V43.0562C55.0185 42.0569 54.6448 41.0901 53.959 40.363C53.2732 39.6359 52.3299 39.2069 51.3313 39.1669ZM52.5 44.4444C52.5193 44.792 52.4004 45.1332 52.1692 45.3935C51.9379 45.6537 51.6131 45.812 51.2656 45.8337H49.4969C49.2512 46.9557 48.8076 48.0249 48.1869 48.9912L49.4394 50.2431C49.6698 50.5041 49.7877 50.8456 49.7672 51.1932C49.7467 51.5407 49.5895 51.866 49.33 52.0981L48.3488 53.08C48.1143 53.3359 47.7894 53.4903 47.443 53.5106C47.0966 53.5309 46.7559 53.4155 46.4931 53.1887L45.2406 51.9375C44.2745 52.558 43.2055 53.0014 42.0838 53.2469V55.0162C42.0619 55.3637 41.9034 55.6885 41.643 55.9196C41.3826 56.1507 41.0414 56.2695 40.6938 56.25H39.3063C38.9586 56.2693 38.6175 56.1504 38.3572 55.9191C38.0969 55.6879 37.9386 55.3631 37.9169 55.0156V53.2469C36.7949 53.0013 35.7257 52.5577 34.7594 51.9369L33.5069 53.1887C33.2433 53.4133 32.9032 53.5274 32.5575 53.5072C32.2119 53.4869 31.8874 53.3339 31.6519 53.08L30.6706 52.0987C30.4108 51.8666 30.2534 51.541 30.2329 51.1932C30.2124 50.8453 30.3304 50.5035 30.5613 50.2425L31.8131 48.9912C31.1926 48.0248 30.7493 46.9557 30.5038 45.8337H28.735C28.3873 45.8122 28.0622 45.6539 27.8309 45.3934C27.5995 45.133 27.4805 44.7916 27.5 44.4437V43.0562C27.4803 42.7083 27.5992 42.3667 27.8306 42.1062C28.062 41.8456 28.3872 41.6872 28.735 41.6656H30.5038C30.7492 40.5439 31.1926 39.4749 31.8131 38.5087L30.5613 37.2569C30.3306 36.9961 30.2125 36.6545 30.2329 36.3069C30.2533 35.9593 30.4104 35.634 30.67 35.4019L31.6513 34.42C31.8887 34.1691 32.2129 34.0181 32.5577 33.9978C32.9026 33.9775 33.2422 34.0894 33.5075 34.3106L34.7594 35.5625C35.7257 34.9419 36.7949 34.4987 37.9169 34.2537V32.4837C37.9388 32.1364 38.0971 31.8117 38.3574 31.5806C38.6177 31.3495 38.9587 31.2307 39.3063 31.25H40.6938C41.0415 31.2305 41.3828 31.3494 41.6432 31.5806C41.9037 31.8119 42.062 32.1368 42.0838 32.4844V34.2544C43.2055 34.4994 44.2745 34.9426 45.2406 35.5631L46.4931 34.3112C46.7561 34.0852 47.0966 33.9703 47.4428 33.9907C47.7889 34.0111 48.1135 34.1653 48.3481 34.4206L49.3294 35.4025C49.5891 35.6344 49.7465 35.9597 49.7671 36.3073C49.7877 36.6549 49.6699 36.9965 49.4394 37.2575L48.1869 38.5094C48.8075 39.4755 49.2509 40.5445 49.4963 41.6662H51.265C51.6127 41.6878 51.9378 41.8461 52.1692 42.1066C52.4006 42.367 52.5195 42.7084 52.5 43.0562V44.4444Z" fill="#04A391"/>
<path d="M40 37.5C38.7639 37.5 37.5555 37.8666 36.5277 38.5533C35.4999 39.2401 34.6988 40.2162 34.2258 41.3582C33.7527 42.5003 33.6289 43.7569 33.8701 44.9693C34.1113 46.1817 34.7065 47.2953 35.5806 48.1694C36.4547 49.0435 37.5683 49.6388 38.7807 49.8799C39.9931 50.1211 41.2497 49.9973 42.3918 49.5242C43.5338 49.0512 44.5099 48.2501 45.1967 47.2223C45.8834 46.1945 46.25 44.9861 46.25 43.75C46.25 42.0924 45.5915 40.5027 44.4194 39.3306C43.2473 38.1585 41.6576 37.5 40 37.5ZM40 47.5C39.2583 47.5 38.5333 47.2801 37.9166 46.868C37.2999 46.456 36.8193 45.8703 36.5355 45.1851C36.2516 44.4998 36.1774 43.7458 36.3221 43.0184C36.4668 42.291 36.8239 41.6228 37.3484 41.0984C37.8728 40.5739 38.541 40.2167 39.2684 40.0721C39.9958 39.9274 40.7498 40.0016 41.4351 40.2855C42.1203 40.5693 42.706 41.0499 43.118 41.6666C43.5301 42.2833 43.75 43.0083 43.75 43.75C43.7488 44.7442 43.3534 45.6974 42.6504 46.4004C41.9474 47.1034 40.9942 47.4988 40 47.5Z" fill="#04A391"/>
</g>
<defs>
<clipPath id="clip0_1075_29540">
<rect width="80" height="80" fill="white"/>
</clipPath>
</defs>
</svg>
