<svg width="80" height="80" viewBox="0 0 80 80" fill="none" xmlns="http://www.w3.org/2000/svg">
<path d="M70.3898 8.6243H69.4173V4.4043C69.4173 4.11422 69.3021 3.83602 69.097 3.6309C68.8919 3.42578 68.6137 3.31055 68.3236 3.31055H43.3948C43.1048 3.31055 42.8266 3.42578 42.6214 3.6309C42.4163 3.83602 42.3011 4.11422 42.3011 4.4043V8.6243H9.60859C7.96789 8.62628 6.3949 9.27871 5.23446 10.4386C4.07401 11.5984 3.42078 13.1711 3.41797 14.8118V54.3324C3.41979 55.9738 4.07258 57.5474 5.23313 58.7081C6.39369 59.8687 7.96724 60.5217 9.60859 60.5237H33.3673L31.9455 67.0124H28.8161C28.1733 67.0133 27.557 67.269 27.1025 67.7236C26.648 68.1783 26.3924 68.7946 26.3917 69.4374V74.2637C26.3924 74.9065 26.648 75.5227 27.1025 75.9772C27.557 76.4317 28.1733 76.6874 28.8161 76.688H51.1823C51.8251 76.6874 52.4414 76.4317 52.8959 75.9772C53.3504 75.5227 53.6061 74.9065 53.6067 74.2637V69.4368C53.6061 68.794 53.3504 68.1776 52.8959 67.723C52.4414 67.2684 51.8252 67.0126 51.1823 67.0118H48.053L46.6311 60.5237H70.3898C72.0312 60.5217 73.6048 59.8687 74.7653 58.7081C75.9259 57.5474 76.5787 55.9738 76.5805 54.3324V14.8118C76.5777 13.1711 75.9244 11.5984 74.764 10.4386C73.6035 9.27871 72.0305 8.62628 70.3898 8.6243ZM51.4192 69.4368V74.263C51.4192 74.3259 51.3943 74.3861 51.3498 74.4305C51.3054 74.475 51.2452 74.4999 51.1823 74.4999H28.8161C28.7533 74.4999 28.693 74.475 28.6486 74.4305C28.6042 74.3861 28.5792 74.3259 28.5792 74.263V69.4368C28.5792 69.3739 28.6042 69.3136 28.6486 69.2691C28.693 69.2246 28.7532 69.1995 28.8161 69.1993H51.1823C51.2452 69.1995 51.3055 69.2246 51.3499 69.2691C51.3943 69.3136 51.4192 69.3739 51.4192 69.4368ZM34.1867 67.0124L35.6092 60.5237H44.3911L45.8117 67.0124H34.1867ZM44.4886 5.4993H67.2298V21.6868H44.4886V5.4993ZM9.60859 10.8118H42.3011V22.7768C42.3013 23.0668 42.4165 23.3449 42.6216 23.55C42.8267 23.7551 43.1048 23.8704 43.3948 23.8705H68.3236C68.6136 23.8704 68.8917 23.7551 69.0968 23.55C69.3019 23.3449 69.4172 23.0668 69.4173 22.7768V10.8118H70.3898C71.4506 10.8131 72.4676 11.2349 73.2179 11.9846C73.9683 12.7344 74.3908 13.751 74.393 14.8118V49.6768H5.60547V14.8118C5.60762 13.751 6.03016 12.7344 6.78052 11.9846C7.53088 11.2349 8.54785 10.8131 9.60859 10.8118ZM70.3898 58.3387H9.60859C8.54774 58.3365 7.531 57.9139 6.78122 57.1634C6.03143 56.4129 5.60975 55.3958 5.60859 54.3349V51.8643H74.393V54.3324C74.3918 55.3938 73.9697 56.4114 73.2192 57.162C72.4688 57.9126 71.4512 58.3349 70.3898 58.3362V58.3387Z" fill="url(#paint0_linear_1637_5746)"/>
<path d="M10.0944 36.6442C10.3308 37.1642 10.712 37.6052 11.1923 37.9143C11.6727 38.2234 12.2319 38.3876 12.8032 38.3873C12.997 38.3857 13.1903 38.3648 13.38 38.3248L16.4957 45.1998C16.6628 45.5717 16.9018 45.907 17.1988 46.1863C17.4958 46.4656 17.8451 46.6835 18.2265 46.8276C18.608 46.9716 19.0141 47.0388 19.4217 47.0255C19.8292 47.0122 20.2301 46.9185 20.6013 46.7498L21.1282 46.5111C21.4993 46.3429 21.8338 46.1033 22.1123 45.8059C22.3909 45.5085 22.6081 45.1592 22.7517 44.7778C22.8952 44.3964 22.9622 43.9905 22.9488 43.5833C22.9355 43.176 22.842 42.7753 22.6738 42.4042L19.5913 35.5992L20.48 35.1967L32.985 35.0092C33.4714 35.0017 33.9483 34.8732 34.3727 34.6355C34.7971 34.3977 35.1557 34.058 35.4161 33.6472C35.6765 33.2363 35.8306 32.767 35.8644 32.2818C35.8983 31.7965 35.8109 31.3104 35.61 30.8673L34.4075 28.2123C35.2457 27.564 35.8406 26.6518 36.096 25.6233C36.3513 24.5949 36.2521 23.5104 35.8145 22.5453C35.3768 21.5802 34.6263 20.791 33.6845 20.3055C32.7426 19.82 31.6644 19.6665 30.6244 19.8698L29.4207 17.213C29.2197 16.7697 28.9116 16.3835 28.5242 16.089C28.1367 15.7945 27.682 15.6011 27.2012 15.5262C26.7203 15.4513 26.2284 15.4973 25.7697 15.6599C25.311 15.8226 24.9 16.0968 24.5738 16.458L16.1938 25.7392L9.73816 28.6655C9.38289 28.8262 9.06279 29.0553 8.79616 29.3399C8.52953 29.6244 8.3216 29.9587 8.18426 30.3236C8.04692 30.6886 7.98287 31.077 7.99576 31.4667C8.00866 31.8564 8.09825 32.2398 8.25941 32.5948L10.0944 36.6442ZM20.7044 44.0042C20.6623 44.1168 20.5983 44.2199 20.5161 44.3077C20.4339 44.3954 20.3352 44.466 20.2257 44.5155L19.6988 44.7542C19.4777 44.8539 19.2261 44.8619 18.9991 44.7766C18.772 44.6912 18.5881 44.5193 18.4875 44.2986L15.405 37.4998L17.5988 36.5055L20.6813 43.3067C20.7308 43.4157 20.7583 43.5335 20.7623 43.6531C20.7662 43.7728 20.7466 43.8921 20.7044 44.0042ZM32.4107 22.1292C32.7883 22.2714 33.1264 22.5019 33.3966 22.8016C33.6668 23.1013 33.8613 23.4614 33.9637 23.8516C34.0662 24.2419 34.0736 24.6511 33.9855 25.0449C33.8973 25.4386 33.716 25.8055 33.4569 26.1148L32.795 24.6536L31.5775 21.9661C31.8624 21.9729 32.1441 22.0278 32.4107 22.1286V22.1292ZM26.2 17.9248C26.2829 17.8333 26.3873 17.7637 26.5037 17.7225C26.6202 17.6813 26.7451 17.6697 26.8671 17.6887C26.9892 17.7077 27.1046 17.7568 27.2029 17.8315C27.3013 17.9062 27.3796 18.0042 27.4307 18.1167L29.0307 21.6467L31.2738 26.5967L33.6188 31.7711C33.6698 31.8836 33.6921 32.0071 33.6835 32.1304C33.6749 32.2537 33.6358 32.3729 33.5696 32.4772C33.5034 32.5816 33.4123 32.6679 33.3045 32.7282C33.1966 32.7886 33.0755 32.8211 32.9519 32.823L20.9369 32.9998L18.1457 26.8405L26.2 17.9248ZM10.2319 31.0942C10.2678 30.9979 10.3224 30.9097 10.3926 30.8346C10.4627 30.7596 10.547 30.6991 10.6407 30.6567L16.3119 28.0892L18.7888 33.5623L17.6925 34.0623L16.16 34.7567L13.1244 36.1298C12.9356 36.2155 12.7205 36.2227 12.5264 36.1498C12.3323 36.0769 12.1751 35.9299 12.0894 35.7411L10.2494 31.6917C10.2072 31.5982 10.1839 31.4973 10.1809 31.3947C10.1779 31.2922 10.1952 31.19 10.2319 31.0942ZM44.3694 30.3292V45.368C44.3696 45.658 44.4849 45.9361 44.6899 46.1412C44.895 46.3462 45.1731 46.4615 45.4632 46.4617H68.3275C68.6176 46.4615 68.8957 46.3462 69.1007 46.1412C69.3058 45.9361 69.4211 45.658 69.4213 45.368V30.3167C69.4213 30.2961 69.4163 30.2767 69.415 30.2542C69.4134 30.2037 69.4084 30.1534 69.4 30.1036C69.3932 30.0705 69.3813 30.0411 69.3719 30.0073C69.3628 29.9705 69.3515 29.9342 69.3382 29.8986C69.3198 29.8579 69.299 29.8185 69.2757 29.7805C69.2632 29.758 69.255 29.7342 69.2407 29.7123L69.2363 29.7073C69.2072 29.6656 69.175 29.6262 69.14 29.5892C69.0914 29.5344 69.0374 29.4845 68.9788 29.4405C68.9644 29.4298 68.9525 29.4167 68.9375 29.4067C68.9027 29.3851 68.8666 29.3654 68.8294 29.348C68.8025 29.3342 68.7775 29.3167 68.7494 29.3055C68.7124 29.2913 68.6747 29.2794 68.6363 29.2698C68.5916 29.2563 68.5461 29.2456 68.5 29.238C68.4448 29.2276 68.3887 29.222 68.3325 29.2211H45.4575C45.4026 29.2221 45.3478 29.2275 45.2938 29.2373C45.2385 29.2465 45.1839 29.2598 45.1307 29.2773C45.1007 29.2867 45.0682 29.293 45.0413 29.3048C45.0144 29.3167 44.9788 29.3386 44.9475 29.3548C44.9152 29.3705 44.8837 29.3878 44.8532 29.4067C44.8275 29.4236 44.8063 29.4455 44.7819 29.4642C44.7373 29.501 44.6955 29.5411 44.6569 29.5842C44.6206 29.6234 44.5872 29.6652 44.5569 29.7092L44.5525 29.7142C44.5382 29.7361 44.53 29.7598 44.5169 29.7823C44.4936 29.8203 44.4727 29.8598 44.4544 29.9005C44.4411 29.936 44.4298 29.9723 44.4207 30.0092C44.4113 30.0417 44.3988 30.0717 44.3925 30.1055C44.3838 30.1552 44.3788 30.2056 44.3775 30.2561C44.3775 30.2761 44.3713 30.2955 44.3713 30.3186V30.3311L44.3694 30.3292ZM46.5569 44.2742V32.3461L56.2938 38.7561C56.4724 38.8735 56.6815 38.9361 56.8953 38.9361C57.1091 38.9361 57.3183 38.8735 57.4969 38.7561L67.2338 32.3461V44.2742H46.5569ZM49.1144 31.4105H64.6769L56.8957 36.5355L49.1144 31.4105ZM51.3182 19.7536C51.4842 19.8492 51.6725 19.8995 51.8641 19.8995C52.0557 19.8995 52.244 19.8492 52.41 19.7536L61.5175 14.5367C61.6848 14.4411 61.8239 14.303 61.9206 14.1363C62.0173 13.9696 62.0683 13.7803 62.0683 13.5876C62.0683 13.3949 62.0173 13.2057 61.9206 13.039C61.8239 12.8723 61.6848 12.7342 61.5175 12.6386L52.41 7.42608C52.2438 7.33075 52.0554 7.28081 51.8637 7.28125C51.6721 7.2817 51.4839 7.33252 51.3181 7.42863C51.1523 7.52473 51.0147 7.66274 50.919 7.82881C50.8234 7.99489 50.7731 8.18319 50.7732 8.37483V18.8073C50.7731 18.999 50.8235 19.1873 50.9191 19.3533C51.0148 19.5194 51.1524 19.6574 51.3182 19.7536ZM52.9607 10.2617L58.7732 13.5911L52.9607 16.9205V10.2617Z" fill="url(#paint1_linear_1637_5746)"/>
<defs>
<linearGradient id="paint0_linear_1637_5746" x1="39.9992" y1="3.31055" x2="39.9992" y2="76.688" gradientUnits="userSpaceOnUse">
<stop stop-color="#0A7D70"/>
<stop offset="1" stop-color="#12E3CB"/>
</linearGradient>
<linearGradient id="paint1_linear_1637_5746" x1="38.7077" y1="7.28125" x2="38.7077" y2="47.0272" gradientUnits="userSpaceOnUse">
<stop stop-color="#0A7D70"/>
<stop offset="1" stop-color="#12E3CB"/>
</linearGradient>
</defs>
</svg>
