<svg width="80" height="80" viewBox="0 0 80 80" fill="none" xmlns="http://www.w3.org/2000/svg">
<g clip-path="url(#clip0_1082_29633)">
<path d="M12.1841 1.17188H40.4476C43.0382 1.17188 45.1378 3.27154 45.1378 5.86212V15.5319M9.83902 1.17188H5.93048C3.3399 1.17188 1.24023 3.27154 1.24023 5.86212V74.1365C1.24023 76.7271 3.3399 78.8268 5.93048 78.8268H40.4476C43.0382 78.8268 45.1378 76.7271 45.1378 74.1365" stroke="#04A391" stroke-width="2.23345" stroke-miterlimit="10"/>
<path d="M70.5516 74.1359H74.0708C76.6614 74.1359 78.7611 72.0362 78.7611 69.4457V30.0491L65.6284 15.5312H41.2391C38.6485 15.5312 36.5488 17.6309 36.5488 20.2215V69.4457C36.5488 72.0362 38.6485 74.1359 41.2391 74.1359H68.2064" stroke="#04A391" stroke-width="2.23345" stroke-miterlimit="10"/>
<path d="M78.7618 30.0503H70.3194C67.7289 30.0503 65.6291 27.9504 65.6291 25.36V15.5322M47.4982 36.7381L42.0215 43.7519L47.4982 50.7657M67.8132 36.7381L73.2899 43.7519L67.8132 50.7657M62.8564 36.9437L52.455 50.5601M36.5496 69.4466H1.24219M1.24219 10.5527H45.1382" stroke="#04A391" stroke-width="2.23345" stroke-miterlimit="10"/>
<path d="M18.2066 37.0694C24.0894 37.0694 28.8584 32.3004 28.8584 26.4175C28.8584 20.5346 24.0894 15.7656 18.2066 15.7656C12.3237 15.7656 7.55469 20.5346 7.55469 26.4175C7.55469 32.3004 12.3237 37.0694 18.2066 37.0694Z" stroke="#04A391" stroke-width="2.23345" stroke-miterlimit="10"/>
<path d="M12.8809 27.2325L16.3334 30.197L23.5263 23.2734" stroke="#04A391" stroke-width="2.23345" stroke-miterlimit="10"/>
<path d="M18.2066 64.2315C24.0894 64.2315 28.8584 59.4625 28.8584 53.5796C28.8584 47.6967 24.0894 42.9277 18.2066 42.9277C12.3237 42.9277 7.55469 47.6967 7.55469 53.5796C7.55469 59.4625 12.3237 64.2315 18.2066 64.2315Z" stroke="#04A391" stroke-width="2.23345" stroke-miterlimit="10"/>
<path d="M14.0391 57.3681L22.3718 49.7909M22.3718 57.3681L14.0391 49.7909M18.4975 74.1434H27.878M18.4975 5.97852H27.878M58.9039 62.5881H61.2491M54.0574 62.5881H56.4025" stroke="#04A391" stroke-width="2.23345" stroke-miterlimit="10"/>
</g>
<defs>
<clipPath id="clip0_1082_29633">
<rect width="80" height="80" fill="white"/>
</clipPath>
</defs>
</svg>
