<svg width="80" height="80" viewBox="0 0 80 80" fill="none" xmlns="http://www.w3.org/2000/svg">
<path d="M0 22.5H2.5V25H0V22.5Z" fill="#04A391"/>
<path d="M73.75 72.5H1.25C0.918479 72.5 0.600537 72.3683 0.366117 72.1339C0.131696 71.8995 0 71.5815 0 71.25V27.5H2.5V70H72.5V5H2.5V20H0V3.75C0 3.41848 0.131696 3.10054 0.366117 2.86612C0.600537 2.6317 0.918479 2.5 1.25 2.5H73.75C74.0815 2.5 74.3995 2.6317 74.6339 2.86612C74.8683 3.10054 75 3.41848 75 3.75V71.25C75 71.5815 74.8683 71.8995 74.6339 72.1339C74.3995 72.3683 74.0815 72.5 73.75 72.5Z" fill="#04A391"/>
<path d="M1.25 12.5H73.75V15H1.25V12.5ZM5 7.5H7.5V10H5V7.5ZM10 7.5H12.5V10H10V7.5ZM15 7.5H17.5V10H15V7.5ZM67.5 7.5H70V10H67.5V7.5Z" fill="#04A391"/>
<path d="M78.75 77.5H6.25C5.91848 77.5 5.60054 77.3683 5.36612 77.1339C5.1317 76.8995 5 76.5815 5 76.25V71.25H7.5V75H77.5V10H73.75V7.5H78.75C79.0815 7.5 79.3995 7.6317 79.6339 7.86612C79.8683 8.10054 80 8.41848 80 8.75V76.25C80 76.5815 79.8683 76.8995 79.6339 77.1339C79.3995 77.3683 79.0815 77.5 78.75 77.5Z" fill="#04A391"/>
<path d="M47.5 63.75H27.5C26.1739 63.75 24.9021 63.2232 23.9645 62.2855C23.0268 61.3479 22.5 60.0761 22.5 58.75V38.375C22.5005 37.5211 22.7924 36.693 23.3275 36.0275L27.7737 30.4688L29.7263 32.0312L25.2775 37.5938C25.0968 37.8139 24.9987 38.0902 25 38.375V58.75C25 59.413 25.2634 60.0489 25.7322 60.5178C26.2011 60.9866 26.837 61.25 27.5 61.25H47.5C48.163 61.25 48.7989 60.9866 49.2678 60.5178C49.7366 60.0489 50 59.413 50 58.75V38.375C50.0016 38.0919 49.9048 37.8171 49.7262 37.5975L45.2738 32.0312L47.2262 30.4688L51.6763 36.0313C52.2092 36.6962 52.4997 37.5228 52.5 38.375V58.75C52.5 60.0761 51.9732 61.3479 51.0355 62.2855C50.0979 63.2232 48.8261 63.75 47.5 63.75Z" fill="#04A391"/>
<path d="M46.25 32.5H28.75C28.4185 32.5 28.1005 32.3683 27.8661 32.1339C27.6317 31.8995 27.5 31.5815 27.5 31.25V27.5H30V30H45V27.5H47.5V31.25C47.5 31.5815 47.3683 31.8995 47.1339 32.1339C46.8995 32.3683 46.5815 32.5 46.25 32.5Z" fill="#04A391"/>
<path d="M47.4997 28.75H27.4997C27.1682 28.75 26.8503 28.6183 26.6158 28.3839C26.3814 28.1495 26.2497 27.8315 26.2497 27.5V21.25C26.2497 20.587 26.5131 19.9511 26.982 19.4822C27.4508 19.0134 28.0867 18.75 28.7497 18.75H46.2497C46.9128 18.75 47.5487 19.0134 48.0175 19.4822C48.4863 19.9511 48.7497 20.587 48.7497 21.25V27.5C48.7497 27.8315 48.618 28.1495 48.3836 28.3839C48.1492 28.6183 47.8313 28.75 47.4997 28.75ZM28.7497 26.25H46.2497V21.25H28.7497V26.25ZM39.9997 55H34.9997C34.6682 55 34.3503 54.8683 34.1158 54.6339C33.8814 54.3995 33.7497 54.0815 33.7497 53.75V51.25H31.2497C30.9182 51.25 30.6003 51.1183 30.3658 50.8839C30.1314 50.6495 29.9997 50.3315 29.9997 50V45C29.9997 44.6685 30.1314 44.3505 30.3658 44.1161C30.6003 43.8817 30.9182 43.75 31.2497 43.75H33.7497V41.25C33.7497 40.9185 33.8814 40.6005 34.1158 40.3661C34.3503 40.1317 34.6682 40 34.9997 40H39.9997C40.3313 40 40.6492 40.1317 40.8836 40.3661C41.118 40.6005 41.2497 40.9185 41.2497 41.25V43.75H43.7497C44.0813 43.75 44.3992 43.8817 44.6336 44.1161C44.868 44.3505 44.9997 44.6685 44.9997 45V50C44.9997 50.3315 44.868 50.6495 44.6336 50.8839C44.3992 51.1183 44.0813 51.25 43.7497 51.25H41.2497V53.75C41.2497 54.0815 41.118 54.3995 40.8836 54.6339C40.6492 54.8683 40.3313 55 39.9997 55ZM36.2497 52.5H38.7497V50C38.7497 49.6685 38.8814 49.3505 39.1158 49.1161C39.3503 48.8817 39.6682 48.75 39.9997 48.75H42.4997V46.25H39.9997C39.6682 46.25 39.3503 46.1183 39.1158 45.8839C38.8814 45.6495 38.7497 45.3315 38.7497 45V42.5H36.2497V45C36.2497 45.3315 36.118 45.6495 35.8836 45.8839C35.6492 46.1183 35.3313 46.25 34.9997 46.25H32.4997V48.75H34.9997C35.3313 48.75 35.6492 48.8817 35.8836 49.1161C36.118 49.3505 36.2497 49.6685 36.2497 50V52.5ZM59.6335 53.3838L57.866 51.6162L61.9822 47.5L57.866 43.3838L59.6335 41.6162L64.6335 46.6162C64.8678 46.8507 64.9995 47.1685 64.9995 47.5C64.9995 47.8315 64.8678 48.1493 64.6335 48.3838L59.6335 53.3838ZM15.366 53.3838L10.366 48.3838C10.1316 48.1493 10 47.8315 10 47.5C10 47.1685 10.1316 46.8507 10.366 46.6162L15.366 41.6162L17.1335 43.3838L13.0172 47.5L17.1335 51.6162L15.366 53.3838Z" fill="#04A391"/>
</svg>
