<svg width="80" height="80" viewBox="0 0 80 80" fill="none" xmlns="http://www.w3.org/2000/svg">
<path d="M54.2318 22.8329C54.4144 22.0598 54.4366 21.2574 54.2969 20.4753C54.1573 19.6933 53.8588 18.9482 53.42 18.286C52.9811 17.6238 52.4112 17.0586 51.7453 16.6253C51.0795 16.192 50.3319 15.8998 49.5487 15.7667C49.3541 14.7474 48.8682 13.8064 48.1498 13.0576C47.4313 12.3088 46.5112 11.7843 45.5009 11.5477C44.4905 11.311 43.4332 11.3724 42.457 11.7243C41.4808 12.0762 40.6276 12.7035 40.0006 13.5304C39.3736 12.7035 38.5203 12.0762 37.5441 11.7243C36.5679 11.3724 35.5106 11.311 34.5003 11.5477C33.4899 11.7843 32.5698 12.3088 31.8514 13.0576C31.133 13.8064 30.647 14.7474 30.4524 15.7667C29.6693 15.8998 28.9217 16.192 28.2558 16.6253C27.59 17.0586 27.02 17.6238 26.5812 18.286C26.1423 18.9482 25.8439 19.6933 25.7042 20.4753C25.5646 21.2574 25.5867 22.0598 25.7693 22.8329C24.9909 23.478 24.3643 24.2869 23.9343 25.2018C23.5042 26.1168 23.2812 27.1154 23.2812 28.1264C23.2812 29.1373 23.5042 30.1359 23.9343 31.0509C24.3643 31.9658 24.9909 32.7747 25.7693 33.4198C25.5868 34.1927 25.5646 34.9949 25.7043 35.7767C25.844 36.5585 26.1425 37.3034 26.5814 37.9653C27.0203 38.6272 27.5902 39.192 28.2561 39.6249C28.9219 40.0579 29.6694 40.3497 30.4524 40.4823C30.647 41.5016 31.1328 42.4427 31.8512 43.1916C32.5696 43.9405 33.4897 44.465 34.5 44.7017C35.5104 44.9384 36.5677 44.8771 37.544 44.5253C38.5202 44.1734 39.3735 43.546 40.0006 42.7192C40.6276 43.546 41.4808 44.1734 42.457 44.5253C43.4332 44.8772 44.4905 44.9386 45.5009 44.7019C46.5112 44.4653 47.4313 43.9408 48.1498 43.192C48.8682 42.4432 49.3541 41.5022 49.5487 40.4829C50.3317 40.3503 51.0793 40.0585 51.7451 39.6256C52.4109 39.1926 52.9809 38.6278 53.4198 37.9659C53.8587 37.304 54.1572 36.5591 54.2969 35.7773C54.4365 34.9955 54.4144 34.1933 54.2318 33.4204C55.0102 32.7753 55.6368 31.9664 56.0669 31.0515C56.4969 30.1365 56.7199 29.138 56.7199 28.127C56.7199 27.116 56.4969 26.1174 56.0669 25.2025C55.6368 24.2875 55.0102 23.478 54.2318 22.8329ZM35.7256 42.656C34.8824 42.6544 34.0742 42.3187 33.4779 41.7225C32.8817 41.1262 32.546 40.318 32.5443 39.4748C32.5443 39.1847 32.4291 38.9065 32.224 38.7014C32.0189 38.4963 31.7407 38.381 31.4506 38.381C30.6638 38.3811 29.8982 38.1269 29.2677 37.6563C28.6372 37.1858 28.1757 36.5241 27.9518 35.7699C27.728 35.0156 27.7539 34.2093 28.0257 33.471C28.2975 32.7327 28.8005 32.102 29.4599 31.6729C29.6975 31.5121 29.8625 31.2644 29.9192 30.9832C29.9758 30.702 29.9198 30.4098 29.763 30.1695C29.6063 29.9292 29.3614 29.7601 29.0812 29.6987C28.801 29.6373 28.5078 29.6884 28.2649 29.841C27.6632 30.2333 27.1388 30.7331 26.7181 31.3154C26.098 30.6449 25.6868 29.8081 25.5348 28.9074C25.3829 28.0068 25.4968 27.0815 25.8626 26.2446C26.2285 25.4077 26.8303 24.6956 27.5945 24.1955C28.3588 23.6953 29.2522 23.4288 30.1656 23.4285C30.4557 23.4285 30.7339 23.3133 30.939 23.1082C31.1441 22.9031 31.2593 22.6249 31.2593 22.3348C31.2593 22.0447 31.1441 21.7665 30.939 21.5614C30.7339 21.3563 30.4557 21.241 30.1656 21.241C29.3633 21.2429 28.5676 21.3859 27.8149 21.6635C27.8149 21.6142 27.8012 21.5673 27.8012 21.5179C27.8024 20.5504 28.1872 19.6228 28.8714 18.9387C29.5555 18.2546 30.4831 17.8697 31.4506 17.8685C31.7407 17.8685 32.0189 17.7533 32.224 17.5482C32.4291 17.3431 32.5443 17.0649 32.5443 16.7748C32.5443 15.9311 32.8795 15.1219 33.4761 14.5253C34.0727 13.9287 34.8819 13.5935 35.7256 13.5935C36.5693 13.5935 37.3785 13.9287 37.9751 14.5253C38.5717 15.1219 38.9068 15.9311 38.9068 16.7748V39.4748C38.9052 40.318 38.5695 41.1262 37.9732 41.7225C37.377 42.3187 36.5688 42.6544 35.7256 42.656ZM53.2831 31.3154C52.8624 30.7331 52.338 30.2333 51.7362 29.841C51.616 29.7597 51.4807 29.7031 51.3384 29.6745C51.196 29.6459 51.0494 29.646 50.9071 29.6747C50.7647 29.7034 50.6296 29.7601 50.5094 29.8416C50.3892 29.9231 50.2865 30.0277 50.2072 30.1493C50.1278 30.2709 50.0735 30.4071 50.0474 30.5499C50.0212 30.6927 50.0238 30.8393 50.0549 30.9811C50.0859 31.1229 50.145 31.2571 50.2285 31.3759C50.312 31.4947 50.4183 31.5957 50.5412 31.6729C51.2006 32.102 51.7037 32.7327 51.9754 33.471C52.2472 34.2093 52.2731 35.0156 52.0493 35.7699C51.8255 36.5241 51.3639 37.1858 50.7335 37.6563C50.103 38.1269 49.3373 38.3811 48.5506 38.381C48.2605 38.381 47.9823 38.4963 47.7772 38.7014C47.5721 38.9065 47.4568 39.1847 47.4568 39.4748C47.4568 40.3185 47.1217 41.1277 46.5251 41.7243C45.9285 42.3209 45.1193 42.656 44.2756 42.656C43.4319 42.656 42.6227 42.3209 42.0261 41.7243C41.4295 41.1277 41.0943 40.3185 41.0943 39.4748V16.7748C41.0943 15.9311 41.4295 15.1219 42.0261 14.5253C42.6227 13.9287 43.4319 13.5935 44.2756 13.5935C45.1193 13.5935 45.9285 13.9287 46.5251 14.5253C47.1217 15.1219 47.4568 15.9311 47.4568 16.7748C47.4568 17.0649 47.5721 17.3431 47.7772 17.5482C47.9823 17.7533 48.2605 17.8685 48.5506 17.8685C49.5181 17.8697 50.4457 18.2546 51.1298 18.9387C51.8139 19.6228 52.1988 20.5504 52.1999 21.5179C52.1999 21.5673 52.1881 21.6142 52.1862 21.6635C51.4335 21.3859 50.6378 21.2429 49.8356 21.241C49.5455 21.241 49.2673 21.3563 49.0622 21.5614C48.8571 21.7665 48.7418 22.0447 48.7418 22.3348C48.7418 22.6249 48.8571 22.9031 49.0622 23.1082C49.2673 23.3133 49.5455 23.4285 49.8356 23.4285C50.7489 23.4288 51.6424 23.6953 52.4066 24.1955C53.1708 24.6956 53.7727 25.4077 54.1385 26.2446C54.5043 27.0815 54.6182 28.0068 54.4663 28.9074C54.3144 29.8081 53.9032 30.6449 53.2831 31.3154Z" fill="#858585"/>
<path d="M40.7081 3.29141C35.7157 3.14863 30.7961 4.51404 26.5914 7.20946C22.3867 9.90488 19.0921 13.8051 17.1375 18.4013C15.1829 22.9974 14.6591 28.076 15.6344 32.9743C16.6098 37.8727 19.0389 42.3633 22.605 45.8602C24.7536 47.9702 26.3262 50.5952 27.1731 53.4852L27.9737 56.217V70.4339C27.9737 70.5776 28.0019 70.7198 28.0568 70.8526C28.1118 70.9853 28.1923 71.1059 28.2939 71.2075C28.3955 71.3091 28.5161 71.3896 28.6488 71.4446C28.7816 71.4995 28.9238 71.5277 29.0675 71.5277H30.6688L31.5169 74.5527C31.6933 75.1752 32.0676 75.7234 32.5833 76.1142C33.099 76.5051 33.7279 76.7173 34.375 76.7189H45.625C46.2722 76.7173 46.9013 76.5048 47.417 76.1137C47.9327 75.7226 48.307 75.1742 48.4831 74.5514L49.3312 71.5264H50.9325C51.0762 71.5265 51.2184 71.4983 51.3512 71.4433C51.4839 71.3884 51.6045 71.3078 51.7061 71.2062C51.8077 71.1047 51.8882 70.9841 51.9432 70.8513C51.9981 70.7186 52.0263 70.5763 52.0262 70.4327V56.2152L52.8263 53.4839C53.6674 50.6025 55.2336 47.9849 57.375 45.8814C60.8613 42.4715 63.2667 38.1108 64.2916 33.343C65.3164 28.5753 64.9152 23.6113 63.138 19.07C61.3609 14.5287 58.2863 10.6109 54.2977 7.80506C50.3091 4.99922 45.5828 3.42943 40.7081 3.29141ZM30.1612 61.9433H49.8387V64.5477H30.1612V61.9433ZM49.8387 59.7558H30.1612V57.1514H49.8387V59.7558ZM46.375 73.9608C46.3286 74.1243 46.2304 74.2683 46.0952 74.3712C45.9599 74.4741 45.7949 74.5303 45.625 74.5314H34.375C34.2051 74.5303 34.0401 74.4741 33.9048 74.3712C33.7696 74.2683 33.6714 74.1243 33.625 73.9608L32.9425 71.5233H47.0625L46.375 73.9608ZM30.1588 69.3358V66.732H49.8387V69.3358H30.1588ZM55.8438 44.3177C53.4348 46.6835 51.6731 49.6278 50.7269 52.8689L50.1131 54.9639H29.8869L29.2731 52.8689C28.32 49.6207 26.5519 46.6704 24.1369 44.2983C20.8852 41.1091 18.6703 37.0139 17.7811 32.547C16.8919 28.08 17.3697 23.4488 19.1523 19.2575C20.9348 15.0663 23.9392 11.5096 27.7736 9.05154C31.6079 6.5935 36.0942 5.34826 40.6469 5.47828C45.0919 5.60491 49.4015 7.03696 53.0383 9.59592C56.6751 12.1549 59.4783 15.7276 61.0987 19.8688C62.719 24.0099 63.0847 28.5364 62.1503 32.884C61.2158 37.2316 59.0225 41.208 55.8438 44.3177ZM75.625 27.0314H69.2438C68.9537 27.0314 68.6755 27.1466 68.4704 27.3518C68.2652 27.5569 68.15 27.8351 68.15 28.1252C68.15 28.4152 68.2652 28.6934 68.4704 28.8986C68.6755 29.1037 68.9537 29.2189 69.2438 29.2189H75.625C75.9151 29.2189 76.1933 29.1037 76.3984 28.8986C76.6035 28.6934 76.7188 28.4152 76.7188 28.1252C76.7188 27.8351 76.6035 27.5569 76.3984 27.3518C76.1933 27.1466 75.9151 27.0314 75.625 27.0314ZM11.85 28.1252C11.85 27.8351 11.7348 27.5569 11.5296 27.3518C11.3245 27.1466 11.0463 27.0314 10.7562 27.0314H4.375C4.08492 27.0314 3.80672 27.1466 3.6016 27.3518C3.39648 27.5569 3.28125 27.8351 3.28125 28.1252C3.28125 28.4152 3.39648 28.6934 3.6016 28.8986C3.80672 29.1037 4.08492 29.2189 4.375 29.2189H10.7562C11.0463 29.2189 11.3245 29.1037 11.5296 28.8986C11.7348 28.6934 11.85 28.4152 11.85 28.1252ZM73.8506 39.282L67.8538 37.0989C67.5811 36.9995 67.2801 37.0124 67.0169 37.1349C66.7538 37.2574 66.5501 37.4794 66.4506 37.752C66.3512 38.0247 66.3641 38.3257 66.4866 38.5889C66.6091 38.852 66.8311 39.0557 67.1037 39.1552L73.1006 41.3377C73.3732 41.4371 73.6742 41.4242 73.9372 41.3018C74.2003 41.1794 74.404 40.9574 74.5034 40.6848C74.6029 40.4122 74.59 40.1113 74.4676 39.8482C74.3451 39.5852 74.1232 39.3815 73.8506 39.282ZM12.8944 17.0952L6.89438 14.9127C6.7594 14.8634 6.61605 14.8412 6.4725 14.8474C6.32896 14.8535 6.18803 14.8879 6.05777 14.9485C5.9275 15.0091 5.81046 15.0948 5.71331 15.2007C5.61616 15.3065 5.54081 15.4305 5.49156 15.5655C5.44232 15.7004 5.42014 15.8438 5.42629 15.9873C5.43245 16.1309 5.46682 16.2718 5.52744 16.4021C5.58806 16.5323 5.67374 16.6494 5.77959 16.7465C5.88545 16.8437 6.0094 16.919 6.14438 16.9683L12.1444 19.1514C12.4171 19.2509 12.7181 19.2379 12.9812 19.1154C13.2443 18.993 13.448 18.771 13.5475 18.4983C13.647 18.2256 13.634 17.9246 13.5115 17.6615C13.389 17.3983 13.1671 17.1946 12.8944 17.0952ZM67.48 19.2177C67.6079 19.2175 67.7348 19.1951 67.855 19.1514L73.8519 16.9683C73.9868 16.919 74.1108 16.8437 74.2167 16.7465C74.3225 16.6494 74.4082 16.5323 74.4688 16.4021C74.5294 16.2718 74.5638 16.1309 74.57 15.9873C74.5761 15.8438 74.5539 15.7004 74.5047 15.5655C74.4554 15.4305 74.3801 15.3065 74.2829 15.2007C74.1858 15.0948 74.0687 15.0091 73.9385 14.9485C73.8082 14.8879 73.6673 14.8535 73.5237 14.8474C73.3802 14.8412 73.2368 14.8634 73.1019 14.9127L67.105 17.0952C66.8616 17.1821 66.6568 17.3523 66.5269 17.5758C66.397 17.7992 66.3504 18.0615 66.3953 18.316C66.4402 18.5705 66.5737 18.8009 66.7723 18.9664C66.9708 19.1319 67.2215 19.2218 67.48 19.2202V19.2177ZM12.1462 37.0989L6.14625 39.282C5.87366 39.3815 5.65174 39.5852 5.52931 39.8482C5.40689 40.1113 5.39398 40.4122 5.49344 40.6848C5.59289 40.9574 5.79656 41.1794 6.05964 41.3018C6.32272 41.4242 6.62366 41.4371 6.89625 41.3377L12.8963 39.1552C13.1689 39.0557 13.3909 38.852 13.5134 38.5889C13.6359 38.3257 13.6488 38.0247 13.5494 37.752C13.4499 37.4794 13.2462 37.2574 12.9831 37.1349C12.7199 37.0124 12.4189 36.9995 12.1462 37.0989Z" fill="#858585"/>
</svg>
