<svg width="174" height="39" viewBox="0 0 174 39" fill="none" xmlns="http://www.w3.org/2000/svg">
<g clip-path="url(#clip0_1865_500)">
<path fill-rule="evenodd" clip-rule="evenodd" d="M45.1723 11.3459C45.1723 9.75171 44.0942 8.30081 41.2251 7.53059C40.8779 7.44105 39.1603 6.95741 38.8311 6.86787C36.4373 6.2051 35.0849 5.59605 35.0849 4.23475C35.0849 2.80175 36.5286 1.69122 39.3247 1.69122C41.2253 1.69122 42.6872 2.40755 43.674 3.48243L44.6608 2.53302C43.4182 1.26125 41.5359 0.491033 39.3065 0.491033C35.3592 0.491033 33.7511 2.40766 33.7511 4.30638C33.7511 6.31255 35.3592 7.22609 38.0821 7.99631C38.4111 8.08591 40.4578 8.64118 40.7867 8.73072C42.8334 9.28599 43.8385 10.2714 43.8385 11.4534C43.8385 13.0834 42.1755 14.1582 39.4161 14.1582C37.5339 14.1582 36.0536 13.5669 34.5003 12.1699L33.4585 13.1551C34.9022 14.6418 37.2413 15.3583 39.489 15.3583C43.7287 15.3583 45.1723 13.2626 45.1723 11.3459ZM57.3802 9.53681C57.3802 12.0983 56.2289 14.194 53.3963 14.194C50.5821 14.194 49.4125 12.0803 49.4125 9.53681C49.4125 6.97532 50.5456 4.87956 53.3963 4.87956C56.2106 4.87956 57.3802 6.97532 57.3802 9.53681ZM58.6045 9.53681C58.6045 6.09759 56.8685 3.71524 53.3781 3.71524C49.9242 3.71524 48.1882 6.13335 48.1882 9.53681C48.1882 12.9581 49.9242 15.3584 53.3966 15.3584C56.8319 15.3583 58.6045 12.9399 58.6045 9.53681ZM63.5576 0.132812H62.3513V15.1792H63.5576V0.132812ZM80.4612 3.89438L77.9214 12.4744L77.6656 13.7999H77.6105L77.3367 12.4744L74.6867 3.89438H73.627L70.9956 12.4744L70.7392 13.7999H70.6847L70.4104 12.4744L67.8885 3.89438H66.5731L69.9539 15.1794H71.3789L73.8643 7.10079L74.1566 5.63198H74.1931L74.4854 7.10079L76.9162 15.1794H78.3413L81.7407 3.89438H80.4612ZM92.9068 3.89438L89.6176 12.4567L89.069 14.015H89.0324L88.5029 12.4567L84.7746 3.89438H83.3861L88.4663 15.1794C87.808 16.8451 86.9862 17.8841 85.8349 17.8841C85.2462 17.8881 84.6625 17.7785 84.1169 17.5617V18.6543C84.647 18.9051 85.2682 19.0305 86.0541 19.0305C87.3696 19.0305 88.5574 18.0811 89.2157 16.469L94.2959 3.89455H92.9068V3.89438ZM106.12 14.0686H98.1523V14.0328L99.1569 13.0655L106.065 4.84374V3.91229H96.8914V5.02288H104.64V5.05869L103.689 5.95433L96.7632 14.194V15.1792H106.12V14.0686ZM44.7886 20.5681H32.9102V21.7683H38.3011L38.2097 21.8936V35.0774H39.4889V21.8936L39.3976 21.7683H44.7884V20.5681H44.7886ZM46.7444 28.8794L46.8723 28.7544C47.1647 26.3183 48.4622 24.7778 50.8743 24.7778C53.2135 24.7778 54.584 26.3185 54.7668 28.7544L54.8947 28.8794H46.7444ZM56.0277 29.5243C56.0277 26.0672 54.3466 23.6133 50.8561 23.6133C47.5485 23.6133 45.6114 26.0314 45.6114 29.5243C45.6114 32.8381 47.2927 35.2563 50.9474 35.2563C52.5555 35.2563 53.9261 34.7368 54.9677 33.7695L54.1089 32.9098C53.2682 33.6621 52.1901 34.092 50.9474 34.092C48.5172 34.092 47.1646 32.7664 46.8539 30.0975L46.7263 29.99H56.0095C56.0258 29.8353 56.0319 29.6798 56.0277 29.5243ZM67.4494 32.9098C66.6276 33.7158 65.6225 34.092 64.3795 34.092C61.4923 34.092 60.3595 31.9425 60.3595 29.5243C60.3595 27.0166 61.657 24.8133 64.4161 24.7772C65.6039 24.7772 66.6276 25.1534 67.3218 25.7983L68.1808 24.9026C67.3584 24.1145 66.1154 23.613 64.3981 23.613C61.0538 23.613 59.1351 26.1386 59.1351 29.524C59.1351 32.8378 60.816 35.256 64.3795 35.256C65.9879 35.256 67.3219 34.7724 68.3084 33.7692L67.4494 32.9098ZM81.2471 27.7868C81.2471 25.2967 79.8951 23.6133 76.7886 23.6133C75.1252 23.6133 73.7001 24.3296 72.8597 25.5121H72.8232V20.0308H71.5988V35.0771H72.8232V28.2884C72.8232 25.9418 74.5591 24.7775 76.5874 24.7775C79.3835 24.7775 80.0227 26.2463 80.0227 28.0555V35.0771H81.2471V27.7868ZM95.1914 27.8226C95.1914 25.1179 93.6376 23.6133 90.7138 23.6133C89.1061 23.6133 87.6074 24.3118 86.8035 25.5298H86.7669V23.7923H85.5426V35.0773H86.7669V28.3421C86.7669 25.96 88.5029 24.7775 90.5311 24.7775C93.3273 24.7775 93.9671 26.2284 93.9671 28.1809V35.0769H95.1914V27.8226ZM108.038 29.4348C108.038 31.9962 106.887 34.092 104.055 34.092C101.24 34.092 100.071 31.9783 100.071 29.4348C100.071 26.8733 101.204 24.7775 104.055 24.7775C106.869 24.7775 108.038 26.8733 108.038 29.4348ZM109.263 29.4348C109.263 25.9956 107.527 23.6132 104.036 23.6132C100.583 23.6132 98.8466 26.0313 98.8466 29.4348C98.8466 32.856 100.583 35.2563 104.055 35.2563C107.49 35.2563 109.263 32.8379 109.263 29.4348ZM114.216 20.0308H113.01V35.0771H114.216V20.0308ZM127.154 29.4348C127.154 31.9962 126.003 34.092 123.171 34.092C120.356 34.092 119.187 31.9783 119.187 29.4348C119.187 26.8733 120.32 24.7775 123.171 24.7775C125.985 24.7775 127.154 26.8733 127.154 29.4348ZM128.378 29.4348C128.378 25.9956 126.643 23.6132 123.152 23.6132C119.698 23.6132 117.962 26.0313 117.962 29.4348C117.962 32.856 119.698 35.2563 123.171 35.2563C126.606 35.2563 128.378 32.8379 128.378 29.4348ZM140.605 28.8615C140.605 31.1723 139.362 32.8918 136.566 32.8918C134.007 32.8918 132.71 31.2618 132.71 28.8615C132.71 26.5688 133.934 24.7775 136.566 24.7775C139.179 24.7775 140.605 26.4792 140.605 28.8615ZM140.459 23.8102V25.5119H140.422C139.691 24.3294 138.247 23.6131 136.493 23.6131C133.203 23.6131 131.486 25.9596 131.486 28.8614C131.486 31.996 133.13 34.0381 136.511 34.0381C138.211 34.0381 139.508 33.3574 140.422 32.1392H140.459V34.1632C140.459 36.4559 139.143 37.7994 136.694 37.7994C135.488 37.7994 134.154 37.3694 133.222 36.6888L132.345 37.5665C133.587 38.48 135.013 38.9279 136.694 38.9279C140.111 38.9279 141.683 37.2083 141.683 34.1632V23.8102H140.459ZM147.293 23.8102H146.069V35.0771H147.293V23.8102ZM147.604 20.9443C147.604 20.2994 147.293 19.9233 146.691 19.9233C146.106 19.9233 145.777 20.2994 145.777 20.9443C145.777 21.5891 146.106 21.9653 146.691 21.9653C147.276 21.9653 147.604 21.5891 147.604 20.9443ZM152.173 28.8794L152.301 28.7544C152.593 26.3183 153.891 24.7778 156.303 24.7778C158.642 24.7778 160.013 26.3185 160.196 28.7544L160.324 28.8794H152.173ZM161.456 29.5243C161.456 26.0672 159.775 23.6133 156.285 23.6133C152.977 23.6133 151.04 26.0314 151.04 29.5243C151.04 32.8381 152.721 35.2563 156.376 35.2563C157.985 35.2563 159.355 34.7368 160.397 33.7695L159.538 32.9098C158.697 33.6621 157.619 34.092 156.376 34.092C153.945 34.092 152.593 32.7664 152.283 30.0975L152.155 29.99H161.438C161.454 29.8354 161.461 29.6798 161.456 29.5243ZM173.646 32.0857C173.646 30.7244 172.86 29.7214 170.631 29.0944C170.375 29.0228 169.023 28.5929 168.785 28.5212C166.958 28.0197 166.08 27.5181 166.08 26.6046C166.08 25.6194 167.122 24.7775 169.132 24.7775C170.521 24.7775 171.581 25.3149 172.385 26.2105L173.317 25.3149C172.257 24.2043 170.814 23.6133 169.132 23.6133C166.117 23.6133 164.838 25.1179 164.838 26.6583C164.838 28.2884 166.135 29.0404 168.164 29.6316C168.419 29.7033 169.973 30.1691 170.21 30.2229C171.819 30.6707 172.403 31.226 172.403 32.1574C172.403 33.2859 171.27 34.1099 169.205 34.1099C167.835 34.1099 166.756 33.6621 165.514 32.5336L164.564 33.465C165.788 34.7189 167.56 35.2742 169.26 35.2742C172.494 35.2742 173.646 33.6442 173.646 32.0857Z" fill="black"/>
<path fill-rule="evenodd" clip-rule="evenodd" d="M12.168 20.2206L17.3108 15.1797L22.4536 20.2206L17.3108 25.2616L12.168 20.2206Z" fill="#05C2AE"/>
<path fill-rule="evenodd" clip-rule="evenodd" d="M5.30822 25.2782L10.4412 20.2461L15.5742 25.2782L10.4412 30.3103L5.30822 25.2782Z" fill="url(#paint0_linear_1865_500)"/>
<path fill-rule="evenodd" clip-rule="evenodd" d="M0.202749 30.2801L5.33575 25.248L10.4688 30.2801L5.33575 35.3122L0.202749 30.2801Z" fill="url(#paint1_linear_1865_500)"/>
<path fill-rule="evenodd" clip-rule="evenodd" d="M10.4189 20.2092L5.28516 15.1778L10.4189 10.1465L15.5527 15.1778L10.4189 20.2092Z" fill="url(#paint2_linear_1865_500)"/>
<path fill-rule="evenodd" clip-rule="evenodd" d="M5.31344 15.2072L0.179688 10.1759L5.31344 5.14453L10.4472 10.1759L5.31344 15.2072Z" fill="url(#paint3_linear_1865_500)"/>
<path fill-rule="evenodd" clip-rule="evenodd" d="M10.4189 10.2033L5.28516 5.17197L10.4189 0.140625L15.5527 5.17197L10.4189 10.2033Z" fill="url(#paint4_linear_1865_500)"/>
</g>
<defs>
<linearGradient id="paint0_linear_1865_500" x1="10.4412" y1="30.3103" x2="10.4412" y2="20.2461" gradientUnits="userSpaceOnUse">
<stop offset="0.225962" stop-color="#05C2AE"/>
<stop offset="0.524038" stop-color="#05C2AE"/>
<stop offset="0.913462" stop-color="#00413A"/>
</linearGradient>
<linearGradient id="paint1_linear_1865_500" x1="5.33575" y1="35.3122" x2="5.33575" y2="25.248" gradientUnits="userSpaceOnUse">
<stop offset="0.225962" stop-color="#05C2AE"/>
<stop offset="0.524038" stop-color="#05C2AE"/>
<stop offset="0.913462" stop-color="#00413A"/>
</linearGradient>
<linearGradient id="paint2_linear_1865_500" x1="15.5527" y1="15.1778" x2="5.28516" y2="15.1778" gradientUnits="userSpaceOnUse">
<stop offset="0.225962" stop-color="#05C2AE"/>
<stop offset="0.524038" stop-color="#05C2AE"/>
<stop offset="0.913462" stop-color="#00413A"/>
</linearGradient>
<linearGradient id="paint3_linear_1865_500" x1="10.4472" y1="10.1759" x2="0.179687" y2="10.1759" gradientUnits="userSpaceOnUse">
<stop offset="0.225962" stop-color="#05C2AE"/>
<stop offset="0.524038" stop-color="#05C2AE"/>
<stop offset="0.913462" stop-color="#00413A"/>
</linearGradient>
<linearGradient id="paint4_linear_1865_500" x1="15.5527" y1="5.17197" x2="5.28516" y2="5.17197" gradientUnits="userSpaceOnUse">
<stop offset="0.225962" stop-color="#05C2AE"/>
<stop offset="0.524038" stop-color="#05C2AE"/>
<stop offset="0.913462" stop-color="#00413A"/>
</linearGradient>
<clipPath id="clip0_1865_500">
<rect width="174" height="39" fill="white"/>
</clipPath>
</defs>
</svg>
