<svg width="32" height="32" viewBox="0 0 32 32" fill="none" xmlns="http://www.w3.org/2000/svg">
<circle cx="16" cy="16" r="16" fill="#F4F4F4"/>
<mask id="mask0_1865_489" style="mask-type:alpha" maskUnits="userSpaceOnUse" x="6" y="6" width="20" height="20">
<rect x="6" y="6" width="20" height="20" fill="#D9D9D9"/>
</mask>
<g mask="url(#mask0_1865_489)">
<path d="M15.9956 24C15.5819 24 15.2292 23.8531 14.9375 23.5594C14.6458 23.2656 14.5 22.9125 14.5 22.5H17.5C17.5 22.9167 17.3527 23.2708 17.0581 23.5625C16.7635 23.8542 16.4094 24 15.9956 24ZM10 21.5V20H11V15C11 13.7917 11.3715 12.7292 12.1146 11.8125C12.8576 10.8958 13.8194 10.3264 15 10.1042V9C15 8.72222 15.0972 8.48611 15.2917 8.29167C15.4861 8.09722 15.7222 8 16 8C16.2778 8 16.5139 8.09722 16.7083 8.29167C16.9028 8.48611 17 8.72222 17 9V9.5625C16.8472 9.85417 16.7257 10.1667 16.6354 10.5C16.5451 10.8333 16.5 11.1806 16.5 11.5417C16.4138 11.5306 16.3297 11.5208 16.2479 11.5125C16.166 11.5042 16.0833 11.5 16 11.5C15.0278 11.5 14.2014 11.8403 13.5208 12.5208C12.8403 13.2014 12.5 14.0278 12.5 15V20H19.5V15.375C19.7361 15.4444 19.9826 15.4861 20.2396 15.5C20.4965 15.5139 20.75 15.5069 21 15.4792V19.9948H22V21.5H10ZM20.5 14C19.8056 14 19.2153 13.7569 18.7292 13.2708C18.2431 12.7847 18 12.1944 18 11.5C18 10.8056 18.2431 10.2153 18.7292 9.72917C19.2153 9.24306 19.8056 9 20.5 9C21.1944 9 21.7847 9.24306 22.2708 9.72917C22.7569 10.2153 23 10.8056 23 11.5C23 12.1944 22.7569 12.7847 22.2708 13.2708C21.7847 13.7569 21.1944 14 20.5 14Z" fill="#393939"/>
</g>
</svg>
