<svg width="24" height="24" viewBox="0 0 24 24" fill="none" xmlns="http://www.w3.org/2000/svg">
<g clip-path="url(#clip0_1865_494)">
<path d="M12 0C5.37281 0 0 5.37281 0 12C0 18.6272 5.37281 24 12 24C18.6272 24 24 18.6272 24 12C24 5.37281 18.6272 0 12 0ZM12 3.65625C12.8519 3.65625 13.6847 3.90887 14.393 4.38217C15.1014 4.85547 15.6535 5.52818 15.9795 6.31524C16.3055 7.10231 16.3908 7.96837 16.2246 8.80392C16.0584 9.63946 15.6481 10.407 15.0458 11.0093C14.4434 11.6117 13.6759 12.022 12.8403 12.1882C12.0048 12.3544 11.1387 12.2691 10.3517 11.9431C9.56459 11.617 8.89187 11.065 8.41857 10.3566C7.94528 9.64829 7.69266 8.81551 7.69266 7.96359C7.69266 6.82122 8.14646 5.72563 8.95425 4.91784C9.76203 4.11006 10.8576 3.65625 12 3.65625ZM19.2009 18.0037C18.3211 19.0591 17.22 19.9082 15.9757 20.4909C14.7313 21.0736 13.374 21.3757 12 21.3757C10.626 21.3757 9.26872 21.0736 8.02435 20.4909C6.77998 19.9082 5.6789 19.0591 4.79906 18.0037C4.68008 17.8612 4.59632 17.6926 4.55455 17.5117C4.51277 17.3307 4.51416 17.1425 4.55859 16.9622C4.96695 15.3052 5.91645 13.8318 7.25672 12.7753C7.45664 12.6186 7.70244 12.5317 7.95644 12.5281C8.21045 12.5245 8.45864 12.6042 8.66297 12.7552C9.55359 13.4175 10.7213 13.8187 11.9981 13.8187C13.275 13.8187 14.4422 13.4175 15.3333 12.7552C15.5376 12.6042 15.7858 12.5245 16.0398 12.5281C16.2938 12.5317 16.5396 12.6186 16.7395 12.7753C18.0798 13.8318 19.0293 15.3052 19.4377 16.9622C19.4826 17.1422 19.4846 17.3303 19.4435 17.5112C19.4024 17.6921 19.3193 17.8608 19.2009 18.0037Z" fill="#1E665E"/>
</g>
<defs>
<clipPath id="clip0_1865_494">
<rect width="24" height="24" fill="white"/>
</clipPath>
</defs>
</svg>
