<svg width="64" height="64" viewBox="0 0 64 64" fill="none" xmlns="http://www.w3.org/2000/svg">
<path d="M59 51.5H58V46.739C58 46.4738 57.8946 46.2194 57.7071 46.0319C57.5196 45.8444 57.2652 45.739 57 45.739H53.43C51.3527 45.5813 49.3255 45.0234 47.46 44.096C45.1402 42.9603 42.6152 42.3042 40.036 42.167C37.0604 42.2066 34.2021 43.3334 32 45.335C29.7979 43.3334 26.9396 42.2066 23.964 42.167C21.3844 42.3044 18.859 42.9608 16.539 44.097C14.6741 45.0238 12.6476 45.5814 10.571 45.739H7C6.73478 45.739 6.48043 45.8444 6.29289 46.0319C6.10536 46.2194 6 46.4738 6 46.739V51.5H5C4.73478 51.5 4.48043 51.6054 4.29289 51.7929C4.10536 51.9804 4 52.2348 4 52.5V54.5C4.00106 55.5605 4.42283 56.5773 5.17274 57.3273C5.92266 58.0772 6.93946 58.4989 8 58.5H29.127C29.4495 58.9631 29.8792 59.3414 30.3794 59.6026C30.8797 59.8639 31.4357 60.0003 32 60.0003C32.5643 60.0003 33.1203 59.8639 33.6206 59.6026C34.1208 59.3414 34.5505 58.9631 34.873 58.5H56C57.0605 58.4989 58.0773 58.0772 58.8273 57.3273C59.5772 56.5773 59.9989 55.5605 60 54.5V52.5C60 52.2348 59.8946 51.9804 59.7071 51.7929C59.5196 51.6054 59.2652 51.5 59 51.5ZM8 47.739H10.572C12.9112 47.5879 15.198 46.9784 17.302 45.945C19.3843 44.9206 21.6481 44.3164 23.964 44.167C26.6021 44.228 29.118 45.2914 31 47.141V51.684C30.6797 51.5655 30.3414 51.5033 30 51.5H8V47.739ZM58 54.5C57.9995 55.0303 57.7886 55.5387 57.4136 55.9136C57.0387 56.2886 56.5303 56.4995 56 56.5H34.29C34.0947 56.5 33.9037 56.5573 33.7406 56.6646C33.5775 56.7719 33.4493 56.9247 33.372 57.104C33.2552 57.3706 33.0632 57.5974 32.8195 57.7566C32.5758 57.9159 32.2911 58.0007 32 58.0007C31.7089 58.0007 31.4242 57.9159 31.1805 57.7566C30.9368 57.5974 30.7448 57.3706 30.628 57.104C30.5507 56.9247 30.4225 56.7719 30.2594 56.6646C30.0963 56.5573 29.9053 56.5 29.71 56.5H8C7.46973 56.4995 6.96133 56.2886 6.58637 55.9136C6.21141 55.5387 6.00053 55.0303 6 54.5V53.5H30C30.2651 53.5003 30.5193 53.6057 30.7068 53.7932C30.8943 53.9807 30.9997 54.2349 31 54.5V54.532C31.0003 54.6625 31.0264 54.7917 31.077 54.912C31.1275 55.0323 31.2014 55.1414 31.2944 55.2329C31.3875 55.3244 31.4977 55.3966 31.6188 55.4452C31.74 55.4938 31.8695 55.5179 32 55.516C32.2668 55.5123 32.5215 55.4036 32.7087 55.2134C32.8959 55.0232 33.0006 54.7669 33 54.5C33.0003 54.2349 33.1057 53.9807 33.2932 53.7932C33.4807 53.6057 33.7349 53.5003 34 53.5H50.675C50.9402 53.5 51.1946 53.3946 51.3821 53.2071C51.5696 53.0196 51.675 52.7652 51.675 52.5C51.675 52.2348 51.5696 51.9804 51.3821 51.7929C51.1946 51.6054 50.9402 51.5 50.675 51.5H34C33.6586 51.5033 33.3203 51.5655 33 51.684V47.141C34.882 45.2913 37.3979 44.2278 40.036 44.167C42.3515 44.3165 44.615 44.9207 46.697 45.945C48.8017 46.9786 51.0891 47.5882 53.429 47.739H56V51.5H54.675C54.4098 51.5 54.1554 51.6054 53.9679 51.7929C53.7804 51.9804 53.675 52.2348 53.675 52.5C53.675 52.7652 53.7804 53.0196 53.9679 53.2071C54.1554 53.3946 54.4098 53.5 54.675 53.5H58V54.5ZM17 37H28.5L31.2 40.6C31.2931 40.7242 31.4139 40.825 31.5528 40.8944C31.6916 40.9639 31.8448 41 32 41C32.1552 41 32.3084 40.9639 32.4472 40.8944C32.5861 40.825 32.7069 40.7242 32.8 40.6L35.5 37H47C47.7954 36.9992 48.558 36.6829 49.1204 36.1204C49.6829 35.558 49.9992 34.7954 50 34V7C49.9992 6.20459 49.6829 5.44199 49.1204 4.87956C48.558 4.31712 47.7954 4.00079 47 4H17C16.2046 4.00079 15.442 4.31712 14.8796 4.87956C14.3171 5.44199 14.0008 6.20459 14 7V28C14 28.2652 14.1054 28.5196 14.2929 28.7071C14.4804 28.8946 14.7348 29 15 29C15.2652 29 15.5196 28.8946 15.7071 28.7071C15.8946 28.5196 16 28.2652 16 28V7C16.0003 6.73486 16.1057 6.48066 16.2932 6.29319C16.4807 6.10571 16.7349 6.00026 17 6H47C47.2651 6.00026 47.5193 6.10571 47.7068 6.29319C47.8943 6.48066 47.9997 6.73486 48 7V34C47.9997 34.2651 47.8943 34.5193 47.7068 34.7068C47.5193 34.8943 47.2651 34.9997 47 35H35C34.8447 34.9999 34.6916 35.036 34.5527 35.1055C34.4139 35.1749 34.2931 35.2757 34.2 35.4L32 38.334L29.8 35.4C29.7069 35.2757 29.5861 35.1749 29.4473 35.1055C29.3084 35.036 29.1553 34.9999 29 35H17C16.7349 34.9997 16.4807 34.8943 16.2932 34.7068C16.1057 34.5193 16.0003 34.2651 16 34V32C16 31.7348 15.8946 31.4804 15.7071 31.2929C15.5196 31.1054 15.2652 31 15 31C14.7348 31 14.4804 31.1054 14.2929 31.2929C14.1054 31.4804 14 31.7348 14 32V34C14.0008 34.7954 14.3171 35.558 14.8796 36.1204C15.442 36.6829 16.2046 36.9992 17 37Z" fill="#04A391"/>
<path d="M19 8C18.7348 8 18.4804 8.10536 18.2929 8.29289C18.1054 8.48043 18 8.73478 18 9V32C18 32.2652 18.1054 32.5196 18.2929 32.7071C18.4804 32.8946 18.7348 33 19 33H45C45.2652 33 45.5196 32.8946 45.7071 32.7071C45.8946 32.5196 46 32.2652 46 32C46 31.7348 45.8946 31.4804 45.7071 31.2929C45.5196 31.1054 45.2652 31 45 31H20V9C20 8.73478 19.8946 8.48043 19.7071 8.29289C19.5196 8.10536 19.2652 8 19 8Z" fill="#04A391"/>
<path d="M31.9696 17.7558C31.782 17.5684 31.5277 17.4631 31.2626 17.4631C30.9974 17.4631 30.7431 17.5684 30.5556 17.7558L23.7936 24.5168C23.6981 24.6091 23.6219 24.7194 23.5695 24.8414C23.5171 24.9634 23.4895 25.0947 23.4883 25.2274C23.4872 25.3602 23.5125 25.4919 23.5627 25.6148C23.613 25.7377 23.6873 25.8493 23.7812 25.9432C23.8751 26.0371 23.9867 26.1114 24.1096 26.1617C24.2325 26.2119 24.3642 26.2372 24.497 26.2361C24.6298 26.2349 24.761 26.2074 24.883 26.1549C25.005 26.1025 25.1153 26.0264 25.2076 25.9308L31.2626 19.8768L33.9356 22.5508C34.1231 22.7383 34.3774 22.8436 34.6426 22.8436C34.9077 22.8436 35.162 22.7383 35.3496 22.5508L40.5006 17.3988V18.3658C40.5006 18.6311 40.6059 18.8854 40.7935 19.0729C40.981 19.2605 41.2354 19.3658 41.5006 19.3658C41.7658 19.3658 42.0201 19.2605 42.2077 19.0729C42.3952 18.8854 42.5006 18.6311 42.5006 18.3658V14.9858C42.5006 14.7206 42.3952 14.4663 42.2077 14.2787C42.0201 14.0912 41.7658 13.9858 41.5006 13.9858H38.1206C37.8554 13.9858 37.601 14.0912 37.4135 14.2787C37.2259 14.4663 37.1206 14.7206 37.1206 14.9858C37.1206 15.2511 37.2259 15.5054 37.4135 15.6929C37.601 15.8805 37.8554 15.9858 38.1206 15.9858H39.0866L34.6426 20.4288L31.9696 17.7558Z" fill="#04A391"/>
</svg>
