<svg width="64" height="64" viewBox="0 0 64 64" fill="none" xmlns="http://www.w3.org/2000/svg">
<g clip-path="url(#clip0_1105_33416)">
<path d="M30.9221 22.403C31.339 22.799 32.0324 22.7189 32.3492 22.2409L38.589 12.8239C38.657 12.7212 38.7042 12.6061 38.7277 12.4852C38.7513 12.3643 38.7508 12.24 38.7263 12.1193C38.7018 11.9986 38.6538 11.8839 38.585 11.7817C38.5162 11.6796 38.4279 11.592 38.3252 11.524C37.8942 11.2384 37.3121 11.3565 37.026 11.7877L31.403 20.274L28.2785 17.3072C28.0981 17.136 27.8571 17.0435 27.6084 17.05C27.3598 17.0565 27.124 17.1615 26.9527 17.3419C26.868 17.4311 26.8017 17.5363 26.7576 17.6512C26.7135 17.7661 26.6924 17.8886 26.6956 18.0117C26.6989 18.1347 26.7263 18.256 26.7764 18.3684C26.8265 18.4809 26.8982 18.5824 26.9875 18.6671C26.987 18.6671 30.9186 22.4 30.922 22.403H30.9221Z" fill="#04A391"/>
<path d="M31.5575 36.7021C31.7379 36.7845 31.9338 36.8273 32.1321 36.8276H32.14C32.3412 36.8266 32.5397 36.7812 32.7215 36.6949C46.9774 29.915 49.3934 15.2871 49.7937 10.9654C49.8856 9.9785 49.33 9.05962 48.4115 8.67875C45.5735 7.5005 43.6444 4.86575 43.3767 1.80275C43.2942 0.859875 42.4886 0.125 41.5394 0.125H41.5281L22.3221 0.23775C21.3539 0.243125 20.5671 0.979 20.493 1.94925C20.2567 5.01312 18.3557 7.667 15.532 8.875C14.6229 9.26375 14.0809 10.1875 14.1845 11.1737C14.6356 15.4907 17.223 30.0899 31.5575 36.7021ZM16.2694 10.5988C19.7319 9.11825 22.0644 5.86775 22.3606 2.1125L41.5116 2C41.852 5.74712 44.2177 8.96775 47.6929 10.4101C47.8481 10.4751 47.9424 10.6284 47.9272 10.7925C47.5512 14.8427 45.3018 28.4995 32.1289 34.8994C18.8804 28.6553 16.4726 15.0249 16.0489 10.979C16.04 10.9003 16.0567 10.8209 16.0964 10.7524C16.1361 10.6839 16.1968 10.63 16.2695 10.5986L16.2694 10.5988Z" fill="#04A391"/>
<path d="M18.6132 15.7959C18.7266 16.2129 19.2553 16.5946 19.7641 16.4546C20.2632 16.3169 20.5586 15.8037 20.4228 15.3042C20.1849 14.4282 19.9857 13.5421 19.8257 12.6485C22.3697 10.9926 24.2644 8.50953 25.19 5.61861L38.729 5.53911C39.6883 8.41892 41.612 10.8795 44.1752 12.5054C44.0261 13.4015 43.8372 14.2905 43.609 15.1699C43.5466 15.4106 43.5824 15.6662 43.7086 15.8806C43.8347 16.0949 44.0408 16.2503 44.2815 16.3127C44.5223 16.375 44.7779 16.3392 44.9922 16.2131C45.2065 16.0869 45.362 15.8808 45.4243 15.6401C45.6919 14.6084 45.9086 13.5642 46.0737 12.5112C46.1188 12.2291 46.0786 11.9399 45.9582 11.6809C45.8378 11.4218 45.6427 11.2046 45.398 11.0571C43.0102 9.61691 41.2383 7.34568 40.4223 4.67923C40.2382 4.07911 39.6723 3.66211 39.0445 3.66211H39.0357L24.8607 3.74511C24.229 3.74898 23.6636 4.17436 23.4863 4.77886C22.7001 7.45698 20.9595 9.74261 18.586 11.2149C18.0885 11.523 17.8301 12.0966 17.9272 12.6767C18.1049 13.727 18.3338 14.768 18.6132 15.7959ZM43.5293 18.5756C43.0507 18.3775 42.503 18.606 42.3052 19.0844C40.1387 24.3355 36.709 28.3276 32.1083 30.9551C27.4721 28.3784 23.9927 24.4199 21.7651 19.1855C21.6675 18.9569 21.4831 18.7763 21.2525 18.6835C21.0219 18.5907 20.7639 18.5932 20.5351 18.6905C20.4218 18.7387 20.3192 18.8087 20.233 18.8966C20.1468 18.9844 20.0787 19.0884 20.0327 19.2026C19.9867 19.3167 19.9636 19.4388 19.9648 19.5619C19.966 19.685 19.9914 19.8066 20.0396 19.9199C22.4707 25.6319 26.3008 29.938 31.4233 32.7177C31.6368 32.8344 31.8764 32.8949 32.1197 32.8936C32.3629 32.8922 32.6018 32.829 32.814 32.71C37.898 29.8735 41.6743 25.5297 44.0386 19.7994C44.0856 19.6856 44.1098 19.5636 44.1096 19.4405C44.1095 19.3174 44.0851 19.1955 44.0378 19.0819C43.9905 18.9682 43.9212 18.865 43.834 18.7781C43.7467 18.6912 43.6432 18.6224 43.5293 18.5756ZM6.01609 48.0966C4.18747 48.0966 2.69922 49.5845 2.69922 51.4136C2.69922 53.2426 4.18747 54.7305 6.01609 54.7305C7.84522 54.7305 9.33359 53.2426 9.33359 51.4136C9.33359 49.5845 7.84572 48.0966 6.01609 48.0966ZM6.01609 52.8554C5.22109 52.8554 4.57422 52.209 4.57422 51.4136C4.57422 50.6186 5.22122 49.9716 6.01609 49.9716C6.81147 49.9716 7.45859 50.6186 7.45859 51.4136C7.45859 52.209 6.81147 52.8555 6.01609 52.8555V52.8554Z" fill="#04A391"/>
<path d="M63.3276 38.9186C62.126 37.153 59.7065 36.6851 57.9346 37.8756L45.6787 46.0782L43.0625 45.9312L42.9956 45.2612C42.8716 43.9895 42.3231 42.7965 41.4385 41.8744C40.5539 40.9524 39.3846 40.3549 38.1191 40.1783C38.1028 40.1759 38.0863 40.1739 38.0699 40.1725L24.8638 39.0151C24.417 38.9453 22.9869 38.5346 19.0571 36.2807C17.0146 35.1093 14.7134 34.4482 12.3755 34.3583V31.9058C12.3755 30.6747 11.3745 29.6738 10.1435 29.6738H2.23187C1.0015 29.6738 0 30.6753 0 31.9058V56.0616C0 57.2921 1.0015 58.2936 2.23187 58.2936H10.1435C11.374 58.2936 12.3755 57.2921 12.3755 56.0616V55.3961L23.9194 59.7677C23.9449 59.7775 24.8824 60.128 26.606 59.9655C26.6109 59.965 45.7871 57.2003 45.7871 57.2003C45.792 57.1998 45.7964 57.1988 45.8013 57.1978C47.4415 56.9356 48.9834 56.2448 50.271 55.1953C50.2827 55.1856 50.294 55.1758 50.3051 55.1661L62.6934 44.024C64.1534 42.7277 64.4262 40.5327 63.3276 38.9186ZM61.4439 42.6261L49.0689 53.7565C48.0426 54.5878 46.8163 55.1356 45.5122 55.3452L26.3452 58.1085C26.3397 58.1092 26.3341 58.11 26.3286 58.111L26.3194 58.1123C25.7461 58.2027 25.1489 58.1646 24.544 57.9991L12.3755 53.3913V42.6848C12.3755 42.4362 12.2767 42.1977 12.1009 42.0219C11.9251 41.8461 11.6866 41.7473 11.438 41.7473C11.3149 41.7473 11.1929 41.7715 11.0792 41.8186C10.9654 41.8657 10.862 41.9347 10.775 42.0218C10.6879 42.1089 10.6189 42.2122 10.5718 42.326C10.5247 42.4398 10.5005 42.5617 10.5005 42.6848V56.0617C10.5004 56.1563 10.4627 56.2471 10.3958 56.314C10.3289 56.3809 10.2381 56.4186 10.1435 56.4187H2.23187C2.13723 56.4185 2.04652 56.3809 1.97962 56.3139C1.91272 56.247 1.8751 56.1562 1.875 56.0616V31.9058C1.87517 31.8112 1.91282 31.7206 1.97971 31.6537C2.0466 31.5868 2.13728 31.5491 2.23187 31.549H10.1435C10.2381 31.5491 10.3288 31.5867 10.3957 31.6536C10.4627 31.7205 10.5003 31.8112 10.5005 31.9058V38.4498C10.5005 38.6985 10.5993 38.9369 10.7751 39.1127C10.9509 39.2886 11.1894 39.3873 11.438 39.3873C11.6866 39.3873 11.9251 39.2886 12.1009 39.1127C12.2767 38.9369 12.3755 38.6985 12.3755 38.4498V36.2355C14.3867 36.3242 16.3652 36.8985 18.124 37.9078C22.8638 40.6261 24.1875 40.8136 24.6225 40.8751C24.6391 40.8776 24.6553 40.879 24.6719 40.881L37.8794 42.0382C38.7242 42.1614 39.5033 42.5641 40.0925 43.182C40.6817 43.7998 41.0469 44.5973 41.1299 45.447L41.1797 45.9463L23.4975 47.0382C23.2097 47.018 22.929 46.9397 22.6722 46.808C22.4155 46.6763 22.1881 46.494 22.0037 46.2721C21.925 46.1775 21.8283 46.0993 21.7193 46.0421C21.6103 45.9849 21.4911 45.9497 21.3685 45.9386C21.2459 45.9275 21.1223 45.9407 21.0048 45.9774C20.8873 46.0141 20.7781 46.0736 20.6836 46.1525C20.589 46.2312 20.5109 46.3279 20.4536 46.4369C20.3964 46.5459 20.3612 46.6652 20.3501 46.7878C20.339 46.9104 20.3522 47.034 20.3889 47.1515C20.4256 47.2691 20.4851 47.3782 20.564 47.4727C21.252 48.298 22.2228 48.7916 23.2954 48.903C23.8745 48.9635 42.211 47.7613 42.211 47.7613L45.8867 47.9678C46.09 47.9793 46.2915 47.9241 46.4605 47.8106L58.979 39.4327C59.8985 38.8151 61.1537 39.0572 61.7774 39.9732C62.3471 40.8111 62.2056 41.9498 61.4439 42.6261Z" fill="#04A391"/>
</g>
<defs>
<clipPath id="clip0_1105_33416">
<rect width="64" height="64" fill="white"/>
</clipPath>
</defs>
</svg>
