<svg width="64" height="64" viewBox="0 0 64 64" fill="none" xmlns="http://www.w3.org/2000/svg">
<g clip-path="url(#clip0_1105_33396)">
<path d="M29.8372 42.1372C29.554 42.1372 29.2825 42.2497 29.0822 42.4499C28.882 42.6501 28.7695 42.9217 28.7695 43.2049C28.7695 43.488 28.882 43.7596 29.0822 43.9598C29.2825 44.16 29.554 44.2725 29.8372 44.2725C31.6062 44.2725 33.0402 45.7065 33.0402 47.4755C33.0402 47.7587 33.1527 48.0302 33.3529 48.2305C33.5531 48.4307 33.8247 48.5432 34.1078 48.5432C34.391 48.5432 34.6626 48.4307 34.8628 48.2305C35.063 48.0302 35.1755 47.7587 35.1755 47.4755C35.172 44.5286 32.7841 42.1407 29.8372 42.1372Z" fill="#04A391"/>
<path d="M63.6878 13.6458L63.687 13.645L50.8525 0.810632C50.6485 0.617736 50.3784 0.510254 50.0976 0.510254C49.8169 0.510254 49.5468 0.617736 49.3428 0.810632L43.303 6.85039C43.1029 7.05061 42.9904 7.32212 42.9904 7.60523C42.9904 7.88833 43.1029 8.15985 43.303 8.36006L44.0579 9.1149L43.5422 9.63165C41.1131 10.0828 38.8788 11.2625 37.1362 13.014L33.8574 16.2992L32.02 14.4617C30.9658 13.4019 29.7119 12.5617 28.3308 11.9898C26.9497 11.4178 25.4689 11.1254 23.9741 11.1296H21.1373L19.9405 9.93273L20.6953 9.17789C20.8955 8.97767 21.0079 8.70616 21.0079 8.42305C21.0079 8.13995 20.8955 7.86843 20.6953 7.66822L14.6556 1.62526C14.4553 1.4251 14.1838 1.31266 13.9007 1.31266C13.6176 1.31266 13.3461 1.4251 13.1459 1.62526L0.312597 14.4585C0.112441 14.6588 0 14.9303 0 15.2134C0 15.4965 0.112441 15.768 0.312597 15.9682L6.35129 22.008C6.5515 22.2081 6.82302 22.3206 7.10612 22.3206C7.38923 22.3206 7.66074 22.2081 7.86096 22.008L8.6158 21.2531L9.13254 21.7699C9.58482 24.1986 10.7644 26.4326 12.5149 28.1758L20.2255 35.8822V41.0689C20.2213 42.5637 20.5137 44.0445 21.0858 45.4254C21.658 46.8064 22.4986 48.06 23.5588 49.1137L25.5638 51.1199V52.8132H24.4962C24.213 52.8132 23.9415 52.9257 23.7412 53.1259C23.541 53.3261 23.4285 53.5977 23.4285 53.8809V62.4221C23.4285 62.7053 23.541 62.9769 23.7412 63.1771C23.9415 63.3773 24.213 63.4898 24.4962 63.4898H42.6464C42.9296 63.4898 43.2011 63.3773 43.4014 63.1771C43.6016 62.9769 43.7141 62.7053 43.7141 62.4221V53.8809C43.7141 53.5977 43.6016 53.3261 43.4014 53.1259C43.2011 52.9257 42.9296 52.8132 42.6464 52.8132H41.5788V52.0829C42.9747 50.0462 43.7193 47.6336 43.7141 45.1645V38.7051C44.4103 38.6227 45.0588 38.3092 45.5558 37.8147L50.8525 32.518C52.9795 30.3799 54.1773 27.4891 54.1857 24.4732V21.6375L55.3825 20.4396L56.1374 21.1955C56.3376 21.3956 56.6091 21.5081 56.8922 21.5081C57.1753 21.5081 57.4468 21.3956 57.6471 21.1955L63.6868 15.1557C63.786 15.0566 63.8647 14.939 63.9185 14.8095C63.9722 14.68 63.9999 14.5412 64 14.4009C64.0001 14.2607 63.9726 14.1219 63.919 13.9923C63.8654 13.8627 63.7868 13.745 63.6878 13.6458ZM7.86096 18.9886L7.10612 19.7435L2.57711 15.2134L13.9007 3.88977L18.4308 8.41985L17.677 9.17362L7.86096 18.9886ZM14.0246 26.6619C12.5085 25.1524 11.5126 23.1992 11.1814 21.0855C11.1459 20.863 11.0408 20.6575 10.8814 20.4983L10.1265 19.7435L14.2787 15.5913L18.4308 11.4392L19.9405 12.9489C20.1407 13.1491 20.4122 13.2616 20.6953 13.2617H23.9741C25.1884 13.2582 26.3914 13.4956 27.5133 13.9602C28.6353 14.4248 29.6539 15.1073 30.5103 15.9682L32.3478 17.8067L30.837 19.3164L28.9996 17.479C28.9005 17.3795 28.7827 17.3006 28.6531 17.2467C28.5235 17.1928 28.3845 17.165 28.2441 17.1648C28.1037 17.1646 27.9647 17.192 27.8349 17.2456C27.7051 17.2991 27.5872 17.3777 27.4878 17.4768C27.3884 17.5759 27.3095 17.6937 27.2555 17.8233C27.2016 17.9529 27.1738 18.0919 27.1736 18.2323C27.1734 18.3727 27.2008 18.5117 27.2544 18.6415C27.3079 18.7713 27.3865 18.8892 27.4856 18.9886L29.3231 20.8261L25.1677 24.9814C24.8705 25.2775 24.6353 25.6299 24.4758 26.018C24.3163 26.4061 24.2358 26.8221 24.2389 27.2416C24.2431 27.8672 24.4294 28.478 24.775 28.9994C25.1207 29.5208 25.6107 29.9302 26.1852 30.1777C25.7843 30.852 25.6531 31.6529 25.8179 32.4198L22.5392 29.141C22.4407 29.039 22.3229 28.9577 22.1926 28.9018C22.0623 28.8458 21.9222 28.8163 21.7805 28.8151C21.6387 28.8139 21.4981 28.8409 21.3669 28.8946C21.2357 28.9483 21.1165 29.0275 21.0163 29.1278C20.916 29.228 20.8367 29.3472 20.7831 29.4784C20.7294 29.6097 20.7024 29.7502 20.7036 29.892C20.7048 30.0338 20.7343 30.1739 20.7902 30.3041C20.8462 30.4344 20.9275 30.5522 21.0295 30.6507L25.2094 34.8306C25.3073 34.9286 25.3847 35.0452 25.437 35.1735C25.4892 35.3019 25.5153 35.4394 25.5137 35.5779C25.5109 35.8613 25.3966 36.1322 25.1956 36.3321C24.9946 36.5319 24.723 36.6445 24.4396 36.6456C24.3012 36.6544 24.1626 36.6316 24.0343 36.5791C23.9059 36.5266 23.7912 36.4457 23.6986 36.3424L14.0246 26.6619ZM41.5788 61.3545H25.5638V54.9485H41.5788V61.3545ZM41.5788 45.1645C41.5836 47.3042 40.9067 49.3898 39.6463 51.1188C39.5143 51.3011 39.4433 51.5205 39.4434 51.7455V52.8132H27.6992V50.6779C27.6991 50.3947 27.5866 50.1232 27.3863 49.923L25.0685 47.6041C24.2074 46.7479 23.5248 45.7295 23.0601 44.6077C22.5953 43.4859 22.3576 42.2831 22.3609 41.0689V37.9877C22.9353 38.492 23.672 38.7728 24.4364 38.7788H24.4535C26.2189 38.77 27.6477 37.3412 27.6565 35.5758C27.6526 35.2385 27.5945 34.9039 27.4846 34.585C27.8891 34.7993 28.3353 34.9232 28.7925 34.948C28.8807 36.5773 30.1796 37.88 31.8086 37.9727C31.9016 39.6663 33.2952 40.9959 34.9913 41.0091H35.003C35.4207 41.0108 35.8346 40.9295 36.2206 40.7699C36.6066 40.6102 36.9571 40.3755 37.2515 40.0792L40.4203 36.905C40.6766 37.4447 41.0776 37.9027 41.5788 38.2279V45.1645ZM52.3621 20.4396C52.1619 20.6398 52.0494 20.9113 52.0493 21.1944V24.4732C52.0421 26.923 51.0692 29.2712 49.3417 31.0084L44.0451 36.305C43.9483 36.4019 43.8333 36.4787 43.7066 36.531C43.58 36.5832 43.4443 36.6098 43.3073 36.6093C43.025 36.6065 42.7551 36.4931 42.5554 36.2935C42.3558 36.0939 42.2424 35.8239 42.2396 35.5416C42.2379 35.4032 42.2638 35.2657 42.3158 35.1374C42.3679 35.009 42.4451 34.8924 42.5429 34.7943L42.5493 34.7879L47.8406 29.4976C48.0351 29.2963 48.1427 29.0266 48.1403 28.7466C48.1378 28.4667 48.0255 28.1989 47.8276 28.0009C47.6296 27.803 47.3619 27.6907 47.0819 27.6883C46.802 27.6858 46.5323 27.7935 46.3309 27.9879L42.5567 31.7621L41.0407 33.2782L35.7504 38.5685C35.6535 38.6655 35.5382 38.7423 35.4114 38.7945C35.2846 38.8468 35.1487 38.8733 35.0116 38.8727C34.7294 38.8696 34.4596 38.7561 34.2601 38.5566C34.0605 38.357 33.947 38.0873 33.9439 37.8051C33.9425 37.6665 33.9688 37.5289 34.0212 37.4006C34.0736 37.2723 34.1512 37.1557 34.2493 37.0577L41.0556 30.2514C41.2501 30.05 41.3577 29.7803 41.3553 29.5004C41.3528 29.2205 41.2406 28.9527 41.0426 28.7547C40.8447 28.5568 40.5769 28.4445 40.2969 28.442C40.017 28.4396 39.7473 28.5472 39.5459 28.7417L32.7396 35.548C32.6428 35.645 32.5278 35.7218 32.4012 35.774C32.2745 35.8262 32.1388 35.8528 32.0018 35.8523C31.7197 35.849 31.4501 35.7355 31.2506 35.5359C31.0511 35.3364 30.9375 35.0668 30.9342 34.7847C30.9323 34.6461 30.9583 34.5085 31.0106 34.3801C31.0628 34.2518 31.1403 34.1352 31.2385 34.0373L38.0459 27.231C38.145 27.1318 38.2236 27.014 38.2773 26.8845C38.3309 26.7549 38.3585 26.616 38.3584 26.4758C38.3584 26.3355 38.3307 26.1967 38.277 26.0671C38.2233 25.9376 38.1445 25.8199 38.0453 25.7208C37.9461 25.6216 37.8284 25.543 37.6988 25.4894C37.5692 25.4357 37.4304 25.4082 37.2901 25.4082C37.1499 25.4083 37.011 25.4359 36.8815 25.4897C36.7519 25.5434 36.6343 25.6221 36.5351 25.7213L29.7021 32.5276C29.6056 32.6245 29.4907 32.7012 29.3642 32.7533C29.2377 32.8053 29.1022 32.8317 28.9654 32.8309H28.959C28.6767 32.8281 28.4068 32.7147 28.2071 32.5151C28.0075 32.3154 27.8941 32.0455 27.8913 31.7632C27.8907 31.4857 28.0001 31.2192 28.1956 31.0222L35.002 24.2148C35.2022 24.0142 35.3145 23.7423 35.3142 23.4589C35.3139 23.1754 35.201 22.9037 35.0004 22.7036C34.7997 22.5034 34.5278 22.3911 34.2444 22.3914C33.961 22.3917 33.6893 22.5045 33.4891 22.7052L28.8896 27.3046L28.1946 28.0008C28.0976 28.0975 27.9826 28.1742 27.856 28.2264C27.7294 28.2786 27.5937 28.3053 27.4568 28.305C27.1745 28.3023 26.9046 28.1889 26.7049 27.9893C26.5053 27.7896 26.3919 27.5197 26.3891 27.2374C26.3871 27.0989 26.4129 26.9613 26.465 26.833C26.5171 26.7046 26.5944 26.588 26.6924 26.49L38.6608 14.5226C40.1701 13.0065 42.1228 12.0103 44.2362 11.6784C44.4587 11.6428 44.6642 11.5378 44.8234 11.3783L45.5782 10.6235L53.8836 18.9288L52.3621 20.4396ZM56.8912 18.9299L45.5675 7.60523L50.0976 3.07514L61.4223 14.3998L56.8912 18.9299Z" fill="#04A391"/>
</g>
<defs>
<clipPath id="clip0_1105_33396">
<rect width="64" height="64" fill="white"/>
</clipPath>
</defs>
</svg>
