<svg width="24" height="24" viewBox="0 0 24 24" fill="none" xmlns="http://www.w3.org/2000/svg">
<mask id="mask0_1804_641" style="mask-type:alpha" maskUnits="userSpaceOnUse" x="0" y="0" width="24" height="24">
<rect width="24" height="24" fill="#D9D9D9"/>
</mask>
<g mask="url(#mask0_1804_641)">
<path d="M10.7266 15.6001L16.6766 9.6751L15.4016 8.4001L10.7266 13.0501L8.60156 10.9501L7.32656 12.2251L10.7266 15.6001ZM5.40156 20.4001C4.90656 20.4001 4.48281 20.2238 4.13031 19.8713C3.77781 19.5188 3.60156 19.0951 3.60156 18.6001V5.4001C3.60156 4.9051 3.77781 4.48135 4.13031 4.12885C4.48281 3.77635 4.90656 3.6001 5.40156 3.6001H18.6016C19.0966 3.6001 19.5203 3.77635 19.8728 4.12885C20.2253 4.48135 20.4016 4.9051 20.4016 5.4001V18.6001C20.4016 19.0951 20.2253 19.5188 19.8728 19.8713C19.5203 20.2238 19.0966 20.4001 18.6016 20.4001H5.40156ZM5.40156 18.6001H18.6016V5.4001H5.40156V18.6001Z" fill="white"/>
</g>
</svg>
