<svg width="64" height="64" viewBox="0 0 64 64" fill="none" xmlns="http://www.w3.org/2000/svg">
<path d="M42.9859 22.1C43.4359 23.4 43.6609 24.7625 43.6609 26.15C43.6609 26.7 43.2234 27.1375 42.6734 27.1375C42.1234 27.1375 41.6859 26.7 41.6859 26.15C41.6859 24.9875 41.4984 23.8375 41.1234 22.75C40.0859 19.7375 37.7609 17.3875 34.7484 16.3125C34.2359 16.125 33.9609 15.5625 34.1484 15.05C34.3359 14.5375 34.8984 14.2625 35.4109 14.45C38.9859 15.725 41.7484 18.5125 42.9859 22.1ZM47.4734 27.075C47.2359 31.475 45.2609 35.5125 41.9109 38.425C39.3234 40.675 37.7984 43.9 37.6359 47.3625C40.8609 47.175 42.5984 51.2375 40.2609 53.4125C42.5359 55.5125 40.9609 59.5 37.8234 59.4625H36.7734C36.8734 61.85 34.9609 63.875 32.5609 63.875H25.0984C22.6984 63.8875 20.7859 61.85 20.8859 59.4625H19.8359C16.6984 59.5 15.1234 55.5125 17.3984 53.4125C15.3984 51.625 16.3609 48.0625 18.9609 47.4875C18.4484 46.9375 18.0359 46.2875 17.7609 45.5625C13.0484 45.9125 9.47344 41.0625 11.0234 36.675C5.08594 33.9875 5.08594 25.275 11.0234 22.5875C9.47344 18.2125 13.0484 13.3625 17.7609 13.7C20.0109 7.7375 28.8234 9.2625 28.8984 15.675V43.5875C28.8984 45.0375 28.3609 46.35 27.4734 47.3625H30.2484V12.175C30.2234 10.9125 31.3984 9.8125 32.6609 9.95C41.2234 10.5625 48.0984 18.5 47.4734 27.075ZM21.2359 40.475C21.4359 40.9875 21.1734 41.55 20.6609 41.75C20.3984 41.85 20.1734 41.9875 19.9984 42.175C19.2484 42.925 19.4484 44.1625 19.4734 44.3125C20.4109 48.7625 26.8609 48.15 26.9484 43.6V15.6875C26.9234 11.65 21.4109 10.4875 19.7609 14.1375C21.0859 14.4 25.0109 17.75 22.1984 18.375C21.2484 18.35 21.0609 17.1 20.2984 16.675C16.5984 13.7375 11.3234 17.7625 12.9359 22.0375C14.7984 21.7625 16.7359 22.525 17.9359 23.9625C18.2859 24.375 18.2359 25 17.8109 25.35C17.3984 25.7 16.7734 25.65 16.4234 25.225C16.1609 24.9125 15.5859 24.35 14.6734 24.0875C13.7859 23.825 13.0109 23.9875 12.6359 24.1C7.53594 25.6 7.12344 32.85 11.9734 34.9375C12.6359 33.875 16.5359 30.9 17.2234 32.975C17.3609 33.5 17.0359 34.0375 16.5109 34.175C10.8984 35.5625 11.6734 43.45 17.4609 43.6C17.4859 42.775 17.7109 41.6625 18.5984 40.775C19.2359 40.1125 20.7109 39.25 21.2359 40.475ZM34.8109 59.4625H22.8734C22.7734 60.7625 23.7984 61.9 25.1109 61.9H32.5734C33.8859 61.9125 34.8984 60.7625 34.8109 59.4625ZM39.3734 55.95C39.3734 55.1 38.6859 54.4 37.8234 54.4H19.8609C19.0109 54.4 18.3109 55.0875 18.3109 55.95C18.3109 56.8 18.9984 57.5 19.8609 57.5H37.8359C38.6734 57.4875 39.3734 56.8 39.3734 55.95ZM19.8609 49.3375C17.8234 49.3875 17.8234 52.375 19.8609 52.425H37.8359C38.6859 52.425 39.3859 51.7375 39.3859 50.875C39.3859 50.025 38.6984 49.325 37.8359 49.325H19.8609V49.3375ZM32.4859 11.9125C32.3109 11.925 32.2359 11.9875 32.2109 12.175V47.3625H35.6359C35.8109 43.325 37.5984 39.55 40.6109 36.9375C50.1234 28.8 44.8984 12.925 32.4859 11.9125ZM45.1859 13.7375L49.7484 9.175C50.6484 8.25 49.2859 6.875 48.3484 7.775L43.7859 12.3375C42.8859 13.275 44.2609 14.6375 45.1859 13.7375ZM56.4359 25.3125H49.9859C48.6859 25.3375 48.6859 27.2625 49.9859 27.2875H56.4359C57.7359 27.2625 57.7359 25.3375 56.4359 25.3125ZM45.1859 38.85C44.2609 37.95 42.8859 39.3125 43.7859 40.25L48.3484 44.8125C49.2859 45.7125 50.6484 44.35 49.7484 43.4125L45.1859 38.85ZM32.2234 7.55V1.1C32.1984 -0.2 30.2734 -0.2 30.2484 1.1V7.55C30.2734 8.85 32.1984 8.85 32.2234 7.55Z" fill="#04A391"/>
</svg>
