<svg width="20" height="20" viewBox="0 0 20 20" fill="none" xmlns="http://www.w3.org/2000/svg">
<mask id="mask0_1604_3039" style="mask-type:alpha" maskUnits="userSpaceOnUse" x="0" y="0" width="20" height="20">
<rect width="20" height="20" fill="#D9D9D9"/>
</mask>
<g mask="url(#mask0_1604_3039)">
<path d="M6.08979 17.0841C5.67424 17.0841 5.31924 16.9369 5.02479 16.6426C4.73049 16.3482 4.58333 15.9932 4.58333 15.5776V5.00076H3.75V3.75076H7.5V3.01367H12.5V3.75076H16.25V5.00076H15.4167V15.5776C15.4167 15.9986 15.2708 16.3549 14.9792 16.6466C14.6875 16.9383 14.3312 17.0841 13.9102 17.0841H6.08979ZM14.1667 5.00076H5.83333V15.5776C5.83333 15.6525 5.85736 15.714 5.90542 15.762C5.95347 15.8101 6.01493 15.8341 6.08979 15.8341H13.9102C13.9744 15.8341 14.0331 15.8074 14.0865 15.7539C14.1399 15.7005 14.1667 15.6418 14.1667 15.5776V5.00076ZM7.83667 14.1674H9.08646V6.66742H7.83667V14.1674ZM10.9135 14.1674H12.1633V6.66742H10.9135V14.1674Z" fill="#313131"/>
</g>
</svg>
