<svg width="64" height="64" viewBox="0 0 64 64" fill="none" xmlns="http://www.w3.org/2000/svg">
<path d="M25.975 0H1.875C0.839375 0 0 0.839375 0 1.875V25.975C0 27.0107 0.839375 27.85 1.875 27.85H12.0498V44.0502C12.0498 45.0855 12.8891 45.9252 13.9248 45.9252H19.9503C20.3437 45.9252 20.7272 45.8014 21.0464 45.5713C21.3656 45.3411 21.6042 45.0164 21.7285 44.6431L27.7535 26.5679C27.8174 26.377 27.8501 26.1767 27.8501 25.9751V1.875C27.8501 0.839375 27.0106 0 25.975 0ZM62.125 0H38.025C36.9893 0 36.15 0.839375 36.15 1.875V25.975C36.15 27.0107 36.9893 27.85 38.025 27.85H48.2003V44.0502C48.2003 45.0855 49.0395 45.9252 50.0753 45.9252H56.1C56.4935 45.9252 56.8771 45.8013 57.1963 45.5712C57.5155 45.3411 57.7543 45.0164 57.8788 44.6431L63.9038 26.5679C63.9671 26.377 63.9999 26.1767 63.9999 25.9751V1.875C63.9999 0.839375 63.1605 0 62.1249 0H62.125Z" fill="#3E3E3E"/>
</svg>
