<svg width="16" height="16" viewBox="0 0 16 16" fill="none" xmlns="http://www.w3.org/2000/svg">
<g opacity="0.8">
<path d="M5.53841 7.38435H3.38454C3.12812 7.38435 2.91012 7.29463 2.73061 7.11513C2.55121 6.93562 2.46139 6.71769 2.46139 6.46119V6.15364C2.46139 5.47412 2.70182 4.89404 3.18264 4.41321C3.66343 3.93255 4.24361 3.69212 4.92307 3.69212H5.53841C5.70505 3.69212 5.84923 3.6312 5.97108 3.50945C6.09286 3.38764 6.15375 3.24346 6.15375 3.07679V1.84591C6.15375 1.67927 6.09283 1.53496 5.97108 1.41314C5.84926 1.29149 5.70509 1.23047 5.53841 1.23047H4.92307C4.25634 1.23047 3.62026 1.3604 3.01442 1.61989C2.40865 1.87955 1.88468 2.23055 1.44231 2.67291C0.999979 3.11508 0.649084 3.63908 0.389457 4.24492C0.12983 4.85069 0 5.48695 0 6.15361V12.9227C0 13.4358 0.179405 13.8714 0.538383 14.2305C0.897395 14.5894 1.3334 14.7689 1.84618 14.7689H5.53865C6.0514 14.7689 6.48727 14.5894 6.84631 14.2305C7.20522 13.8714 7.38473 13.4358 7.38473 12.9227V9.23054C7.38473 8.71755 7.20522 8.28188 6.84608 7.92274C6.4872 7.56386 6.05117 7.38435 5.53841 7.38435ZM15.4619 7.92274C15.103 7.56386 14.6671 7.38435 14.1542 7.38435H12.0004C11.7441 7.38435 11.5259 7.29463 11.3467 7.11513C11.1671 6.93562 11.0774 6.71769 11.0774 6.46119V6.15364C11.0774 5.47412 11.3179 4.89404 11.7985 4.41321C12.2791 3.93255 12.8592 3.69212 13.539 3.69212H14.1542C14.3209 3.69212 14.4652 3.6312 14.5869 3.50945C14.7086 3.38764 14.7697 3.24346 14.7697 3.07679V1.84591C14.7697 1.67927 14.7086 1.53496 14.5869 1.41314C14.4652 1.29149 14.3209 1.23047 14.1542 1.23047H13.539C12.8719 1.23047 12.236 1.3604 11.63 1.61989C11.0243 1.87955 10.5005 2.23055 10.0581 2.67291C9.61576 3.11508 9.26469 3.63908 9.00517 4.24492C8.74561 4.85069 8.61561 5.48695 8.61561 6.15361V12.9227C8.61561 13.4358 8.79518 13.8714 9.15406 14.2305C9.51297 14.5894 9.94887 14.7689 10.4617 14.7689H14.154C14.6669 14.7689 15.1027 14.5894 15.4616 14.2305C15.8208 13.8714 16 13.4358 16 12.9227V9.23054C16 8.71751 15.8208 8.28188 15.4619 7.92274Z" fill="white"/>
</g>
</svg>
