<svg width="64" height="64" viewBox="0 0 64 64" fill="none" xmlns="http://www.w3.org/2000/svg">
<rect width="64" height="64" rx="32" fill="#FEDCDC"/>
<path d="M27.75 24.75C28.0152 24.75 28.2696 24.6446 28.4571 24.4571C28.6446 24.2696 28.75 24.0152 28.75 23.75V22.75C28.75 22.4848 28.6446 22.2304 28.4571 22.0429C28.2696 21.8554 28.0152 21.75 27.75 21.75H24.25C23.587 21.75 22.9511 22.0134 22.4822 22.4822C22.0134 22.9511 21.75 23.587 21.75 24.25V40.25C21.75 40.913 22.0134 41.5489 22.4822 42.0178C22.9511 42.4866 23.587 42.75 24.25 42.75H27.75C28.0152 42.75 28.2696 42.6446 28.4571 42.4571C28.6446 42.2696 28.75 42.0152 28.75 41.75V40.75C28.75 40.4848 28.6446 40.2304 28.4571 40.0429C28.2696 39.8554 28.0152 39.75 27.75 39.75H24.75V24.75H27.75Z" fill="#ED1C24"/>
<path d="M36.25 28.2498C36.25 28.052 36.3087 27.8587 36.4186 27.6943C36.5285 27.5299 36.6846 27.4018 36.8673 27.3261C37.05 27.2504 37.2511 27.2306 37.445 27.2692C37.639 27.3078 37.8171 27.403 37.957 27.5428L41.957 31.5428C42.1445 31.7303 42.2498 31.9846 42.2498 32.2498C42.2498 32.515 42.1445 32.7693 41.957 32.9568L37.957 36.9568C37.8171 37.0966 37.639 37.1918 37.445 37.2304C37.2511 37.2689 37.05 37.2491 36.8673 37.1735C36.6846 37.0978 36.5285 36.9697 36.4186 36.8052C36.3087 36.6408 36.25 36.4475 36.25 36.2498V33.7498H28.25C27.9848 33.7498 27.7304 33.6444 27.5429 33.4569C27.3554 33.2694 27.25 33.015 27.25 32.7498V31.7498C27.25 31.4846 27.3554 31.2302 27.5429 31.0427C27.7304 30.8551 27.9848 30.7498 28.25 30.7498H36.25V28.2498Z" fill="#ED1C24"/>
</svg>
