<svg width="30" height="30" viewBox="0 0 30 30" fill="none" xmlns="http://www.w3.org/2000/svg">
<circle cx="15" cy="15" r="15" fill="#CBE7E4"/>
<g clip-path="url(#clip0_1768_312)">
<path d="M13.667 23.0006C14.8744 23.0006 15.8844 22.1399 16.1164 21.0006H11.2177C11.4498 22.1399 12.4598 23.0006 13.667 23.0006ZM18.3417 15C18.339 15 18.3364 15.0006 18.3337 15.0006C15.761 15.0006 13.667 12.9072 13.667 10.334C13.667 9.62658 13.8298 8.95789 14.1131 8.35658C13.9664 8.34264 13.8177 8.33398 13.667 8.33398C11.0898 8.33398 9.00041 10.4232 9.00041 13.0006V14.8593C9.00041 16.1786 8.42241 17.424 7.40835 18.2812C7.07035 18.57 6.92035 19.0299 7.04166 19.4786C7.18301 20.0006 7.69901 20.334 8.24041 20.334H19.0904C19.6583 20.334 20.1937 19.966 20.309 19.4093C20.3984 18.9786 20.245 18.5486 19.911 18.268C18.9416 17.4553 18.381 16.2612 18.3417 15Z" fill="#04A391"/>
<path d="M21.6666 10.3334C21.6666 12.1743 20.1743 13.6666 18.3332 13.6666C16.4923 13.6666 15 12.1743 15 10.3334C15 8.49244 16.4923 7 18.3332 7C20.1743 7 21.6666 8.49244 21.6666 10.3334Z" fill="#04A391"/>
</g>
<defs>
<clipPath id="clip0_1768_312">
<rect width="16" height="16" fill="white" transform="translate(7 7)"/>
</clipPath>
</defs>
</svg>
