<svg width="24" height="24" viewBox="0 0 24 24" fill="none" xmlns="http://www.w3.org/2000/svg">
<path fill-rule="evenodd" clip-rule="evenodd" d="M13.5878 21.1069H10.4766V22.5386C10.4766 23.0571 10.9008 23.4824 11.4204 23.4824H12.6451C13.1637 23.4824 13.5878 23.0571 13.5878 22.5386V21.1069Z" fill="#B1B1B5"/>
<path fill-rule="evenodd" clip-rule="evenodd" d="M9.48828 19.2686L9.50988 20.6513C9.51788 21.1699 9.93407 21.5951 10.4537 21.5951H13.6139C14.1324 21.5951 14.5645 21.1699 14.5566 20.6513L14.5361 19.2686C12.8884 19.3208 11.1474 19.2686 9.48828 19.2686Z" fill="#D1D1D6"/>
<path fill-rule="evenodd" clip-rule="evenodd" d="M15.4699 17.8195C15.7485 13.0663 17.809 13.2585 17.809 10.0335C17.809 6.82673 15.2095 4.22607 12.0016 4.22607C8.79484 4.22607 6.19531 6.82673 6.19531 10.0335C6.19531 13.2585 8.2547 13.0663 8.53442 17.8195C8.6595 18.7588 9.19512 18.9704 9.50557 18.9704C14.1269 18.9704 14.9457 19.4275 15.4699 17.8195Z" fill="#FFE177"/>
<path fill-rule="evenodd" clip-rule="evenodd" d="M15.4698 17.8195C15.7484 13.0663 17.8089 13.2585 17.8089 10.0335C17.8089 6.82673 15.2094 4.22607 12.0015 4.22607C11.8935 4.22607 11.7866 4.22951 11.6797 4.2352C14.7363 4.40349 17.1642 6.93478 17.1642 10.0335C17.1642 13.2585 15.1036 13.0663 14.8239 17.8195C14.5135 18.7736 14.0984 19.001 12.8453 19.0272C14.6124 19.0534 15.1105 18.9215 15.4698 17.8195Z" fill="#FFD064"/>
<path fill-rule="evenodd" clip-rule="evenodd" d="M12.9668 21.5951H13.6127C14.1313 21.5951 14.5634 21.1699 14.5554 20.6513L14.5349 19.2686C14.3211 19.2754 14.1062 19.2799 13.8902 19.2845L13.9107 20.6513C13.9186 21.1699 13.4865 21.5951 12.9668 21.5951Z" fill="#B1B1B5"/>
<path fill-rule="evenodd" clip-rule="evenodd" d="M8.5332 17.8193V18.7632C8.5332 19.2829 8.95852 19.707 9.47706 19.707H14.5249C15.0434 19.707 15.4687 19.2829 15.4687 18.7632V17.8193H8.5332Z" fill="#ECEFF1"/>
<path fill-rule="evenodd" clip-rule="evenodd" d="M13.8789 19.707H14.5248C15.0434 19.707 15.4686 19.2829 15.4686 18.7632V17.8193H14.8228V18.7632C14.8228 19.2829 14.3986 19.707 13.8789 19.707Z" fill="#D1D1D6"/>
<path fill-rule="evenodd" clip-rule="evenodd" d="M12.8635 12.54C13.3076 12.54 13.6682 12.9005 13.6682 13.3446C13.6682 13.7887 13.3076 14.1493 12.8635 14.1493C12.4194 14.1493 12.0589 13.7887 12.0589 13.3446C12.0589 12.9005 12.4194 12.54 12.8635 12.54ZM11.197 6.93701C11.6411 6.93701 12.0017 7.29758 12.0017 7.74167C12.0017 8.18581 11.6411 8.54633 11.197 8.54633C10.7529 8.54633 10.3924 8.18581 10.3924 7.74167C10.3924 7.29758 10.7529 6.93701 11.197 6.93701Z" fill="#8AC9FE"/>
<path fill-rule="evenodd" clip-rule="evenodd" d="M12.7602 12.5466C12.7943 12.5422 12.8289 12.54 12.8641 12.54C13.3082 12.54 13.6688 12.9005 13.6688 13.3446C13.6688 13.7887 13.3082 14.1493 12.8641 14.1493C12.8294 14.1493 12.7947 14.1471 12.7602 14.1426C13.1554 14.0916 13.461 13.7535 13.461 13.3446C13.461 12.9357 13.1554 12.5976 12.7602 12.5466ZM11.0938 6.94369C11.1282 6.93925 11.1629 6.93702 11.1977 6.93701C11.6417 6.93701 12.0023 7.29758 12.0023 7.74167C12.0023 8.18581 11.6417 8.54633 11.1977 8.54633C11.1625 8.54633 11.1278 8.54407 11.0938 8.53969C11.4889 8.48868 11.7945 8.15061 11.7945 7.74167C11.7945 7.33278 11.4889 6.99471 11.0938 6.94369Z" fill="#60B7FF"/>
<path fill-rule="evenodd" clip-rule="evenodd" d="M8.157 17.6418C7.99399 14.8904 7.20914 13.8562 6.60966 12.7957C6.16844 12.0151 5.81761 11.222 5.81761 9.84569C5.81761 6.43034 8.58637 3.66159 12.0017 3.66159C15.417 3.66159 18.1858 6.43034 18.1858 9.84569C18.1858 11.222 17.8349 12.0151 17.3938 12.7957C16.7935 13.8575 16.0074 14.8932 15.8458 17.6527C15.8456 17.655 15.8455 17.6572 15.8453 17.6595L15.8444 18.5746C15.8444 19.1706 15.4453 19.6767 14.9025 19.8398V20.4625C14.9025 21.0676 14.4894 21.5802 13.9332 21.7351V22.3503C13.9332 23.0748 13.3392 23.6708 12.6147 23.6708H11.3886C10.6644 23.6708 10.0682 23.0745 10.0682 22.3503V21.7348C9.51164 21.5796 9.10091 21.0672 9.10091 20.4625V19.8401C8.55625 19.6773 8.157 19.1708 8.157 18.5746V17.6418ZM15.092 18.0071H8.90994V18.5746C8.90994 18.887 9.165 19.1421 9.47738 19.1421H14.526C14.837 19.1421 15.0915 18.8868 15.0915 18.5744L15.092 18.0071ZM14.1495 19.8951H9.85385V20.4625C9.85385 20.7749 10.109 21.03 10.4213 21.03H13.582C13.8933 21.03 14.1495 20.7749 14.1495 20.4625V19.8951ZM13.1803 21.7829H10.8211V22.3503C10.8211 22.6616 11.0774 22.9178 11.3886 22.9178H12.6147C12.9258 22.9178 13.1803 22.6614 13.1803 22.3503V21.7829ZM12.0017 4.41453C9.00218 4.41453 6.57055 6.84615 6.57055 9.84569C6.57055 11.3678 7.06585 12.0806 7.5851 12.9765C8.12773 13.9127 8.7051 15.0274 8.88467 17.2542H15.1187C15.2983 15.0274 15.8756 13.9127 16.4183 12.9765C16.9375 12.0806 17.4329 11.3678 17.4329 9.84569C17.4329 6.84615 15.0012 4.41453 12.0017 4.41453ZM8.59714 10.302L8.81517 10.0839C8.96208 9.93703 9.20062 9.93703 9.34754 10.0839C9.49446 10.2309 9.49446 10.4694 9.34754 10.6164L9.12957 10.8344L9.34754 11.0524C9.49446 11.1993 9.49446 11.4379 9.34754 11.5848C9.20062 11.7317 8.96208 11.7317 8.81517 11.5848L8.59714 11.3668L8.37912 11.5848C8.30849 11.6554 8.21274 11.695 8.11291 11.695C8.01307 11.695 7.91732 11.6554 7.8467 11.5848C7.77614 11.5142 7.7365 11.4184 7.7365 11.3186C7.7365 11.2187 7.77614 11.123 7.8467 11.0524L8.06472 10.8344L7.8467 10.6164C7.77614 10.5457 7.7365 10.45 7.7365 10.3502C7.7365 10.2503 7.77614 10.1546 7.8467 10.0839C7.91732 10.0134 8.01307 9.97375 8.11291 9.97375C8.21274 9.97375 8.30849 10.0134 8.37912 10.0839L8.59714 10.302ZM11.197 6.3726C11.8489 6.3726 12.3782 6.90183 12.3782 7.55373C12.3782 8.20559 11.8489 8.73486 11.197 8.73486C10.5451 8.73486 10.0159 8.20559 10.0159 7.55373C10.0159 6.90183 10.5451 6.3726 11.197 6.3726ZM11.197 7.12554C10.9607 7.12554 10.7689 7.3174 10.7689 7.55373C10.7689 7.79001 10.9607 7.98192 11.197 7.98192C11.4334 7.98192 11.6252 7.79001 11.6252 7.55373C11.6252 7.3174 11.4334 7.12554 11.197 7.12554ZM12.8635 11.9755C13.5154 11.9755 14.0447 12.5047 14.0447 13.1567C14.0447 13.8085 13.5154 14.3378 12.8635 14.3378C12.2116 14.3378 11.6824 13.8085 11.6824 13.1567C11.6824 12.5047 12.2116 11.9755 12.8635 11.9755ZM12.8635 12.7285C12.6272 12.7285 12.4354 12.9203 12.4354 13.1567C12.4354 13.393 12.6272 13.5848 12.8635 13.5848C13.0999 13.5848 13.2917 13.393 13.2917 13.1567C13.2917 12.9203 13.0999 12.7285 12.8635 12.7285ZM15.4043 9.81773L15.6223 9.59976C15.6929 9.52919 15.7887 9.48956 15.8885 9.48956C15.9884 9.48956 16.0841 9.52919 16.1547 9.59976C16.2253 9.67037 16.2649 9.76612 16.2649 9.86594C16.2649 9.96577 16.2253 10.0615 16.1547 10.1321L15.9367 10.3502L16.1547 10.5682C16.2253 10.6388 16.2649 10.7345 16.2649 10.8344C16.2649 10.9342 16.2253 11.0299 16.1547 11.1006C16.0841 11.1711 15.9884 11.2108 15.8885 11.2108C15.7887 11.2108 15.6929 11.1711 15.6223 11.1006L15.4043 10.8826L15.1863 11.1006C15.1157 11.1711 15.0199 11.2108 14.9201 11.2108C14.8203 11.2108 14.7245 11.1711 14.6539 11.1006C14.5833 11.0299 14.5437 10.9342 14.5437 10.8344C14.5437 10.7345 14.5833 10.6388 14.6539 10.5682L14.8719 10.3502L14.6539 10.1321C14.507 9.98521 14.507 9.74667 14.6539 9.59976C14.8008 9.45284 15.0394 9.45284 15.1863 9.59976L15.4043 9.81773ZM14.6544 8.04526C14.5438 8.67797 14.328 9.1391 14.0547 9.49326C13.539 10.1616 12.8014 10.4478 12.0929 10.7557C11.6153 10.9631 11.1511 11.1793 10.8443 11.6319C10.5303 12.095 10.3918 12.7911 10.5121 13.9214C10.5226 14.0207 10.4933 14.1201 10.4306 14.1978C10.3679 14.2754 10.2769 14.325 10.1776 14.3357C9.97098 14.3576 9.78538 14.2078 9.7634 14.0012C9.61625 12.619 9.83714 11.7757 10.2211 11.2094C10.6122 10.6326 11.1842 10.3295 11.7929 10.0651C12.3879 9.80653 13.0255 9.59467 13.4586 9.03336C13.6645 8.76644 13.8195 8.4199 13.9058 7.95467L13.745 8.07241C13.5774 8.19519 13.3416 8.15877 13.2188 7.99114C13.0961 7.82352 13.1324 7.58776 13.3001 7.46498L14.1246 6.86107C14.1989 6.80666 14.2905 6.78136 14.3822 6.78998C14.4739 6.79859 14.5593 6.84051 14.6221 6.9078L15.3488 7.68564C15.4907 7.83745 15.4825 8.0759 15.3307 8.21773C15.2577 8.28585 15.1607 8.32221 15.0609 8.31881C14.9611 8.31542 14.8668 8.27254 14.7986 8.19961L14.6544 8.04526ZM12.3782 2.0743C12.3782 2.28206 12.2095 2.45077 12.0017 2.45077C11.7939 2.45077 11.6252 2.28206 11.6252 2.0743V0.70606C11.6252 0.498296 11.7939 0.32959 12.0017 0.32959C12.2095 0.32959 12.3782 0.498296 12.3782 0.70606V2.0743ZM7.94684 3.0599C7.99665 3.14641 8.01007 3.24916 7.98417 3.34557C7.95826 3.44198 7.89514 3.52416 7.80867 3.57406C7.72215 3.62387 7.6194 3.63728 7.52298 3.61137C7.42657 3.58545 7.3444 3.52232 7.29451 3.43585L6.61135 2.25058C6.56154 2.16406 6.54811 2.0613 6.57403 1.96489C6.59994 1.86847 6.66308 1.78629 6.74957 1.73641C6.83608 1.6866 6.93884 1.67317 7.03526 1.69909C7.13167 1.725 7.21385 1.78814 7.26373 1.87463L7.94684 3.0599ZM4.60359 6.12935C4.68999 6.17936 4.75301 6.26162 4.7788 6.35807C4.80459 6.45451 4.79105 6.55725 4.74114 6.64371C4.69113 6.73011 4.60887 6.79313 4.51243 6.81892C4.41599 6.84471 4.31325 6.83117 4.22679 6.78126L3.04152 6.09618C2.95512 6.04617 2.8921 5.96391 2.86631 5.86747C2.84051 5.77102 2.85406 5.66829 2.90397 5.58183C2.95397 5.49542 3.03624 5.4324 3.13268 5.40661C3.22912 5.38082 3.33186 5.39437 3.41832 5.44427L4.60359 6.12935ZM16.7067 3.43627C16.6027 3.61618 16.3723 3.67778 16.1924 3.57383C16.106 3.52383 16.043 3.44156 16.0172 3.34512C15.9914 3.24867 16.0049 3.14593 16.0548 3.05947L16.7399 1.8742C16.8439 1.6943 17.0744 1.6327 17.2542 1.73665C17.3406 1.78665 17.4037 1.86891 17.4295 1.96536C17.4553 2.0618 17.4417 2.16454 17.3918 2.251L16.7067 3.43627ZM19.7768 6.78112C19.6904 6.83109 19.5877 6.84471 19.4912 6.81899C19.3947 6.79327 19.3124 6.73031 19.2624 6.64394C19.2124 6.55752 19.1988 6.45478 19.2245 6.35832C19.2502 6.26185 19.3132 6.17955 19.3996 6.1295L20.5829 5.44441C20.7627 5.34032 20.9932 5.40178 21.0973 5.58159C21.2014 5.7614 21.14 5.9919 20.9602 6.09604L19.7768 6.78112Z" fill="black"/>
</svg>
