<svg width="80" height="80" viewBox="0 0 80 80" fill="none" xmlns="http://www.w3.org/2000/svg">
<path d="M70.2 44.1458C69.8685 44.1458 69.5505 44.2775 69.3161 44.5119C69.0817 44.7463 68.95 45.0643 68.95 45.3958V55.957C68.95 56.2886 68.8183 56.6065 68.5839 56.8409C68.3495 57.0753 68.0315 57.207 67.7 57.207H8.75C8.41848 57.207 8.10054 57.0753 7.86612 56.8409C7.6317 56.6065 7.5 56.2886 7.5 55.957V18.332C7.5 18.0005 7.6317 17.6826 7.86612 17.4481C8.10054 17.2137 8.41848 17.082 8.75 17.082H34.9125C35.244 17.082 35.562 16.9503 35.7964 16.7159C36.0308 16.4815 36.1625 16.1636 36.1625 15.832C36.1625 15.5005 36.0308 15.1826 35.7964 14.9481C35.562 14.7137 35.244 14.582 34.9125 14.582H8.75C7.75574 14.583 6.80249 14.9784 6.09945 15.6815C5.3964 16.3845 5.00099 17.3378 5 18.332V55.957C5.00099 56.9513 5.3964 57.9045 6.09945 58.6076C6.80249 59.3106 7.75574 59.706 8.75 59.707H32.9775V63.5358C32.9746 64.5415 32.8444 65.5428 32.59 66.5158C19.215 67.3158 14.3825 70.802 14.16 70.9695C13.9014 71.1701 13.7317 71.464 13.6875 71.7883C13.6432 72.1125 13.7279 72.4412 13.9233 72.7037C14.1187 72.9663 14.4093 73.1417 14.7326 73.1923C15.0559 73.2429 15.3862 73.1647 15.6525 72.9745C15.7088 72.9333 21.5225 68.847 38.2238 68.847C56.09 68.9345 59.9538 72.9345 61.5363 73.2195C61.7961 73.2145 62.0481 73.1292 62.2575 72.9752C62.467 72.8213 62.6236 72.6062 62.706 72.3597C62.7883 72.1131 62.7922 71.8471 62.7173 71.5982C62.6424 71.3493 62.4922 71.1297 62.2875 70.9695C62.065 70.802 57.2325 67.3158 43.8575 66.5158C43.4662 64.2687 43.3361 61.984 43.47 59.707H67.7C68.6943 59.706 69.6475 59.3106 70.3506 58.6076C71.0536 57.9045 71.449 56.9513 71.45 55.957V45.3945C71.45 45.063 71.3183 44.7451 71.0839 44.5106C70.8495 44.2762 70.5315 44.1458 70.2 44.1458ZM35.175 66.3958C35.3714 65.455 35.4727 64.4968 35.4775 63.5358V59.707H40.97C40.8632 61.9408 40.9645 64.1796 41.2725 66.3945C39.2405 66.3318 37.207 66.3331 35.175 66.3958Z" fill="#858585"/>
<path d="M72.5368 22.8003C72.5013 22.7988 72.467 22.787 72.4382 22.7664C72.4093 22.7457 72.3871 22.7171 72.3743 22.684C71.9643 20.504 70.878 19.0215 70.2918 17.3765C70.7281 16.8615 70.954 16.2008 70.9243 15.5264C70.8946 14.8521 70.6116 14.2138 70.1318 13.739L68.0318 11.639C67.5574 11.1583 66.9189 10.8747 66.2442 10.8453C65.5695 10.8158 64.9086 11.0427 64.3943 11.4803C62.6964 10.6184 60.92 9.92108 59.0893 9.39777C59.0551 9.38434 59.0257 9.36119 59.0046 9.3312C58.9835 9.3012 58.9716 9.26568 58.9705 9.22902C58.9142 8.55672 58.6066 7.93036 58.1089 7.47486C57.6112 7.01937 56.9601 6.76822 56.2855 6.77152H53.3168C52.6497 6.76828 52.0055 7.01401 51.5101 7.46066C51.0146 7.90731 50.7037 8.52272 50.638 9.18652C50.638 9.27402 50.5943 9.37902 50.5143 9.39652C48.7129 9.83035 46.9904 10.5431 45.4093 11.509C45.3768 11.5256 45.3399 11.5316 45.3038 11.5263C45.2677 11.5209 45.2342 11.5044 45.208 11.479C44.6928 11.043 44.0322 10.8173 43.3579 10.8469C42.6837 10.8766 42.0454 11.1594 41.5705 11.639L39.4718 13.739C38.9922 14.2139 38.7093 14.8522 38.6797 15.5264C38.65 16.2007 38.8757 16.8614 39.3118 17.3765C38.7293 19.014 37.6355 20.5165 37.228 22.684C37.2151 22.7179 37.1924 22.7472 37.1628 22.7681C37.1332 22.789 37.098 22.8007 37.0618 22.8015C36.3898 22.8578 35.7637 23.1653 35.3085 23.6628C34.8532 24.1602 34.6022 24.811 34.6055 25.4853V28.454C34.602 29.1295 34.8538 29.7814 35.3104 30.2793C35.7669 30.7771 36.3947 31.0842 37.068 31.139C37.1033 31.1406 37.1373 31.1526 37.1658 31.1735C37.1943 31.1944 37.2159 31.2233 37.228 31.2565C37.6405 33.439 38.7305 34.9265 39.3118 36.5628C38.8754 37.0778 38.6495 37.7385 38.6792 38.4129C38.7089 39.0872 38.9919 39.7255 39.4718 40.2003L41.5718 42.3015C42.0469 42.7804 42.6851 43.0626 43.3591 43.0918C44.033 43.1209 44.6932 42.895 45.208 42.459C45.2347 42.4345 45.2683 42.4186 45.3042 42.4135C45.3401 42.4084 45.3767 42.4142 45.4093 42.4303C46.9908 43.3972 48.7143 44.11 50.5168 44.5428C50.5943 44.5578 50.638 44.669 50.6393 44.7553C50.7052 45.4185 51.0162 46.0333 51.5113 46.4795C52.0065 46.9256 52.6503 47.171 53.3168 47.1678H56.2855C56.9609 47.171 57.6127 46.9191 58.1105 46.4626C58.6083 46.006 58.9154 45.3785 58.9705 44.7053C58.9719 44.6694 58.9839 44.6348 59.005 44.6059C59.0262 44.5769 59.0555 44.5549 59.0893 44.5428C60.9201 44.0186 62.6965 43.3204 64.3943 42.4578C64.9086 42.8952 65.5693 43.1221 66.2439 43.0929C66.9185 43.0637 67.5571 42.7806 68.0318 42.3003L70.1318 40.2003C70.6112 39.7252 70.8938 39.0869 70.9232 38.4126C70.9526 37.7383 70.7267 37.0778 70.2905 36.5628C70.8755 34.924 71.968 33.4253 72.3743 31.2553C72.3873 31.2213 72.4102 31.1921 72.4401 31.1714C72.47 31.1506 72.5054 31.1394 72.5418 31.139C73.2142 31.083 73.8407 30.7754 74.2962 30.2777C74.7518 29.78 75.0028 29.1287 74.9993 28.454V25.4853C75.0024 24.81 74.7505 24.1584 74.294 23.6608C73.8374 23.1632 73.2098 22.8551 72.5368 22.8003ZM72.4993 28.4553C72.4993 28.5048 72.4805 28.5524 72.4465 28.5884C72.4126 28.6245 72.3662 28.6461 72.3168 28.649C71.7589 28.6954 71.2296 28.9158 70.8037 29.2791C70.3778 29.6425 70.0767 30.1304 69.943 30.674C69.5721 32.2217 68.96 33.7015 68.1293 35.059C67.8387 35.5381 67.7061 36.0964 67.7503 36.655C67.7945 37.2136 68.0132 37.7441 68.3755 38.1715C68.4072 38.2086 68.4237 38.2563 68.4216 38.305C68.4195 38.3537 68.399 38.3998 68.3643 38.434L66.2643 40.534C66.2295 40.5678 66.1834 40.5876 66.1349 40.5894C66.0864 40.5913 66.039 40.5751 66.0018 40.544C65.5742 40.1825 65.0439 39.9643 64.4858 39.9201C63.9276 39.8759 63.3696 40.008 62.8905 40.2978C61.5332 41.1283 60.0539 41.7407 58.5068 42.1128C57.9622 42.2463 57.4735 42.5478 57.1099 42.9745C56.7462 43.4012 56.526 43.9315 56.4805 44.4903C56.4767 44.5392 56.4545 44.5849 56.4183 44.6181C56.3821 44.6513 56.3346 44.6695 56.2855 44.669H53.3168C53.2884 44.6676 53.2606 44.6605 53.235 44.648C53.2095 44.6356 53.1867 44.6181 53.1681 44.5966C53.1496 44.5751 53.1355 44.55 53.1269 44.5229C53.1183 44.4958 53.1153 44.4673 53.118 44.439C53.0636 43.8902 52.8403 43.3718 52.479 42.9552C52.1177 42.5386 51.6361 42.2443 51.1005 42.1128C49.552 41.7413 48.0714 41.1289 46.713 40.2978C46.2335 40.0083 45.6753 39.8765 45.1169 39.9209C44.5586 39.9653 44.0282 40.1836 43.6005 40.5453C43.5635 40.577 43.5158 40.5935 43.467 40.5914C43.4183 40.5893 43.3722 40.5688 43.338 40.534L41.2393 38.434C41.2045 38.3998 41.184 38.3537 41.1819 38.305C41.1798 38.2563 41.1963 38.2086 41.228 38.1715C41.5903 37.7441 41.809 37.2136 41.8532 36.655C41.8974 36.0964 41.7648 35.5381 41.4743 35.059C40.6434 33.7014 40.031 32.2217 39.6593 30.674C39.526 30.1295 39.2246 29.6407 38.7978 29.2772C38.371 28.9137 37.8406 28.6939 37.2818 28.649C37.2335 28.6446 37.1886 28.6223 37.1559 28.5864C37.1233 28.5506 37.1053 28.5038 37.1055 28.4553V25.4865C37.1054 25.4372 37.1241 25.3897 37.1578 25.3538C37.1914 25.3178 37.2376 25.2959 37.2868 25.2928C37.8443 25.2468 38.3733 25.0269 38.799 24.664C39.2248 24.301 39.5257 23.8135 39.6593 23.2703C40.0311 21.7218 40.6435 20.2413 41.4743 18.8828C41.765 18.4037 41.8977 17.8454 41.8535 17.2868C41.8093 16.7282 41.5905 16.1976 41.228 15.7703C41.1964 15.7331 41.1802 15.6853 41.1825 15.6366C41.1848 15.5878 41.2055 15.5418 41.2405 15.5078L43.3393 13.4078C43.3732 13.3732 43.419 13.3527 43.4674 13.3503C43.5159 13.348 43.5634 13.3641 43.6005 13.3953C44.0277 13.7579 44.5582 13.977 45.1168 14.0214C45.6754 14.0658 46.2339 13.9334 46.713 13.6428C48.0718 12.8124 49.5522 12.2 51.1005 11.8278C51.6363 11.6962 52.118 11.4017 52.4794 10.9848C52.8407 10.568 53.0638 10.0493 53.118 9.50027C53.1153 9.47194 53.1183 9.44336 53.127 9.41626C53.1357 9.38917 53.1499 9.36414 53.1686 9.34272C53.1874 9.3213 53.2103 9.30393 53.236 9.29168C53.2616 9.27944 53.2896 9.27258 53.318 9.27152H56.2855C56.3354 9.27113 56.3836 9.29002 56.4199 9.32425C56.4562 9.35848 56.4779 9.40542 56.4805 9.45527C56.5271 10.0128 56.7474 10.5416 57.1105 10.9673C57.4735 11.3929 57.961 11.6939 58.5043 11.8278C60.0517 12.199 61.5313 12.8106 62.8893 13.6403C63.368 13.9316 63.9264 14.0647 64.4851 14.0207C65.0438 13.9767 65.5745 13.7579 66.0018 13.3953C66.0389 13.3638 66.0866 13.3475 66.1352 13.3496C66.1838 13.3517 66.2299 13.372 66.2643 13.4065L68.3643 15.5065C68.3992 15.5405 68.4199 15.5866 68.4223 15.6353C68.4246 15.684 68.4083 15.7318 68.3768 15.769C68.014 16.1959 67.7949 16.7262 67.7505 17.2847C67.7061 17.8431 67.8386 18.4014 68.1293 18.8803C68.9603 20.2396 69.5728 21.721 69.9443 23.2703C70.0787 23.8139 70.3805 24.3015 70.8072 24.6642C71.2338 25.0269 71.7636 25.2463 72.3218 25.2915C72.3703 25.2956 72.4155 25.3178 72.4484 25.3537C72.4813 25.3896 72.4994 25.4366 72.4993 25.4853V28.4553Z" fill="#858585"/>
<path d="M54.8023 15.1309C52.4611 15.1309 50.1724 15.8251 48.2257 17.1258C46.2791 18.4266 44.7618 20.2753 43.8659 22.4383C42.9699 24.6014 42.7355 26.9815 43.1923 29.2777C43.649 31.574 44.7764 33.6832 46.4319 35.3387C48.0874 36.9942 50.1967 38.1217 52.4929 38.5784C54.7892 39.0352 57.1693 38.8007 59.3323 37.9048C61.4953 37.0088 63.3441 35.4916 64.6448 33.5449C65.9456 31.5983 66.6398 29.3096 66.6398 26.9684C66.6358 23.8301 65.3874 20.8215 63.1683 18.6024C60.9492 16.3833 57.9406 15.1348 54.8023 15.1309ZM54.8023 36.3071C52.9555 36.3071 51.1502 35.7595 49.6147 34.7335C48.0791 33.7074 46.8823 32.2491 46.1756 30.5429C45.4689 28.8367 45.2839 26.9593 45.6442 25.148C46.0045 23.3367 46.8938 21.6729 48.1997 20.367C49.5056 19.0611 51.1694 18.1718 52.9807 17.8115C54.792 17.4512 56.6694 17.6362 58.3756 18.3429C60.0818 19.0496 61.5401 20.2464 62.5662 21.782C63.5922 23.3175 64.1398 25.1228 64.1398 26.9696C64.1365 29.4451 63.1517 31.8182 61.4013 33.5686C59.6509 35.319 57.2778 36.3038 54.8023 36.3071ZM17.8723 41.1409C17.6379 40.9065 17.32 40.7749 16.9886 40.7749C16.6571 40.7749 16.3392 40.9065 16.1048 41.1409L11.8836 45.3621C11.6492 45.5965 11.5176 45.9144 11.5176 46.2459C11.5176 46.5773 11.6492 46.8952 11.8836 47.1296L16.1048 51.3509C16.2201 51.4702 16.3581 51.5655 16.5106 51.631C16.6631 51.6965 16.8271 51.731 16.9931 51.7324C17.159 51.7339 17.3236 51.7022 17.4773 51.6394C17.6309 51.5765 17.7704 51.4837 17.8878 51.3664C18.0052 51.249 18.098 51.1094 18.1608 50.9558C18.2237 50.8022 18.2553 50.6376 18.2539 50.4716C18.2524 50.3056 18.2179 50.1416 18.1524 49.9891C18.0869 49.8366 17.9917 49.6987 17.8723 49.5834L14.5348 46.2459L17.8723 42.9084C18.1067 42.674 18.2383 42.3561 18.2383 42.0246C18.2383 41.6932 18.1067 41.3753 17.8723 41.1409ZM30.8773 49.5821C30.7579 49.6974 30.6627 49.8354 30.5972 49.9879C30.5317 50.1404 30.4972 50.3044 30.4957 50.4704C30.4943 50.6363 30.5259 50.8009 30.5888 50.9546C30.6516 51.1082 30.7445 51.2477 30.8618 51.3651C30.9792 51.4825 31.1187 51.5753 31.2724 51.6381C31.426 51.701 31.5906 51.7326 31.7566 51.7312C31.9225 51.7297 32.0866 51.6952 32.2391 51.6297C32.3916 51.5642 32.5295 51.469 32.6448 51.3496L36.8661 47.1284C37.1004 46.8939 37.232 46.5761 37.232 46.2446C37.232 45.9132 37.1004 45.5953 36.8661 45.3609L32.6448 41.1396C32.4091 40.9119 32.0933 40.7859 31.7656 40.7888C31.4378 40.7916 31.1243 40.9231 30.8925 41.1548C30.6608 41.3866 30.5293 41.7001 30.5265 42.0279C30.5236 42.3556 30.6496 42.6714 30.8773 42.9071L34.2148 46.2446L30.8773 49.5821ZM24.2173 41.7209L22.1073 50.1634C22.0643 50.3236 22.0537 50.4909 22.076 50.6553C22.0983 50.8198 22.1531 50.9781 22.2373 51.1212C22.3214 51.2642 22.4332 51.389 22.5662 51.4884C22.6991 51.5878 22.8504 51.6597 23.0114 51.7C23.1724 51.7402 23.3399 51.748 23.5039 51.7229C23.6679 51.6977 23.8253 51.6402 23.9669 51.5536C24.1085 51.467 24.2314 51.3531 24.3284 51.2185C24.4255 51.0839 24.4948 50.9313 24.5323 50.7696L26.6411 42.3271C26.7084 42.0104 26.6502 41.6798 26.4788 41.4051C26.3073 41.1304 26.0359 40.933 25.7217 40.8545C25.4076 40.7759 25.0752 40.8223 24.7946 40.9839C24.514 41.1455 24.307 41.4097 24.2173 41.7209Z" fill="#858585"/>
</svg>
