<svg width="80" height="80" viewBox="0 0 80 80" fill="none" xmlns="http://www.w3.org/2000/svg">
<g clip-path="url(#clip0_1637_5740)">
<path d="M79.307 58.207L71.107 54.107L65.8883 40.532C65.8268 40.3715 65.733 40.2254 65.6125 40.1028C65.4921 39.9802 65.3477 39.8838 65.1883 39.8195L32.807 26.8758C32.5806 26.7856 32.3328 26.7636 32.0941 26.8125C31.8553 26.8613 31.6361 26.9789 31.4633 27.1508L27.1445 31.4695C26.975 31.6424 26.8593 31.8609 26.8116 32.0984C26.7639 32.3358 26.7862 32.582 26.8758 32.807L39.8195 65.1883C39.8838 65.3476 39.9802 65.4921 40.1028 65.6125C40.2254 65.733 40.3715 65.8268 40.532 65.8883L54.107 71.107L58.207 79.307C58.2934 79.4878 58.4219 79.6452 58.5818 79.7659C58.7417 79.8867 58.9282 79.9672 59.1258 80.0008C59.1923 80.0069 59.2593 80.0069 59.3258 80.0008C59.6568 79.9994 59.9737 79.8668 60.207 79.632L79.632 60.207C79.775 60.0691 79.883 59.899 79.9472 59.711C80.0113 59.5229 80.0297 59.3223 80.0008 59.1258C79.9672 58.9282 79.8867 58.7417 79.766 58.5818C79.6452 58.4219 79.4878 58.2933 79.307 58.207ZM29.4945 32.6445L30.1883 31.957L46.307 48.0758C45.2447 49.581 44.786 51.4301 45.0214 53.2573C45.2568 55.0846 46.1693 56.757 47.5784 57.9438C48.9876 59.1306 50.7908 59.7455 52.6314 59.6668C54.4721 59.5882 56.2162 58.8217 57.519 57.519C58.8217 56.2162 59.5882 54.4721 59.6669 52.6314C59.7455 50.7907 59.1307 48.9876 57.9438 47.5784C56.757 46.1693 55.0846 45.2568 53.2573 45.0214C51.4301 44.7859 49.581 45.2447 48.0758 46.307L31.957 30.1883L32.6445 29.4945L63.7508 41.9383L68.657 54.7008L54.7008 68.657L41.9383 63.7508L29.4945 32.6445ZM52.3133 47.457C53.4367 47.4587 54.5248 47.8498 55.3922 48.5637C56.2596 49.2777 56.8526 50.2703 57.0703 51.3724C57.2879 52.4746 57.1167 53.6181 56.5859 54.6081C56.055 55.5982 55.1972 56.3736 54.1588 56.8022C53.1203 57.2308 51.9654 57.2861 50.8907 56.9587C49.8161 56.6313 48.8882 55.9414 48.2651 55.0066C47.642 54.0717 47.3624 52.9498 47.4737 51.8319C47.5851 50.714 48.0806 49.6693 48.8758 48.8758C49.7884 47.9661 51.0247 47.4558 52.3133 47.457ZM59.6695 76.6383L56.5445 70.3883L70.3758 56.557L76.6258 59.682L59.6695 76.6383Z" fill="url(#paint0_linear_1637_5740)"/>
<path d="M23.9072 66.8749C23.6681 66.6489 23.3517 66.5231 23.0228 66.5231C22.6939 66.5231 22.3774 66.6489 22.1384 66.8749L20.5509 68.4624C16.3145 62.7127 13.9775 55.7846 13.8654 48.6436C13.7534 41.5026 15.872 34.5046 19.9259 28.6249C21.1405 29.2932 22.5389 29.5499 23.9116 29.3566C25.2844 29.1632 26.5575 28.5302 27.5402 27.5524C28.5229 26.5746 29.1623 25.3047 29.3626 23.933C29.5628 22.5612 29.3131 21.1615 28.6509 19.9436C34.5307 15.8897 41.5287 13.7711 48.6696 13.8831C55.8106 13.9952 62.7387 16.3322 68.4884 20.5686L66.8759 22.1374C66.6435 22.3717 66.5131 22.6885 66.5134 23.0186C66.5125 23.1831 66.544 23.3462 66.6062 23.4985C66.6684 23.6508 66.7601 23.7893 66.8759 23.9061L72.3884 29.3749C72.6226 29.6077 72.9394 29.7384 73.2697 29.7384C73.5999 29.7384 73.9167 29.6077 74.1509 29.3749L79.6322 23.8936C79.7484 23.7775 79.8406 23.6397 79.9035 23.4879C79.9664 23.3362 79.9988 23.1735 79.9988 23.0092C79.9988 22.845 79.9664 22.6823 79.9035 22.5306C79.8406 22.3788 79.7484 22.241 79.6322 22.1249L74.1509 16.6436C73.9167 16.4108 73.5999 16.2801 73.2697 16.2801C72.9394 16.2801 72.6226 16.4108 72.3884 16.6436L70.2697 18.7499C65.0478 14.8205 58.8742 12.3517 52.3828 11.5971C45.8914 10.8425 39.3161 11.8293 33.3322 14.4561L40.5384 7.26861C41.3555 7.65904 42.2845 7.74741 43.1605 7.51806C44.0366 7.28871 44.8031 6.75646 45.324 6.01574C45.845 5.27501 46.0867 4.3737 46.0063 3.4717C45.926 2.5697 45.5287 1.72533 44.885 1.08838C44.2413 0.451423 43.3928 0.0630727 42.49 -0.00778096C41.5872 -0.0786346 40.6885 0.172589 39.9533 0.701323C39.2181 1.23006 38.6939 2.00212 38.4738 2.88053C38.2537 3.75895 38.3519 4.68694 38.7509 5.49986L26.5884 17.6811C25.3535 16.8527 23.8693 16.4788 22.3893 16.6232C20.9094 16.7677 19.5254 17.4214 18.474 18.4729C17.4225 19.5244 16.7687 20.9083 16.6243 22.3883C16.4799 23.8683 16.8538 25.3525 17.6822 26.5874L5.50092 38.7499C4.68481 38.3522 3.75414 38.2567 2.87429 38.4804C1.99445 38.7041 1.2224 39.2325 0.695352 39.9717C0.1683 40.7109 -0.079623 41.613 -0.00436351 42.5177C0.070896 43.4224 0.464464 44.2712 1.10641 44.9131C1.74835 45.5551 2.59708 45.9486 3.5018 46.0239C4.40652 46.0992 5.30862 45.8512 6.0478 45.3242C6.78699 44.7971 7.31538 44.0251 7.53909 43.1452C7.7628 42.2654 7.66734 41.3347 7.26966 40.5186L14.4759 33.3311C11.8465 39.3135 10.8566 45.8878 11.6079 52.3792C12.3592 58.8705 14.8246 65.045 18.7509 70.2686L16.6384 72.3874C16.4056 72.6216 16.2749 72.9384 16.2749 73.2686C16.2749 73.5989 16.4056 73.9157 16.6384 74.1499L22.1197 79.6311C22.353 79.8659 22.6699 79.9985 23.0009 79.9999C23.1659 80 23.3292 79.9675 23.4815 79.9042C23.6338 79.8409 23.7721 79.7481 23.8884 79.6311L29.3759 74.1499C29.6087 73.9157 29.7394 73.5989 29.7394 73.2686C29.7394 72.9384 29.6087 72.6216 29.3759 72.3874L23.9072 66.8749ZM73.2822 19.2811L76.9947 22.9936L73.2822 26.7061L69.5697 22.9936L73.2822 19.2811ZM41.2509 2.89362C41.4367 2.70635 41.6738 2.57849 41.9324 2.52624C42.1909 2.474 42.4591 2.49973 42.703 2.60017C42.9469 2.70061 43.1555 2.87123 43.3022 3.09039C43.449 3.30954 43.5273 3.56736 43.5273 3.83112C43.5273 4.09487 43.449 4.35269 43.3022 4.57184C43.1555 4.791 42.9469 4.96162 42.703 5.06206C42.4591 5.1625 42.1909 5.18823 41.9324 5.13599C41.6738 5.08374 41.4367 4.95588 41.2509 4.76862C41.1277 4.64556 41.03 4.49942 40.9633 4.33855C40.8966 4.17769 40.8622 4.00526 40.8622 3.83112C40.8622 3.65697 40.8966 3.48454 40.9633 3.32368C41.03 3.16281 41.1277 3.01667 41.2509 2.89362ZM20.2509 20.2499C20.6139 19.8852 21.0453 19.5957 21.5205 19.3983C21.9956 19.2008 22.5051 19.0991 23.0197 19.0991C23.5342 19.0991 24.0437 19.2008 24.5188 19.3983C24.994 19.5957 25.4254 19.8852 25.7884 20.2499C26.3371 20.7977 26.7109 21.4959 26.8627 22.2562C27.0144 23.0166 26.9371 23.8048 26.6407 24.5212C26.3443 25.2377 25.842 25.8501 25.1975 26.2809C24.5529 26.7118 23.795 26.9418 23.0197 26.9418C22.2443 26.9418 21.4864 26.7118 20.8419 26.2809C20.1973 25.8501 19.695 25.2377 19.3986 24.5212C19.1022 23.8048 19.025 23.0166 19.1767 22.2562C19.3284 21.4959 19.7022 20.7977 20.2509 20.2499ZM4.77591 43.1249C4.52072 43.3377 4.19517 43.4474 3.86322 43.4324C3.53127 43.4174 3.21693 43.2788 2.98197 43.0438C2.74701 42.8088 2.60841 42.4945 2.59342 42.1626C2.57842 41.8306 2.6881 41.5051 2.90091 41.2499C3.15104 41.004 3.48771 40.8663 3.83841 40.8663C4.18912 40.8663 4.52579 41.004 4.77591 41.2499C4.89913 41.3729 4.99687 41.5191 5.06356 41.6799C5.13026 41.8408 5.16458 42.0132 5.16458 42.1874C5.16458 42.3615 5.13026 42.5339 5.06356 42.6948C4.99687 42.8557 4.89913 43.0018 4.77591 43.1249ZM23.0197 76.9561L19.3072 73.2436L23.0197 69.5311L26.7322 73.2436L23.0197 76.9561Z" fill="url(#paint1_linear_1637_5740)"/>
</g>
<defs>
<linearGradient id="paint0_linear_1637_5740" x1="53.4006" y1="26.7871" x2="53.4006" y2="80.0054" gradientUnits="userSpaceOnUse">
<stop stop-color="#0A7D70"/>
<stop offset="1" stop-color="#12E3CB"/>
</linearGradient>
<linearGradient id="paint1_linear_1637_5740" x1="39.9906" y1="-0.0195313" x2="39.9906" y2="79.9999" gradientUnits="userSpaceOnUse">
<stop stop-color="#0A7D70"/>
<stop offset="1" stop-color="#12E3CB"/>
</linearGradient>
<clipPath id="clip0_1637_5740">
<rect width="80" height="80" fill="white"/>
</clipPath>
</defs>
</svg>
