<svg width="80" height="80" viewBox="0 0 80 80" fill="none" xmlns="http://www.w3.org/2000/svg">
<path d="M26.4155 6.3968C23.4129 9.15664 21.3355 12.8229 20.6699 16.9326M59.3905 17.3399C58.1293 8.21617 49.9284 1.17383 39.9996 1.17383C36.5843 1.17383 33.3735 2.00711 30.5791 3.4718" stroke="#858585" stroke-width="2.34375" stroke-miterlimit="10" stroke-linecap="round" stroke-linejoin="round"/>
<path d="M29.9025 39.462C27.12 36.3062 25.387 32.0474 25.387 27.8954V21.0034C25.387 12.9362 31.9297 6.39648 40.0003 6.39648C48.0709 6.39648 54.6136 12.9362 54.6136 21.0034V27.8954C54.6136 32.3529 52.6161 36.9334 49.467 40.1402M25.3178 30.0502H20.6639C19.1861 30.0502 17.9883 28.8523 17.9883 27.3746V20.0221C17.9883 18.5443 19.1862 17.3465 20.6639 17.3465H25.3178V30.0502ZM54.6828 30.0502H59.3367C60.8145 30.0502 62.0123 28.8523 62.0123 27.3746V20.0221C62.0123 18.5443 60.8144 17.3465 59.3367 17.3465H54.6828V30.0502Z" stroke="#858585" stroke-width="2.34375" stroke-miterlimit="10" stroke-linecap="round" stroke-linejoin="round"/>
<path d="M42.8769 35.1683H56.0631C57.9944 35.1683 59.56 33.6027 59.56 31.6714V30.0508M13.0352 70.4273V43.7939C13.0352 41.7759 14.6711 40.1398 16.6892 40.1398H63.3127C65.3308 40.1398 66.9667 41.7758 66.9667 43.7939V70.4273" stroke="#858585" stroke-width="2.34375" stroke-miterlimit="10" stroke-linecap="round" stroke-linejoin="round"/>
<path d="M52.782 78.829H13.6572C10.9664 78.829 8.78516 76.6477 8.78516 73.957V72.2509C8.78516 71.2418 9.60312 70.4238 10.6122 70.4238H69.3861C70.3952 70.4238 71.2131 71.2418 71.2131 72.2509V73.957C71.2131 76.6477 69.0319 78.829 66.3411 78.829H58.322" stroke="#858585" stroke-width="2.34375" stroke-miterlimit="10" stroke-linecap="round" stroke-linejoin="round"/>
<path d="M40.0005 59.3505C42.2465 59.3505 44.0673 57.5297 44.0673 55.2837C44.0673 53.0376 42.2465 51.2168 40.0005 51.2168C37.7544 51.2168 35.9336 53.0376 35.9336 55.2837C35.9336 57.5297 37.7544 59.3505 40.0005 59.3505Z" stroke="#858585" stroke-width="2.34375" stroke-miterlimit="10" stroke-linecap="round" stroke-linejoin="round"/>
<path d="M25.3965 20.4688H54.6015" stroke="#858585" stroke-width="2.34375" stroke-miterlimit="10" stroke-linecap="round" stroke-linejoin="round"/>
</svg>
