<svg width="72" height="72" viewBox="0 0 72 72" fill="none" xmlns="http://www.w3.org/2000/svg">
<rect x="0.5" y="0.5" width="71" height="71" rx="3.5" fill="#1D1D1D" stroke="url(#paint0_linear_3102_5637)"/>
<path fill-rule="evenodd" clip-rule="evenodd" d="M32.1382 39.5363H22.9909C21.4794 39.5363 20.2544 38.3112 20.2544 36.7999V19.3607C20.2544 17.8492 21.4794 16.624 22.9909 16.624H49.5881C50.7795 16.624 51.7457 17.5901 51.7457 18.7821V36.7999C51.7457 38.3112 50.5207 39.5363 49.0091 39.5363H39.8273C39.8917 40.1846 39.9722 40.8335 40.0642 41.4321H42.3281C44.1771 41.4321 45.9504 42.1666 47.2579 43.4741C48.5654 44.7815 49.2999 46.5548 49.2999 48.4039V54.8267C49.2999 54.9723 49.242 55.1119 49.1391 55.2149C49.0361 55.3179 48.8965 55.3757 48.7509 55.3757H23.2492C23.1036 55.3757 22.964 55.3179 22.861 55.2149C22.758 55.1119 22.7002 54.9723 22.7002 54.8267V48.4039C22.7003 46.5549 23.4348 44.7816 24.7422 43.4742C26.0497 42.1667 27.823 41.4322 29.672 41.4321H31.9171C32.004 40.8334 32.0791 40.1845 32.1382 39.5363ZM21.3655 35.388V36.7999C21.3655 37.6976 22.0931 38.4252 22.9909 38.4252H49.0091C49.9069 38.4252 50.6346 37.6976 50.6346 36.7999V35.388H21.3655ZM35.9633 37.7144C35.4927 37.7144 35.1108 37.3324 35.1108 36.8619C35.1108 36.3914 35.4927 36.0094 35.9633 36.0094C36.4338 36.0094 36.8158 36.3914 36.8158 36.8619C36.8158 37.3324 36.4338 37.7144 35.9633 37.7144ZM32.1913 42.5301H29.672C28.9006 42.5301 28.1368 42.682 27.4242 42.9772C26.7115 43.2724 26.064 43.705 25.5185 44.2504C24.9731 44.7959 24.5405 45.4434 24.2453 46.1561C23.9501 46.8687 23.7982 47.6325 23.7982 48.4039V54.2777H27.2171V49.2661C27.2171 48.9198 27.4982 48.6386 27.8445 48.6386C28.1908 48.6386 28.472 48.9198 28.472 49.2661V54.2777H43.1394V49.2661C43.1394 48.9198 43.4205 48.6386 43.7669 48.6386C44.1131 48.6386 44.3943 48.9198 44.3943 49.2661V54.2777H48.2018V48.4039C48.2019 47.6325 48.0499 46.8687 47.7548 46.1561C47.4596 45.4434 47.0269 44.7959 46.4815 44.2505C45.9361 43.7051 45.2885 43.2724 44.5759 42.9772C43.8633 42.6821 43.0995 42.5301 42.3281 42.5301H39.8087L36.4437 45.8952C36.326 46.0128 36.1664 46.0788 36 46.0788C35.8337 46.0788 35.6741 46.0128 35.5564 45.8952L32.1913 42.5301ZM36.887 47.9117C36.887 48.4013 36.4896 48.7987 36 48.7987C35.5105 48.7987 35.1131 48.4013 35.1131 47.9117C35.1131 47.4221 35.5105 47.0247 36 47.0247C36.4896 47.0247 36.887 47.4221 36.887 47.9117ZM36.887 50.205C36.887 50.6945 36.4896 51.092 36 51.092C35.5105 51.092 35.1131 50.6945 35.1131 50.205C35.1131 49.7154 35.5105 49.318 36 49.318C36.4896 49.318 36.887 49.7154 36.887 50.205ZM36.887 52.4982C36.887 52.9878 36.4896 53.3853 36 53.3853C35.5105 53.3853 35.1131 52.9878 35.1131 52.4982C35.1131 52.0087 35.5105 51.6112 36 51.6112C36.4896 51.6112 36.887 52.0087 36.887 52.4982ZM38.724 39.5363H33.2407C33.179 40.2303 33.0994 40.9279 33.0065 41.5706L36 44.5642L38.9771 41.5871C38.8779 40.9398 38.7917 40.2361 38.724 39.5363ZM50.6346 34.2901V18.7821C50.6346 18.2039 50.166 17.7352 49.5881 17.7352H22.9909C22.0931 17.7352 21.3655 18.4628 21.3655 19.3607V34.2901H50.6346ZM40.895 27.1944L34.5651 31.2955C34.3628 31.4265 34.1289 31.5006 33.8881 31.5098C33.6472 31.5191 33.4084 31.4632 33.1966 31.3481C32.9849 31.233 32.8081 31.0629 32.6849 30.8557C32.5617 30.6486 32.4967 30.412 32.4967 30.171V21.9687C32.4967 21.7277 32.5618 21.4912 32.685 21.2841C32.8081 21.0769 32.9849 20.9068 33.1967 20.7917C33.4084 20.6766 33.6472 20.6207 33.8881 20.63C34.1289 20.6392 34.3628 20.7133 34.5651 20.8443L40.895 24.9454C41.0827 25.0669 41.2369 25.2335 41.3437 25.4299C41.4505 25.6263 41.5065 25.8463 41.5065 26.0699C41.5065 26.2934 41.4505 26.5135 41.3437 26.7099C41.2369 26.9063 41.0827 27.0728 40.895 27.1944ZM40.2909 26.2618C40.3229 26.2411 40.3492 26.2126 40.3675 26.1791C40.3857 26.1456 40.3952 26.108 40.3952 26.0699C40.3952 26.0317 40.3857 25.9941 40.3675 25.9606C40.3492 25.9271 40.3229 25.8987 40.2909 25.8779L33.9609 21.7767C33.9264 21.7544 33.8864 21.7418 33.8453 21.7402C33.8042 21.7386 33.7634 21.7482 33.7273 21.7678C33.6911 21.7875 33.661 21.8165 33.6399 21.8519C33.6189 21.8872 33.6078 21.9276 33.6077 21.9687V30.171C33.6078 30.2121 33.6189 30.2525 33.6399 30.2879C33.661 30.3232 33.6911 30.3523 33.7273 30.3719C33.7634 30.3916 33.8042 30.4011 33.8453 30.3995C33.8864 30.398 33.9264 30.3854 33.9609 30.363L40.2909 26.2618Z" fill="#04A391"/>
<defs>
<linearGradient id="paint0_linear_3102_5637" x1="70.5" y1="70" x2="4.10217e-06" y2="1.5" gradientUnits="userSpaceOnUse">
<stop stop-color="#004E45"/>
<stop offset="1" stop-color="#04A391"/>
</linearGradient>
</defs>
</svg>
