<svg width="56" height="54" viewBox="0 0 56 54" fill="none" xmlns="http://www.w3.org/2000/svg">
<path d="M0 14.75H1.75V16.5H0V14.75Z" fill="#04A391"/>
<path d="M51.625 49.75H0.875C0.642936 49.75 0.420376 49.6578 0.256282 49.4937C0.0921872 49.3296 0 49.1071 0 48.875V18.25H1.75V48H50.75V2.5H1.75V13H0V1.625C0 1.39294 0.0921872 1.17038 0.256282 1.00628C0.420376 0.842187 0.642936 0.75 0.875 0.75H51.625C51.8571 0.75 52.0796 0.842187 52.2437 1.00628C52.4078 1.17038 52.5 1.39294 52.5 1.625V48.875C52.5 49.1071 52.4078 49.3296 52.2437 49.4937C52.0796 49.6578 51.8571 49.75 51.625 49.75Z" fill="#04A391"/>
<path d="M0.875 7.75H51.625V9.5H0.875V7.75ZM3.5 4.25H5.25V6H3.5V4.25ZM7 4.25H8.75V6H7V4.25ZM10.5 4.25H12.25V6H10.5V4.25ZM47.25 4.25H49V6H47.25V4.25Z" fill="#04A391"/>
<path d="M55.125 53.25H4.375C4.14294 53.25 3.92038 53.1578 3.75628 52.9937C3.59219 52.8296 3.5 52.6071 3.5 52.375V48.875H5.25V51.5H54.25V6H51.625V4.25H55.125C55.3571 4.25 55.5796 4.34219 55.7437 4.50628C55.9078 4.67038 56 4.89294 56 5.125V52.375C56 52.6071 55.9078 52.8296 55.7437 52.9937C55.5796 53.1578 55.3571 53.25 55.125 53.25Z" fill="#04A391"/>
<path d="M33.25 43.625H19.25C18.3217 43.625 17.4315 43.2563 16.7751 42.5999C16.1187 41.9435 15.75 41.0533 15.75 40.125V25.8625C15.7504 25.2648 15.9547 24.6851 16.3293 24.2193L19.4416 20.3281L20.8084 21.4219L17.6943 25.3156C17.5678 25.4697 17.4991 25.6631 17.5 25.8625V40.125C17.5 40.5891 17.6844 41.0343 18.0126 41.3624C18.3408 41.6906 18.7859 41.875 19.25 41.875H33.25C33.7141 41.875 34.1593 41.6906 34.4874 41.3624C34.8156 41.0343 35 40.5891 35 40.125V25.8625C35.0011 25.6644 34.9334 25.472 34.8084 25.3182L31.6916 21.4219L33.0584 20.3281L36.1734 24.2219C36.5464 24.6873 36.7498 25.266 36.75 25.8625V40.125C36.75 41.0533 36.3813 41.9435 35.7249 42.5999C35.0685 43.2563 34.1783 43.625 33.25 43.625Z" fill="#04A391"/>
<path d="M32.375 21.75H20.125C19.8929 21.75 19.6704 21.6578 19.5063 21.4937C19.3422 21.3296 19.25 21.1071 19.25 20.875V18.25H21V20H31.5V18.25H33.25V20.875C33.25 21.1071 33.1578 21.3296 32.9937 21.4937C32.8296 21.6578 32.6071 21.75 32.375 21.75Z" fill="#04A391"/>
<path d="M33.2498 19.125H19.2498C19.0177 19.125 18.7952 19.0328 18.6311 18.8687C18.467 18.7046 18.3748 18.4821 18.3748 18.25V13.875C18.3748 13.4109 18.5592 12.9658 18.8874 12.6376C19.2156 12.3094 19.6607 12.125 20.1248 12.125H32.3748C32.8389 12.125 33.2841 12.3094 33.6123 12.6376C33.9404 12.9658 34.1248 13.4109 34.1248 13.875V18.25C34.1248 18.4821 34.0326 18.7046 33.8685 18.8687C33.7044 19.0328 33.4819 19.125 33.2498 19.125ZM20.1248 17.375H32.3748V13.875H20.1248V17.375ZM27.9998 37.5H24.4998C24.2677 37.5 24.0452 37.4078 23.8811 37.2437C23.717 37.0796 23.6248 36.8571 23.6248 36.625V34.875H21.8748C21.6427 34.875 21.4202 34.7828 21.2561 34.6187C21.092 34.4546 20.9998 34.2321 20.9998 34V30.5C20.9998 30.2679 21.092 30.0454 21.2561 29.8813C21.4202 29.7172 21.6427 29.625 21.8748 29.625H23.6248V27.875C23.6248 27.6429 23.717 27.4204 23.8811 27.2563C24.0452 27.0922 24.2677 27 24.4998 27H27.9998C28.2319 27 28.4544 27.0922 28.6185 27.2563C28.7826 27.4204 28.8748 27.6429 28.8748 27.875V29.625H30.6248C30.8569 29.625 31.0794 29.7172 31.2435 29.8813C31.4076 30.0454 31.4998 30.2679 31.4998 30.5V34C31.4998 34.2321 31.4076 34.4546 31.2435 34.6187C31.0794 34.7828 30.8569 34.875 30.6248 34.875H28.8748V36.625C28.8748 36.8571 28.7826 37.0796 28.6185 37.2437C28.4544 37.4078 28.2319 37.5 27.9998 37.5ZM25.3748 35.75H27.1248V34C27.1248 33.7679 27.217 33.5454 27.3811 33.3813C27.5452 33.2172 27.7677 33.125 27.9998 33.125H29.7498V31.375H27.9998C27.7677 31.375 27.5452 31.2828 27.3811 31.1187C27.217 30.9546 27.1248 30.7321 27.1248 30.5V28.75H25.3748V30.5C25.3748 30.7321 25.2826 30.9546 25.1185 31.1187C24.9544 31.2828 24.7319 31.375 24.4998 31.375H22.7498V33.125H24.4998C24.7319 33.125 24.9544 33.2172 25.1185 33.3813C25.2826 33.5454 25.3748 33.7679 25.3748 34V35.75ZM41.7434 36.3686L40.5062 35.1314L43.3876 32.25L40.5062 29.3686L41.7434 28.1314L45.2434 31.6314C45.4075 31.7955 45.4996 32.018 45.4996 32.25C45.4996 32.482 45.4075 32.7045 45.2434 32.8686L41.7434 36.3686ZM10.7562 36.3686L7.25619 32.8686C7.09215 32.7045 7 32.482 7 32.25C7 32.018 7.09215 31.7955 7.25619 31.6314L10.7562 28.1314L11.9934 29.3686L9.11206 32.25L11.9934 35.1314L10.7562 36.3686Z" fill="#04A391"/>
</svg>
