<svg width="56" height="56" viewBox="0 0 56 56" fill="none" xmlns="http://www.w3.org/2000/svg">
<path d="M30.625 7H25.375C25.1429 7 24.9204 6.90781 24.7563 6.74372C24.5922 6.57962 24.5 6.35706 24.5 6.125C24.5 5.89294 24.5922 5.67038 24.7563 5.50628C24.9204 5.34219 25.1429 5.25 25.375 5.25H30.625C30.8571 5.25 31.0796 5.34219 31.2437 5.50628C31.4078 5.67038 31.5 5.89294 31.5 6.125C31.5 6.35706 31.4078 6.57962 31.2437 6.74372C31.0796 6.90781 30.8571 7 30.625 7ZM37.625 54.25H18.375C17.2151 54.2486 16.1031 53.7872 15.2829 52.9671C14.4628 52.1469 14.0014 51.0349 14 49.875V20.125C14 19.8929 14.0922 19.6704 14.2563 19.5063C14.4204 19.3422 14.6429 19.25 14.875 19.25C15.1071 19.25 15.3296 19.3422 15.4937 19.5063C15.6578 19.6704 15.75 19.8929 15.75 20.125V49.875C15.75 51.3223 16.9277 52.5 18.375 52.5H37.625C39.0723 52.5 40.25 51.3223 40.25 49.875V20.125C40.25 19.8929 40.3422 19.6704 40.5063 19.5063C40.6704 19.3422 40.8929 19.25 41.125 19.25C41.3571 19.25 41.5796 19.3422 41.7437 19.5063C41.9078 19.6704 42 19.8929 42 20.125V49.875C42 52.2865 40.0382 54.25 37.625 54.25Z" fill="#04A391"/>
<path d="M41.125 26.25C40.8929 26.25 40.6704 26.1578 40.5063 25.9937C40.3422 25.8296 40.25 25.6071 40.25 25.375V6.125C40.25 4.67775 39.0723 3.5 37.625 3.5H18.375C16.9277 3.5 15.75 4.67775 15.75 6.125V25.375C15.75 25.6071 15.6578 25.8296 15.4937 25.9937C15.3296 26.1578 15.1071 26.25 14.875 26.25C14.6429 26.25 14.4204 26.1578 14.2563 25.9937C14.0922 25.8296 14 25.6071 14 25.375V6.125C14 3.7135 15.9618 1.75 18.375 1.75H37.625C40.0382 1.75 42 3.7135 42 6.125V25.375C42 25.6071 41.9078 25.8296 41.7437 25.9937C41.5796 26.1578 41.3571 26.25 41.125 26.25ZM46.375 10.5875C45.892 10.5875 45.5 10.283 45.5 9.8V9.625C45.5 9.39294 45.5922 9.17038 45.7563 9.00628C45.9204 8.84219 46.1429 8.75 46.375 8.75C46.6071 8.75 46.8296 8.84219 46.9937 9.00628C47.1578 9.17038 47.25 9.39294 47.25 9.625C47.25 10.108 46.858 10.5875 46.375 10.5875ZM46.375 14.0875C45.892 14.0875 45.5 13.783 45.5 13.3V13.125C45.5 12.8929 45.5922 12.6704 45.7563 12.5063C45.9204 12.3422 46.1429 12.25 46.375 12.25C46.6071 12.25 46.8296 12.3422 46.9937 12.5063C47.1578 12.6704 47.25 12.8929 47.25 13.125C47.25 13.608 46.858 14.0875 46.375 14.0875ZM46.375 17.5875C45.892 17.5875 45.5 17.283 45.5 16.8V16.625C45.5 16.3929 45.5922 16.1704 45.7563 16.0063C45.9204 15.8422 46.1429 15.75 46.375 15.75C46.6071 15.75 46.8296 15.8422 46.9937 16.0063C47.1578 16.1704 47.25 16.3929 47.25 16.625C47.25 17.108 46.858 17.5875 46.375 17.5875ZM9.625 40.1625C9.142 40.1625 8.75 39.858 8.75 39.375V39.2C8.75 38.9679 8.84219 38.7454 9.00628 38.5813C9.17038 38.4172 9.39294 38.325 9.625 38.325C9.85706 38.325 10.0796 38.4172 10.2437 38.5813C10.4078 38.7454 10.5 38.9679 10.5 39.2C10.5 39.683 10.108 40.1625 9.625 40.1625ZM9.625 43.6625C9.142 43.6625 8.75 43.358 8.75 42.875V42.7C8.75 42.4679 8.84219 42.2454 9.00628 42.0813C9.17038 41.9172 9.39294 41.825 9.625 41.825C9.85706 41.825 10.0796 41.9172 10.2437 42.0813C10.4078 42.2454 10.5 42.4679 10.5 42.7C10.5 43.183 10.108 43.6625 9.625 43.6625ZM9.625 47.1625C9.142 47.1625 8.75 46.858 8.75 46.375V46.2C8.75 45.9679 8.84219 45.7454 9.00628 45.5813C9.17038 45.4172 9.39294 45.325 9.625 45.325C9.85706 45.325 10.0796 45.4172 10.2437 45.5813C10.4078 45.7454 10.5 45.9679 10.5 46.2C10.5 46.683 10.108 47.1625 9.625 47.1625Z" fill="#04A391"/>
<path d="M43.4717 47.25C43.3412 47.25 43.2123 47.2209 43.0945 47.1646C42.9768 47.1084 42.873 47.0265 42.791 46.925C42.7089 46.8235 42.6506 46.7049 42.6204 46.578C42.5901 46.451 42.5886 46.3189 42.616 46.1912L43.1935 43.5138C43.2279 43.3529 43.3072 43.2052 43.4221 43.0875C43.537 42.9698 43.6828 42.887 43.8427 42.8488C44.6872 42.6417 45.4942 42.3046 46.235 41.8495C46.3747 41.7642 46.5355 41.7199 46.6991 41.7214C46.8628 41.723 47.0227 41.7704 47.1607 41.8583L48.8932 42.966L49.966 41.8845L48.8583 40.166C48.7693 40.0278 48.721 39.8674 48.7189 39.7031C48.7167 39.5388 48.7608 39.3772 48.846 39.2367C49.3013 38.4963 49.6379 37.6891 49.8435 36.8445C49.882 36.6851 49.9644 36.5396 50.0813 36.4245C50.1982 36.3095 50.345 36.2294 50.505 36.1935L52.5 35.7508V34.251L50.5068 33.8083C50.3467 33.7723 50.1999 33.6923 50.083 33.5772C49.9661 33.4622 49.8837 33.3167 49.8452 33.1573C49.6388 32.3129 49.3023 31.5059 48.8478 30.765C48.7618 30.6252 48.7172 30.4639 48.719 30.2997C48.7209 30.1356 48.7692 29.9754 48.8583 29.8375L49.9677 28.1033L48.8967 27.0322L47.1625 28.1417C47.0246 28.23 46.8646 28.2777 46.7009 28.2792C46.5372 28.2808 46.3763 28.2362 46.2367 28.1505C45.4957 27.696 44.6887 27.3589 43.8445 27.1513C43.6846 27.113 43.5387 27.0302 43.4238 26.9125C43.3089 26.7948 43.2297 26.6471 43.1953 26.4863L42.7648 24.5H42C41.7679 24.5 41.5454 24.4078 41.3813 24.2437C41.2172 24.0796 41.125 23.8571 41.125 23.625C41.125 23.3929 41.2172 23.1704 41.3813 23.0063C41.5454 22.8422 41.7679 22.75 42 22.75H43.47C43.6699 22.7503 43.8636 22.8191 44.019 22.9449C44.1744 23.0706 44.282 23.2458 44.324 23.4413L44.7912 25.599C45.4317 25.7933 46.06 26.0558 46.6655 26.383L48.545 25.1807C48.7131 25.0734 48.9128 25.0266 49.1111 25.0482C49.3094 25.0699 49.4943 25.1586 49.6353 25.2997L51.702 27.3647C51.8429 27.5059 51.9313 27.691 51.9526 27.8892C51.9739 28.0875 51.9269 28.2871 51.8193 28.455L50.617 30.3345C50.9443 30.9417 51.2067 31.57 51.401 32.2122L53.5623 32.6917C53.9648 32.781 54.25 33.138 54.25 33.5475V36.4525C54.2499 36.6517 54.1819 36.8448 54.0572 37.0001C53.9324 37.1554 53.7585 37.2635 53.564 37.3065L51.4027 37.786C51.2052 38.4361 50.9426 39.0647 50.6187 39.662L51.8193 41.524C51.9279 41.6913 51.976 41.8908 51.9552 42.0892C51.9345 42.2877 51.8464 42.473 51.7055 42.6143L49.6388 44.6968C49.4977 44.8383 49.3126 44.9274 49.114 44.9494C48.9154 44.9713 48.7153 44.9248 48.5467 44.8175L46.6672 43.6152C46.0702 43.9384 45.4423 44.2011 44.793 44.3993L44.3258 46.557C44.2838 46.7526 44.1763 46.928 44.0209 47.0541C43.8656 47.1801 43.6718 47.2493 43.4717 47.25Z" fill="#04A391"/>
<path d="M44.4346 39.5114C44.2472 39.5111 44.0649 39.4506 43.9144 39.3389C43.764 39.2271 43.6534 39.07 43.5989 38.8908C43.5445 38.7115 43.549 38.5194 43.6118 38.3429C43.6747 38.1663 43.7926 38.0147 43.9481 37.9101C44.6197 37.4575 45.1138 36.7862 45.3463 36.0103C45.5787 35.2345 45.5352 34.4021 45.2231 33.6547C44.911 32.9073 44.3496 32.2912 43.6344 31.9111C42.9192 31.531 42.0944 31.4104 41.3004 31.5699C41.1877 31.593 41.0717 31.5937 40.9588 31.5719C40.8459 31.5502 40.7385 31.5064 40.6425 31.4431C40.5465 31.3798 40.464 31.2982 40.3996 31.203C40.3351 31.1078 40.2901 31.0009 40.267 30.8883C40.2439 30.7757 40.2432 30.6596 40.2649 30.5467C40.2867 30.4338 40.3305 30.3264 40.3938 30.2304C40.4571 30.1344 40.5386 30.0519 40.6338 29.9875C40.729 29.923 40.836 29.878 40.9486 29.8549C41.7114 29.7002 42.4991 29.7168 43.2547 29.9036C44.0104 30.0904 44.7151 30.4426 45.318 30.9349C45.921 31.4271 46.4071 32.0471 46.7412 32.7501C47.0754 33.4531 47.2493 34.2215 47.2504 34.9999C47.2505 35.8625 47.0381 36.7119 46.6318 37.4728C46.2256 38.2338 45.638 38.8829 44.9211 39.3626C44.7773 39.4594 44.6079 39.5112 44.4346 39.5114ZM14.0004 26.2499C12.8724 26.2514 11.7739 25.8894 10.8678 25.2176C9.96162 24.5459 9.29603 23.6 8.96964 22.5203C8.64324 21.4405 8.6734 20.2844 9.05566 19.2231C9.43792 18.1619 10.1519 17.252 11.0919 16.6284C11.2849 16.5078 11.5174 16.4673 11.7399 16.5153C11.9624 16.5633 12.1574 16.6962 12.2836 16.8857C12.4097 17.0751 12.4571 17.3063 12.4156 17.5301C12.3741 17.7539 12.247 17.9527 12.0614 18.0844C11.3897 18.5352 10.8948 19.2046 10.6606 19.9789C10.4264 20.7532 10.4674 21.5847 10.7765 22.3322C11.0857 23.0797 11.644 23.6972 12.3566 24.0799C13.0693 24.4626 13.8925 24.5869 14.6864 24.4316C14.9139 24.3867 15.15 24.4337 15.3431 24.5622C15.5362 24.6907 15.6707 24.8904 15.7171 25.1176C15.7398 25.2303 15.74 25.3462 15.7178 25.459C15.6956 25.5717 15.6514 25.6789 15.5876 25.7745C15.5239 25.8701 15.442 25.9522 15.3465 26.016C15.251 26.0799 15.1438 26.1243 15.0311 26.1466C14.6919 26.2157 14.3465 26.2503 14.0004 26.2499Z" fill="#04A391"/>
<path d="M14 33.2501H12.53C12.3301 33.2498 12.1364 33.181 11.981 33.0552C11.8256 32.9295 11.718 32.7543 11.676 32.5588L11.2088 30.4011C10.5593 30.2033 9.93139 29.9406 9.3345 29.6171L7.455 30.8193C7.28692 30.9267 7.0872 30.9735 6.88892 30.9519C6.69064 30.9302 6.5057 30.8415 6.36475 30.7003L4.298 28.6353C4.15714 28.4942 4.06873 28.3091 4.04741 28.1109C4.02609 27.9126 4.07313 27.713 4.18075 27.5451L5.383 25.6656C5.05947 25.0675 4.79682 24.4384 4.599 23.7878L2.43775 23.3083C2.24282 23.2653 2.06841 23.157 1.94335 23.0014C1.8183 22.8458 1.75009 22.6522 1.75 22.4526V19.5476C1.75008 19.3484 1.8181 19.1552 1.94283 19C2.06756 18.8447 2.24153 18.7366 2.436 18.6936L4.59725 18.2141C4.7915 17.5718 5.054 16.9436 5.38125 16.3381L4.1825 14.4743C4.07381 14.307 4.0258 14.1075 4.0465 13.9091C4.06721 13.7107 4.15536 13.5254 4.29625 13.3841L6.363 11.3016C6.50351 11.1592 6.68873 11.0695 6.88758 11.0475C7.08642 11.0255 7.28677 11.0726 7.455 11.1808L9.3345 12.3831C9.93153 12.0599 10.5594 11.7973 11.2088 11.5991L11.676 9.44135C11.6972 9.3261 11.7413 9.21629 11.8058 9.11842C11.8702 9.02055 11.9536 8.93663 12.0511 8.87162C12.1486 8.80661 12.2582 8.76184 12.3733 8.73998C12.4884 8.71811 12.6067 8.71959 12.7213 8.74433C12.8358 8.76906 12.9442 8.81655 13.0401 8.88398C13.1359 8.9514 13.2172 9.03739 13.2792 9.13684C13.3411 9.23628 13.3825 9.34717 13.4008 9.4629C13.4191 9.57864 13.414 9.69688 13.3857 9.8106L12.8082 12.4881C12.7738 12.6489 12.6946 12.7967 12.5797 12.9144C12.4648 13.032 12.3189 13.1148 12.159 13.1531C11.3142 13.3604 10.5066 13.6975 9.765 14.1523C9.62531 14.2376 9.46452 14.282 9.30087 14.2804C9.13723 14.2789 8.9773 14.2315 8.83925 14.1436L7.10675 13.0358L6.03225 14.1173L7.14 15.8358C7.22971 15.9737 7.27847 16.1342 7.28064 16.2987C7.28281 16.4632 7.23829 16.6249 7.15225 16.7651C6.69697 17.5056 6.36039 18.3128 6.15475 19.1573C6.11626 19.3168 6.03389 19.4623 5.91699 19.5773C5.80008 19.6924 5.65329 19.7724 5.49325 19.8083L3.5 20.2493V21.7491L5.49325 22.1918C5.65329 22.2278 5.80008 22.3078 5.91699 22.4229C6.03389 22.5379 6.11626 22.6834 6.15475 22.8428C6.3525 23.6688 6.69025 24.4738 7.15225 25.2351C7.32725 25.5203 7.32375 25.8808 7.14175 26.1626L6.03225 27.8951L7.10325 28.9661L8.8375 27.8566C8.9757 27.7691 9.13557 27.7219 9.29913 27.7204C9.46269 27.7188 9.62343 27.763 9.76325 27.8478C10.5262 28.3116 11.3313 28.6476 12.1555 28.8471C12.3154 28.8854 12.4613 28.9682 12.5762 29.0858C12.6911 29.2035 12.7703 29.3513 12.8047 29.5121L13.2353 31.5001H14C14.2321 31.5001 14.4546 31.5923 14.6187 31.7564C14.7828 31.9205 14.875 32.143 14.875 32.3751C14.875 32.6072 14.7828 32.8297 14.6187 32.9938C14.4546 33.1579 14.2321 33.2501 14 33.2501ZM27.125 32.3751C26.992 32.3754 26.8606 32.3453 26.741 32.2871C26.6214 32.2289 26.5167 32.1442 26.4348 32.0394C26.3529 31.9345 26.296 31.8124 26.2686 31.6822C26.2411 31.552 26.2437 31.4173 26.2763 31.2883L28.0262 24.2883C28.0532 24.1764 28.1022 24.071 28.1704 23.9782C28.2385 23.8854 28.3244 23.8071 28.4231 23.7478C28.5218 23.6885 28.6313 23.6494 28.7452 23.6329C28.8592 23.6163 28.9753 23.6226 29.0868 23.6513C29.1983 23.679 29.3033 23.7284 29.3958 23.7966C29.4882 23.8649 29.5662 23.9508 29.6254 24.0493C29.6846 24.1479 29.7238 24.2571 29.7406 24.3708C29.7575 24.4845 29.7518 24.6004 29.7238 24.7118L27.9737 31.7118C27.9271 31.9015 27.818 32.07 27.6641 32.1903C27.5102 32.3106 27.3203 32.3757 27.125 32.3751ZM32.375 32.3751C32.2021 32.3751 32.033 32.3238 31.8892 32.2277C31.7454 32.1317 31.6333 31.9952 31.567 31.8355C31.5007 31.6758 31.4833 31.5 31.5168 31.3304C31.5504 31.1607 31.6334 31.0048 31.7555 30.8823L34.6377 28.0001L31.7572 25.1196C31.5979 24.9546 31.5097 24.7335 31.5117 24.5041C31.5137 24.2747 31.6057 24.0552 31.7679 23.893C31.9301 23.7308 32.1496 23.6388 32.379 23.6368C32.6084 23.6348 32.8295 23.723 32.9945 23.8823L36.4945 27.3823C36.6585 27.5464 36.7507 27.769 36.7507 28.001C36.7507 28.233 36.6585 28.4555 36.4945 28.6196L32.9945 32.1196C32.8299 32.2833 32.6071 32.3751 32.375 32.3751ZM23.625 32.3751C23.3929 32.3751 23.1701 32.2833 23.0055 32.1196L19.5055 28.6196C19.3415 28.4555 19.2493 28.233 19.2493 28.001C19.2493 27.769 19.3415 27.5464 19.5055 27.3823L23.0055 23.8823C23.1705 23.723 23.3916 23.6348 23.621 23.6368C23.8504 23.6388 24.0699 23.7308 24.2321 23.893C24.3943 24.0552 24.4863 24.2747 24.4883 24.5041C24.4903 24.7335 24.4021 24.9546 24.2428 25.1196L21.3622 28.0001L24.2428 30.8806C24.3653 31.0029 24.4489 31.1588 24.4828 31.3285C24.5168 31.4983 24.4996 31.6743 24.4335 31.8343C24.3673 31.9944 24.2552 32.1311 24.1113 32.2274C23.9674 32.3237 23.7981 32.3751 23.625 32.3751Z" fill="#04A391"/>
</svg>
