<svg width="56" height="56" viewBox="0 0 56 56" fill="none" xmlns="http://www.w3.org/2000/svg">
<path d="M31.1857 51.0826H24.8122C24.3467 51.0826 23.9722 50.7081 23.9722 50.2426C23.9722 49.7771 24.3467 49.4026 24.8122 49.4026H31.1857C31.6512 49.4026 32.0257 49.7771 32.0257 50.2426C32.0257 50.7081 31.6477 51.0826 31.1857 51.0826ZM13.1222 13.2301C12.6567 13.2301 12.2822 12.8556 12.2822 12.3901V4.06012C12.2822 2.43962 13.6017 1.12012 15.2222 1.12012H40.7722C42.3927 1.12012 43.7122 2.43962 43.7122 4.06012V7.97662C43.7122 8.44212 43.3377 8.81662 42.8722 8.81662C42.4067 8.81662 42.0322 8.44212 42.0322 7.97662V4.06012C42.0322 3.36362 41.4687 2.80012 40.7722 2.80012H15.2222C14.5257 2.80012 13.9622 3.36362 13.9622 4.06012V12.3901C13.9622 12.8556 13.5877 13.2301 13.1222 13.2301ZM13.1222 34.6116C12.6567 34.6116 12.2822 34.2371 12.2822 33.7716V19.1066C12.2822 18.6411 12.6567 18.2666 13.1222 18.2666C13.5877 18.2666 13.9622 18.6411 13.9622 19.1066V33.7716C13.9622 34.2336 13.5877 34.6116 13.1222 34.6116Z" fill="#04A391"/>
<path d="M40.7722 54.88H15.2222C13.6017 54.88 12.2822 53.5605 12.2822 51.94V42.133C12.2822 41.6675 12.6567 41.293 13.1222 41.293C13.5877 41.293 13.9622 41.6675 13.9622 42.133V51.94C13.9622 52.6365 14.5257 53.2 15.2222 53.2H40.7722C41.4687 53.2 42.0322 52.6365 42.0322 51.94V46.445C42.0322 45.9795 42.4067 45.605 42.8722 45.605C43.3377 45.605 43.7122 45.9795 43.7122 46.445V51.94C43.7122 53.5605 42.3927 54.88 40.7722 54.88ZM42.8722 32.179C42.4067 32.179 42.0322 31.8045 42.0322 31.339V22.5785C42.0322 22.113 42.4067 21.7385 42.8722 21.7385C43.3377 21.7385 43.7122 22.113 43.7122 22.5785V31.339C43.7122 31.801 43.3377 32.179 42.8722 32.179Z" fill="#04A391"/>
<path d="M42.8722 47.2852H13.1222C12.6567 47.2852 12.2822 46.9107 12.2822 46.4452V42.1332C12.2822 41.6677 12.6567 41.2932 13.1222 41.2932C13.5877 41.2932 13.9622 41.6677 13.9622 42.1332V45.6052H42.0322V42.7107C42.0322 42.2452 42.4067 41.8707 42.8722 41.8707C43.3377 41.8707 43.7122 42.2452 43.7122 42.7107V46.4452C43.7122 46.9107 43.3377 47.2852 42.8722 47.2852ZM13.1222 34.6117C12.6567 34.6117 12.2822 34.2372 12.2822 33.7717V19.1067C12.2822 18.6412 12.6567 18.2667 13.1222 18.2667C13.5877 18.2667 13.9622 18.6412 13.9622 19.1067V33.7717C13.9622 34.2337 13.5877 34.6117 13.1222 34.6117ZM13.1222 13.2302C12.6567 13.2302 12.2822 12.8557 12.2822 12.3902V7.97672C12.2822 7.51122 12.6567 7.13672 13.1222 7.13672H42.8722C43.3377 7.13672 43.7122 7.51122 43.7122 7.97672V11.1897C43.7122 11.6552 43.3377 12.0297 42.8722 12.0297C42.4067 12.0297 42.0322 11.6552 42.0322 11.1897V8.81672H13.9622V12.3902C13.9622 12.8557 13.5877 13.2302 13.1222 13.2302ZM22.5407 30.2052C22.0122 30.2052 21.5292 29.8482 21.3892 29.3127L20.4197 25.5817C20.3392 25.2737 20.3847 24.9517 20.5457 24.6787C20.7067 24.4057 20.9657 24.2097 21.2737 24.1292L28.6622 22.2112C28.8792 22.1552 29.1067 22.1867 29.2992 22.2987C29.4917 22.4107 29.6317 22.5962 29.6877 22.8132L30.8322 27.2232C30.9477 27.6712 30.6782 28.1297 30.2302 28.2487L22.8417 30.1667C22.7402 30.1947 22.6387 30.2052 22.5407 30.2052ZM22.1697 25.6342L22.8907 28.4167L28.9912 26.8347L28.2702 24.0522L22.1697 25.6342Z" fill="#04A391"/>
<path d="M19.9187 29.8865C19.5337 29.8865 19.1557 29.785 18.8162 29.5855C18.3122 29.2915 17.9552 28.8155 17.8082 28.252C17.6612 27.6885 17.7452 27.1005 18.0392 26.5965C18.3332 26.0925 18.8092 25.7355 19.3727 25.5885L21.1682 25.123C21.3852 25.067 21.6127 25.0985 21.8052 25.2105C21.9977 25.3225 22.1377 25.508 22.1937 25.725L22.8692 28.3255C22.9847 28.7735 22.7152 29.232 22.2672 29.351L20.4717 29.8165C20.2897 29.862 20.1042 29.8865 19.9187 29.8865ZM20.7797 26.964L19.7997 27.2195C19.6702 27.2545 19.5617 27.335 19.4917 27.4505C19.4217 27.566 19.4042 27.7025 19.4392 27.832C19.4742 27.9615 19.5547 28.07 19.6702 28.14C19.7857 28.21 19.9222 28.2275 20.0517 28.1925L21.0317 27.937L20.7797 26.964ZM35.1122 29.064C35.0702 29.064 35.0282 29.0605 34.9827 29.0535L29.8867 28.2695C29.5542 28.217 29.2847 27.9755 29.2007 27.65L28.0562 23.24C27.9722 22.9145 28.0877 22.5715 28.3537 22.365L32.4242 19.201C32.7917 18.9175 33.3167 18.984 33.6037 19.348C33.8872 19.7155 33.8207 20.2405 33.4567 20.5275L29.8237 23.352L30.6917 26.691L35.2417 27.391C35.7002 27.461 36.0152 27.8915 35.9452 28.35C35.8787 28.7665 35.5217 29.064 35.1122 29.064Z" fill="#04A391"/>
<path d="M35.5217 30.6427C35.1472 30.6427 34.8077 30.3907 34.7097 30.0127L31.7207 18.4942C31.6052 18.0462 31.8747 17.5877 32.3227 17.4687C32.7707 17.3532 33.2292 17.6227 33.3482 18.0707L36.3372 29.5892C36.4527 30.0372 36.1832 30.4957 35.7352 30.6147C35.6617 30.6357 35.5917 30.6427 35.5217 30.6427ZM26.6037 35.4062C25.6237 35.4062 24.7277 34.7482 24.4687 33.7577L23.2822 29.1867C23.2262 28.9697 23.2577 28.7422 23.3697 28.5497C23.4817 28.3572 23.6672 28.2172 23.8842 28.1612L26.5232 27.4752C26.9712 27.3597 27.4297 27.6292 27.5487 28.0772L28.7352 32.6517C29.0397 33.8277 28.3327 35.0317 27.1567 35.3397C26.9712 35.3852 26.7857 35.4062 26.6037 35.4062ZM25.1197 29.5752L26.0962 33.3342C26.1697 33.6142 26.4567 33.7822 26.7332 33.7087C27.0132 33.6352 27.1812 33.3517 27.1077 33.0717L26.1312 29.3127L25.1197 29.5752ZM16.8842 19.9502H16.8807L9.31716 19.9362C8.27416 19.9327 7.43066 19.0857 7.43066 18.0427L7.44116 13.4297C7.44116 12.9257 7.64066 12.4497 7.99766 12.0927C8.35466 11.7357 8.82716 11.5432 9.33116 11.5432H9.33466L16.8982 11.5572C17.4022 11.5572 17.8782 11.7567 18.2352 12.1137C18.5922 12.4707 18.7882 12.9467 18.7847 13.4507L18.7742 18.0637C18.7742 18.5677 18.5747 19.0437 18.2177 19.4007C17.8607 19.7577 17.3882 19.9502 16.8842 19.9502ZM9.32766 13.2232C9.25416 13.2232 9.20866 13.2582 9.18066 13.2862C9.15266 13.3142 9.11766 13.3632 9.11766 13.4332L9.10716 18.0462C9.10716 18.1617 9.20166 18.2562 9.31716 18.2562L16.8807 18.2702C16.9507 18.2702 16.9997 18.2387 17.0277 18.2107C17.0557 18.1827 17.0907 18.1337 17.0907 18.0637L17.1012 13.4507C17.1012 13.3772 17.0662 13.3317 17.0382 13.3002C17.0102 13.2722 16.9612 13.2372 16.8912 13.2372L9.32766 13.2232Z" fill="#04A391"/>
<path d="M13.1078 17.0346C12.6668 17.0346 12.2293 16.8806 11.8688 16.5726L8.06775 13.3071C7.71425 13.0061 7.67575 12.4741 7.97675 12.1241C8.27775 11.7706 8.80975 11.7321 9.15975 12.0331L12.9608 15.2986C13.0448 15.3686 13.1638 15.3686 13.2478 15.2986L17.0628 12.0471C17.4163 11.7461 17.9447 11.7881 18.2458 12.1416C18.5468 12.4951 18.5047 13.0236 18.1512 13.3246L14.3363 16.5761C13.9828 16.8806 13.5453 17.0346 13.1078 17.0346ZM42.5322 43.5611C38.9272 43.5611 35.9943 40.6281 35.9943 37.0231C35.9943 33.4181 38.9272 30.4851 42.5322 30.4851C46.1372 30.4851 49.0703 33.4181 49.0703 37.0231C49.0703 40.6281 46.1372 43.5611 42.5322 43.5611ZM42.5322 32.1686C39.8547 32.1686 37.6743 34.3456 37.6743 37.0266C37.6743 39.7076 39.8512 41.8846 42.5322 41.8846C45.2132 41.8846 47.3903 39.7076 47.3903 37.0266C47.3903 34.3456 45.2097 32.1686 42.5322 32.1686Z" fill="#04A391"/>
<path d="M41.3248 40.2396C41.1883 40.2396 41.0518 40.2046 40.9258 40.1381C40.7924 40.0663 40.6809 39.9598 40.6033 39.8297C40.5256 39.6997 40.4847 39.551 40.4848 39.3996V34.6501C40.4848 34.3421 40.6528 34.0586 40.9258 33.9116C41.1988 33.7646 41.5278 33.7786 41.7868 33.9501L45.3988 36.3231C45.6368 36.4771 45.7768 36.7431 45.7768 37.0266C45.7768 37.3101 45.6333 37.5726 45.3988 37.7301L41.7868 40.1031C41.6468 40.1906 41.4858 40.2396 41.3248 40.2396ZM42.1648 36.2076V37.8421L43.4073 37.0266L42.1648 36.2076ZM9.18432 45.6296C9.05132 45.6296 8.91482 45.5981 8.79232 45.5316C8.51932 45.3881 8.34782 45.1011 8.34432 44.7931L8.33732 42.6861L7.46232 42.6896H7.45882C6.99682 42.6896 6.61882 42.3151 6.61882 41.8531L6.59082 33.7961C6.59082 33.5721 6.67832 33.3586 6.83582 33.2011C6.99332 33.0436 7.20682 32.9526 7.42732 32.9526L18.8058 32.9141H18.8093C19.0298 32.9141 19.2433 33.0016 19.4008 33.1591C19.5583 33.3166 19.6493 33.5301 19.6493 33.7506L19.6773 41.8076C19.6773 42.2731 19.3028 42.6476 18.8408 42.6511L13.8358 42.6686L9.65682 45.4861C9.51332 45.5806 9.34882 45.6296 9.18432 45.6296ZM9.17382 41.0026C9.39432 41.0026 9.60782 41.0901 9.76532 41.2476C9.92282 41.4051 10.0138 41.6186 10.0138 41.8391L10.0173 43.2111L13.1043 41.1286C13.2408 41.0341 13.4053 40.9851 13.5698 40.9851L17.9903 40.9711L17.9693 34.5941L8.27082 34.6256L8.29182 41.0026H9.17382Z" fill="#04A391"/>
<path d="M10.3634 37.3695C9.90144 37.3695 9.52344 36.995 9.52344 36.533C9.52344 36.0675 9.89794 35.693 10.3599 35.6895L15.8969 35.672H15.9004C16.3624 35.672 16.7404 36.0465 16.7404 36.5085C16.7404 36.974 16.3659 37.3485 15.9039 37.352L10.3634 37.3695ZM10.3704 39.9315C9.90844 39.9315 9.53044 39.557 9.53044 39.095C9.53044 38.6295 9.90494 38.255 10.3669 38.2515L15.9039 38.234H15.9074C16.3694 38.234 16.7474 38.6085 16.7474 39.0705C16.7474 39.536 16.3729 39.9105 15.9109 39.914L10.3704 39.9315ZM42.8994 20.566C42.7839 20.566 42.6684 20.5415 42.5634 20.496C41.5344 20.0445 40.6139 19.2045 39.9734 18.13C39.7249 17.7135 39.5639 17.325 39.4799 16.9435C39.3644 16.4255 39.3959 15.9145 39.5639 15.463C39.7634 14.931 40.1659 14.483 40.6734 14.224C41.3594 13.8775 42.1819 13.909 42.8469 14.266C43.5049 13.895 44.3274 13.846 45.0204 14.182C45.5314 14.427 45.9444 14.8715 46.1509 15.3965C46.3294 15.8445 46.3679 16.3555 46.2629 16.877C46.1859 17.262 46.0319 17.6505 45.7939 18.0705C45.1744 19.159 44.2749 20.0165 43.2529 20.489C43.1409 20.5415 43.0219 20.566 42.8994 20.566ZM41.7094 15.659C41.6114 15.659 41.5169 15.68 41.4329 15.722C41.2999 15.7885 41.1914 15.911 41.1389 16.051C41.0864 16.1945 41.0794 16.3835 41.1214 16.5795C41.1669 16.7825 41.2614 17.01 41.4154 17.269C41.7934 17.906 42.3184 18.4415 42.8889 18.7775C43.4524 18.4275 43.9634 17.885 44.3309 17.241C44.4814 16.9785 44.5724 16.751 44.6144 16.548C44.6529 16.3485 44.6459 16.163 44.5864 16.0195C44.5304 15.883 44.4184 15.7605 44.2854 15.6975C44.0334 15.575 43.6834 15.652 43.4944 15.876C43.3369 16.0615 43.1059 16.17 42.8644 16.17C42.6229 16.1735 42.3884 16.0685 42.2274 15.8865C42.0979 15.7395 41.9019 15.659 41.7094 15.659Z" fill="#04A391"/>
<path d="M42.8714 23.4186C39.2664 23.4186 36.3369 20.4856 36.3369 16.8841C36.3369 13.2826 39.2699 10.3496 42.8714 10.3496C46.4729 10.3496 49.4059 13.2826 49.4059 16.8841C49.4094 20.4891 46.4764 23.4186 42.8714 23.4186ZM42.8714 12.0296C40.1939 12.0296 38.0169 14.2066 38.0169 16.8841C38.0169 19.5616 40.1939 21.7386 42.8714 21.7386C45.5489 21.7386 47.7259 19.5616 47.7259 16.8841C47.7294 14.2066 45.5489 12.0296 42.8714 12.0296Z" fill="#04A391"/>
</svg>
