<svg width="16" height="16" viewBox="0 0 16 16" fill="none" xmlns="http://www.w3.org/2000/svg">
<g clip-path="url(#clip0_1149_37676)">
<path d="M15.0471 6.57293L2.13795 1.2164C1.59411 0.990714 0.979732 1.09 0.534544 1.47537C0.089357 1.86081 -0.0968305 2.45465 0.0486695 3.02521L1.31723 7.99996L0.0486695 12.9747C-0.0968305 13.5453 0.0893257 14.1391 0.534513 14.5246C0.980544 14.9107 1.59508 15.0088 2.13795 14.7835L15.0471 9.427C15.6349 9.18312 16 8.63631 16 7.99996C16 7.36362 15.6349 6.81681 15.0471 6.57293ZM14.6878 8.56106L1.77864 13.9176C1.56154 14.0076 1.32589 13.9696 1.14817 13.8157C0.970482 13.6619 0.899076 13.4341 0.957138 13.2063L2.16523 8.46871H6.82351C7.08242 8.46871 7.29229 8.25884 7.29229 7.99993C7.29229 7.74103 7.08242 7.53115 6.82351 7.53115H2.16526L0.957138 2.79359C0.899076 2.56584 0.970482 2.33803 1.14817 2.18418C1.32586 2.03034 1.56145 1.99228 1.77861 2.08234L14.6878 7.43887C15.0355 7.58312 15.0625 7.90481 15.0625 7.99996C15.0625 8.09512 15.0355 8.41681 14.6878 8.56106Z" fill="white"/>
</g>
<defs>
<clipPath id="clip0_1149_37676">
<rect width="16" height="16" fill="white"/>
</clipPath>
</defs>
</svg>
