<svg width="48" height="48" viewBox="0 0 48 48" fill="none" xmlns="http://www.w3.org/2000/svg">
<g clip-path="url(#clip0_3020_2645)">
<path d="M40.9613 13.0904C40.9613 12.9163 40.8922 12.7494 40.7691 12.6263C40.6461 12.5033 40.4791 12.4341 40.3051 12.4341H37.4408C37.2667 12.4341 37.0998 12.5033 36.9767 12.6263C36.8536 12.7494 36.7845 12.9163 36.7845 13.0904V15.9547C36.7845 16.1288 36.8536 16.2957 36.9767 16.4188C37.0998 16.5418 37.2667 16.611 37.4408 16.611H40.3051C40.4791 16.611 40.6461 16.5418 40.7691 16.4188C40.8922 16.2957 40.9613 16.1288 40.9613 15.9547V13.0904ZM39.6488 15.2985H38.097V13.7466H39.6488V15.2985ZM38.319 5.45031H41.7523C41.9264 5.45031 42.0933 5.38117 42.2164 5.2581C42.3394 5.13503 42.4086 4.96811 42.4086 4.79406V1.36084C42.4086 1.18679 42.3394 1.01987 42.2164 0.896801C42.0933 0.77373 41.9264 0.70459 41.7523 0.70459H38.319C38.145 0.70459 37.978 0.77373 37.855 0.896801C37.7319 1.01987 37.6628 1.18679 37.6628 1.36084V4.79406C37.6628 4.96811 37.7319 5.13503 37.855 5.2581C37.978 5.38117 38.145 5.45031 38.319 5.45031ZM38.9753 2.01709H41.0961V4.13781H38.9753V2.01709ZM46.9686 5.77065H42.5352C42.3612 5.77065 42.1943 5.83979 42.0712 5.96286C41.9481 6.08593 41.879 6.25285 41.879 6.4269V7.38897H2.67881C1.4085 7.38897 0.375 8.42246 0.375 9.69287V37.261C0.375 38.5313 1.4085 39.5648 2.67881 39.5648H17.6491V42.6313H15.8478C13.9987 42.6313 12.4942 44.1357 12.4942 45.9848V46.6394C12.4942 46.8134 12.5634 46.9803 12.6865 47.1034C12.8095 47.2265 12.9765 47.2956 13.1505 47.2956H33.2308C33.4049 47.2956 33.5718 47.2265 33.6949 47.1034C33.8179 46.9803 33.8871 46.8134 33.8871 46.6394V45.9848C33.8871 44.1356 32.3826 42.6313 30.5334 42.6313H28.7322V39.5648H28.8575C29.981 40.0918 31.2069 40.3644 32.4479 40.3632C33.6905 40.3635 34.9179 40.0909 36.0436 39.5648H37.4182C37.4224 39.9513 37.5738 40.3139 37.8469 40.5869L42.384 45.1242C42.8402 45.5804 43.4393 45.8084 44.0386 45.8084C44.6378 45.8084 45.2371 45.5802 45.6933 45.1242C46.6056 44.2118 46.6056 42.7273 45.6933 41.8148C44.781 40.9023 43.4433 39.5647 43.4433 39.5647H43.7026C44.9729 39.5647 46.0064 38.5312 46.0064 37.2609V11.5166H46.9685C47.1425 11.5166 47.3094 11.4474 47.4325 11.3244C47.5556 11.2013 47.6247 11.0344 47.6247 10.8603V6.4269C47.6247 6.25285 47.5556 6.08593 47.4325 5.96286C47.3094 5.83979 47.1425 5.77065 46.9685 5.77065H46.9686ZM1.68741 37.261V9.69287C1.68741 9.14621 2.13206 8.70147 2.67872 8.70147H41.879V10.204H3.84619C3.67214 10.204 3.50522 10.2731 3.38215 10.3962C3.25908 10.5193 3.18994 10.6862 3.18994 10.8602V34.5585C3.18994 34.7325 3.25908 34.8994 3.38215 35.0225C3.50522 35.1456 3.67214 35.2147 3.84619 35.2147H24.6473C25.1502 36.3861 25.9095 37.4222 26.8542 38.2523H2.67881C2.13216 38.2523 1.68741 37.8077 1.68741 37.261ZM33.2539 23.4328V15.0603C33.2539 14.8863 33.1847 14.7194 33.0617 14.5963C32.9386 14.4732 32.7717 14.4041 32.5976 14.4041H29.519C29.3449 14.4041 29.178 14.4732 29.0549 14.5963C28.9319 14.7194 28.8627 14.8863 28.8627 15.0603V24.1902C28.5695 24.3274 28.2844 24.4813 28.0088 24.6512V17.7113C28.0088 17.5373 27.9397 17.3703 27.8166 17.2473C27.6936 17.1242 27.5266 17.0551 27.3526 17.0551H24.2739C24.0999 17.0551 23.933 17.1242 23.8099 17.2473C23.6868 17.3703 23.6177 17.5373 23.6177 17.7113V32.5629C23.6177 32.7001 23.6608 32.8339 23.7409 32.9453C23.8209 33.0568 23.9339 33.1403 24.0639 33.1842C24.1015 33.4255 24.1496 33.6651 24.2079 33.9022H4.50244V11.5165H41.879V33.9022H40.6876C40.85 33.24 40.9322 32.5606 40.9324 31.8787C40.9324 27.4722 37.5555 23.84 33.2539 23.4328ZM31.9414 23.4098C31.3439 23.4449 30.7519 23.5435 30.1752 23.7038V15.7165H31.9414V23.4097V23.4098ZM24.9302 27.9492V18.3676H26.6963V25.6474C25.9806 26.3083 25.3832 27.0868 24.9302 27.9493V27.9492ZM32.5747 45.9832H13.8068C13.8078 44.8585 14.723 43.9438 15.8479 43.9438H30.5335C31.6584 43.9438 32.5738 44.8585 32.5747 45.9832ZM27.4198 42.6313H18.9616V39.5648H27.4198V42.6313ZM25.276 31.8787C25.276 27.9241 28.4933 24.7067 32.448 24.7067C36.4027 24.7067 39.62 27.9241 39.62 31.8787C39.62 33.17 39.2731 34.4358 38.6167 35.5392C38.4229 35.8648 38.3258 36.2389 38.3368 36.6177C38.3478 36.9965 38.4665 37.3644 38.679 37.6782L38.2487 38.1086C37.6146 37.6731 36.7953 37.6388 36.1087 38.0475C35.0052 38.7038 33.7395 39.0507 32.4481 39.0507C28.4934 39.0507 25.2761 35.8334 25.2761 31.8787H25.276ZM44.7654 44.1962C44.3647 44.5967 43.7128 44.5967 43.3123 44.1962L38.7751 39.6588C38.7379 39.6216 38.7301 39.5784 38.7301 39.5486C38.7301 39.5188 38.7379 39.4756 38.7752 39.4382L40.0076 38.2057C40.0374 38.1758 40.0777 38.1608 40.118 38.1608C40.1583 38.1608 40.1984 38.1757 40.2283 38.2057L44.7654 42.7428C45.166 43.1435 45.166 43.7956 44.7654 44.1961V44.1962ZM44.6941 37.261C44.6941 37.8077 44.2494 38.2523 43.7028 38.2523H42.131L41.1562 37.2777C40.7726 36.8942 40.2283 36.769 39.7384 36.8993C39.6143 36.6887 39.6116 36.4339 39.7447 36.2102C39.935 35.8899 40.104 35.5574 40.2503 35.2147H42.5353C42.7094 35.2147 42.8763 35.1456 42.9994 35.0225C43.1224 34.8994 43.1916 34.7325 43.1916 34.5585V11.5166H44.6941V37.261ZM46.3124 10.2041H43.1916V7.08315H46.3124V10.2041ZM16.8624 23.583H13.7839C13.6098 23.583 13.4429 23.6521 13.3198 23.7752C13.1968 23.8982 13.1276 24.0652 13.1276 24.2392V32.5629C13.1276 32.7369 13.1968 32.9039 13.3198 33.0269C13.4429 33.15 13.6098 33.2192 13.7839 33.2192H16.8624C17.0365 33.2192 17.2034 33.15 17.3265 33.0269C17.4495 32.9039 17.5187 32.7369 17.5187 32.5629V24.2392C17.5187 24.0652 17.4495 23.8982 17.3265 23.7752C17.2034 23.6521 17.0365 23.583 16.8624 23.583ZM16.2062 31.9067H14.4401V24.8955H16.2062V31.9067ZM22.1076 20.4473H19.0289C18.8549 20.4473 18.6879 20.5164 18.5649 20.6395C18.4418 20.7626 18.3727 20.9295 18.3727 21.1036V32.5629C18.3727 32.7369 18.4418 32.9039 18.5649 33.0269C18.6879 33.15 18.8549 33.2192 19.0289 33.2192H22.1076C22.2816 33.2192 22.4485 33.15 22.5716 33.0269C22.6947 32.9039 22.7638 32.7369 22.7638 32.5629V21.1036C22.7638 20.9295 22.6947 20.7626 22.5716 20.6395C22.4485 20.5164 22.2816 20.4473 22.1076 20.4473ZM21.4513 31.9067H19.6852V21.7598H21.4513V31.9067ZM38.6396 31.8787C38.6396 28.4646 35.8621 25.6871 32.448 25.6871C29.0339 25.6871 26.2564 28.4646 26.2564 31.8787C26.2564 35.2928 29.0339 38.0703 32.448 38.0703C35.8621 38.0703 38.6396 35.2928 38.6396 31.8787ZM32.448 36.7578C29.7577 36.7578 27.5689 34.5691 27.5689 31.8787C27.5689 29.1884 29.7577 26.9996 32.448 26.9996C35.1383 26.9996 37.3271 29.1884 37.3271 31.8787C37.3271 34.5691 35.1383 36.7578 32.448 36.7578ZM9.13613 14.4331C9.13613 14.6071 9.06699 14.774 8.94391 14.8971C8.82084 15.0202 8.65392 15.0893 8.47988 15.0893H7.62469C7.45064 15.0893 7.28372 15.0202 7.16065 14.8971C7.03758 14.774 6.96844 14.6071 6.96844 14.4331C6.96844 14.259 7.03758 14.0921 7.16065 13.969C7.28372 13.8459 7.45064 13.7768 7.62469 13.7768H8.47988C8.65392 13.7768 8.82084 13.8459 8.94391 13.969C9.06699 14.0921 9.13613 14.259 9.13613 14.4331ZM17.6879 14.4331C17.6879 14.6071 17.6188 14.774 17.4957 14.8971C17.3726 15.0202 17.2057 15.0893 17.0317 15.0893H10.6748C10.5008 15.0893 10.3339 15.0202 10.2108 14.8971C10.0877 14.774 10.0186 14.6071 10.0186 14.4331C10.0186 14.259 10.0877 14.0921 10.2108 13.969C10.3339 13.8459 10.5008 13.7768 10.6748 13.7768H17.0317C17.2057 13.7768 17.3726 13.8459 17.4957 13.969C17.6188 14.0921 17.6879 14.259 17.6879 14.4331ZM17.6879 17.0555C17.6879 17.2296 17.6188 17.3965 17.4957 17.5196C17.3726 17.6426 17.2057 17.7118 17.0317 17.7118H10.6748C10.5008 17.7118 10.3339 17.6426 10.2108 17.5196C10.0877 17.3965 10.0186 17.2296 10.0186 17.0555C10.0186 16.8815 10.0877 16.7146 10.2108 16.5915C10.3339 16.4684 10.5008 16.3993 10.6748 16.3993H17.0317C17.2057 16.3993 17.3726 16.4684 17.4957 16.5915C17.6188 16.7146 17.6879 16.8815 17.6879 17.0555ZM9.13613 17.0555C9.13613 17.2296 9.06699 17.3965 8.94391 17.5196C8.82084 17.6426 8.65392 17.7118 8.47988 17.7118H7.62469C7.45064 17.7118 7.28372 17.6426 7.16065 17.5196C7.03758 17.3965 6.96844 17.2296 6.96844 17.0555C6.96844 16.8815 7.03758 16.7146 7.16065 16.5915C7.28372 16.4684 7.45064 16.3993 7.62469 16.3993H8.47988C8.65392 16.3993 8.82084 16.4684 8.94391 16.5915C9.06699 16.7146 9.13613 16.8815 9.13613 17.0555Z" fill="#04A391"/>
</g>
<defs>
<clipPath id="clip0_3020_2645">
<rect width="48" height="48" fill="white"/>
</clipPath>
</defs>
</svg>
