<svg width="72" height="72" viewBox="0 0 72 72" fill="none" xmlns="http://www.w3.org/2000/svg">
<rect x="0.5" y="0.5" width="71" height="71" rx="3.5" fill="#1D1D1D" stroke="url(#paint0_linear_3080_1575)"/>
<path d="M32.2222 20.5573H35.2122C35.3682 20.5573 35.5179 20.4954 35.6282 20.385C35.7385 20.2747 35.8005 20.1251 35.8005 19.9691C35.8005 19.8131 35.7385 19.6635 35.6282 19.5531C35.5179 19.4428 35.3682 19.3809 35.2122 19.3809H32.2222C32.0662 19.3809 31.9166 19.4428 31.8063 19.5531C31.696 19.6635 31.634 19.8131 31.634 19.9691C31.634 20.1251 31.696 20.2747 31.8063 20.385C31.9166 20.4954 32.0662 20.5573 32.2222 20.5573ZM29.5558 52.2256H34.8887C35.0447 52.2256 35.1943 52.1636 35.3047 52.0533C35.415 51.943 35.4769 51.7933 35.4769 51.6373C35.4769 51.4813 35.415 51.3317 35.3047 51.2214C35.1943 51.1111 35.0447 51.0491 34.8887 51.0491H29.5558C29.3998 51.0491 29.2501 51.1111 29.1398 51.2214C29.0295 51.3317 28.9675 51.4813 28.9675 51.6373C28.9675 51.7933 29.0295 51.943 29.1398 52.0533C29.2501 52.1636 29.3998 52.2256 29.5558 52.2256Z" fill="#04A391"/>
<path d="M21.9735 46.3727C22.1295 46.3727 22.2791 46.3108 22.3894 46.2005C22.4997 46.0901 22.5617 45.9405 22.5617 45.7845V22.7645H41.8823V25.7904C41.8823 25.9464 41.9443 26.096 42.0546 26.2063C42.1649 26.3166 42.3145 26.3786 42.4706 26.3786C42.6266 26.3786 42.7762 26.3166 42.8865 26.2063C42.9968 26.096 43.0588 25.9464 43.0588 25.7904L43.0611 19.5174C43.0611 18.2292 42.0082 17.1763 40.7158 17.1763H23.7264C22.497 17.1763 21.3853 18.188 21.3853 19.5192V45.7845C21.3853 45.9405 21.4472 46.0901 21.5575 46.2005C21.6679 46.3108 21.8175 46.3727 21.9735 46.3727ZM40.7147 18.3527C41.3364 18.3527 41.8829 18.8616 41.8829 19.5192V21.588H22.5617V19.5174C22.5617 18.8763 23.0876 18.3527 23.7282 18.3527H40.7147Z" fill="#04A391"/>
<path d="M35.8524 31.9974C35.9632 32.1072 36.1131 32.1684 36.2691 32.1676C36.4251 32.1668 36.5744 32.1041 36.6841 31.9933L39.1429 29.5121C39.252 29.402 39.3131 29.2533 39.3131 29.0983C39.3131 28.9433 39.252 28.7946 39.1429 28.6845L36.6841 26.2033C36.5732 26.0982 36.4257 26.0404 36.273 26.0421C36.1202 26.0438 35.974 26.1048 35.8655 26.2124C35.7569 26.32 35.6945 26.4655 35.6914 26.6183C35.6883 26.7711 35.7447 26.9191 35.8488 27.0309L37.8965 29.0986L35.8482 31.1657C35.7385 31.2765 35.6773 31.4264 35.6781 31.5824C35.6788 31.7384 35.7415 31.8877 35.8524 31.9974ZM28.5918 26.1992C28.537 26.1447 28.4719 26.1016 28.4004 26.0723C28.3289 26.043 28.2523 26.0281 28.175 26.0285C28.0978 26.0289 28.0213 26.0445 27.9501 26.0745C27.8789 26.1045 27.8143 26.1483 27.76 26.2033L25.3018 28.6845C25.1927 28.7946 25.1316 28.9433 25.1316 29.0983C25.1316 29.2533 25.1927 29.402 25.3018 29.5121L27.7606 31.9933C27.8143 32.051 27.879 32.0973 27.9509 32.1295C28.0229 32.1617 28.1005 32.1791 28.1793 32.1807C28.2581 32.1823 28.3364 32.1681 28.4096 32.1388C28.4828 32.1096 28.5493 32.0659 28.6053 32.0105C28.6613 31.955 28.7055 31.8888 28.7354 31.8159C28.7654 31.743 28.7803 31.6649 28.7795 31.5861C28.7786 31.5073 28.7619 31.4295 28.7303 31.3572C28.6988 31.285 28.6531 31.2199 28.5959 31.1657L26.5482 29.0986L28.5959 27.0309C28.7056 26.9201 28.7668 26.7702 28.7661 26.6142C28.7653 26.4582 28.7026 26.3089 28.5918 26.1992ZM33.1706 24.5368L29.7177 33.2251C29.6891 33.2969 29.675 33.3736 29.6761 33.4508C29.6772 33.5281 29.6935 33.6044 29.7241 33.6753C29.7547 33.7463 29.799 33.8105 29.8544 33.8644C29.9098 33.9182 29.9753 33.9606 30.0471 33.9892C30.1189 34.0177 30.1956 34.0318 30.2728 34.0307C30.3501 34.0296 30.4264 34.0133 30.4973 33.9827C30.5683 33.9521 30.6325 33.9079 30.6864 33.8525C30.7402 33.7971 30.7826 33.7316 30.8112 33.6598L34.2641 24.9715C34.3218 24.8264 34.3194 24.6644 34.2576 24.521C34.1958 24.3777 34.0795 24.2648 33.9344 24.2071C33.7893 24.1495 33.6273 24.1518 33.4839 24.2137C33.3406 24.2755 33.2277 24.3917 33.17 24.5368H33.1706ZM42.4735 35.4351C40.75 35.4351 39.35 36.8351 39.35 38.5586C39.35 40.2986 40.7688 41.6821 42.4735 41.6821C44.1712 41.6821 45.5912 40.3009 45.5912 38.5586C45.5912 36.8351 44.1912 35.4351 42.4735 35.4351ZM43.0618 40.4115V38.1704C43.0618 37.8468 42.7971 37.5821 42.4735 37.5821C42.1441 37.5821 41.8853 37.8468 41.8853 38.1704V40.4174C41.4431 40.2758 41.066 39.981 40.8219 39.586C40.5777 39.1911 40.4826 38.722 40.5535 38.2632C40.6244 37.8043 40.8568 37.3859 41.2087 37.0831C41.5607 36.7803 42.0092 36.6131 42.4735 36.6115C43.5441 36.6115 44.4147 37.488 44.4147 38.5586C44.4147 39.4292 43.8441 40.1645 43.0618 40.4115Z" fill="#04A391"/>
<path d="M50.0911 36.6998L48.6441 36.5351C48.5323 36.194 48.3911 35.8587 48.2206 35.5351L49.0676 34.3351C49.2382 34.1057 49.2088 33.7822 49.0088 33.5822L47.3205 31.8998C47.219 31.7968 47.0829 31.7349 46.9384 31.7262C46.7939 31.7175 46.6514 31.7626 46.5382 31.8528L45.4029 32.7645C45.0794 32.5998 44.7441 32.4645 44.397 32.3587L44.1558 30.9057C44.1322 30.7686 44.0607 30.6443 43.9541 30.5549C43.8475 30.4656 43.7126 30.4169 43.5735 30.4175H41.1911C40.8911 30.4175 40.6382 30.641 40.6029 30.941L40.4441 32.394C40.097 32.5057 39.7676 32.6469 39.45 32.8116L38.2441 31.9587C38.1315 31.8779 37.9937 31.8401 37.8557 31.8519C37.7176 31.8638 37.5883 31.9246 37.4911 32.0234L35.8088 33.7057C35.597 33.9175 35.5794 34.2528 35.7676 34.4881L36.6735 35.6293C36.5088 35.9528 36.3735 36.2881 36.2676 36.6351L34.8205 36.8763C34.5382 36.9293 34.3264 37.1704 34.3264 37.4587V39.841C34.3264 40.141 34.5558 40.3881 34.85 40.4234L36.297 40.5881C36.4088 40.9351 36.5558 41.2704 36.7205 41.5881L35.8735 42.7822C35.7088 43.0175 35.7323 43.3351 35.9382 43.541L37.6206 45.2234C37.8323 45.4351 38.1676 45.4528 38.4029 45.2645L39.5441 44.3587C39.8676 44.5175 40.197 44.6528 40.5441 44.7587L40.7853 46.2116C40.8077 46.3498 40.8786 46.4755 40.9853 46.566C41.0921 46.6566 41.2276 46.7061 41.3676 46.7057H41.8853V48.0057H21.9735C21.65 48.0057 21.3853 48.2704 21.3853 48.594V52.4822C21.3868 53.1026 21.634 53.6972 22.0727 54.1359C22.5114 54.5747 23.106 54.8218 23.7264 54.8234H40.7147C42.0088 54.8234 43.0617 53.7704 43.0617 52.4822V46.7057H43.75C44.05 46.7057 44.3029 46.4822 44.3382 46.1822L44.5029 44.7292C44.8449 44.6169 45.1774 44.4773 45.497 44.3116L46.697 45.1645C46.9323 45.3293 47.25 45.2998 47.4558 45.0998L49.1323 43.4116C49.3441 43.1998 49.3617 42.8645 49.1735 42.6351L48.2676 41.494C48.4323 41.1645 48.5676 40.8293 48.6735 40.4881L50.1206 40.241C50.4029 40.194 50.6147 39.9469 50.6147 39.6645V37.2822C50.6147 36.9822 50.3911 36.7292 50.0911 36.6998ZM41.8853 52.4822C41.8853 53.1234 41.3617 53.6469 40.7147 53.6469H23.7264C23.0853 53.6469 22.5617 53.1234 22.5617 52.4822V49.1822H41.8853V52.4822ZM49.4382 39.1645L48.1088 39.3881C47.8735 39.4292 47.6911 39.5998 47.6323 39.8351C47.5147 40.3293 47.3206 40.8057 47.0617 41.2587C46.9382 41.4645 46.9558 41.7293 47.1088 41.9175L47.9264 42.9528L46.9735 43.9175L45.8676 43.1292C45.7733 43.0634 45.6617 43.0266 45.5467 43.0234C45.4317 43.0203 45.3183 43.0509 45.2205 43.1116C44.7911 43.3763 44.3205 43.5763 43.8205 43.6998C43.5794 43.7587 43.4029 43.9645 43.3735 44.2057L43.2264 45.5293H41.8617L41.6382 44.194C41.6198 44.0805 41.568 43.9752 41.4894 43.8913C41.4108 43.8075 41.309 43.749 41.197 43.7234C40.7029 43.5998 40.2264 43.4057 39.7853 43.1469C39.6828 43.0862 39.5643 43.0582 39.4456 43.0666C39.3268 43.075 39.2134 43.1194 39.1206 43.194L38.0794 44.0175L37.1205 43.0587L37.897 41.9704C38.0223 41.7934 38.0441 41.5316 37.9205 41.3116C37.6558 40.8822 37.45 40.4057 37.3205 39.8998C37.2921 39.7846 37.2289 39.681 37.1394 39.6031C37.0499 39.5252 36.9386 39.4768 36.8205 39.4645L35.5029 39.3116V37.9587L36.8323 37.7351C37.0676 37.694 37.2558 37.5175 37.3088 37.2881C37.4264 36.7881 37.6206 36.3116 37.8853 35.8763C38.0088 35.6645 37.997 35.3998 37.8441 35.2057L37.0147 34.1645L37.9735 33.2057L39.0735 33.9881C39.1672 34.0549 39.2785 34.0927 39.3935 34.0969C39.5085 34.1011 39.6222 34.0714 39.7206 34.0116C40.15 33.7469 40.6264 33.5469 41.1323 33.4175C41.3676 33.3587 41.5382 33.1587 41.5676 32.9175L41.7147 31.594H43.0794L43.3029 32.9234C43.3441 33.1587 43.5147 33.3469 43.7441 33.3998C44.2441 33.5175 44.7206 33.7116 45.1617 33.9763C45.3735 34.0998 45.6382 34.0822 45.8264 33.9293L46.8617 33.0998L47.8206 34.0645L47.0441 35.1587C46.9206 35.3334 46.8953 35.5887 47.0205 35.8116C47.2911 36.2528 47.4911 36.7293 47.6147 37.2175C47.6735 37.4528 47.8735 37.6293 48.1206 37.6587L49.4382 37.8057V39.1645Z" fill="#04A391"/>
<defs>
<linearGradient id="paint0_linear_3080_1575" x1="70.5" y1="70" x2="4.10217e-06" y2="1.5" gradientUnits="userSpaceOnUse">
<stop stop-color="#004E45"/>
<stop offset="1" stop-color="#04A391"/>
</linearGradient>
</defs>
</svg>
