<svg width="48" height="48" viewBox="0 0 48 48" fill="none" xmlns="http://www.w3.org/2000/svg">
<rect x="0.5" y="0.5" width="47" height="47" rx="3.5" fill="#1D1D1D" stroke="url(#paint0_linear_3107_6726)"/>
<path d="M18.1665 20.6669H17.3332C17.2227 20.6669 17.1167 20.7108 17.0385 20.7889C16.9604 20.8671 16.9165 20.9731 16.9165 21.0836V24.4169C16.9165 24.5274 16.9604 24.6334 17.0385 24.7115C17.1167 24.7897 17.2227 24.8336 17.3332 24.8336H18.1665C18.8557 24.8336 19.4165 24.2727 19.4165 23.5836C19.4165 23.2636 19.2957 22.9715 19.0973 22.7502C19.3031 22.5215 19.4168 22.2246 19.4165 21.9169C19.4165 21.2277 18.8557 20.6669 18.1665 20.6669ZM18.1665 24.0002H17.7498V23.1669H18.1665C18.2738 23.1717 18.3751 23.2177 18.4493 23.2953C18.5235 23.3729 18.5649 23.4762 18.5649 23.5836C18.5649 23.691 18.5235 23.7942 18.4493 23.8718C18.3751 23.9494 18.2738 23.9954 18.1665 24.0002ZM18.1665 22.3336H17.7498V21.5002H18.1665C18.2738 21.505 18.3751 21.551 18.4493 21.6286C18.5235 21.7063 18.5649 21.8095 18.5649 21.9169C18.5649 22.0243 18.5235 22.1275 18.4493 22.2052C18.3751 22.2828 18.2738 22.3288 18.1665 22.3336ZM22.3332 21.9169C22.3332 21.2277 21.7723 20.6669 21.0832 20.6669H20.2498C20.1393 20.6669 20.0333 20.7108 19.9552 20.7889C19.8771 20.8671 19.8332 20.9731 19.8332 21.0836V24.8336H20.6665V23.1669H20.8994C21.2873 23.6076 21.5008 24.1748 21.4998 24.7619V24.8336H22.3332V24.7619C22.3349 24.1169 22.144 23.486 21.7848 22.9502C21.9536 22.8358 22.0919 22.6818 22.1874 22.5017C22.283 22.3216 22.3331 22.1208 22.3332 21.9169ZM20.6665 21.5002H21.0832C21.1905 21.505 21.2918 21.551 21.366 21.6286C21.4402 21.7063 21.4816 21.8095 21.4816 21.9169C21.4816 22.0243 21.4402 22.1275 21.366 22.2052C21.2918 22.2828 21.1905 22.3288 21.0832 22.3336H20.6665V21.5002ZM23.9998 20.6669C23.3107 20.6669 22.7498 21.2277 22.7498 21.9169V24.8336H23.5832V23.5836H24.4165V24.8336H25.2498V21.9169C25.2498 21.2277 24.689 20.6669 23.9998 20.6669ZM23.5832 22.7502V21.9169C23.588 21.8096 23.634 21.7083 23.7116 21.6341C23.7892 21.5599 23.8924 21.5184 23.9998 21.5184C24.1072 21.5184 24.2105 21.5599 24.2881 21.6341C24.3657 21.7083 24.4117 21.8096 24.4165 21.9169V22.7502H23.5832ZM27.3332 22.6519L26.4561 20.8973C26.4142 20.8132 26.345 20.7457 26.2599 20.7059C26.1748 20.666 26.0788 20.6561 25.9873 20.6777C25.8959 20.6993 25.8144 20.7512 25.7562 20.825C25.6979 20.8987 25.6663 20.99 25.6665 21.084V24.834H26.4998V22.849L27.3769 24.6036C27.4188 24.6876 27.4879 24.7551 27.573 24.795C27.658 24.8348 27.7541 24.8448 27.8455 24.8232C27.9369 24.8017 28.0184 24.7498 28.0767 24.6762C28.1349 24.6025 28.1666 24.5113 28.1665 24.4173V20.6673H27.3332V22.6519ZM29.8332 20.6669H28.9998C28.8893 20.6669 28.7833 20.7108 28.7052 20.7889C28.6271 20.8671 28.5832 20.9731 28.5832 21.0836V24.4169C28.5832 24.5274 28.6271 24.6334 28.7052 24.7115C28.7833 24.7897 28.8893 24.8336 28.9998 24.8336H29.8332C30.5223 24.8336 31.0832 24.2727 31.0832 23.5836V21.9169C31.0832 21.2277 30.5223 20.6669 29.8332 20.6669ZM30.2498 23.5836C30.2498 23.8136 30.0628 24.0002 29.8332 24.0002H29.4165V21.5002H29.8332C30.0628 21.5002 30.2498 21.6869 30.2498 21.9169V23.5836Z" fill="#04A391"/>
<path d="M34.8331 16.5C34.9436 16.5 35.0496 16.4561 35.1277 16.378C35.2059 16.2998 35.2498 16.1938 35.2498 16.0833V15.25H36.4998V14.4167H35.2498V13.5833C35.2498 13.4728 35.2059 13.3668 35.1277 13.2887C35.0496 13.2106 34.9436 13.1667 34.8331 13.1667H33.9998V11.5H33.1664V13.1667H32.3331C32.2226 13.1667 32.1166 13.2106 32.0385 13.2887C31.9603 13.3668 31.9164 13.4728 31.9164 13.5833V14.4167H16.0831V13.5833C16.0831 13.4728 16.0392 13.3668 15.9611 13.2887C15.8829 13.2106 15.7769 13.1667 15.6664 13.1667H14.8331V11.5H13.9998V13.1667H13.1664C13.0559 13.1667 12.9499 13.2106 12.8718 13.2887C12.7937 13.3668 12.7498 13.4728 12.7498 13.5833V14.4167H11.4998V15.25H12.7498V16.0833C12.7498 16.1938 12.7937 16.2998 12.8718 16.378C12.9499 16.4561 13.0559 16.5 13.1664 16.5H13.9998V31.5H13.1664C13.0559 31.5 12.9499 31.5439 12.8718 31.622C12.7937 31.7002 12.7498 31.8062 12.7498 31.9167V32.75H11.4998V33.5833H12.7498V34.4167C12.7498 34.5272 12.7937 34.6332 12.8718 34.7113C12.9499 34.7894 13.0559 34.8333 13.1664 34.8333H13.9998V36.5H14.8331V34.8333H15.6664C15.7769 34.8333 15.8829 34.7894 15.9611 34.7113C16.0392 34.6332 16.0831 34.5272 16.0831 34.4167V33.5833H24.6606L26.6218 35.5446C26.6604 35.5834 26.7063 35.6142 26.7569 35.6353C26.8075 35.6563 26.8617 35.6671 26.9164 35.6671C26.9712 35.6671 27.0254 35.6563 27.0759 35.6353C27.1265 35.6142 27.1724 35.5834 27.211 35.5446L29.1723 33.5833H31.9164V34.4167C31.9164 34.5272 31.9603 34.6332 32.0385 34.7113C32.1166 34.7894 32.2226 34.8333 32.3331 34.8333H33.1664V36.5H33.9998V34.8333H34.8331C34.9436 34.8333 35.0496 34.7894 35.1277 34.7113C35.2059 34.6332 35.2498 34.5272 35.2498 34.4167V33.5833H36.4998V32.75H35.2498V31.9167C35.2498 31.8062 35.2059 31.7002 35.1277 31.622C35.0496 31.5439 34.9436 31.5 34.8331 31.5H33.9998V16.5H34.8331ZM32.7498 14H34.4164V15.6667H32.7498V14ZM13.5831 14H15.2498V15.6667H13.5831V14ZM15.2498 34H13.5831V32.3333H15.2498V34ZM23.4106 30.25C23.9023 30.25 24.3639 30.0588 24.7114 29.7113C25.0589 29.3638 25.2498 28.9021 25.2498 28.4108V28.1667H24.4164V28.4108C24.4164 28.5329 24.3923 28.6508 24.3506 28.7617L22.2773 26.6883L26.0948 27.2758C26.1656 28.342 26.5489 29.3637 27.1968 30.2133L25.2135 32.1967C24.3637 31.5487 23.3419 31.1654 22.2756 31.0946L21.6885 27.2775L23.7614 29.3504C23.6493 29.3931 23.5305 29.4154 23.4106 29.4163H23.1664V30.2496L23.4106 30.25ZM26.9164 34.6608L25.4223 33.1667L28.1664 30.4225L29.6606 31.9167L26.9164 34.6608ZM34.4164 34H32.7498V32.3333H34.4164V34ZM33.1664 31.5H32.3331C32.2226 31.5 32.1166 31.5439 32.0385 31.622C31.9603 31.7002 31.9164 31.8062 31.9164 31.9167V32.75H30.0056L30.5443 32.2113C30.5831 32.1726 30.6138 32.1267 30.6348 32.0761C30.6557 32.0256 30.6665 31.9714 30.6665 31.9167C30.6665 31.8619 30.6557 31.8078 30.6348 31.7572C30.6138 31.7067 30.5831 31.6607 30.5443 31.6221L28.461 29.5388C28.4223 29.5 28.3764 29.4693 28.3259 29.4483C28.2753 29.4274 28.2211 29.4166 28.1664 29.4166C28.1117 29.4166 28.0575 29.4274 28.007 29.4483C27.9564 29.4693 27.9105 29.5 27.8718 29.5388L27.7918 29.6188C27.2228 28.8327 26.9165 27.8871 26.9164 26.9167C26.9164 26.8172 26.8807 26.721 26.8159 26.6455C26.7511 26.5699 26.6614 26.5201 26.5631 26.505L21.1464 25.6717C21.0818 25.6618 21.0157 25.6672 20.9535 25.6876C20.8914 25.7079 20.8349 25.7426 20.7886 25.7889C20.7424 25.8351 20.7077 25.8916 20.6873 25.9538C20.667 26.0159 20.6615 26.082 20.6714 26.1467L21.5048 31.5633C21.5199 31.6617 21.5697 31.7514 21.6452 31.8162C21.7207 31.881 21.8169 31.9166 21.9164 31.9167C22.866 31.9167 23.7843 32.2117 24.5552 32.75H16.0831V31.9167C16.0831 31.8062 16.0392 31.7002 15.9611 31.622C15.8829 31.5439 15.7769 31.5 15.6664 31.5H14.8331V16.5H15.6664C15.7769 16.5 15.8829 16.4561 15.9611 16.378C16.0392 16.2998 16.0831 16.1938 16.0831 16.0833V15.25H31.9164V16.0833C31.9164 16.1938 31.9603 16.2998 32.0385 16.378C32.1166 16.4561 32.2226 16.5 32.3331 16.5H33.1664V31.5Z" fill="#04A391"/>
<defs>
<linearGradient id="paint0_linear_3107_6726" x1="47" y1="46.6667" x2="2.73478e-06" y2="1" gradientUnits="userSpaceOnUse">
<stop stop-color="#004E45"/>
<stop offset="1" stop-color="#04A391"/>
</linearGradient>
</defs>
</svg>
