<svg width="72" height="72" viewBox="0 0 72 72" fill="none" xmlns="http://www.w3.org/2000/svg">
<rect x="0.5" y="0.5" width="71" height="71" rx="3.5" fill="#1D1D1D" stroke="url(#paint0_linear_3080_1569)"/>
<g clip-path="url(#clip0_3080_1569)">
<path d="M24.7937 36.7609V39.4727C24.7937 40.3445 25.5 41.0508 26.3718 41.0508H45.6281C46.5 41.0508 47.2062 40.3445 47.2062 39.4727V32.5273C47.2062 31.6555 46.5 30.9492 45.6281 30.9492H26.3718C25.5 30.9492 24.7937 31.6555 24.7937 32.5273V34.0266" stroke="#04A391" stroke-width="1.17188" stroke-miterlimit="10" stroke-linecap="round" stroke-linejoin="round"/>
<path d="M39.2868 38.4862L40.1745 33.5677C40.1967 33.4525 40.3574 33.4417 40.3947 33.5529L41.8388 38.4479C41.8738 38.5521 42.0216 38.5514 42.0555 38.4468L43.4503 33.5537C43.4865 33.4422 43.6472 33.4512 43.6706 33.5662L44.6109 38.4863M31.3263 33.9061C30.9094 33.6243 30.4175 33.474 29.9143 33.4748C28.5195 33.4748 27.3889 34.6054 27.3889 36.0002C27.3889 37.3949 28.5195 38.5255 29.9143 38.5255C30.4808 38.5255 30.9467 38.3391 31.3003 38.0241C31.3737 37.9587 31.4422 37.888 31.5053 37.8127M34.6397 36.115L36.7614 38.5256M34.0306 36.1059V38.5256M34.0306 36.1059C34.0306 36.1059 35.0019 36.1002 35.3745 36.1002C36.1257 36.1002 36.7614 35.5124 36.7614 34.7875C36.7614 34.0625 36.1257 33.4748 35.3745 33.4748H34.0323L34.0306 36.1059ZM51.8452 22.4434C53.0461 22.8984 54.0467 23.7602 54.6799 24.8609C53.7263 26.5182 51.9391 27.6348 49.8896 27.6348C47.8401 27.6348 46.053 26.5182 45.0993 24.8609C45.7325 23.7602 46.7331 22.8984 47.934 22.4434" stroke="#04A391" stroke-width="1.17188" stroke-miterlimit="10" stroke-linecap="round" stroke-linejoin="round"/>
<path d="M47.1556 17.3094C47.9618 16.8492 48.8946 16.5859 49.8899 16.5859C52.9407 16.5859 55.4142 19.0594 55.4142 22.1102C55.4142 25.1609 52.9407 27.6344 49.8899 27.6344C46.8392 27.6344 44.3657 25.1609 44.3657 22.1102C44.3657 21.0398 44.6704 20.0406 45.1978 19.1945" stroke="#04A391" stroke-width="1.17188" stroke-miterlimit="10" stroke-linecap="round" stroke-linejoin="round"/>
<path d="M49.8898 23.4915C51.1316 23.4915 52.1382 22.4848 52.1382 21.2431C52.1382 20.0013 51.1316 18.9946 49.8898 18.9946C48.648 18.9946 47.6414 20.0013 47.6414 21.2431C47.6414 22.4848 48.648 23.4915 49.8898 23.4915Z" stroke="#04A391" stroke-width="1.17188" stroke-miterlimit="10" stroke-linecap="round" stroke-linejoin="round"/>
<path d="M51.8453 50.2227C53.0462 50.6777 54.0467 51.5395 54.68 52.6402C53.7263 54.2975 51.9392 55.4141 49.8897 55.4141C47.8401 55.4141 46.053 54.2975 45.0994 52.6402C45.7326 51.5395 46.7332 50.6777 47.9341 50.2227" stroke="#04A391" stroke-width="1.17188" stroke-miterlimit="10" stroke-linecap="round" stroke-linejoin="round"/>
<path d="M54.4282 46.7407C55.0501 47.6345 55.4142 48.7196 55.4142 49.8899C55.4142 52.9407 52.9407 55.4142 49.8899 55.4142C46.8392 55.4142 44.3657 52.9407 44.3657 49.8899C44.3657 46.8392 46.8392 44.3657 49.8899 44.3657C50.7853 44.3657 51.6313 44.579 52.379 44.9579" stroke="#04A391" stroke-width="1.17188" stroke-miterlimit="10" stroke-linecap="round" stroke-linejoin="round"/>
<path d="M49.8898 51.2708C51.1316 51.2708 52.1382 50.2641 52.1382 49.0224C52.1382 47.7806 51.1316 46.7739 49.8898 46.7739C48.648 46.7739 47.6414 47.7806 47.6414 49.0224C47.6414 50.2641 48.648 51.2708 49.8898 51.2708Z" stroke="#04A391" stroke-width="1.17188" stroke-miterlimit="10" stroke-linecap="round" stroke-linejoin="round"/>
<path d="M24.0658 22.4434C25.2666 22.8984 26.2672 23.7602 26.9004 24.8609C25.9468 26.5182 24.1597 27.6348 22.1101 27.6348C20.0606 27.6348 18.2735 26.5182 17.3198 24.8609C17.953 23.7602 18.9537 22.8984 20.1545 22.4434" stroke="#04A391" stroke-width="1.17188" stroke-miterlimit="10" stroke-linecap="round" stroke-linejoin="round"/>
<path d="M22.1102 27.6345C25.1612 27.6345 27.6345 25.1612 27.6345 22.1102C27.6345 19.0592 25.1612 16.5859 22.1102 16.5859C19.0592 16.5859 16.5859 19.0592 16.5859 22.1102C16.5859 25.1612 19.0592 27.6345 22.1102 27.6345Z" stroke="#04A391" stroke-width="1.17188" stroke-miterlimit="10" stroke-linecap="round" stroke-linejoin="round"/>
<path d="M22.1103 23.4915C23.352 23.4915 24.3587 22.4848 24.3587 21.2431C24.3587 20.0013 23.352 18.9946 22.1103 18.9946C20.8685 18.9946 19.8618 20.0013 19.8618 21.2431C19.8618 22.4848 20.8685 23.4915 22.1103 23.4915Z" stroke="#04A391" stroke-width="1.17188" stroke-miterlimit="10" stroke-linecap="round" stroke-linejoin="round"/>
<path d="M24.0658 50.2227C25.2666 50.6777 26.2672 51.5395 26.9004 52.6402C25.9468 54.2975 24.1597 55.4141 22.1101 55.4141C20.0606 55.4141 18.2735 54.2975 17.3198 52.6402C17.953 51.5395 18.9537 50.6777 20.1545 50.2227" stroke="#04A391" stroke-width="1.17188" stroke-miterlimit="10" stroke-linecap="round" stroke-linejoin="round"/>
<path d="M22.1102 55.4138C25.1612 55.4138 27.6345 52.9405 27.6345 49.8895C27.6345 46.8385 25.1612 44.3652 22.1102 44.3652C19.0592 44.3652 16.5859 46.8385 16.5859 49.8895C16.5859 52.9405 19.0592 55.4138 22.1102 55.4138Z" stroke="#04A391" stroke-width="1.17188" stroke-miterlimit="10" stroke-linecap="round" stroke-linejoin="round"/>
<path d="M22.1103 51.2708C23.352 51.2708 24.3587 50.2641 24.3587 49.0224C24.3587 47.7806 23.352 46.7739 22.1103 46.7739C20.8685 46.7739 19.8618 47.7806 19.8618 49.0224C19.8618 50.2641 20.8685 51.2708 22.1103 51.2708Z" stroke="#04A391" stroke-width="1.17188" stroke-miterlimit="10" stroke-linecap="round" stroke-linejoin="round"/>
<path d="M44.3653 22.1104H42.2343C41.0139 22.1104 40.0245 23.0996 40.0245 24.3201V30.9493M27.6345 22.1104H29.7655C30.9859 22.1104 31.9753 23.0996 31.9753 24.3201V30.9493M44.3653 49.8899H42.2343C41.0139 49.8899 40.0245 48.9006 40.0245 47.6801V41.0509M27.6345 49.8899H29.7655C30.9859 49.8899 31.9753 48.9006 31.9753 47.6801V41.0509" stroke="#04A391" stroke-width="1.17188" stroke-miterlimit="10" stroke-linecap="round" stroke-linejoin="round"/>
</g>
<defs>
<linearGradient id="paint0_linear_3080_1569" x1="70.5" y1="70" x2="4.10217e-06" y2="1.5" gradientUnits="userSpaceOnUse">
<stop stop-color="#004E45"/>
<stop offset="1" stop-color="#04A391"/>
</linearGradient>
<clipPath id="clip0_3080_1569">
<rect width="40" height="40" fill="white" transform="translate(16 16)"/>
</clipPath>
</defs>
</svg>
