<svg width="72" height="72" viewBox="0 0 72 72" fill="none" xmlns="http://www.w3.org/2000/svg">
<rect x="0.5" y="0.5" width="71" height="71" rx="3.5" fill="#1D1D1D" stroke="url(#paint0_linear_3080_1587)"/>
<path d="M36.8833 41H35.1167C34.5777 40.9991 34.061 40.7846 33.6799 40.4035C33.2987 40.0223 33.0842 39.5057 33.0833 38.9667C33.0824 38.8893 33.0572 38.8141 33.0113 38.7518C32.9654 38.6894 32.9011 38.643 32.8275 38.6192C32.5353 38.5142 32.2503 38.3958 31.9725 38.2642C31.9035 38.2294 31.8254 38.2169 31.749 38.2284C31.6725 38.2399 31.6016 38.2748 31.5458 38.3283C31.1641 38.7094 30.6468 38.9234 30.1075 38.9234C29.5682 38.9234 29.0509 38.7094 28.6692 38.3283L27.4217 37.0808C27.2327 36.892 27.0828 36.6678 26.9805 36.421C26.8782 36.1742 26.8256 35.9097 26.8256 35.6425C26.8256 35.3753 26.8782 35.1108 26.9805 34.864C27.0828 34.6172 27.2327 34.393 27.4217 34.2042C27.4755 34.1484 27.5105 34.0772 27.5219 34.0006C27.5332 33.9239 27.5203 33.8456 27.485 33.7767C27.3539 33.5 27.2358 33.2156 27.1308 32.9233C27.107 32.8497 27.0608 32.7854 26.9987 32.7394C26.9365 32.6934 26.8615 32.668 26.7842 32.6667C26.245 32.666 25.7281 32.4516 25.3468 32.0704C24.9655 31.6893 24.7509 31.1725 24.75 30.6333V28.8667C24.7509 28.3277 24.9654 27.811 25.3465 27.4299C25.7277 27.0487 26.2443 26.8342 26.7833 26.8333C26.8607 26.8323 26.9358 26.807 26.9981 26.7612C27.0604 26.7153 27.1068 26.6511 27.1308 26.5775C27.2358 26.2853 27.3542 26.0003 27.4858 25.7225C27.5209 25.6535 27.5335 25.5754 27.522 25.4989C27.5105 25.4224 27.4754 25.3514 27.4217 25.2958C27.2327 25.107 27.0828 24.8828 26.9805 24.636C26.8782 24.3892 26.8256 24.1247 26.8256 23.8575C26.8256 23.5903 26.8782 23.3258 26.9805 23.079C27.0828 22.8322 27.2327 22.608 27.4217 22.4192L28.6692 21.1708C29.0509 20.7898 29.5682 20.5758 30.1075 20.5758C30.6468 20.5758 31.1641 20.7898 31.5458 21.1708C31.6018 21.2243 31.6729 21.2592 31.7494 21.2707C31.8259 21.2822 31.9042 21.2697 31.9733 21.235C32.25 21.1039 32.5344 20.9858 32.8267 20.8808C32.9003 20.857 32.9646 20.8108 33.0106 20.7487C33.0566 20.6865 33.082 20.6115 33.0833 20.5342C33.084 19.995 33.2984 19.4781 33.6796 19.0968C34.0607 18.7155 34.5775 18.5009 35.1167 18.5H36.8833C37.4223 18.5009 37.939 18.7154 38.3201 19.0965C38.7013 19.4777 38.9158 19.9943 38.9167 20.5333C38.9177 20.6107 38.943 20.6858 38.9888 20.7481C39.0347 20.8104 39.0989 20.8568 39.1725 20.8808C39.4647 20.9858 39.7497 21.1042 40.0275 21.2358C40.0965 21.2709 40.1746 21.2835 40.2511 21.272C40.3276 21.2605 40.3986 21.2254 40.4542 21.1717C40.8359 20.7906 41.3532 20.5766 41.8925 20.5766C42.4318 20.5766 42.9491 20.7906 43.3308 21.1717L44.5783 22.4192C44.7673 22.608 44.9172 22.8322 45.0195 23.079C45.1218 23.3258 45.1744 23.5903 45.1744 23.8575C45.1744 24.1247 45.1218 24.3892 45.0195 24.636C44.9172 24.8828 44.7673 25.107 44.5783 25.2958C44.5245 25.3516 44.4895 25.4228 44.4781 25.4994C44.4668 25.5761 44.4797 25.6544 44.515 25.7233C44.6461 26 44.7642 26.2844 44.8692 26.5767C44.893 26.6503 44.9392 26.7146 45.0013 26.7606C45.0635 26.8066 45.1385 26.832 45.2158 26.8333C45.755 26.834 46.2719 27.0484 46.6532 27.4296C47.0345 27.8107 47.2491 28.3275 47.25 28.8667V30.6333C47.2491 31.1723 47.0346 31.689 46.6535 32.0701C46.2723 32.4513 45.7557 32.6658 45.2167 32.6667C45.1393 32.6677 45.0642 32.693 45.0019 32.7388C44.9396 32.7847 44.8932 32.8489 44.8692 32.9225C44.7642 33.2147 44.6458 33.4997 44.5142 33.7775C44.4792 33.8467 44.4666 33.925 44.4783 34.0016C44.4899 34.0783 44.5252 34.1494 44.5792 34.205C44.768 34.3938 44.9178 34.618 45.02 34.8647C45.1222 35.1114 45.1748 35.3759 45.1748 35.6429C45.1748 35.91 45.1222 36.1744 45.02 36.4211C44.9178 36.6678 44.768 36.892 44.5792 37.0808L43.3308 38.3292C42.949 38.71 42.4318 38.9239 41.8925 38.9239C41.3532 38.9239 40.836 38.71 40.4542 38.3292C40.3985 38.2752 40.3274 38.24 40.2507 38.2285C40.174 38.217 40.0957 38.2298 40.0267 38.265C39.7494 38.3961 39.465 38.5142 39.1733 38.6192C39.0997 38.643 39.0354 38.6892 38.9894 38.7513C38.9434 38.8135 38.918 38.8885 38.9167 38.9658C38.916 39.505 38.7016 40.0219 38.3204 40.4032C37.9393 40.7845 37.4225 40.9991 36.8833 41ZM31.8033 36.56C32.1085 36.5601 32.4099 36.6279 32.6858 36.7583C32.9153 36.8672 33.1497 36.9644 33.3892 37.05C33.7855 37.1907 34.1287 37.4501 34.3722 37.7929C34.6158 38.1358 34.7477 38.5453 34.75 38.9658C34.7502 39.0631 34.7889 39.1563 34.8576 39.2252C34.9263 39.294 35.0194 39.3329 35.1167 39.3333H36.8833C36.9805 39.3331 37.0736 39.2944 37.1424 39.2257C37.2111 39.157 37.2498 39.0638 37.25 38.9667C37.2522 38.546 37.384 38.1363 37.6275 37.7933C37.871 37.4503 38.2144 37.1907 38.6108 37.05C38.8503 36.9639 39.0844 36.8667 39.3133 36.7583C39.6933 36.5772 40.1198 36.5177 40.5348 36.5878C40.9498 36.6578 41.3331 36.8542 41.6325 37.15C41.7015 37.2188 41.795 37.2574 41.8925 37.2574C41.99 37.2574 42.0835 37.2188 42.1525 37.15L43.4 35.9025C43.4341 35.8684 43.4612 35.828 43.4797 35.7834C43.4982 35.7389 43.5077 35.6911 43.5077 35.6429C43.5077 35.5947 43.4982 35.5469 43.4797 35.5024C43.4612 35.4579 43.4341 35.4174 43.4 35.3833C43.1045 35.0838 42.9084 34.7005 42.8383 34.2855C42.7682 33.8706 42.8276 33.4442 43.0083 33.0642C43.1172 32.8347 43.2144 32.6003 43.3 32.3608C43.4406 31.9645 43.7 31.6211 44.0428 31.3776C44.3857 31.1341 44.7953 31.0022 45.2158 31C45.3131 30.9998 45.4063 30.9611 45.4752 30.8924C45.544 30.8237 45.5829 30.7306 45.5833 30.6333V28.8667C45.5831 28.7695 45.5444 28.6764 45.4757 28.6076C45.407 28.5389 45.3138 28.5002 45.2167 28.5C44.796 28.4978 44.3863 28.366 44.0433 28.1225C43.7003 27.879 43.4407 27.5356 43.3 27.1392C43.2139 26.8997 43.1167 26.6656 43.0083 26.4367C42.8274 26.0567 42.7679 25.6302 42.8379 25.2152C42.908 24.8003 43.1043 24.417 43.4 24.1175C43.4341 24.0834 43.4612 24.043 43.4797 23.9984C43.4982 23.9539 43.5077 23.9061 43.5077 23.8579C43.5077 23.8097 43.4982 23.7619 43.4797 23.7174C43.4612 23.6729 43.4341 23.6324 43.4 23.5983L42.1525 22.3492C42.0835 22.2804 41.99 22.2417 41.8925 22.2417C41.795 22.2417 41.7015 22.2804 41.6325 22.3492C41.3332 22.6448 40.9501 22.8412 40.5353 22.9114C40.1205 22.9816 39.6941 22.9224 39.3142 22.7417C39.0847 22.6328 38.8503 22.5356 38.6108 22.45C38.2145 22.3094 37.8711 22.05 37.6276 21.7072C37.3841 21.3643 37.2522 20.9547 37.25 20.5342C37.2498 20.4369 37.2111 20.3437 37.1424 20.2748C37.0737 20.206 36.9806 20.1671 36.8833 20.1667H35.1167C35.0195 20.1669 34.9264 20.2056 34.8576 20.2743C34.7889 20.343 34.7502 20.4362 34.75 20.5333C34.7478 20.9541 34.6158 21.3639 34.3721 21.7069C34.1285 22.0499 33.7849 22.3094 33.3883 22.45C33.1494 22.5361 32.9156 22.6333 32.6867 22.7417C32.3068 22.9231 31.8802 22.9829 31.4651 22.9128C31.05 22.8427 30.6667 22.6461 30.3675 22.35C30.2985 22.2812 30.205 22.2426 30.1075 22.2426C30.01 22.2426 29.9165 22.2812 29.8475 22.35L28.6 23.5967C28.5659 23.6307 28.5388 23.6712 28.5203 23.7157C28.5018 23.7603 28.4923 23.808 28.4923 23.8562C28.4923 23.9045 28.5018 23.9522 28.5203 23.9968C28.5388 24.0413 28.5659 24.0818 28.6 24.1158C28.8955 24.4154 29.0916 24.7987 29.1617 25.2136C29.2318 25.6286 29.1724 26.055 28.9917 26.435C28.8828 26.6644 28.7856 26.8989 28.7 27.1383C28.5596 27.5348 28.3002 27.8784 27.9574 28.1221C27.6145 28.3657 27.2048 28.4977 26.7842 28.5C26.6869 28.5002 26.5937 28.5389 26.5248 28.6076C26.456 28.6763 26.4171 28.7694 26.4167 28.8667V30.6333C26.4169 30.7305 26.4556 30.8236 26.5243 30.8924C26.593 30.9611 26.6862 30.9998 26.7833 31C27.204 31.0022 27.6137 31.134 27.9567 31.3775C28.2997 31.621 28.5593 31.9644 28.7 32.3608C28.7861 32.6003 28.8833 32.8344 28.9917 33.0633C29.1726 33.4433 29.2321 33.8698 29.1621 34.2848C29.092 34.6997 28.8957 35.083 28.6 35.3825C28.5659 35.4166 28.5388 35.457 28.5203 35.5016C28.5018 35.5461 28.4923 35.5939 28.4923 35.6421C28.4923 35.6903 28.5018 35.7381 28.5203 35.7826C28.5388 35.8271 28.5659 35.8676 28.6 35.9017L29.8475 37.1508C29.9165 37.2196 30.01 37.2583 30.1075 37.2583C30.205 37.2583 30.2985 37.2196 30.3675 37.1508C30.5562 36.9627 30.7802 36.8136 31.0265 36.7121C31.2729 36.6106 31.5369 36.5586 31.8033 36.5592V36.56Z" fill="#04A391"/>
<path d="M35.9999 35.3576C34.8909 35.3576 33.8067 35.0287 32.8846 34.4125C31.9624 33.7964 31.2437 32.9206 30.8193 31.896C30.3948 30.8713 30.2838 29.7439 30.5002 28.6561C30.7165 27.5684 31.2506 26.5692 32.0348 25.785C32.819 25.0008 33.8182 24.4667 34.9059 24.2503C35.9937 24.034 37.1212 24.145 38.1458 24.5694C39.1705 24.9938 40.0462 25.7126 40.6624 26.6347C41.2785 27.5569 41.6074 28.641 41.6074 29.7501C41.6057 31.2367 41.0143 32.662 39.9631 33.7132C38.9118 34.7645 37.4866 35.3558 35.9999 35.3576ZM35.9999 25.8092C35.2205 25.8092 34.4586 26.0404 33.8105 26.4734C33.1624 26.9064 32.6573 27.5219 32.3591 28.242C32.0608 28.9621 31.9827 29.7545 32.1348 30.5189C32.2869 31.2833 32.6622 31.9855 33.2133 32.5367C33.7645 33.0878 34.4667 33.4631 35.2311 33.6152C35.9955 33.7673 36.7879 33.6892 37.508 33.3909C38.2281 33.0927 38.8436 32.5876 39.2766 31.9395C39.7096 31.2914 39.9408 30.5295 39.9408 29.7501C39.9394 28.7053 39.5238 27.7037 38.785 26.965C38.0463 26.2262 37.0447 25.8106 35.9999 25.8092ZM25.1666 53.5001H20.1666C19.9456 53.5001 19.7336 53.4123 19.5773 53.256C19.421 53.0997 19.3333 52.8878 19.3333 52.6668V48.5001C19.3333 48.2791 19.421 48.0671 19.5773 47.9108C19.7336 47.7545 19.9456 47.6667 20.1666 47.6667H25.1666C25.3876 47.6667 25.5996 47.7545 25.7558 47.9108C25.9121 48.0671 25.9999 48.2791 25.9999 48.5001V52.6668C25.9999 52.8878 25.9121 53.0997 25.7558 53.256C25.5996 53.4123 25.3876 53.5001 25.1666 53.5001ZM20.9999 51.8334H24.3333V49.3334H20.9999V51.8334ZM38.9166 53.5001H33.0833C32.8622 53.5001 32.6503 53.4123 32.494 53.256C32.3377 53.0997 32.2499 52.8878 32.2499 52.6668V48.5001C32.2499 48.2791 32.3377 48.0671 32.494 47.9108C32.6503 47.7545 32.8622 47.6667 33.0833 47.6667H38.9166C39.1376 47.6667 39.3496 47.7545 39.5058 47.9108C39.6621 48.0671 39.7499 48.2791 39.7499 48.5001V52.6668C39.7499 52.8878 39.6621 53.0997 39.5058 53.256C39.3496 53.4123 39.1376 53.5001 38.9166 53.5001ZM33.9166 51.8334H38.0833V49.3334H33.9166V51.8334ZM51.8333 53.5001H46.8333C46.6122 53.5001 46.4003 53.4123 46.244 53.256C46.0877 53.0997 45.9999 52.8878 45.9999 52.6668V48.5001C45.9999 48.2791 46.0877 48.0671 46.244 47.9108C46.4003 47.7545 46.6122 47.6667 46.8333 47.6667H51.8333C52.0543 47.6667 52.2662 47.7545 52.4225 47.9108C52.5788 48.0671 52.6666 48.2791 52.6666 48.5001V52.6668C52.6666 52.8878 52.5788 53.0997 52.4225 53.256C52.2662 53.4123 52.0543 53.5001 51.8333 53.5001ZM47.6666 51.8334H50.9999V49.3334H47.6666V51.8334Z" fill="#04A391"/>
<path d="M49.3333 49.3333C49.1122 49.3333 48.9003 49.2455 48.744 49.0893C48.5877 48.933 48.4999 48.721 48.4999 48.5V45.1667H23.4999V48.5C23.4999 48.721 23.4121 48.933 23.2558 49.0893C23.0996 49.2455 22.8876 49.3333 22.6666 49.3333C22.4456 49.3333 22.2336 49.2455 22.0773 49.0893C21.921 48.933 21.8333 48.721 21.8333 48.5V44.3333C21.8333 44.1123 21.921 43.9004 22.0773 43.7441C22.2336 43.5878 22.4456 43.5 22.6666 43.5H49.3333C49.5543 43.5 49.7662 43.5878 49.9225 43.7441C50.0788 43.9004 50.1666 44.1123 50.1666 44.3333V48.5C50.1666 48.721 50.0788 48.933 49.9225 49.0893C49.7662 49.2455 49.5543 49.3333 49.3333 49.3333Z" fill="#04A391"/>
<path d="M35.9998 49.3335C35.7788 49.3335 35.5669 49.2457 35.4106 49.0894C35.2543 48.9331 35.1665 48.7212 35.1665 48.5002V40.1668C35.1665 39.9458 35.2543 39.7339 35.4106 39.5776C35.5669 39.4213 35.7788 39.3335 35.9998 39.3335C36.2209 39.3335 36.4328 39.4213 36.5891 39.5776C36.7454 39.7339 36.8332 39.9458 36.8332 40.1668V48.5002C36.8332 48.7212 36.7454 48.9331 36.5891 49.0894C36.4328 49.2457 36.2209 49.3335 35.9998 49.3335Z" fill="#04A391"/>
<defs>
<linearGradient id="paint0_linear_3080_1587" x1="70.5" y1="70" x2="4.10217e-06" y2="1.5" gradientUnits="userSpaceOnUse">
<stop stop-color="#004E45"/>
<stop offset="1" stop-color="#04A391"/>
</linearGradient>
</defs>
</svg>
