<svg width="48" height="48" viewBox="0 0 48 48" fill="none" xmlns="http://www.w3.org/2000/svg">
<rect x="0.5" y="0.5" width="47" height="47" rx="3.5" fill="#1D1D1D" stroke="url(#paint0_linear_3107_6709)"/>
<path fill-rule="evenodd" clip-rule="evenodd" d="M21.4252 26.3574H15.327C14.3194 26.3574 13.5027 25.5407 13.5027 24.5331V12.9069C13.5027 11.8993 14.3194 11.0825 15.327 11.0825H33.0585C33.8528 11.0825 34.4969 11.7266 34.4969 12.5212V24.5331C34.4969 25.5407 33.6802 26.3574 32.6725 26.3574H26.5513C26.5942 26.7896 26.6479 27.2222 26.7092 27.6212H28.2185C29.4512 27.6212 30.6334 28.1109 31.505 28.9826C32.3767 29.8542 32.8663 31.0364 32.8663 32.2691V36.551C32.8663 36.648 32.8278 36.7411 32.7591 36.8098C32.6905 36.8784 32.5974 36.917 32.5003 36.917H15.4992C15.4022 36.917 15.3091 36.8784 15.2404 36.8098C15.1718 36.7411 15.1332 36.648 15.1332 36.551V32.2691C15.1333 31.0364 15.623 29.8542 16.4946 28.9826C17.3662 28.111 18.5484 27.6213 19.7811 27.6212H21.2778C21.3358 27.2221 21.3858 26.7895 21.4252 26.3574ZM14.2434 23.5919V24.5331C14.2434 25.1316 14.7285 25.6166 15.327 25.6166H32.6725C33.2711 25.6166 33.7562 25.1316 33.7562 24.5331V23.5919H14.2434ZM23.9753 25.1428C23.6616 25.1428 23.4069 24.8881 23.4069 24.5744C23.4069 24.2608 23.6616 24.0061 23.9753 24.0061C24.2889 24.0061 24.5436 24.2608 24.5436 24.5744C24.5436 24.8881 24.2889 25.1428 23.9753 25.1428ZM21.4606 28.3533H19.7811C19.2668 28.3532 18.7576 28.4545 18.2825 28.6513C17.8074 28.8481 17.3757 29.1365 17.0121 29.5001C16.6485 29.8638 16.3601 30.2954 16.1633 30.7705C15.9665 31.2456 15.8652 31.7548 15.8652 32.2691V36.185H18.1445V32.8439C18.1445 32.613 18.3319 32.4256 18.5628 32.4256C18.7936 32.4256 18.9811 32.613 18.9811 32.8439V36.185H28.7594V32.8439C28.7594 32.613 28.9468 32.4256 29.1777 32.4256C29.4085 32.4256 29.596 32.613 29.596 32.8439V36.185H32.1343V32.2691C32.1343 31.7549 32.033 31.2456 31.8363 30.7706C31.6395 30.2955 31.351 29.8638 30.9874 29.5002C30.6238 29.1365 30.1921 28.8481 29.717 28.6513C29.2419 28.4545 28.7327 28.3533 28.2185 28.3533H26.5389L24.2956 30.5966C24.2171 30.675 24.1107 30.7191 23.9998 30.7191C23.8889 30.7191 23.7825 30.675 23.704 30.5966L21.4606 28.3533ZM24.5911 31.941C24.5911 32.2674 24.3262 32.5323 23.9998 32.5323C23.6734 32.5323 23.4085 32.2674 23.4085 31.941C23.4085 31.6146 23.6734 31.3496 23.9998 31.3496C24.3262 31.3496 24.5911 31.6146 24.5911 31.941ZM24.5911 33.4698C24.5911 33.7962 24.3262 34.0612 23.9998 34.0612C23.6734 34.0612 23.4085 33.7962 23.4085 33.4698C23.4085 33.1434 23.6734 32.8785 23.9998 32.8785C24.3262 32.8785 24.5911 33.1434 24.5911 33.4698ZM24.5911 34.9987C24.5911 35.325 24.3262 35.59 23.9998 35.59C23.6734 35.59 23.4085 35.325 23.4085 34.9987C23.4085 34.6723 23.6734 34.4073 23.9998 34.4073C24.3262 34.4073 24.5911 34.6723 24.5911 34.9987ZM25.8157 26.3574H22.1603C22.1191 26.82 22.066 27.2851 22.0041 27.7136L23.9998 29.7093L25.9845 27.7246C25.9184 27.293 25.8609 26.8239 25.8157 26.3574ZM33.7562 22.8599V12.5212C33.7562 12.1357 33.4438 11.8233 33.0585 11.8233H15.327C14.7285 11.8233 14.2434 12.3084 14.2434 12.9069V22.8599H33.7562ZM27.2631 18.1294L23.0431 20.8635C22.9083 20.9508 22.7524 21.0002 22.5918 21.0064C22.4312 21.0126 22.272 20.9753 22.1308 20.8986C21.9897 20.8218 21.8718 20.7084 21.7897 20.5703C21.7076 20.4322 21.6642 20.2745 21.6642 20.1138V14.6457C21.6642 14.485 21.7076 14.3273 21.7897 14.1892C21.8719 14.0511 21.9897 13.9377 22.1309 13.861C22.272 13.7842 22.4313 13.747 22.5918 13.7532C22.7524 13.7593 22.9083 13.8087 23.0431 13.896L27.2631 16.6301C27.3882 16.7111 27.491 16.8221 27.5622 16.9531C27.6334 17.084 27.6707 17.2307 27.6707 17.3797C27.6707 17.5288 27.6334 17.6755 27.5622 17.8064C27.491 17.9374 27.3882 18.0484 27.2631 18.1294ZM26.8603 17.5077C26.8817 17.4939 26.8992 17.4749 26.9114 17.4526C26.9236 17.4302 26.9299 17.4052 26.9299 17.3797C26.9299 17.3543 26.9236 17.3293 26.9114 17.3069C26.8992 17.2846 26.8817 17.2656 26.8603 17.2518L22.6404 14.5177C22.6173 14.5028 22.5907 14.4943 22.5633 14.4933C22.5359 14.4923 22.5087 14.4986 22.4846 14.5117C22.4605 14.5248 22.4404 14.5442 22.4264 14.5677C22.4123 14.5913 22.4049 14.6182 22.4049 14.6457V20.1138C22.4049 20.1413 22.4123 20.1682 22.4264 20.1918C22.4404 20.2153 22.4605 20.2347 22.4846 20.2478C22.5087 20.2609 22.5359 20.2672 22.5633 20.2662C22.5907 20.2652 22.6173 20.2567 22.6404 20.2418L26.8603 17.5077Z" fill="#04A391"/>
<defs>
<linearGradient id="paint0_linear_3107_6709" x1="47" y1="46.6667" x2="2.73478e-06" y2="1" gradientUnits="userSpaceOnUse">
<stop stop-color="#004E45"/>
<stop offset="1" stop-color="#04A391"/>
</linearGradient>
</defs>
</svg>
