<svg width="72" height="72" viewBox="0 0 72 72" fill="none" xmlns="http://www.w3.org/2000/svg">
<rect x="0.5" y="0.5" width="71" height="71" rx="3.5" fill="#1D1D1D" stroke="url(#paint0_linear_3102_5629)"/>
<g clip-path="url(#clip0_3102_5629)">
<path d="M52.5924 16.7031H19.4076C17.9163 16.7031 16.7031 17.9163 16.7031 19.4076V47.3039C16.7031 48.7952 17.9163 50.0084 19.4076 50.0084H41.2045L46.0231 54.827C46.3262 55.1299 46.7302 55.2969 47.1608 55.2969C47.5913 55.2969 47.9954 55.1299 48.2984 54.827L49.5488 53.5766C49.8517 53.2736 50.0187 52.8695 50.0187 52.439C50.0187 52.0084 49.8517 51.6044 49.5488 51.3013L48.2557 50.0083H52.5925C54.0838 50.0083 55.297 48.7951 55.297 47.3038V19.4076C55.2969 17.9163 54.0837 16.7031 52.5924 16.7031ZM19.4076 17.7969H52.5924C53.4805 17.7969 54.2031 18.5195 54.2031 19.4076V23.3694H17.7969V19.4076C17.7969 18.5195 18.5195 17.7969 19.4076 17.7969ZM39.0037 31.8896C37.4987 30.6973 35.5973 29.9845 33.5326 29.9845C31.4678 29.9845 29.5666 30.6973 28.0615 31.8896H22.6602V29.1162H42.543V31.8896H39.0037ZM33.5326 31.0782C37.7965 31.0782 41.2654 34.5471 41.2654 38.8109C41.2654 43.0748 37.7965 46.5437 33.5326 46.5437C29.2688 46.5437 25.7998 43.0748 25.7998 38.8109C25.7998 34.5471 29.2688 31.0782 33.5326 31.0782ZM40.1874 44.603L41.3341 45.7497L40.4713 46.6125L39.3246 45.4658C39.6316 45.1982 39.9199 44.91 40.1874 44.603ZM48.9248 52.4391C48.9248 52.5774 48.8717 52.7068 48.7752 52.8032L47.5249 54.0535C47.4285 54.15 47.2991 54.2031 47.1608 54.2031C47.0224 54.2031 46.893 54.15 46.7966 54.0535L41.0511 48.308C41.0033 48.2602 40.9655 48.2034 40.9398 48.1409C40.9141 48.0784 40.9011 48.0115 40.9015 47.9439C40.9015 47.8055 40.9547 47.6761 41.0512 47.5797L42.3015 46.3294C42.3979 46.2329 42.5273 46.1798 42.6656 46.1798C42.804 46.1798 42.9333 46.2329 43.0297 46.3294L48.7752 52.0749C48.823 52.1227 48.8609 52.1795 48.8865 52.242C48.9122 52.3045 48.9252 52.3715 48.9248 52.4391ZM52.5924 48.9147H47.1619L43.8031 45.5559C43.5001 45.253 43.0961 45.086 42.6655 45.086C42.5295 45.086 42.3966 45.1045 42.2683 45.1369L40.8593 43.7279C41.806 42.3218 42.3591 40.6298 42.3591 38.8109C42.3591 36.5795 41.5263 34.5391 40.1558 32.9833H43.0898C43.2349 32.9833 43.374 32.9257 43.4765 32.8231C43.5791 32.7205 43.6367 32.5814 43.6367 32.4364V28.5692C43.6367 28.4242 43.5791 28.2851 43.4765 28.1825C43.374 28.08 43.2349 28.0223 43.0898 28.0223H22.1133C21.9682 28.0223 21.8291 28.08 21.7266 28.1825C21.624 28.2851 21.5664 28.4242 21.5664 28.5692V32.4364C21.5664 32.5814 21.624 32.7205 21.7266 32.8231C21.8291 32.9257 21.9682 32.9833 22.1133 32.9833H26.9095C25.5389 34.5391 24.7061 36.5795 24.7061 38.8109C24.7061 43.6779 28.6657 47.6374 33.5326 47.6374C35.3515 47.6374 37.0435 47.0842 38.4496 46.1375L39.8585 47.5465C39.8252 47.6763 39.8082 47.8097 39.8077 47.9438C39.8077 48.2998 39.9234 48.6369 40.1344 48.9146H19.4076C18.5195 48.9147 17.7969 48.1921 17.7969 47.3039V24.4631H54.2031V47.3039C54.2031 48.1921 53.4805 48.9147 52.5924 48.9147ZM20.6106 20.5831C20.6106 20.1622 20.9519 19.8209 21.3728 19.8209C21.7938 19.8209 22.135 20.1622 22.135 20.5831C22.135 21.0041 21.7938 21.3453 21.3728 21.3453C20.9519 21.3453 20.6106 21.0041 20.6106 20.5831ZM23.6332 20.5831C23.6332 20.1622 23.9745 19.8209 24.3954 19.8209C24.8163 19.8209 25.1576 20.1622 25.1576 20.5831C25.1576 21.0041 24.8163 21.3453 24.3954 21.3453C23.9745 21.3453 23.6332 21.0041 23.6332 20.5831ZM26.6557 20.5831C26.6557 20.1622 26.997 19.8209 27.4179 19.8209C27.8388 19.8209 28.1801 20.1622 28.1801 20.5831C28.1801 21.0041 27.8388 21.3453 27.4179 21.3453C26.997 21.3453 26.6557 21.0041 26.6557 20.5831ZM49.8867 28.0224H46.0195C45.8745 28.0224 45.7354 28.08 45.6328 28.1826C45.5303 28.2852 45.4727 28.4243 45.4727 28.5693V32.4365C45.4727 32.5815 45.5303 32.7206 45.6328 32.8232C45.7354 32.9257 45.8745 32.9834 46.0195 32.9834H49.8867C50.0318 32.9834 50.1709 32.9257 50.2734 32.8232C50.376 32.7206 50.4336 32.5815 50.4336 32.4365V28.5693C50.4336 28.4243 50.376 28.2852 50.2734 28.1826C50.1709 28.08 50.0318 28.0224 49.8867 28.0224ZM49.3398 31.8896H46.5664V29.1162H49.3398V31.8896ZM33.5326 45.6685C37.3138 45.6685 40.3902 42.5923 40.3902 38.811C40.3902 35.0298 37.3138 31.9535 33.5326 31.9535C29.7513 31.9535 26.6751 35.0298 26.6751 38.811C26.6751 42.5923 29.7513 45.6685 33.5326 45.6685ZM33.5326 33.0472C36.7108 33.0472 39.2964 35.6328 39.2964 38.8109C39.2964 41.9891 36.7107 44.5747 33.5326 44.5747C30.3545 44.5747 27.7688 41.9891 27.7688 38.8109C27.7688 35.6328 30.3544 33.0472 33.5326 33.0472Z" fill="#04A391"/>
</g>
<defs>
<linearGradient id="paint0_linear_3102_5629" x1="70.5" y1="70" x2="4.10217e-06" y2="1.5" gradientUnits="userSpaceOnUse">
<stop stop-color="#004E45"/>
<stop offset="1" stop-color="#04A391"/>
</linearGradient>
<clipPath id="clip0_3102_5629">
<rect width="40" height="40" fill="white" transform="translate(16 16)"/>
</clipPath>
</defs>
</svg>
