<svg width="72" height="72" viewBox="0 0 72 72" fill="none" xmlns="http://www.w3.org/2000/svg">
<rect x="0.5" y="0.5" width="71" height="71" rx="3.5" fill="#1D1D1D" stroke="url(#paint0_linear_3080_1568)"/>
<path d="M45.375 18.5H26.625C24.4707 18.502 22.4053 19.3586 20.882 20.882C19.3586 22.4053 18.502 24.4707 18.5 26.625V45.375C18.502 47.5293 19.3586 49.5947 20.882 51.118C22.4053 52.6413 24.4707 53.498 26.625 53.5H45.375C47.5293 53.498 49.5947 52.6413 51.118 51.118C52.6413 49.5947 53.498 47.5293 53.5 45.375V26.625C53.498 24.4707 52.6413 22.4053 51.118 20.882C49.5947 19.3586 47.5293 18.502 45.375 18.5ZM52.25 45.375C52.2488 47.198 51.5241 48.946 50.2351 50.2351C48.946 51.5241 47.198 52.2488 45.375 52.25H26.625C24.802 52.2488 23.054 51.5241 21.7649 50.2351C20.4759 48.946 19.7512 47.198 19.75 45.375V26.625C19.7512 24.802 20.4759 23.054 21.7649 21.7649C23.054 20.4759 24.802 19.7512 26.625 19.75H45.375C47.198 19.7512 48.946 20.4759 50.2351 21.7649C51.5241 23.054 52.2488 24.802 52.25 26.625V45.375Z" fill="#04A391"/>
<path d="M36 23.5313C32.69 23.5307 29.5151 24.8433 27.1716 27.1808C24.8282 29.5184 23.5078 32.6901 23.5 36C24.1856 52.5413 47.8169 52.5369 48.5 36C48.4922 32.6901 47.1718 29.5184 44.8284 27.1808C42.4849 24.8433 39.31 23.5307 36 23.5313ZM34.6938 24.8563C35.5617 24.7565 36.4383 24.7565 37.3062 24.8563C38.6938 25.5625 39.8625 27.3063 40.6375 29.6063C37.5781 28.9748 34.4219 28.9748 31.3625 29.6063C32.1375 27.3063 33.3062 25.5625 34.6938 24.8563ZM47.1625 34.725C47.2857 35.5747 47.2857 36.4378 47.1625 37.2875C46.4688 38.6813 44.7125 39.8688 42.4 40.6438C43.0314 37.5843 43.0314 34.4282 42.4 31.3688C44.7125 32.1438 46.4688 33.3313 47.1625 34.725ZM41.625 36.0062C41.6298 37.7011 41.4304 39.3903 41.0312 41.0375C37.7238 41.8292 34.2762 41.8292 30.9688 41.0375C30.1771 37.73 30.1771 34.2825 30.9688 30.975C34.2762 30.1834 37.7238 30.1834 41.0312 30.975C41.4304 32.6222 41.6298 34.3114 41.625 36.0062ZM32.1063 25.475C31.1122 26.8176 30.3806 28.3359 29.95 29.95C28.3164 30.383 26.7819 31.1279 25.4313 32.1438C25.9982 30.6172 26.8882 29.2311 28.0402 28.0801C29.1922 26.9292 30.5792 26.0406 32.1063 25.475ZM24.8187 34.75C25.53 33.3388 27.2656 32.15 29.6 31.3688C28.9686 34.4282 28.9686 37.5843 29.6 40.6438C27.2875 39.8688 25.5313 38.6813 24.8375 37.2875C24.7248 36.4458 24.7185 35.5933 24.8187 34.75ZM25.4375 39.875C26.7874 40.8831 28.3166 41.6255 29.9437 42.0625C30.3736 43.67 31.103 45.1819 32.0938 46.5188C30.5719 45.9548 29.1896 45.0695 28.0409 43.9229C26.8923 42.7764 26.0043 41.3958 25.4375 39.875ZM34.6625 47.1375C33.2875 46.425 32.1313 44.6875 31.3625 42.4062C34.4219 43.0377 37.5781 43.0377 40.6375 42.4062C39.8687 44.6875 38.7125 46.425 37.3375 47.1375C36.4492 47.2468 35.5508 47.2468 34.6625 47.1375ZM39.9 46.5188C40.8953 45.1838 41.6271 43.6714 42.0562 42.0625C43.6823 41.6227 45.211 40.8806 46.5625 39.875C45.9954 41.3966 45.1066 42.7778 43.9568 43.9244C42.8069 45.071 41.4232 45.956 39.9 46.5188ZM42.0562 29.95C41.6216 28.3351 40.8857 26.8168 39.8875 25.475C41.416 26.0394 42.8043 26.9276 43.9575 28.0786C45.1107 29.2296 46.0015 30.6164 46.5688 32.1438C45.2192 31.1299 43.6872 30.3851 42.0562 29.95Z" fill="#04A391"/>
<defs>
<linearGradient id="paint0_linear_3080_1568" x1="70.5" y1="70" x2="4.10217e-06" y2="1.5" gradientUnits="userSpaceOnUse">
<stop stop-color="#004E45"/>
<stop offset="1" stop-color="#04A391"/>
</linearGradient>
</defs>
</svg>
