<svg width="72" height="72" viewBox="0 0 72 72" fill="none" xmlns="http://www.w3.org/2000/svg">
<rect x="0.5" y="0.5" width="71" height="71" rx="3.5" fill="#1D1D1D" stroke="url(#paint0_linear_3080_1661)"/>
<path d="M39.6329 20.4303L41.2407 17.649C41.2916 17.5558 41.3607 17.4736 41.4438 17.4074C41.5269 17.3412 41.6225 17.2923 41.7248 17.2636C41.8271 17.2348 41.9341 17.2269 42.0396 17.2401C42.145 17.2534 42.2467 17.2876 42.3388 17.3407C42.4308 17.3939 42.5112 17.4649 42.5754 17.5496C42.6396 17.6343 42.6862 17.731 42.7124 17.834C42.7386 17.937 42.744 18.0442 42.7282 18.1493C42.7124 18.2543 42.6758 18.3552 42.6204 18.4459L41.017 21.2272C40.9466 21.3486 40.8455 21.4493 40.7239 21.5193C40.6022 21.5892 40.4642 21.6259 40.3239 21.6256C40.1846 21.6266 40.0476 21.5898 39.9275 21.5193C39.744 21.4139 39.6099 21.24 39.5547 21.0358C39.4995 20.8316 39.5276 20.6138 39.6329 20.4303ZM43.4596 25.5836H46.6575C46.8689 25.5836 47.0717 25.6676 47.2212 25.8171C47.3707 25.9666 47.4547 26.1694 47.4547 26.3808C47.4547 26.5922 47.3707 26.795 47.2212 26.9445C47.0717 27.094 46.8689 27.178 46.6575 27.178H43.4598C43.2484 27.178 43.0456 27.094 42.8961 26.9445C42.7466 26.795 42.6626 26.5922 42.6626 26.3808C42.6626 26.1694 42.7466 25.9666 42.8961 25.8171C43.0456 25.6676 43.2484 25.5836 43.4598 25.5836H43.4596ZM42.0423 22.5914L44.8282 20.9972C44.9191 20.9448 45.0195 20.9109 45.1236 20.8974C45.2277 20.8839 45.3334 20.8911 45.4347 20.9186C45.5359 20.946 45.6308 20.9933 45.7138 21.0575C45.7967 21.1218 45.8662 21.2018 45.9181 21.293C45.9701 21.3842 46.0035 21.4848 46.0165 21.5889C46.0294 21.6931 46.0217 21.7987 45.9936 21.8999C45.9656 22.001 45.9179 22.0956 45.8532 22.1783C45.7885 22.2609 45.7081 22.3299 45.6166 22.3814L42.8376 23.9758C42.6541 24.0794 42.4372 24.1062 42.2341 24.0505C42.031 23.9947 41.8581 23.861 41.7532 23.6783C41.6483 23.4956 41.6198 23.2789 41.674 23.0754C41.7282 22.8718 41.8607 22.698 42.0426 22.5917L42.0423 22.5914ZM35.122 21.7768L40.0915 30.3826L33.8043 30.8964L31.5387 26.9677L35.122 21.7768ZM34.9688 36.3996C34.9377 36.5223 34.8609 36.6285 34.754 36.6965C34.6189 36.7607 34.2579 36.8803 34.052 36.5237L32.243 33.3922L33.1134 32.8894L34.9205 36.023C34.9539 36.0791 34.9755 36.1415 34.9839 36.2062C34.9923 36.271 34.9873 36.3368 34.9692 36.3995L34.9688 36.3996ZM29.0138 33.4144C28.8227 33.5219 28.612 33.5902 28.3941 33.6153C28.1762 33.6404 27.9555 33.6218 27.7448 33.5605C27.1942 33.397 26.7269 33.029 26.4388 32.532C26.1507 32.035 26.0636 31.4466 26.1954 30.8875C26.2485 30.6731 26.3436 30.4713 26.4751 30.2938C26.6066 30.1163 26.772 29.9665 26.9616 29.8533L30.2636 27.9465L32.3162 31.5076L30.7549 32.409L29.0138 33.4144ZM26.1641 28.4737C25.7921 28.6915 25.467 28.981 25.2078 29.3254C24.9485 29.6698 24.7602 30.0623 24.6538 30.4801C24.4143 31.4472 24.5596 32.4696 25.059 33.3317C25.5585 34.1939 26.3731 34.8285 27.3313 35.1019C27.6208 35.1798 27.9194 35.2192 28.2193 35.219C28.7781 35.2212 29.3275 35.0753 29.8116 34.7961L30.8613 34.1893L32.6729 37.3251C32.8517 37.6413 33.1116 37.9042 33.4256 38.0867C33.7397 38.2692 34.0967 38.3649 34.46 38.3637C34.8209 38.361 35.176 38.273 35.4964 38.1069C35.5101 38.1003 35.5234 38.0929 35.5363 38.0847C36.0157 37.8054 36.3653 37.3479 36.5089 36.8119C36.6524 36.2759 36.5782 35.7049 36.3025 35.2234L34.6859 32.4242L41.4757 31.8683C41.6097 31.8579 41.7389 31.8136 41.8512 31.7396C41.9635 31.6657 42.0552 31.5645 42.1178 31.4455C42.1803 31.3266 42.2118 31.1937 42.2091 31.0593C42.2064 30.9249 42.1697 30.7933 42.1024 30.6769L35.8706 19.8879C35.803 19.7718 35.7073 19.6746 35.5924 19.605C35.4775 19.5354 35.3471 19.4957 35.2129 19.4894C35.0777 19.4822 34.9429 19.5102 34.8217 19.5708C34.7006 19.6314 34.5973 19.7224 34.522 19.8349L30.1548 26.1686L26.1641 28.4737ZM50.1146 44.6795C50.1133 45.4428 49.8092 46.1744 49.2691 46.7138C48.7289 47.2531 47.9968 47.5561 47.2335 47.5562H24.7648C24.0016 47.5561 23.2697 47.253 22.7299 46.7137C22.19 46.1743 21.8864 45.4427 21.8855 44.6795V44.0395H50.1146V44.6795ZM38.9311 53.155H33.0691L35.3811 49.1533H36.6213L38.9311 53.155ZM51.7091 26.868C51.7091 24.6844 50.0703 22.7844 47.9001 22.45C47.691 22.4177 47.4776 22.4698 47.3069 22.5948C47.1362 22.7198 47.0222 22.9075 46.9899 23.1166C46.9576 23.3257 47.0097 23.539 47.1347 23.7097C47.2597 23.8804 47.4474 23.9945 47.6565 24.0268C48.3362 24.1328 48.9563 24.4766 49.4064 24.9968C49.8565 25.5171 50.1075 26.1802 50.1146 26.8681V42.4451H21.8855V26.868C21.8864 26.1049 22.19 25.3734 22.7298 24.834C23.2696 24.2946 24.0014 23.9915 24.7645 23.9913H29.2645C29.4762 23.9913 29.6793 23.9072 29.829 23.7575C29.9787 23.6078 30.0628 23.4047 30.0628 23.193C30.0628 22.9812 29.9787 22.7781 29.829 22.6284C29.6793 22.4787 29.4762 22.3946 29.2645 22.3946H24.7645C23.5784 22.3958 22.4413 22.8675 21.6026 23.7062C20.7639 24.5448 20.2922 25.682 20.291 26.868V43.1296C20.2921 43.1489 20.2944 43.1681 20.2977 43.1872C20.2944 43.2055 20.2921 43.224 20.291 43.2426V44.6801C20.2926 45.866 20.7644 47.0029 21.603 47.8415C22.4416 48.6801 23.5785 49.1519 24.7645 49.1535H33.5363L30.9963 53.5538C30.9257 53.6748 30.8883 53.8123 30.8879 53.9523C30.8875 54.0924 30.9241 54.23 30.994 54.3514C31.0639 54.4728 31.1646 54.5735 31.286 54.6435C31.4073 54.7135 31.5449 54.7501 31.685 54.7498H40.3152C40.4551 54.7498 40.5927 54.713 40.7139 54.643C40.8352 54.5731 40.9359 54.4725 41.0061 54.3514C41.0767 54.2305 41.114 54.093 41.114 53.9529C41.114 53.8129 41.0767 53.6754 41.0061 53.5545L38.4592 49.1542H47.2335C48.4198 49.1531 49.5572 48.6815 50.3962 47.8428C51.2353 47.0042 51.7074 45.867 51.7091 44.6808V43.2433C51.7091 43.2255 51.7003 43.2056 51.7003 43.1879C51.7003 43.168 51.7091 43.1502 51.7091 43.1303V26.868Z" fill="#04A391"/>
<defs>
<linearGradient id="paint0_linear_3080_1661" x1="70.5" y1="70" x2="4.10217e-06" y2="1.5" gradientUnits="userSpaceOnUse">
<stop stop-color="#004E45"/>
<stop offset="1" stop-color="#04A391"/>
</linearGradient>
</defs>
</svg>
