<svg width="72" height="72" viewBox="0 0 72 72" fill="none" xmlns="http://www.w3.org/2000/svg">
<rect x="0.5" y="0.5" width="71" height="71" rx="3.5" fill="#1D1D1D" stroke="url(#paint0_linear_3080_1599)"/>
<path d="M55.4132 48.9471H54.4418V28.2648C54.4418 26.1507 52.7218 24.4307 50.6076 24.4307H46.2407C45.9166 24.4307 45.6539 24.6933 45.6539 25.0175C45.6539 25.3416 45.9166 25.6043 46.2407 25.6043H50.6076C52.0747 25.6043 53.2682 26.7978 53.2682 28.2648V48.9471H40.151C39.954 48.947 39.7599 48.9951 39.5858 49.0872C39.4116 49.1794 39.2626 49.3127 39.1518 49.4757L38.9759 49.7343C38.8955 49.8525 38.7873 49.9493 38.6609 50.0162C38.5345 50.0831 38.3936 50.118 38.2506 50.1179H33.6711C33.3804 50.1179 33.1093 49.9745 32.9458 49.7343L32.7699 49.4758C32.6592 49.3128 32.5102 49.1794 32.336 49.0873C32.1618 48.9951 31.9678 48.947 31.7707 48.9471H18.7318V28.2648C18.7318 26.7978 19.9253 25.6043 21.3924 25.6043H25.1717C25.4959 25.6043 25.7585 25.3416 25.7585 25.0175C25.7585 24.6933 25.4959 24.4307 25.1717 24.4307H21.3924C19.2783 24.4307 17.5582 26.1506 17.5582 28.2648V48.9471H16.5868C16.5097 48.9471 16.4334 48.9622 16.3622 48.9917C16.291 49.0212 16.2263 49.0644 16.1718 49.1189C16.1174 49.1734 16.0741 49.2381 16.0446 49.3093C16.0152 49.3805 16 49.4568 16 49.5339V50.7556C16 52.9644 17.797 54.7614 20.0058 54.7614H51.9942C54.203 54.7614 56 52.9644 56 50.7556V49.5339C56 49.2097 55.7374 48.9471 55.4132 48.9471ZM54.8264 50.7556C54.8264 52.3173 53.5559 53.5878 51.9942 53.5878H20.0058C18.4441 53.5878 17.1736 52.3173 17.1736 50.7556V50.1207H31.7707C31.7823 50.1207 31.7931 50.1263 31.7997 50.1359L31.9756 50.3945C32.1636 50.671 32.4164 50.8973 32.7119 51.0537C33.0075 51.21 33.3368 51.2917 33.6711 51.2915H38.2506C38.5849 51.2917 38.9142 51.21 39.2098 51.0537C39.5053 50.8973 39.7581 50.671 39.946 50.3945L40.122 50.1359L40.1221 50.1359C40.1253 50.1312 40.1296 50.1273 40.1346 50.1247C40.1397 50.122 40.1453 50.1207 40.151 50.1207H54.8263V50.7556H54.8264Z" fill="#04A391"/>
<path d="M20.0618 47.0305C20.0618 47.3546 20.3244 47.6173 20.6486 47.6173H51.3513C51.6754 47.6173 51.9381 47.3546 51.9381 47.0305V28.2651C51.9381 27.5315 51.3412 26.9346 50.6075 26.9346H46.2406C45.9165 26.9346 45.6538 27.1972 45.6538 27.5214C45.6538 27.8455 45.9165 28.1082 46.2406 28.1082H50.6075C50.6941 28.1082 50.7645 28.1785 50.7645 28.2651V46.4437H42.2523V44.0478C42.2523 42.7737 41.7561 41.5758 40.8551 40.6748L40.0911 39.9108C40.3675 39.4827 40.5747 39.0136 40.7048 38.5209C40.7422 38.3712 40.7191 38.2128 40.6406 38.08C40.562 37.9472 40.4344 37.8507 40.2852 37.8113C40.136 37.772 39.9773 37.7929 39.8435 37.8697C39.7096 37.9464 39.6114 38.0728 39.57 38.2214C39.4374 38.7243 39.1994 39.1933 38.8719 39.5974L38.8649 39.6057C38.1795 40.447 37.1377 40.9687 35.9999 40.9687C33.9638 40.9687 32.3072 39.3121 32.3072 37.276C32.3072 35.2398 33.9638 33.5833 35.9999 33.5833C37.5711 33.5833 38.973 34.5804 39.4883 36.0647C39.5399 36.211 39.6473 36.331 39.7871 36.3983C39.9269 36.4657 40.0877 36.4749 40.2343 36.424C40.3808 36.3731 40.5013 36.2662 40.5693 36.1267C40.6373 35.9873 40.6472 35.8265 40.597 35.6797C39.9179 33.7238 38.0705 32.4097 35.9999 32.4097C33.3166 32.4097 31.1336 34.5926 31.1336 37.276C31.1336 38.2457 31.4198 39.1493 31.9106 39.9089L31.1447 40.6748C30.2437 41.5759 29.7476 42.7737 29.7476 44.0478V46.4437H21.2354V44.2939C21.2354 43.9697 20.9727 43.7071 20.6486 43.7071C20.3244 43.7071 20.0618 43.9697 20.0618 44.2939V47.0305ZM30.9212 44.0477C30.9212 43.0871 31.2953 42.184 31.9747 41.5046L32.6647 40.8146C33.5365 41.6368 34.71 42.1422 35.9999 42.1422C37.2737 42.1422 38.456 41.6456 39.3369 40.8163L40.0252 41.5045C40.7046 42.1839 41.0787 43.087 41.0787 44.0477V46.4435H30.9212V44.0477ZM20.6486 42.3778C20.9727 42.3778 21.2354 42.1151 21.2354 41.791V28.2651C21.2354 28.1786 21.3057 28.1082 21.3922 28.1082H25.1716C25.4958 28.1082 25.7584 27.8455 25.7584 27.5214C25.7584 27.1972 25.4958 26.9346 25.1716 26.9346H21.3922C20.6586 26.9346 20.0618 27.5315 20.0618 28.2651V41.791C20.0618 41.9466 20.1236 42.0959 20.2336 42.2059C20.3437 42.316 20.4929 42.3778 20.6486 42.3778Z" fill="#04A391"/>
<path d="M29.4831 31.1694H41.9293C43.336 31.1694 44.4802 30.025 44.4802 28.6184V19.7898C44.4802 18.3831 43.3359 17.2388 41.9293 17.2388H29.4831C28.0764 17.2388 26.9321 18.3832 26.9321 19.7898V21.0187C26.9321 21.3429 27.1948 21.6055 27.5189 21.6055C27.8431 21.6055 28.1057 21.3429 28.1057 21.0187V19.7898C28.1057 19.0302 28.7236 18.4124 29.4831 18.4124H41.9293C42.6888 18.4124 43.3066 19.0302 43.3066 19.7898V28.6184C43.3066 29.3779 42.6888 29.9958 41.9293 29.9958H29.4831C28.7236 29.9958 28.1057 29.3779 28.1057 28.6184V23.5215C28.1057 23.1974 27.8431 22.9347 27.5189 22.9347C27.1948 22.9347 26.9321 23.1974 26.9321 23.5215V28.6184C26.9321 30.025 28.0765 31.1694 29.4831 31.1694Z" fill="#04A391"/>
<path d="M34.1395 27.8414C34.4031 27.8414 34.6666 27.7709 34.9063 27.6302L38.5156 25.5096C38.9834 25.2346 39.2626 24.7466 39.2626 24.2041C39.2626 23.6615 38.9833 23.1735 38.5156 22.8987L34.9062 20.7781C34.4323 20.4996 33.8643 20.4963 33.3872 20.7695C32.91 21.0425 32.6252 21.5338 32.6252 22.0835V26.3248C32.6252 26.8745 32.9101 27.3658 33.3872 27.6389C33.6232 27.7738 33.8814 27.8414 34.1395 27.8414ZM33.7988 22.0834C33.7988 21.9053 33.9186 21.8175 33.97 21.788C34.0222 21.7582 34.081 21.7423 34.1411 21.7418C34.1923 21.7418 34.2506 21.7541 34.3116 21.79L37.921 23.9106C38.0726 23.9996 38.0889 24.1454 38.0889 24.204C38.0889 24.2626 38.0726 24.4084 37.9209 24.4975L34.3117 26.6182C34.158 26.7084 34.0217 26.6495 33.9702 26.6201C33.9186 26.5906 33.7988 26.5027 33.7988 26.3246V22.0834H33.7988Z" fill="#04A391"/>
<defs>
<linearGradient id="paint0_linear_3080_1599" x1="70.5" y1="70" x2="4.10217e-06" y2="1.5" gradientUnits="userSpaceOnUse">
<stop stop-color="#004E45"/>
<stop offset="1" stop-color="#04A391"/>
</linearGradient>
</defs>
</svg>
