<svg width="72" height="72" viewBox="0 0 72 72" fill="none" xmlns="http://www.w3.org/2000/svg">
<rect x="0.5" y="0.5" width="71" height="71" rx="3.5" fill="#1D1D1D" stroke="url(#paint0_linear_3102_5665)"/>
<g clip-path="url(#clip0_3102_5665)">
<path d="M52.3635 47.3938H19.6363C17.9393 47.3938 16.606 46.0605 16.606 44.3635V25.6363C16.606 23.9393 17.9393 22.606 19.6363 22.606H19.8787C20.2423 22.606 20.4847 22.8484 20.4847 23.212C20.4847 23.5757 20.2423 23.8181 19.8787 23.8181H19.6363C18.606 23.8181 17.8181 24.606 17.8181 25.6363V44.3635C17.8181 45.3938 18.606 46.1817 19.6363 46.1817H52.3635C53.3938 46.1817 54.1817 45.3938 54.1817 44.3635V25.6363C54.1817 24.606 53.3938 23.8181 52.3635 23.8181H33.6969C33.3332 23.8181 33.0908 23.5757 33.0908 23.212C33.0908 22.8484 33.3332 22.606 33.6969 22.606H52.3635C54.0605 22.606 55.3938 23.9393 55.3938 25.6363V44.3635C55.3938 46.0605 54.0605 47.3938 52.3635 47.3938Z" fill="#04A391"/>
<path d="M54.7878 43.697H17.212C16.8484 43.697 16.606 43.4546 16.606 43.0909C16.606 42.7273 16.8484 42.4849 17.212 42.4849H54.7878C55.1514 42.4849 55.3938 42.7273 55.3938 43.0909C55.3938 43.4546 55.1514 43.697 54.7878 43.697ZM40.1817 51.3333H31.8181C31.4544 51.3333 31.212 51.0909 31.212 50.7273V46.7879C31.212 46.4243 31.4544 46.1818 31.8181 46.1818H40.1817C40.5454 46.1818 40.7878 46.4243 40.7878 46.7879V50.7273C40.7878 51.0909 40.5454 51.3333 40.1817 51.3333ZM32.4241 50.1212H39.5757V47.394H32.4241V50.1212Z" fill="#04A391"/>
<path d="M42.7879 55.3334H29.2121C28.3637 55.3334 27.697 54.6667 27.697 53.8182V51.6364C27.697 50.7879 28.3637 50.1213 29.2121 50.1213H42.7879C43.6364 50.1213 44.303 50.7879 44.303 51.6364V53.8182C44.303 54.6667 43.6364 55.3334 42.7879 55.3334ZM29.2121 51.3334C29.0909 51.3334 28.9091 51.5152 28.9091 51.6364V53.8182C28.9091 53.9394 28.9697 54.1213 29.2121 54.1213H42.7879C42.9091 54.1213 43.0909 54.0607 43.0909 53.8182V51.6364C43.0909 51.5152 43.0303 51.3334 42.7879 51.3334H29.2121ZM36.9091 45.5758H35.0909C34.7273 45.5758 34.4849 45.3334 34.4849 44.9697C34.4849 44.6061 34.7273 44.3637 35.0909 44.3637H36.9091C37.2727 44.3637 37.5152 44.6061 37.5152 44.9697C37.5152 45.3334 37.2727 45.5758 36.9091 45.5758ZM26.7879 31.4546C26.1818 31.4546 25.6364 31.394 25.0909 31.2728C24.7879 31.2122 24.6061 30.9091 24.6667 30.6061C24.7879 29.9394 24.6061 29.5758 24.4243 29.4546C24.303 29.394 23.9394 29.5758 23.5758 30.0607C23.394 30.3031 23.0303 30.3637 22.7879 30.2425C21.8788 29.6364 21.1515 28.8485 20.6061 27.9394C20.4243 27.697 20.5455 27.3334 20.7879 27.1516C21.3333 26.7273 21.4546 26.3637 21.4546 26.2425C21.394 26.1213 21.0303 25.9394 20.3637 25.9394C20.0606 25.9394 19.7576 25.7576 19.697 25.4546C19.5152 24.3637 19.5152 23.2728 19.7576 22.3031C19.8182 22 20.1212 21.8182 20.4243 21.8788C20.9697 21.8788 21.394 21.697 21.4546 21.5758C21.5152 21.4546 21.3333 21.0303 20.8485 20.6667C20.6061 20.4849 20.5455 20.1213 20.7273 19.8788C21.3333 18.9697 22.1212 18.2425 23.0303 17.697C23.2727 17.5152 23.6364 17.6364 23.8182 17.8788C24.1818 18.4243 24.6061 18.5455 24.7273 18.5455C24.8485 18.4243 25.0909 18 25.0303 17.3334C25.0303 17.0303 25.2121 16.7273 25.5152 16.6667C26.6061 16.4849 27.697 16.4849 28.6667 16.7273C28.9697 16.7879 29.1515 17.091 29.0909 17.394C28.9697 18.0607 29.1515 18.4243 29.3333 18.5455C29.4546 18.6061 29.8182 18.4243 30.1818 17.9394C30.3637 17.697 30.7273 17.6364 30.9697 17.7576C31.8788 18.3637 32.6061 19.1516 33.1515 20.0607C33.3333 20.3031 33.2121 20.6667 32.9697 20.8485C32.4243 21.2728 32.303 21.6364 32.303 21.7576C32.3637 21.8788 32.7273 22.0607 33.3333 22C33.6364 21.9394 33.9394 22.1819 34 22.4849C34.1818 23.5758 34.1818 24.6667 33.9394 25.6364C33.8788 25.9394 33.5758 26.1213 33.2727 26.0607C32.6061 25.9394 32.2424 26.1213 32.1212 26.3031C32 26.6061 32.3637 27.0303 32.7273 27.2728C32.9697 27.4546 33.0303 27.8182 32.9091 28.0607C32.303 28.9697 31.5152 29.697 30.6061 30.2425C30.3637 30.4243 30 30.3031 29.8182 30.0607C29.5152 29.5758 29.0909 29.3334 28.8485 29.4546C28.7273 29.5152 28.5455 29.8788 28.6061 30.5455C28.6061 30.8485 28.4243 31.1516 28.1212 31.2122C27.7576 31.394 27.2727 31.4546 26.7879 31.4546ZM25.8788 30.1819C26.4243 30.2425 26.9697 30.3031 27.5152 30.1819C27.5758 29.3334 28 28.6667 28.5455 28.4243C29.2121 28.1819 29.9394 28.4243 30.5455 29.0303C31.0303 28.7273 31.394 28.3637 31.7576 27.9394C31.1515 27.3334 30.9697 26.5455 31.2121 25.8788C31.5152 25.2728 32.1818 24.9091 33.0303 24.9091C33.0909 24.3637 33.1515 23.8182 33.0909 23.2728C32.2424 23.2728 31.5758 22.8485 31.3333 22.2425C31.0909 21.6364 31.3333 20.9091 31.9394 20.3031C31.6364 19.8182 31.2727 19.4546 30.8485 19.091C30.2424 19.697 29.4546 19.9394 28.8485 19.6364C28.2424 19.3334 27.9394 18.6667 27.9394 17.8182C27.394 17.7576 26.8485 17.697 26.303 17.8182C26.2424 18.7273 25.8788 19.394 25.2121 19.6364C24.6061 19.8788 23.8788 19.6364 23.2727 19.0303C22.7879 19.3334 22.4243 19.697 22.0606 20.1213C22.6667 20.7273 22.9091 21.5152 22.6061 22.1213C22.303 22.7273 21.6364 23.0303 20.7879 23.0303C20.7273 23.5758 20.6667 24.1213 20.7879 24.6667C21.6364 24.7273 22.303 25.091 22.5455 25.697C22.7879 26.3031 22.5455 27.0303 21.9394 27.6364C22.2424 28.1213 22.6061 28.4849 23.0303 28.8485C23.6364 28.2425 24.4243 28 25.0303 28.3031C25.5152 28.6667 25.8788 29.3334 25.8788 30.1819Z" fill="#04A391"/>
<path d="M26.8482 28.1212C25.7713 28.1212 24.7384 27.6934 23.9769 26.9319C23.2154 26.1704 22.7876 25.1375 22.7876 24.0606C22.7876 22.9837 23.2154 21.9508 23.9769 21.1893C24.7384 20.4278 25.7713 20 26.8482 20C27.9251 20 28.958 20.4278 29.7195 21.1893C30.481 21.9508 30.9088 22.9837 30.9088 24.0606C30.9088 25.1375 30.481 26.1704 29.7195 26.9319C28.958 27.6934 27.9251 28.1212 26.8482 28.1212ZM26.8482 21.2121C25.2724 21.2121 23.9997 22.4848 23.9997 24.0606C23.9997 25.6364 25.2724 26.9091 26.8482 26.9091C28.424 26.9091 29.6967 25.6364 29.6967 24.0606C29.6967 22.4848 28.424 21.2121 26.8482 21.2121ZM50.6664 40.9697H37.8785C36.6664 40.9697 35.7573 40.0606 35.7573 38.8485V27.8788C35.7573 26.6667 36.6664 25.7576 37.8785 25.7576H50.727C51.9391 25.7576 52.8482 26.6667 52.8482 27.8788V38.9091C52.7876 40.0606 51.8179 40.9697 50.6664 40.9697ZM37.8785 26.9697C37.3937 26.9697 36.9694 27.3939 36.9694 27.8788V38.8485C36.9694 39.3333 37.3937 39.7576 37.8785 39.7576H50.6664C51.1512 39.7576 51.5755 39.3939 51.6361 38.8485V27.8788C51.6361 27.3939 51.2118 26.9697 50.727 26.9697H37.8785Z" fill="#04A391"/>
<path d="M52.1816 31.0305H36.3634C35.9997 31.0305 35.7573 30.7881 35.7573 30.4244C35.7573 30.0608 35.9997 29.8184 36.3634 29.8184H52.1816C52.5452 29.8184 52.7876 30.0608 52.7876 30.4244C52.7876 30.7881 52.5452 31.0305 52.1816 31.0305ZM44.9694 29.0305H38.424C38.0604 29.0305 37.8179 28.7881 37.8179 28.4244C37.8179 28.0608 38.0604 27.8184 38.424 27.8184H44.9694C45.3331 27.8184 45.5755 28.0608 45.5755 28.4244C45.5755 28.7881 45.3331 29.0305 44.9694 29.0305ZM47.5149 29.0305H46.8482C46.4846 29.0305 46.2422 28.7881 46.2422 28.4244C46.2422 28.0608 46.4846 27.8184 46.8482 27.8184H47.5149C47.8785 27.8184 48.121 28.0608 48.121 28.4244C48.121 28.7881 47.8785 29.0305 47.5149 29.0305ZM50.121 29.0305H49.4543C49.0907 29.0305 48.8482 28.7881 48.8482 28.4244C48.8482 28.0608 49.0907 27.8184 49.4543 27.8184H50.121C50.4846 27.8184 50.727 28.0608 50.727 28.4244C50.727 28.7881 50.4846 29.0305 50.121 29.0305ZM42.0604 37.6365C41.8785 37.6365 41.7573 37.5759 41.6361 37.4547L39.8785 35.6971C39.7573 35.5759 39.6967 35.4547 39.6967 35.2729C39.6967 35.0911 39.7573 34.9699 39.8785 34.8487L41.6967 33.0911C41.9391 32.8487 42.3028 32.8487 42.5452 33.0911C42.7876 33.3335 42.7876 33.6971 42.5452 33.9396L41.1513 35.2729L42.4846 36.6062C42.727 36.8487 42.727 37.2123 42.4846 37.4547C42.3634 37.5759 42.2422 37.6365 42.0604 37.6365ZM46.4846 37.6365C46.3028 37.6365 46.1816 37.5759 46.0604 37.4547C45.8179 37.2123 45.8179 36.8487 46.0604 36.6062L47.8179 34.8487C48.0604 34.6062 48.424 34.6062 48.6664 34.8487C48.9088 35.0911 48.9088 35.4547 48.6664 35.6971L46.9088 37.4547C46.7876 37.5759 46.6664 37.6365 46.4846 37.6365Z" fill="#04A391"/>
<path d="M48.2425 35.8788C48.1213 35.8788 47.9395 35.8182 47.8183 35.697L46.0001 33.9394C45.7577 33.697 45.7577 33.3334 46.0001 33.0909C46.2425 32.8485 46.6062 32.8485 46.8486 33.0909L48.6668 34.8485C48.9092 35.0909 48.9092 35.4546 48.6668 35.697C48.5456 35.8182 48.4243 35.8788 48.2425 35.8788ZM43.6365 38.2425H43.4547C43.1516 38.1818 42.9698 37.8182 43.0304 37.5152L44.3031 32.7879C44.3637 32.4849 44.7274 32.3031 45.0304 32.3637C45.3334 32.4243 45.5153 32.7879 45.4546 33.0909L44.2425 37.8182C44.1213 38.0606 43.8789 38.2425 43.6365 38.2425ZM31.6971 40.9697H22.0001C20.5456 40.9697 19.394 39.8182 19.394 38.3637C19.394 36.9091 20.5456 35.7576 22.0001 35.7576H31.6971C33.1516 35.7576 34.3031 36.9091 34.3031 38.3637C34.3031 39.8182 33.1516 40.9697 31.6971 40.9697ZM22.0001 36.9697C21.2728 36.9697 20.6062 37.6364 20.6062 38.3637C20.6062 39.0909 21.2728 39.7576 22.0001 39.7576H31.6971C32.4243 39.7576 33.091 39.0909 33.091 38.3637C33.091 37.6364 32.4243 36.9697 31.6971 36.9697H22.0001Z" fill="#04A391"/>
<path d="M28.2422 38.9699H22.8482C22.4846 38.9699 22.2422 38.7275 22.2422 38.3639C22.2422 38.0002 22.4846 37.7578 22.8482 37.7578H28.2422C28.6058 37.7578 28.8482 38.0002 28.8482 38.3639C28.8482 38.7275 28.6058 38.9699 28.2422 38.9699Z" fill="#04A391"/>
</g>
<defs>
<linearGradient id="paint0_linear_3102_5665" x1="70.5" y1="70" x2="4.10217e-06" y2="1.5" gradientUnits="userSpaceOnUse">
<stop stop-color="#004E45"/>
<stop offset="1" stop-color="#04A391"/>
</linearGradient>
<clipPath id="clip0_3102_5665">
<rect width="40" height="40" fill="white" transform="translate(16 16)"/>
</clipPath>
</defs>
</svg>
