<svg width="32" height="32" viewBox="0 0 32 32" fill="none" xmlns="http://www.w3.org/2000/svg">
<circle cx="16" cy="16" r="16" fill="#3A3A3A"/>
<path d="M20.7385 14.928C20.7545 13.0481 19.1534 11.3248 17.1694 11.0865C17.13 11.0818 17.087 11.0747 17.0415 11.0672C16.9433 11.0509 16.8417 11.0342 16.7392 11.0342C16.3326 11.0342 16.2239 11.3198 16.1953 11.4902C16.1674 11.6558 16.194 11.7949 16.274 11.9037C16.4087 12.0869 16.6456 12.1194 16.8359 12.1454C16.8917 12.1531 16.9443 12.1603 16.9884 12.1702C18.7709 12.5685 19.3711 13.1947 19.6645 14.962C19.6716 15.0052 19.6749 15.0584 19.6783 15.1149C19.6911 15.3261 19.7178 15.7657 20.1903 15.7657H20.1903C20.2297 15.7657 20.272 15.7623 20.316 15.7556C20.756 15.6887 20.7422 15.2869 20.7356 15.0939C20.7337 15.0395 20.732 14.9881 20.7365 14.9539C20.7378 14.9453 20.7384 14.9366 20.7385 14.928Z" fill="white"/>
<path d="M16.6241 10.3967C16.6769 10.4005 16.7269 10.4041 16.7685 10.4105C19.6956 10.8607 21.0417 12.2475 21.4147 15.1975C21.4211 15.2476 21.4221 15.3088 21.4231 15.3735C21.4268 15.604 21.4345 16.0835 21.9494 16.0934L21.9654 16.0936C22.1269 16.0936 22.2553 16.0449 22.3472 15.9487C22.5075 15.7811 22.4963 15.532 22.4873 15.3318C22.4851 15.2827 22.483 15.2365 22.4835 15.196C22.5207 12.1789 19.9091 9.44307 16.8948 9.34133C16.8823 9.34092 16.8703 9.34158 16.8583 9.34328C16.8465 9.34477 16.8345 9.34542 16.8226 9.34522C16.7925 9.34522 16.7556 9.34261 16.7163 9.33996C16.6689 9.33673 16.6152 9.33301 16.5607 9.33301C16.0807 9.33301 15.9894 9.67421 15.9777 9.8776C15.9508 10.3477 16.4055 10.3808 16.6241 10.3967ZM21.2735 19.0101C21.2106 18.9625 21.1483 18.9141 21.0867 18.8649C20.7671 18.6077 20.4271 18.3706 20.0983 18.1414C20.03 18.0939 19.9619 18.0463 19.8938 17.9986C19.4726 17.7027 19.0939 17.5589 18.7361 17.5589C18.2543 17.5589 17.8342 17.8252 17.4874 18.3502C17.3338 18.5829 17.1474 18.6961 16.9177 18.6961C16.7819 18.6961 16.6276 18.6574 16.4591 18.5809C15.0995 17.9644 14.1287 17.0191 13.5736 15.7714C13.3052 15.1683 13.3922 14.7741 13.8645 14.4533C14.1327 14.2712 14.6319 13.9323 14.5966 13.2834C14.5565 12.5465 12.9305 10.3291 12.2454 10.0773C11.9554 9.97061 11.6506 9.96961 11.338 10.0748C10.5504 10.3396 9.98521 10.8045 9.70339 11.4193C9.43105 12.0134 9.44335 12.711 9.73896 13.4366C10.5935 15.5346 11.795 17.3637 13.3102 18.8732C14.7932 20.3508 16.6161 21.5611 18.7279 22.4705C18.9183 22.5524 19.118 22.5971 19.2638 22.6297C19.3134 22.6408 19.3563 22.6504 19.3876 22.6589C19.4048 22.6636 19.4225 22.6661 19.4403 22.6663L19.457 22.6664H19.4571C20.4503 22.6664 21.643 21.7587 22.0093 20.7239C22.3302 19.8179 21.7443 19.37 21.2735 19.0101ZM17.0634 12.7932C16.8934 12.7975 16.5395 12.8063 16.4153 13.1668C16.3572 13.3352 16.3641 13.4815 16.436 13.6015C16.5414 13.7775 16.7434 13.8315 16.9271 13.8611C17.5934 13.968 17.9356 14.3364 18.0041 15.0205C18.0359 15.3395 18.2506 15.5622 18.5264 15.5622C18.5468 15.5622 18.5677 15.561 18.5884 15.5585C18.9201 15.519 19.0809 15.2753 19.0663 14.8342C19.0716 14.3739 18.8307 13.8513 18.421 13.435C18.0098 13.0175 17.5142 12.7823 17.0634 12.7932Z" fill="white"/>
</svg>
