<svg width="30" height="30" viewBox="0 0 30 30" fill="none" xmlns="http://www.w3.org/2000/svg">
<path d="M14.6961 7.55947C17.018 7.55947 17.2929 7.56813 18.2102 7.60975C18.7617 7.61647 19.3079 7.71725 19.8252 7.90772C20.2003 8.05169 20.5409 8.27224 20.8252 8.55516C21.1095 8.83809 21.3311 9.17712 21.4758 9.55044C21.6672 10.0652 21.7684 10.6089 21.7752 11.1577C21.8166 12.0706 21.8257 12.3442 21.8257 14.655C21.8257 16.9658 21.817 17.2394 21.7752 18.1523C21.7684 18.7011 21.6672 19.2448 21.4758 19.7596C21.3311 20.1329 21.1095 20.4719 20.8252 20.7548C20.5409 21.0378 20.2003 21.2583 19.8252 21.4023C19.3079 21.5927 18.7617 21.6935 18.2102 21.7002C17.2934 21.7415 17.0184 21.7505 14.6961 21.7505C12.3738 21.7505 12.0989 21.7419 11.1821 21.7002C10.6306 21.6935 10.0843 21.5927 9.56707 21.4023C9.19196 21.2583 8.8513 21.0378 8.56701 20.7548C8.28273 20.4719 8.06112 20.1329 7.91646 19.7596C7.72508 19.2448 7.62381 18.7011 7.61706 18.1523C7.57565 17.2394 7.56654 16.9658 7.56654 14.655C7.56654 12.3442 7.57524 12.0706 7.61706 11.1577C7.62381 10.6089 7.72508 10.0652 7.91646 9.55044C8.06112 9.17712 8.28273 8.83809 8.56701 8.55516C8.8513 8.27224 9.19196 8.05169 9.56707 7.90772C10.0843 7.71725 10.6306 7.61647 11.1821 7.60975C12.0993 7.56854 12.3743 7.55947 14.6961 7.55947ZM14.6961 6C12.3357 6 12.0384 6.00989 11.1108 6.05193C10.3891 6.06621 9.67498 6.20222 8.99892 6.45416C8.41897 6.67162 7.89368 7.01241 7.45971 7.45273C7.01687 7.88479 6.67415 8.40787 6.45551 8.98542C6.20236 9.65825 6.0657 10.3689 6.05135 11.0872C6.00994 12.0096 6 12.3055 6 14.6546C6 17.0037 6.00994 17.2996 6.05218 18.2228C6.06653 18.9411 6.20319 19.6517 6.45634 20.3246C6.67474 20.9021 7.01717 21.4251 7.45971 21.8573C7.89392 22.2977 8.4195 22.6385 8.99975 22.8558C9.67581 23.1078 10.3899 23.2438 11.1117 23.2581C12.0392 23.2993 12.3353 23.31 14.6969 23.31C17.0586 23.31 17.3546 23.3001 18.2822 23.2581C19.004 23.2438 19.7181 23.1078 20.3941 22.8558C20.9716 22.6331 21.4961 22.2928 21.9339 21.8568C22.3717 21.4208 22.7133 20.8986 22.9367 20.3238C23.1899 19.6509 23.3265 18.9402 23.3409 18.2219C23.3823 17.2996 23.3922 17.0037 23.3922 14.6546C23.3922 12.3055 23.3823 12.0096 23.3401 11.0864C23.3257 10.3681 23.1891 9.65743 22.9359 8.9846C22.7175 8.40712 22.3751 7.88405 21.9325 7.45191C21.4983 7.01148 20.9727 6.67069 20.3925 6.45334C19.7164 6.2014 19.0023 6.06539 18.2806 6.0511C17.3538 6.00989 17.0565 6 14.6961 6Z" fill="#04A391"/>
<path d="M14.6942 10.21C13.811 10.21 12.9476 10.4706 12.2132 10.959C11.4788 11.4473 10.9064 12.1414 10.5684 12.9535C10.2305 13.7656 10.142 14.6592 10.3143 15.5213C10.4866 16.3835 10.9119 17.1754 11.5365 17.7969C12.161 18.4185 12.9567 18.8418 13.823 19.0132C14.6892 19.1847 15.5871 19.0967 16.4031 18.7603C17.2191 18.4239 17.9166 17.8543 18.4072 17.1234C18.8979 16.3926 19.1598 15.5333 19.1598 14.6543C19.1598 13.4756 18.6894 12.3452 17.8519 11.5117C17.0144 10.6782 15.8786 10.21 14.6942 10.21ZM14.6942 17.5392C14.1209 17.5392 13.5604 17.37 13.0837 17.053C12.6071 16.736 12.2355 16.2854 12.0161 15.7583C11.7967 15.2311 11.7393 14.6511 11.8512 14.0915C11.963 13.5319 12.2391 13.0178 12.6445 12.6144C13.0499 12.2109 13.5664 11.9362 14.1287 11.8249C14.691 11.7136 15.2738 11.7707 15.8035 11.989C16.3331 12.2074 16.7859 12.5771 17.1044 13.0516C17.4229 13.526 17.5929 14.0837 17.5929 14.6543C17.5929 15.4194 17.2875 16.1532 16.7439 16.6942C16.2003 17.2352 15.463 17.5392 14.6942 17.5392Z" fill="#04A391"/>
<path d="M19.3375 11.0732C19.9138 11.0732 20.381 10.6082 20.381 10.0346C20.381 9.46107 19.9138 8.99609 19.3375 8.99609C18.7612 8.99609 18.2939 9.46107 18.2939 10.0346C18.2939 10.6082 18.7612 11.0732 19.3375 11.0732Z" fill="#04A391"/>
</svg>
