<svg width="32" height="32" viewBox="0 0 32 32" fill="none" xmlns="http://www.w3.org/2000/svg">
<circle cx="16" cy="16" r="16" fill="#3A3A3A"/>
<path d="M16.0009 22.2856C16.3715 22.2856 21.0487 15.8356 21.0487 13.0478C21.0487 10.26 18.7887 8 16.0009 8C13.2131 8 10.9531 10.26 10.9531 13.0478C10.9531 15.8356 15.6074 22.2856 16.0009 22.2856ZM14.3487 12.9153C14.3487 12.0028 15.0884 11.2631 16.0009 11.2631C16.9135 11.2631 17.6532 12.0028 17.6532 12.9153C17.6532 13.8278 16.9135 14.5675 16.0009 14.5675C15.0884 14.5675 14.3487 13.8278 14.3487 12.9153Z" fill="white"/>
<path d="M10.6211 22.7146C10.6211 23.4245 13.0295 23.9999 16.0003 23.9999C18.9711 23.9999 21.3795 23.4245 21.3795 22.7146C21.3795 22.151 19.8604 21.6724 17.7477 21.499C17.6455 21.6398 17.542 21.7796 17.4373 21.9185C16.4765 23.1879 16.2656 23.2523 16.0012 23.2523C15.7307 23.2523 15.4984 23.1626 14.5552 21.919C14.4503 21.7803 14.3467 21.6405 14.2445 21.4997C12.1361 21.6737 10.6211 22.1517 10.6211 22.7146Z" fill="white"/>
</svg>
