<svg width="32" height="32" viewBox="0 0 32 32" fill="none" xmlns="http://www.w3.org/2000/svg">
<circle cx="16" cy="16" r="16" fill="#3A3A3A"/>
<path d="M17.114 17.5024C16.7823 17.7235 16.3969 17.8404 15.9997 17.8404C15.6024 17.8404 15.2171 17.7235 14.8854 17.5024L9.42178 13.8598C9.39162 13.8397 9.36202 13.8187 9.33301 13.7969V19.7656C9.33301 20.4499 9.88835 20.993 10.5604 20.993H21.4389C22.1232 20.993 22.6663 20.4377 22.6663 19.7656V13.7969C22.6373 13.8187 22.6076 13.8398 22.5774 13.8599L17.114 17.5024Z" fill="white"/>
<path d="M9.85514 13.2098L15.3188 16.8523C15.5256 16.9902 15.7626 17.0591 15.9996 17.0591C16.2367 17.0591 16.4738 16.9902 16.6806 16.8523L22.1442 13.2098C22.4712 12.9919 22.6663 12.6273 22.6663 12.2338C22.6663 11.5573 22.1159 11.0068 21.4393 11.0068H10.56C9.88345 11.0069 9.33301 11.5573 9.33301 12.2345C9.33281 12.4275 9.38038 12.6176 9.47148 12.7878C9.56259 12.9579 9.69439 13.1029 9.85514 13.2098Z" fill="white"/>
</svg>
