<svg width="20" height="20" viewBox="0 0 20 20" fill="none" xmlns="http://www.w3.org/2000/svg">
<mask id="mask0_1865_304" style="mask-type:alpha" maskUnits="userSpaceOnUse" x="0" y="0" width="20" height="20">
<rect width="20" height="20" fill="#D9D9D9"/>
</mask>
<g mask="url(#mask0_1865_304)">
<path d="M13.4154 11.082L12.207 9.8737C12.332 9.22092 12.1445 8.60981 11.6445 8.04036C11.1445 7.47092 10.4987 7.2487 9.70703 7.3737L8.4987 6.16536C8.73481 6.05425 8.97439 5.97092 9.21745 5.91536C9.4605 5.85981 9.72092 5.83203 9.9987 5.83203C11.0404 5.83203 11.9258 6.19661 12.6549 6.92578C13.3841 7.65495 13.7487 8.54036 13.7487 9.58203C13.7487 9.85981 13.7209 10.1202 13.6654 10.3633C13.6098 10.6063 13.5265 10.8459 13.4154 11.082ZM16.082 13.707L14.8737 12.5404C15.4015 12.1376 15.8702 11.6966 16.28 11.2174C16.6897 10.7383 17.0404 10.1931 17.332 9.58203C16.6376 8.17925 15.6411 7.06467 14.3424 6.23828C13.0438 5.41189 11.5959 4.9987 9.9987 4.9987C9.59592 4.9987 9.20009 5.02648 8.8112 5.08203C8.42231 5.13759 8.04037 5.22092 7.66537 5.33203L6.3737 4.04036C6.94314 3.80425 7.52648 3.62717 8.1237 3.50911C8.72092 3.39106 9.34592 3.33203 9.9987 3.33203C12.0959 3.33203 13.964 3.91189 15.6029 5.07161C17.2418 6.23134 18.4293 7.73481 19.1654 9.58203C18.8459 10.4015 18.4258 11.1619 17.905 11.8633C17.3841 12.5647 16.7765 13.1793 16.082 13.707ZM16.4987 18.832L12.9987 15.3737C12.5126 15.5265 12.023 15.6411 11.53 15.7174C11.0369 15.7938 10.5265 15.832 9.9987 15.832C7.90148 15.832 6.03342 15.2522 4.39453 14.0924C2.75564 12.9327 1.56814 11.4293 0.832031 9.58203C1.1237 8.84592 1.49175 8.16189 1.9362 7.52995C2.38064 6.898 2.88759 6.33203 3.45703 5.83203L1.16536 3.4987L2.33203 2.33203L17.6654 17.6654L16.4987 18.832ZM4.6237 6.9987C4.22092 7.35981 3.85286 7.75564 3.51953 8.1862C3.1862 8.61675 2.90148 9.08203 2.66536 9.58203C3.35981 10.9848 4.35634 12.0994 5.65495 12.9258C6.95356 13.7522 8.40148 14.1654 9.9987 14.1654C10.2765 14.1654 10.5473 14.148 10.8112 14.1133C11.0751 14.0786 11.3459 14.0404 11.6237 13.9987L10.8737 13.207C10.7209 13.2487 10.5751 13.2799 10.4362 13.3008C10.2973 13.3216 10.1515 13.332 9.9987 13.332C8.95703 13.332 8.07162 12.9674 7.34245 12.2383C6.61328 11.5091 6.2487 10.6237 6.2487 9.58203C6.2487 9.42925 6.25912 9.28342 6.27995 9.14453C6.30078 9.00564 6.33203 8.85981 6.3737 8.70703L4.6237 6.9987Z" fill="white"/>
</g>
</svg>
