<svg width="20" height="20" viewBox="0 0 20 20" fill="none" xmlns="http://www.w3.org/2000/svg">
<path fill-rule="evenodd" clip-rule="evenodd" d="M13.7342 8.64906H6.28332V6.21484C6.28332 5.19031 6.70121 4.25824 7.37715 3.58422C8.05312 2.90824 8.98328 2.48844 10.0078 2.48844C11.0323 2.48844 11.9644 2.90828 12.6384 3.58422C13.3144 4.25824 13.7342 5.19035 13.7342 6.21484V8.64906ZM16.9098 9.16133C16.7134 8.96684 16.4727 8.8166 16.2031 8.73187V6.21484C16.2031 4.51051 15.5059 2.96023 14.3832 1.8375C13.2605 0.714766 11.7121 0.0195312 10.0078 0.0195312C8.30348 0.0195312 6.75512 0.714766 5.63238 1.8375C4.50965 2.96023 3.8125 4.51051 3.8125 6.21484V8.72418C3.53836 8.80826 3.28905 8.95837 3.08648 9.16133C2.77066 9.4791 2.57422 9.91434 2.57422 10.3957V18.2337C2.57422 18.7152 2.77066 19.1504 3.08648 19.4682C3.40422 19.784 3.83949 19.9804 4.3209 19.9804H15.6754C16.1569 19.9804 16.5921 19.784 16.9098 19.4682C17.2257 19.1504 17.4221 18.7152 17.4221 18.2337V10.3957C17.4221 9.9143 17.2257 9.4791 16.9098 9.16133ZM8.78875 12.4179C9.09879 12.1097 9.52633 11.9171 9.99816 11.9171C10.47 11.9171 10.8975 12.1097 11.2076 12.4179C11.5177 12.7279 11.7083 13.1555 11.7083 13.6273C11.7088 13.9803 11.5998 14.3248 11.3963 14.6133C11.2317 14.8457 11.012 15.0336 10.7569 15.1602V15.9537C10.7571 16.0533 10.7374 16.1519 10.699 16.2438C10.6607 16.3357 10.6044 16.4191 10.5335 16.489C10.3968 16.6257 10.208 16.7124 9.99813 16.7124C9.79012 16.7124 9.59949 16.6257 9.46273 16.489C9.32602 16.3523 9.23934 16.1616 9.23934 15.9537V15.1602C8.98518 15.033 8.76625 14.8452 8.60188 14.6133C8.40352 14.3341 8.28797 13.9951 8.28797 13.6273C8.28805 13.1554 8.48063 12.7279 8.78875 12.4179Z" fill="white"/>
</svg>
