<svg width="56" height="56" viewBox="0 0 56 56" fill="none" xmlns="http://www.w3.org/2000/svg">
<g clip-path="url(#clip0_1149_38368)">
<path d="M28.875 45.5788V42.8488C28.7582 42.8593 28.6431 42.875 28.5233 42.875H27.4768C27.3573 42.875 27.2418 42.8593 27.125 42.8488V45.5788C25.827 45.7981 24.6588 46.4972 23.8519 47.5372C23.045 48.5773 22.6583 49.8826 22.7684 51.1944C22.8785 52.5061 23.4773 53.7287 24.4463 54.6197C25.4153 55.5108 26.6836 56.0053 28 56.0053C29.3164 56.0053 30.5847 55.5108 31.5537 54.6197C32.5227 53.7287 33.1215 52.5061 33.2316 51.1944C33.3417 49.8826 32.955 48.5773 32.1481 47.5372C31.3412 46.4972 30.173 45.7981 28.875 45.5788ZM28 54.25C27.3078 54.25 26.6311 54.0447 26.0555 53.6601C25.4799 53.2756 25.0313 52.7289 24.7664 52.0894C24.5015 51.4499 24.4322 50.7461 24.5673 50.0672C24.7023 49.3883 25.0356 48.7646 25.5251 48.2751C26.0146 47.7856 26.6383 47.4523 27.3172 47.3173C27.9961 47.1822 28.6999 47.2515 29.3394 47.5164C29.9789 47.7813 30.5256 48.2299 30.9101 48.8055C31.2947 49.3811 31.5 50.0578 31.5 50.75C31.4988 51.6779 31.1297 52.5675 30.4736 53.2236C29.8175 53.8797 28.9279 54.2488 28 54.25ZM48.125 45.5788V36.7448C48.1225 35.1216 47.4762 33.5657 46.3279 32.4184C45.1796 31.2711 43.6232 30.6262 42 30.625H40.25V31.1487C40.2491 31.5653 40.1823 31.9792 40.0522 32.375H42C43.1592 32.3756 44.2708 32.8359 45.0909 33.655C45.9111 34.4742 46.3729 35.5852 46.375 36.7443V45.5792C45.077 45.7986 43.9088 46.4976 43.1019 47.5377C42.295 48.5778 41.9083 49.883 42.0184 51.1948C42.1285 52.5066 42.7273 53.7291 43.6963 54.6202C44.6653 55.5112 45.9336 56.0058 47.25 56.0058C48.5664 56.0058 49.8347 55.5112 50.8037 54.6202C51.7727 53.7291 52.3715 52.5066 52.4816 51.1948C52.5917 49.883 52.205 48.5778 51.3981 47.5377C50.5912 46.4976 49.423 45.7981 48.125 45.5788ZM47.25 54.25C46.5578 54.25 45.8811 54.0447 45.3055 53.6601C44.7299 53.2756 44.2813 52.7289 44.0164 52.0894C43.7515 51.4499 43.6822 50.7461 43.8173 50.0672C43.9523 49.3883 44.2856 48.7646 44.7751 48.2751C45.2646 47.7856 45.8883 47.4523 46.5672 47.3173C47.2461 47.1822 47.9499 47.2515 48.5894 47.5164C49.2289 47.7813 49.7756 48.2299 50.1601 48.8055C50.5447 49.3811 50.75 50.0578 50.75 50.75C50.7488 51.6779 50.3797 52.5675 49.7236 53.2236C49.0675 53.8797 48.1779 54.2488 47.25 54.25ZM20.125 15.75H27.125V18.4013C27.2418 18.3908 27.3569 18.375 27.4768 18.375H28.5233C28.6427 18.375 28.7582 18.3908 28.875 18.4013V15.75H35C37.0886 15.75 39.0916 14.9203 40.5685 13.4435C42.0453 11.9666 42.875 9.96358 42.875 7.875C42.875 5.78642 42.0453 3.78338 40.5685 2.30653C39.0916 0.829685 37.0886 0 35 0L20.125 0C18.0364 0 16.0334 0.829685 14.5565 2.30653C13.0797 3.78338 12.25 5.78642 12.25 7.875C12.25 9.96358 13.0797 11.9666 14.5565 13.4435C16.0334 14.9203 18.0364 15.75 20.125 15.75ZM20.125 1.75H35C36.6245 1.75 38.1824 2.39531 39.331 3.54397C40.4797 4.69263 41.125 6.25055 41.125 7.875C41.125 9.49945 40.4797 11.0574 39.331 12.206C38.1824 13.3547 36.6245 14 35 14H20.125C18.5005 14 16.9426 13.3547 15.794 12.206C14.6453 11.0574 14 9.49945 14 7.875C14 6.25055 14.6453 4.69263 15.794 3.54397C16.9426 2.39531 18.5005 1.75 20.125 1.75Z" fill="#04A391"/>
<path d="M19.25 12.25H22.75C22.9821 12.25 23.2046 12.1578 23.3687 11.9937C23.5328 11.8296 23.625 11.6071 23.625 11.375C23.625 11.1429 23.5328 10.9204 23.3687 10.7563C23.2046 10.5922 22.9821 10.5 22.75 10.5H20.125V8.75H22.75C22.9821 8.75 23.2046 8.65781 23.3687 8.49372C23.5328 8.32962 23.625 8.10706 23.625 7.875C23.625 7.64294 23.5328 7.42038 23.3687 7.25628C23.2046 7.09219 22.9821 7 22.75 7H20.125V5.25H22.75C22.9821 5.25 23.2046 5.15781 23.3687 4.99372C23.5328 4.82962 23.625 4.60706 23.625 4.375C23.625 4.14294 23.5328 3.92038 23.3687 3.75628C23.2046 3.59219 22.9821 3.5 22.75 3.5H19.25C19.0179 3.5 18.7954 3.59219 18.6313 3.75628C18.4672 3.92038 18.375 4.14294 18.375 4.375V11.375C18.375 11.6071 18.4672 11.8296 18.6313 11.9937C18.7954 12.1578 19.0179 12.25 19.25 12.25ZM26.25 12.25C26.4821 12.25 26.7046 12.1578 26.8687 11.9937C27.0328 11.8296 27.125 11.6071 27.125 11.375V9.98725L29.1314 11.9936C29.2969 12.1549 29.5189 12.2452 29.75 12.2452C29.9811 12.2452 30.2031 12.1549 30.3686 11.9936C30.5327 11.8295 30.6248 11.607 30.6248 11.375C30.6248 11.143 30.5327 10.9205 30.3686 10.7564L28.3474 8.73512C28.9727 8.66713 29.5509 8.37077 29.9712 7.90284C30.3915 7.43492 30.6243 6.82834 30.625 6.19937V6.05062C30.6242 5.37441 30.3552 4.72612 29.8771 4.24796C29.3989 3.7698 28.7506 3.50081 28.0744 3.5H26.25C26.0179 3.5 25.7954 3.59219 25.6313 3.75628C25.4672 3.92038 25.375 4.14294 25.375 4.375V11.375C25.375 11.6071 25.4672 11.8296 25.6313 11.9937C25.7954 12.1578 26.0179 12.25 26.25 12.25ZM27.125 5.25H28.0744C28.2866 5.25035 28.4901 5.33481 28.6401 5.48488C28.7902 5.63495 28.8747 5.83839 28.875 6.05062V6.19937C28.8747 6.41161 28.7902 6.61505 28.6401 6.76512C28.4901 6.91519 28.2866 6.99965 28.0744 7H27.125V5.25ZM33.25 12.25C33.4821 12.25 33.7046 12.1578 33.8687 11.9937C34.0328 11.8296 34.125 11.6071 34.125 11.375V8.75H35.0744C35.7506 8.74919 36.3989 8.4802 36.8771 8.00204C37.3552 7.52388 37.6242 6.87559 37.625 6.19937V6.05062C37.6242 5.37441 37.3552 4.72612 36.8771 4.24796C36.3989 3.7698 35.7506 3.50081 35.0744 3.5H33.25C33.0179 3.5 32.7954 3.59219 32.6313 3.75628C32.4672 3.92038 32.375 4.14294 32.375 4.375V11.375C32.375 11.6071 32.4672 11.8296 32.6313 11.9937C32.7954 12.1578 33.0179 12.25 33.25 12.25ZM34.125 5.25H35.0744C35.2866 5.25035 35.4901 5.33481 35.6401 5.48488C35.7902 5.63495 35.8747 5.83839 35.875 6.05062V6.19937C35.8747 6.41161 35.7902 6.61505 35.6401 6.76512C35.4901 6.91519 35.2866 6.99965 35.0744 7H34.125V5.25ZM15.75 30.625H14C12.3769 30.6262 10.8205 31.2711 9.67227 32.4182C8.52402 33.5654 7.87767 35.1212 7.87501 36.7443V45.5792C6.57704 45.7986 5.40885 46.4976 4.60195 47.5377C3.79504 48.5778 3.40832 49.883 3.5184 51.1948C3.62848 52.5066 4.22735 53.7291 5.19631 54.6202C6.16528 55.5112 7.43362 56.0058 8.75001 56.0058C10.0664 56.0058 11.3347 55.5112 12.3037 54.6202C13.2727 53.7291 13.8715 52.5066 13.9816 51.1948C14.0917 49.883 13.705 48.5778 12.8981 47.5377C12.0912 46.4976 10.923 45.7986 9.62501 45.5792V36.7443C9.62709 35.5852 10.0889 34.4742 10.9091 33.655C11.7292 32.8359 12.8408 32.3756 14 32.375H15.9478C15.8177 31.9792 15.751 31.5653 15.75 31.1487V30.625ZM12.25 50.75C12.25 51.4422 12.0447 52.1189 11.6602 52.6945C11.2756 53.2701 10.7289 53.7187 10.0894 53.9836C9.44986 54.2485 8.74613 54.3178 8.06719 54.1827C7.38826 54.0477 6.76462 53.7144 6.27514 53.2249C5.78565 52.7354 5.45231 52.1117 5.31726 51.4328C5.18221 50.7539 5.25152 50.0501 5.51643 49.4106C5.78134 48.7711 6.22994 48.2244 6.80551 47.8399C7.38109 47.4553 8.05778 47.25 8.75001 47.25C9.67791 47.2512 10.5675 47.6203 11.2236 48.2764C11.8797 48.9325 12.2489 49.8221 12.25 50.75ZM35.9319 27.4168C35.9141 27.3728 35.8959 27.3287 35.8772 27.2847C36.1229 27.0276 36.3126 26.7223 36.4344 26.3882C36.5563 26.0541 36.6076 25.6984 36.5851 25.3435C36.5424 24.664 36.2517 24.0238 35.7683 23.5445L35.0814 22.8576C34.5625 22.3366 33.8593 22.0411 33.124 22.0351C32.4592 22.031 31.8191 22.2869 31.3403 22.7482C31.2966 22.7296 31.2525 22.7112 31.2082 22.6931C31.1803 21.9941 30.8797 21.3338 30.3707 20.8537C29.8618 20.3737 29.1851 20.1121 28.4856 20.125H27.5144C26.815 20.1122 26.1384 20.3739 25.6296 20.8539C25.1207 21.3339 24.8202 21.9942 24.7923 22.6931C24.7479 22.7112 24.7037 22.7296 24.6597 22.7482C24.181 22.2868 23.5409 22.0309 22.876 22.0351C22.1412 22.0409 21.4383 22.3359 20.9195 22.8563L20.2313 23.5445C19.7104 24.0636 19.4153 24.7673 19.4101 25.5027C19.4065 26.167 19.6624 26.8063 20.1233 27.2847C20.1046 27.3284 20.0862 27.3725 20.0681 27.4168C19.3691 27.4448 18.7089 27.7455 18.2289 28.2544C17.7488 28.7633 17.4872 29.4399 17.5 30.1394V31.1111C17.4872 31.8105 17.7489 32.4871 18.2289 32.9959C18.7089 33.5047 19.3692 33.8053 20.0681 33.8332L20.1233 33.9653C19.8774 34.2224 19.6876 34.5276 19.5656 34.8617C19.4436 35.1958 19.3922 35.5515 19.4145 35.9065C19.4573 36.5857 19.7478 37.2257 20.2309 37.7051L20.9186 38.3932C21.4377 38.9138 22.1409 39.209 22.876 39.2149C23.5408 39.219 24.1809 38.9631 24.6597 38.5017C24.7034 38.5207 24.7476 38.5391 24.7923 38.5569C24.8202 39.2558 25.1207 39.9161 25.6296 40.3961C26.1384 40.8761 26.815 41.1378 27.5144 41.125H28.4856C29.1851 41.1379 29.8618 40.8763 30.3707 40.3963C30.8797 39.9162 31.1803 39.2559 31.2082 38.5569C31.2525 38.5388 31.2967 38.5204 31.3408 38.5017C31.8193 38.9631 32.4593 39.219 33.124 39.2149C33.8585 39.2091 34.5612 38.9145 35.0801 38.3946L35.7687 37.7059C36.2519 37.2263 36.5424 36.586 36.5851 35.9065C36.6075 35.5516 36.5562 35.1959 36.4343 34.8618C36.3125 34.5277 36.1228 34.2225 35.8772 33.9653C35.8959 33.9216 35.9141 33.8775 35.9319 33.8332C36.6309 33.8053 37.2912 33.5047 37.7713 32.9957C38.2513 32.4868 38.5129 31.8101 38.5 31.1106V30.1394C38.5129 29.4398 38.2513 28.7631 37.7713 28.2541C37.2913 27.7451 36.631 27.4448 35.9319 27.4168ZM36.75 31.1111C36.7635 31.3544 36.6803 31.5932 36.5184 31.7754C36.3565 31.9576 36.1292 32.0684 35.8859 32.0836H34.6478C34.4759 32.869 34.1654 33.6174 33.7308 34.2939L34.6076 35.1702C34.7689 35.3529 34.8514 35.5919 34.837 35.8352C34.8227 36.0785 34.7127 36.3062 34.531 36.4687L33.8441 37.156C33.68 37.3351 33.4526 37.4432 33.2101 37.4574C32.9676 37.4716 32.7291 37.3908 32.5452 37.2321L31.6684 36.3562C30.9921 36.7906 30.2438 37.101 29.4586 37.2728V38.5114C29.4433 38.7546 29.3324 38.9819 29.1501 39.1437C28.9678 39.3055 28.729 39.3886 28.4856 39.375H27.5144C27.271 39.3885 27.0322 39.3053 26.85 39.1434C26.6678 38.9815 26.557 38.7542 26.5418 38.5109V37.2728C25.7564 37.1009 25.008 36.7904 24.3316 36.3558L23.4548 37.2321C23.2703 37.3893 23.0322 37.4692 22.7903 37.455C22.5483 37.4408 22.3212 37.3337 22.1563 37.156L21.4694 36.4691C21.2875 36.3066 21.1773 36.0787 21.163 35.8352C21.1487 35.5917 21.2313 35.3525 21.3929 35.1697L22.2692 34.2939C21.8349 33.6174 21.5245 32.869 21.3526 32.0836H20.1145C19.8711 32.0685 19.6436 31.9577 19.4816 31.7754C19.3196 31.5931 19.2364 31.3541 19.25 31.1106V30.1394C19.2362 29.8958 19.3194 29.6567 19.4814 29.4743C19.6434 29.2919 19.871 29.181 20.1145 29.1659H21.3526C21.5245 28.3807 21.8348 27.6324 22.2692 26.9561L21.3929 26.0798C21.2314 25.8972 21.1488 25.6582 21.163 25.4149C21.1773 25.1715 21.2873 24.9438 21.469 24.7813L22.1559 24.094C22.3221 23.9184 22.549 23.8127 22.7904 23.7985C23.0318 23.7843 23.2696 23.8626 23.4553 24.0174L24.3316 24.8937C25.008 24.4594 25.7565 24.1491 26.5418 23.9776V22.7386C26.5571 22.4955 26.668 22.2682 26.8502 22.1064C27.0324 21.9447 27.2711 21.8615 27.5144 21.875H28.4856C28.729 21.8614 28.968 21.9445 29.1503 22.1064C29.3326 22.2683 29.4434 22.4957 29.4586 22.7391V23.9781C30.2439 24.1496 30.9922 24.4598 31.6684 24.8942L32.5452 24.0179C32.7293 23.8597 32.9676 23.7792 33.2099 23.7935C33.4522 23.8078 33.6795 23.9157 33.8437 24.0944L34.5306 24.7817C34.7124 24.9441 34.8226 25.1718 34.837 25.4151C34.8514 25.6584 34.7689 25.8976 34.6076 26.0802L33.7308 26.9566C34.1652 27.6328 34.4756 28.3812 34.6474 29.1664H35.8855C36.1289 29.1815 36.3564 29.2923 36.5184 29.4746C36.6804 29.6569 36.7637 29.8959 36.75 30.1394V31.1111Z" fill="#04A391"/>
<path d="M28 26.25C27.1347 26.25 26.2888 26.5066 25.5694 26.9873C24.8499 27.4681 24.2892 28.1513 23.958 28.9508C23.6269 29.7502 23.5403 30.6299 23.7091 31.4785C23.8779 32.3272 24.2946 33.1067 24.9064 33.7186C25.5183 34.3304 26.2978 34.7471 27.1465 34.9159C27.9951 35.0847 28.8748 34.9981 29.6742 34.667C30.4737 34.3358 31.157 33.7751 31.6377 33.0556C32.1184 32.3362 32.375 31.4903 32.375 30.625C32.375 29.4647 31.9141 28.3519 31.0936 27.5314C30.2731 26.7109 29.1603 26.25 28 26.25ZM28 33.25C27.4808 33.25 26.9733 33.096 26.5416 32.8076C26.11 32.5192 25.7735 32.1092 25.5748 31.6295C25.3761 31.1499 25.3242 30.6221 25.4254 30.1129C25.5267 29.6037 25.7767 29.136 26.1438 28.7688C26.511 28.4017 26.9787 28.1517 27.4879 28.0504C27.9971 27.9492 28.5249 28.0011 29.0045 28.1998C29.4842 28.3985 29.8942 28.7349 30.1826 29.1666C30.471 29.5983 30.625 30.1058 30.625 30.625C30.6242 31.3209 30.3474 31.9882 29.8553 32.4803C29.3632 32.9724 28.6959 33.2492 28 33.25Z" fill="#04A391"/>
</g>
<defs>
<clipPath id="clip0_1149_38368">
<rect width="56" height="56" fill="white"/>
</clipPath>
</defs>
</svg>
