<svg width="48" height="48" viewBox="0 0 48 48" fill="none" xmlns="http://www.w3.org/2000/svg">
<path d="M40.8887 21.1183C40.7146 21.1183 40.5477 21.1874 40.4246 21.3105C40.3016 21.4336 40.2324 21.6005 40.2324 21.7745V36.1762C40.2324 36.5929 39.8936 36.9318 39.477 36.9318H2.45353C2.037 36.9318 1.698 36.5929 1.698 36.1762V11.1153C1.698 10.6986 2.0369 10.3597 2.45353 10.3597H27.5968C27.7709 10.3597 27.9378 10.2906 28.0609 10.1675C28.1839 10.0445 28.2531 9.87753 28.2531 9.70348C28.2531 9.52944 28.1839 9.36252 28.0609 9.23944C27.9378 9.11637 27.7709 9.04723 27.5968 9.04723H2.45353C1.31325 9.04723 0.385498 9.97498 0.385498 11.1153V36.1761C0.385498 37.3164 1.31325 38.2442 2.45353 38.2442H16.5853V41.4541H13.3818C11.484 41.4541 9.93994 42.9981 9.93994 44.896V45.572C9.93994 45.7461 10.0091 45.913 10.1321 46.0361C10.2552 46.1592 10.4221 46.2283 10.5962 46.2283H31.3342C31.5083 46.2283 31.6752 46.1592 31.7983 46.0361C31.9214 45.913 31.9905 45.7461 31.9905 45.572V44.896C31.9905 42.9981 30.4463 41.4541 28.5485 41.4541H25.345V38.2442H39.4769C40.6171 38.2442 41.5448 37.3164 41.5448 36.1761V21.7745C41.5448 21.6004 41.4757 21.4335 41.3526 21.3104C41.2296 21.1873 41.0626 21.1182 40.8886 21.1182L40.8887 21.1183ZM30.6781 44.896V44.9158H11.2525V44.896C11.2525 43.7219 12.2077 42.7666 13.3819 42.7666H28.5486C29.7228 42.7666 30.6781 43.7218 30.6781 44.896ZM24.0326 41.4541H17.8978V38.2442H24.0326V41.4541ZM4.11009 12.7718V33.2044H37.8204V21.7745C37.8204 21.6005 37.8896 21.4336 38.0126 21.3105C38.1357 21.1874 38.3026 21.1183 38.4767 21.1183C38.6507 21.1183 38.8177 21.1874 38.9407 21.3105C39.0638 21.4336 39.1329 21.6005 39.1329 21.7745V33.8606C39.1329 34.0347 39.0638 34.2016 38.9407 34.3246C38.8177 34.4477 38.6507 34.5169 38.4767 34.5169H3.45384C3.27979 34.5169 3.11287 34.4477 2.9898 34.3246C2.86673 34.2016 2.79759 34.0347 2.79759 33.8606V12.1156C2.79759 11.9415 2.86673 11.7746 2.9898 11.6515C3.11287 11.5285 3.27979 11.4593 3.45384 11.4593H27.5968C27.7709 11.4593 27.9378 11.5285 28.0609 11.6515C28.1839 11.7746 28.2531 11.9415 28.2531 12.1156C28.2531 12.2896 28.1839 12.4565 28.0609 12.5796C27.9378 12.7027 27.7709 12.7718 27.5968 12.7718H4.11009ZM46.7606 8.78951L45.9383 8.62742L45.3665 7.24714L45.8333 6.55086C46.1141 6.13198 46.0591 5.5692 45.7025 5.21267L44.1733 3.68352C43.8167 3.32689 43.2537 3.27195 42.835 3.55283L42.1388 4.01961L40.7586 3.44773L40.5965 2.62555C40.499 2.13064 40.0621 1.77148 39.5576 1.77148H37.3951C36.8906 1.77148 36.4538 2.13064 36.3564 2.62536L36.1943 3.44764L34.814 4.01952L34.118 3.55273C33.6988 3.27158 33.136 3.3267 32.7795 3.68333L31.2504 5.21248C30.8938 5.56911 30.8388 6.13189 31.1197 6.55077L31.5864 7.24695L31.0146 8.62723L30.1924 8.78933C29.6976 8.88683 29.3384 9.3237 29.3384 9.82808V11.9906C29.3384 12.4949 29.6976 12.9319 30.1924 13.0295L31.0146 13.1915L31.5864 14.5718L31.1196 15.2681C30.8388 15.687 30.8938 16.2498 31.2504 16.6063L32.7796 18.1355C33.1361 18.4921 33.6992 18.5469 34.1178 18.2661L34.814 17.7993L36.1943 18.371L36.3563 19.1933C36.4538 19.6881 36.8907 20.0473 37.3951 20.0473H39.5576C40.0621 20.0473 40.499 19.6881 40.5964 19.1934L40.7585 18.3711L42.1387 17.7993L42.8349 18.2661C43.2538 18.547 43.8167 18.4921 44.1733 18.1355L45.7024 16.6063C46.0591 16.2496 46.1141 15.6867 45.8332 15.2679L45.3664 14.5718L45.9382 13.1915L46.7606 13.0295C47.2552 12.9319 47.6143 12.495 47.6143 11.9907V9.82817C47.6143 9.3238 47.2552 8.88692 46.7604 8.78942L46.7606 8.78951ZM46.302 11.7823L45.3397 11.972C45.2336 11.9929 45.1343 12.0396 45.0507 12.1081C44.9671 12.1766 44.9017 12.2647 44.8603 12.3646L44.0194 14.3943C43.978 14.4942 43.962 14.6027 43.9726 14.7103C43.9833 14.8179 44.0204 14.9211 44.0806 15.011L44.6271 15.8257L43.3928 17.06L42.5781 16.5135C42.4883 16.4533 42.385 16.4162 42.2774 16.4055C42.1699 16.3948 42.0613 16.4109 41.9615 16.4523L39.9318 17.2931C39.8319 17.3345 39.7438 17.3999 39.6753 17.4835C39.6067 17.5671 39.56 17.6664 39.5391 17.7725L39.3494 18.7349H37.6041L37.4142 17.7724C37.3933 17.6663 37.3465 17.5671 37.278 17.4835C37.2096 17.3998 37.1215 17.3345 37.0216 17.2931L34.992 16.4523C34.8921 16.4109 34.7836 16.3948 34.676 16.4055C34.5684 16.4161 34.4652 16.4532 34.3754 16.5135L33.5605 17.06L32.3264 15.8257L32.8729 15.011C32.9331 14.9212 32.9702 14.8179 32.9809 14.7103C32.9916 14.6027 32.9755 14.4941 32.9341 14.3943L32.0932 12.3646C32.0518 12.2647 31.9864 12.1766 31.9028 12.1081C31.8191 12.0396 31.7199 11.9928 31.6138 11.972L30.6515 11.7822V10.0368L31.6139 9.84702C31.7199 9.8261 31.8192 9.77931 31.9028 9.71082C31.9864 9.64232 32.0518 9.55424 32.0932 9.45439L32.9341 7.4247C32.9755 7.32482 32.9915 7.21626 32.9808 7.10868C32.9701 7.0011 32.9331 6.89782 32.8729 6.80802L32.3264 5.99323L33.5605 4.75902L34.3754 5.30548C34.4652 5.36572 34.5685 5.40283 34.6761 5.41351C34.7837 5.42419 34.8922 5.40811 34.9921 5.3667L37.0217 4.52577C37.1215 4.48438 37.2096 4.41898 37.2781 4.33537C37.3466 4.25177 37.3934 4.15255 37.4143 4.04652L37.6042 3.08408H39.3495L39.5392 4.04642C39.5601 4.15248 39.6069 4.25173 39.6754 4.33535C39.7439 4.41897 39.832 4.48438 39.9319 4.52577L41.9615 5.3667C42.0613 5.40809 42.1699 5.42415 42.2775 5.41347C42.3851 5.40279 42.4884 5.3657 42.5782 5.30548L43.3929 4.75902L44.6272 5.99323L44.0807 6.80802C44.0205 6.8978 43.9833 7.00108 43.9727 7.10867C43.962 7.21626 43.9781 7.32483 44.0195 7.4247L44.8604 9.45439C44.9018 9.55425 44.9671 9.64235 45.0508 9.71085C45.1344 9.77934 45.2336 9.82612 45.3397 9.84702L46.3021 10.0368V11.7822L46.302 11.7823ZM38.4766 5.90361C35.7164 5.90361 33.4707 8.1493 33.4707 10.9095C33.4707 13.6697 35.7164 15.9154 38.4766 15.9154C41.2368 15.9154 43.4825 13.6697 43.4825 10.9095C43.4825 8.1493 41.2368 5.90361 38.4766 5.90361ZM38.4766 14.6029C36.44 14.6029 34.7832 12.946 34.7832 10.9095C34.7832 8.87295 36.4401 7.21611 38.4766 7.21611C40.5131 7.21611 42.17 8.87295 42.17 10.9095C42.17 12.946 40.5131 14.6029 38.4766 14.6029ZM27.216 19.7139L27.6142 19.1202C27.8837 18.7178 27.8309 18.1774 27.4884 17.835L26.1181 16.4645C25.7755 16.1223 25.2348 16.0695 24.8328 16.3392L24.2392 16.7372L23.07 16.2528L22.9317 15.5516C22.838 15.0764 22.4183 14.7315 21.934 14.7315H19.9961C19.5118 14.7315 19.0922 15.0764 18.9984 15.5517L18.8602 16.2528L17.6909 16.7372L17.0973 16.3391C16.695 16.0695 16.1543 16.1224 15.8119 16.4647L14.4418 17.835C14.0993 18.1775 14.0465 18.7179 14.3162 19.1204L14.7142 19.7139L14.2297 20.8832L13.529 21.0214C13.0537 21.115 12.7086 21.5345 12.7086 22.019V22.3317H9.73669V19.8491C9.98558 19.7561 10.2116 19.6108 10.3996 19.423C11.1271 18.6956 11.1271 17.5119 10.3996 16.7845C10.0472 16.4321 9.57872 16.238 9.08034 16.238C8.58197 16.238 8.11359 16.4321 7.76119 16.7845C7.03369 17.5119 7.03369 18.6956 7.76119 19.423C7.94914 19.6108 8.1752 19.7561 8.42409 19.8491V22.988C8.42409 23.162 8.49323 23.3289 8.6163 23.452C8.73937 23.5751 8.90629 23.6442 9.08034 23.6442H12.7085V23.9569C12.7085 24.4414 13.0535 24.861 13.5287 24.9546L14.2297 25.0928L14.7141 26.2621L14.316 26.8557C14.0464 27.258 14.0992 27.7985 14.4416 28.141L15.8118 29.5112C16.1543 29.8539 16.6952 29.9066 17.0973 29.6367L17.6908 29.2387L18.8601 29.7231L18.9983 30.4243C19.0921 30.8995 19.5117 31.2444 19.996 31.2444H21.9339C22.4182 31.2444 22.8379 30.8995 22.9316 30.4242L23.0699 29.7232L24.2392 29.2388L24.8325 29.6367C25.2346 29.9066 25.7754 29.8539 26.1182 29.5114L27.4882 28.1411C27.8309 27.7985 27.8837 27.2578 27.6139 26.8556L27.2159 26.2622L27.7003 25.0929L28.4013 24.9547C28.8765 24.8611 29.2215 24.4415 29.2215 23.957V23.6443H32.1933V26.1277C31.9443 26.2203 31.7183 26.3653 31.5304 26.553C30.8029 27.2804 30.8029 28.4641 31.5304 29.1916C31.8941 29.5552 32.3719 29.7371 32.8495 29.7371C33.3272 29.7371 33.8051 29.5553 34.1689 29.1916C34.8963 28.4642 34.8963 27.2805 34.1689 26.5531C33.9809 26.3654 33.7548 26.2204 33.5059 26.1278V22.9881C33.5059 22.8141 33.4367 22.6472 33.3137 22.5241C33.1906 22.401 33.0237 22.3319 32.8496 22.3319H29.2216V22.0192C29.2216 21.5348 28.8766 21.1152 28.4014 21.0215L27.7004 20.8834L27.216 19.7141V19.7139ZM8.6895 17.7126C8.79403 17.6081 8.93297 17.5505 9.08072 17.5505C9.22847 17.5505 9.3674 17.6081 9.47194 17.7126C9.57554 17.8165 9.63373 17.9572 9.63373 18.1039C9.63373 18.2505 9.57554 18.3912 9.47194 18.4951C9.36759 18.5995 9.22856 18.6571 9.08081 18.6571C8.93306 18.6571 8.79412 18.5995 8.68959 18.4951C8.58599 18.3913 8.5278 18.2506 8.5278 18.1039C8.5278 17.9572 8.58599 17.8166 8.68959 17.7127L8.6895 17.7126ZM33.2409 28.2635C33.1371 28.3671 32.9964 28.4252 32.8497 28.4252C32.703 28.4252 32.5623 28.3671 32.4585 28.2635C32.3548 28.1596 32.2966 28.0189 32.2966 27.8722C32.2966 27.7255 32.3548 27.5848 32.4585 27.481C32.5663 27.3732 32.7081 27.3192 32.8498 27.3192C32.9916 27.3192 33.133 27.3731 33.241 27.481C33.3446 27.5849 33.4028 27.7255 33.4028 27.8722C33.4028 28.0189 33.3446 28.1596 33.241 28.2635H33.2409ZM27.9091 23.714L27.1018 23.8732C26.9958 23.8941 26.8965 23.9409 26.8129 24.0094C26.7293 24.0779 26.6638 24.166 26.6225 24.2659L25.869 26.0845C25.8276 26.1844 25.8116 26.293 25.8223 26.4005C25.8329 26.5081 25.87 26.6114 25.9302 26.7012L26.3887 27.3848L25.3621 28.4115L24.6785 27.953C24.5887 27.8928 24.4854 27.8557 24.3778 27.845C24.2702 27.8343 24.1617 27.8504 24.0618 27.8918L22.2431 28.6454C22.1433 28.6868 22.0552 28.7522 21.9867 28.8358C21.9182 28.9194 21.8714 29.0187 21.8505 29.1247L21.6913 29.9321H20.2394L20.0803 29.1247C20.0594 29.0187 20.0126 28.9194 19.9441 28.8358C19.8756 28.7522 19.7875 28.6868 19.6876 28.6454L17.8689 27.8919C17.7691 27.8505 17.6605 27.8344 17.553 27.8451C17.4454 27.8558 17.3421 27.8929 17.2523 27.9531L16.5687 28.4116L15.5422 27.3849L16.0006 26.7013C16.0608 26.6115 16.0979 26.5082 16.1086 26.4006C16.1193 26.293 16.1032 26.1845 16.0618 26.0846L15.3083 24.266C15.267 24.1661 15.2016 24.078 15.1179 24.0095C15.0343 23.941 14.9351 23.8942 14.829 23.8733L14.0217 23.7141V22.2622L14.8291 22.103C14.9351 22.0821 15.0344 22.0353 15.118 21.9668C15.2016 21.8984 15.267 21.8103 15.3083 21.7104L16.0618 19.8918C16.1032 19.7919 16.1192 19.6833 16.1085 19.5757C16.0979 19.4682 16.0608 19.3649 16.0006 19.2751L15.5422 18.5915L16.5687 17.5648L17.2523 18.0232C17.3421 18.0835 17.4454 18.1206 17.553 18.1313C17.6605 18.1419 17.7691 18.1259 17.8689 18.0845L19.6876 17.331C19.7875 17.2896 19.8756 17.2242 19.9441 17.1406C20.0126 17.057 20.0594 16.9577 20.0803 16.8516L20.2394 16.0443H21.6913L21.8505 16.8516C21.8714 16.9577 21.9182 17.0569 21.9867 17.1406C22.0552 17.2242 22.1433 17.2896 22.2431 17.331L24.0618 18.0845C24.1616 18.1258 24.2702 18.1419 24.3778 18.1312C24.4853 18.1205 24.5886 18.0834 24.6784 18.0232L25.362 17.5648L26.3886 18.5915L25.9301 19.2751C25.8699 19.3649 25.8328 19.4681 25.8221 19.5757C25.8114 19.6833 25.8275 19.7919 25.8689 19.8918L26.6224 21.7104C26.6637 21.8103 26.7291 21.8984 26.8128 21.9669C26.8964 22.0354 26.9957 22.0822 27.1017 22.103L27.909 22.2622V23.7141L27.9091 23.714ZM20.9652 18.4343C18.4543 18.4343 16.4115 20.4771 16.4115 22.9881C16.4115 25.4991 18.4543 27.542 20.9652 27.542C23.4761 27.542 25.519 25.4991 25.519 22.9881C25.519 20.4771 23.4762 18.4343 20.9652 18.4343ZM20.9652 26.2294C19.1781 26.2294 17.724 24.7753 17.724 22.988C17.724 21.2008 19.1781 19.7467 20.9652 19.7467C22.7524 19.7467 24.2065 21.2008 24.2065 22.988C24.2065 24.7753 22.7525 26.2294 20.9652 26.2294Z" fill="#04A391"/>
</svg>
