<svg width="1440" height="788" viewBox="0 0 1440 788" fill="none" xmlns="http://www.w3.org/2000/svg">
<g clip-path="url(#clip0_1368_1873)">
<g clip-path="url(#clip1_1368_1873)">
<path d="M1354.98 220.062C1356 221.54 1356.39 222.415 1356.83 224.158C1355.72 233.957 1347.87 249.549 1344.09 258.856C1316.86 325.877 1280.28 390.788 1229.84 438.047L1220.48 442.219C1225.51 435.594 1232.5 429.946 1238.3 424.093C1246.57 415.598 1254.46 406.678 1261.96 397.356C1296.29 354.735 1321.81 304.37 1343.21 251.882C1347.23 242.045 1353.06 230.769 1354.98 220.062Z" fill="#071F1C"/>
<path d="M-47.8643 -175.724L-44.4882 -177.227C7.76448 -145.195 58.8597 -108.184 109.094 -71.9627C200.994 -5.13938 292.003 63.3374 382.077 133.436L513.167 234.988C552.065 265.108 590.711 295.655 630.802 323.615C766.479 418.234 939.96 509.745 1091.73 464.579C1201.37 431.951 1273.95 336.805 1320.33 227.933C1323.82 219.758 1338.1 188.384 1338.05 182.049C1339.41 184.037 1339.79 184.514 1340.12 186.846C1334.92 206.408 1320.53 236.672 1311.74 255.119C1262.83 357.71 1189.48 444.897 1081.88 471.423C933.659 507.969 768.499 423.362 636.356 331.86C591.097 300.518 547.597 265.919 503.748 232.007L317.717 88.1692C198.556 -4.77468 76.5981 -92.809 -47.8643 -175.724Z" fill="#071F1C"/>
<path d="M-37.5859 -180.302L-34.2142 -181.803C18.6211 -147.709 70.7866 -112.176 122.228 -75.24C201.694 -18.1691 280.519 40.1119 358.676 99.5839L498.438 205.571C541.518 238.292 584.354 271.325 628.955 301.207C760.571 389.383 923.533 467.986 1068.54 427.378C1180.68 395.971 1254.34 300.156 1302.9 190.588C1309.08 176.638 1317.3 159.656 1321.41 144.831C1322.2 146.219 1323.09 147.399 1323.23 148.991C1321.96 155.144 1318.69 161.611 1316.4 167.337C1306.67 191.689 1295.74 215.321 1283.66 238.138C1231.78 335.944 1155.23 415.312 1048.87 436.306C911.15 463.494 760.724 392.787 636.662 310.631C582.397 274.695 530.436 234.273 478.189 194.528L277.571 42.8077C208.772 -8.85932 139.276 -59.2582 69.116 -108.365C48.0463 -122.997 26.8633 -137.403 5.57043 -151.579C-8.80053 -161.087 -23.5476 -170.137 -37.5859 -180.302Z" fill="#071F1C"/>
<path d="M-27.1719 -184.939L-23.513 -186.569C3.80667 -168.108 31.6084 -150.675 58.8537 -132.038C142.844 -74.339 225.991 -14.9608 308.249 46.0627L479.48 173.16C523.752 206.032 567.685 239.328 613.442 269.32C740.659 352.688 896.514 425.946 1036.67 392.416C1147.71 365.859 1225.24 278.183 1276.35 172.595C1284.46 155.901 1292.02 138.846 1299.03 121.459C1300.83 116.921 1303.46 111.712 1304.49 106.865C1305.28 108.246 1306.16 109.408 1306.3 110.994C1305.81 121.734 1271.41 190.407 1264.76 202.577C1210.27 302.203 1131.4 379.553 1021.93 399.508C881.729 425.068 728.771 350.454 603.261 266.922C554.479 234.462 507.411 198.238 460.097 162.973L261.323 15.8421C197.95 -30.6256 134.021 -76.0542 69.5624 -120.427C49.6441 -134.07 29.6015 -147.46 9.43918 -160.594C-2.74795 -168.576 -15.3851 -176.172 -27.1719 -184.939Z" fill="#071F1C"/>
<path d="M-16.4258 -189.726L-13.2786 -191.128C32.4027 -162.27 77.5932 -132.325 122.257 -101.317C199.963 -47.497 277.128 7.39416 353.73 63.3416L471.053 148.578C513.764 179.629 556.316 211.049 600.499 239.168C731.374 322.47 889.405 391.855 1030.77 350.659C1149.08 316.181 1226.38 212.89 1276.76 96.1778C1280.53 87.3448 1284.26 78.4804 1287.93 69.5852L1289.51 73.0115C1289.33 77.8092 1285.33 84.5469 1283.54 88.7888C1269.41 122.2 1253.78 154.3 1235.35 184.717C1178.21 279.006 1095.59 349.456 987.808 363.826C861.095 380.708 725.262 321.883 610.078 249.49C555.253 215.029 502.752 175.881 449.914 137.449L242.641 -12.5214C186.051 -53.0388 129.034 -92.7319 71.6064 -131.589C52.8232 -144.222 33.9499 -156.666 14.9889 -168.92C4.60644 -175.657 -6.68063 -181.859 -16.4258 -189.726Z" fill="#071F1C"/>
<path d="M-5.68945 -194.508L-2.23451 -196.046C118.471 -121.495 235.481 -37.153 352.27 45.5568L475.498 133.01C512.416 159.179 549.25 185.47 587.455 208.983C717.265 288.879 871.981 353.421 1010.72 312.663C1132.14 276.991 1211.36 170.903 1262.95 51.0235C1265.65 44.7545 1268.96 38.2524 1271.01 31.6514C1271.79 33.0499 1272.68 34.2468 1272.82 35.8432C1271.41 44.6161 1254.74 77.767 1249.63 88.2444C1195.56 199.271 1114.13 292.76 996.985 320.482C859.355 353.05 708.668 288.891 581.633 209.547C538.909 182.866 497.709 152.99 456.3 123.619L301.4 13.7594C235.392 -33.0668 168.94 -79.0271 102.059 -124.11C66.3609 -148.002 29.8347 -170.338 -5.68945 -194.508Z" fill="#071F1C"/>
<path d="M5.62988 -199.549L9.12174 -201.104C123.456 -130.991 234.828 -52.8693 345.943 24.1047L465.974 107.207C500.829 131.25 535.622 155.403 571.614 177.01C701.319 254.871 853.967 315.363 991.357 274.474C1116.45 237.244 1197.55 126.903 1250.4 3.0668C1251.71 -0.0074831 1252.95 -3.11723 1254.14 -6.26062C1254.9 -4.87647 1255.75 -3.73023 1255.88 -2.15372C1255.44 6.19536 1229.78 55.7923 1224.01 66.6532C1166.25 175.189 1081.83 262.253 963.65 285.393C831.951 311.179 689.476 252.798 567.699 178.814C523.026 151.676 479.901 121.092 436.58 91.0829L267.523 -25.8623C208.629 -66.4659 149.379 -106.349 89.7851 -145.502C72.1492 -157.056 54.4256 -168.422 36.6171 -179.595C26.3005 -186.11 15.587 -192.302 5.62988 -199.549Z" fill="#071F1C"/>
<path d="M17.0322 -204.627L20.635 -206.232C63.5402 -180.859 105.685 -153.048 147.667 -125.564C218.555 -78.992 289.166 -31.8303 359.493 15.917C424.415 59.6588 489.039 105.928 555.942 145.188C687.333 222.285 840.079 278.389 977.403 234.557C1105.53 193.659 1181.7 82.5709 1237.52 -43.587L1239.09 -40.1496C1239.11 -36.3918 1235.64 -30.3402 1234.15 -27.0873C1176.42 98.8488 1094.52 208.018 963.741 242.838C833.376 277.548 689.51 226.369 565.423 154.924C519.581 128.53 475.488 98.3343 431.209 68.4682L308.172 -14.5573C241.97 -59.3877 175.418 -103.492 108.525 -146.864C78.1736 -166.442 47.3628 -185.035 17.0322 -204.627Z" fill="#071F1C"/>
<path d="M29.2812 -210.083L32.7589 -211.632C135.088 -148.776 236.507 -83.8246 336.957 -16.8162L440.827 51.2621C477.769 75.3819 514.578 99.2994 552.773 120.518C679.675 191.016 823.901 237.914 954.712 197.493C1061.06 164.63 1139.66 77.956 1193.11 -23.9023C1202.66 -42.1006 1212.52 -60.8508 1220.15 -80.3103C1220.3 -80.7228 1220.46 -81.1476 1220.6 -81.575C1221.38 -80.1913 1222.29 -78.9752 1222.44 -77.3958C1221.29 -72.9854 1218.7 -68.3856 1216.85 -64.2817C1160.87 59.8228 1073.05 169.567 945.715 204.352C818.867 239.003 680.34 194.516 557.817 127.464C516.369 104.775 476.529 78.756 436.555 52.6266L312.74 -28.627C253.148 -67.9043 193.337 -106.712 133.311 -145.048C98.7521 -166.99 63.7821 -188.031 29.2812 -210.083Z" fill="#071F1C"/>
<path d="M41.917 -215.71L45.293 -217.214C78.8868 -197.296 112.29 -176.917 145.494 -156.081C213.246 -113.654 280.824 -70.833 348.225 -27.62C405.581 8.93707 462.811 47.438 521.745 80.2049C653.791 153.627 803.745 202.717 939.359 158.087C1037.01 125.953 1109.28 50.8375 1163.36 -39.9875C1177.78 -64.2059 1192.48 -90.6528 1203.14 -117.418C1203.43 -118.118 1203.57 -118.583 1203.71 -119.359C1204.5 -117.997 1205.38 -116.889 1205.52 -115.312C1203.63 -105.893 1192.71 -86.877 1188.12 -77.8969C1126.47 42.9055 1036.1 143.24 906.414 171.261C784.634 197.575 652.449 155.128 535.835 92.1236C492.183 68.5434 450.144 41.372 407.869 14.5142L267.684 -74.9004C217.949 -106.64 168.053 -138.018 117.998 -169.033C93.3769 -184.249 65.5485 -199.074 41.917 -215.71Z" fill="#071F1C"/>
<path d="M54.75 -221.426L58.5141 -223.102C150.137 -168.57 241.305 -112.941 332.001 -56.2262C386.298 -22.6948 440.491 12.7927 496.017 43.2438C628.79 116.042 778.411 165.089 914.884 121.738C1016.26 89.5373 1091.41 12.7281 1147.66 -81.0133C1161.49 -104.06 1176.54 -130.494 1186.85 -155.784C1186.96 -156.065 1187.06 -156.36 1187.16 -156.646L1188.73 -153.25C1188.71 -151.244 1187.28 -148.772 1186.53 -147.036C1179.07 -129.915 1169.95 -113.477 1161.1 -97.3138C1103.7 7.40088 1019.92 95.6573 908.528 127.664C776.742 165.531 634.188 121.717 505.919 52.7774C476.637 37.0399 448.073 19.4139 419.504 1.89283L309.192 -66.2791L145.33 -167.068C115.217 -185.326 84.669 -202.739 54.75 -221.426Z" fill="#071F1C"/>
<path d="M68.2383 -227.433L71.637 -228.947C100.662 -214.293 129.164 -195.88 157.469 -179.199L364.813 -55.3479C406.363 -30.5773 447.826 -4.6805 490.426 17.3608C629.112 89.1306 783.043 130.647 920.111 74.7077C1016.09 35.5382 1089.08 -44.7355 1141.64 -138.618C1150.78 -154.927 1163.47 -175.711 1169.93 -193.421C1170.13 -193.942 1170.14 -194.074 1170.25 -194.559L1171.91 -191.258C1171.99 -189.787 1171.23 -188.459 1170.72 -187.212C1162.08 -166.186 1149.98 -145.733 1138.78 -126.446C1081.53 -27.88 1000.85 54.6329 895.338 87.7772C766.201 128.344 624.886 90.3147 496.971 24.7516C436.416 -6.2808 377.578 -43.6302 318.622 -78.9043C235.435 -129.081 151.972 -178.592 68.2383 -227.433Z" fill="#071F1C"/>
<path d="M82.6533 -233.853L85.954 -235.323C117.369 -219.059 148.234 -200.354 179.105 -182.606L357.324 -79.4885C402.617 -53.3872 447.858 -26.6398 494.529 -4.3885C625.055 57.8578 768.331 88.7776 895.516 38.6868C1014.12 -8.02218 1095.66 -113.145 1153.67 -231.876L1155.2 -228.448C1155.2 -227.734 1155.12 -227.257 1154.85 -226.637C1144.28 -202.303 1130.22 -178.706 1116.6 -156.566C1055.3 -56.9357 971.376 23.7429 861.441 54.1064C739.045 87.9098 605.779 54.1649 484.582 -5.11075C452.925 -20.5988 422.118 -38.3069 391.255 -55.9897L287.336 -115.911L155.482 -192.114C131.284 -205.962 106.322 -218.792 82.6533 -233.853Z" fill="#071F1C"/>
<path d="M97.4365 -240.437L101.163 -242.097L325.97 -117.149C373.23 -90.8951 420.465 -63.4956 468.906 -40.7114C598.655 20.3259 738.959 50.3088 866.193 4.28533C967.452 -32.3422 1044.96 -111.978 1102.57 -206.965C1112.94 -224.075 1129.18 -250.196 1136.49 -268.865C1136.6 -269.152 1136.68 -269.455 1136.78 -269.75C1137.56 -268.399 1138.44 -267.265 1138.6 -265.709C1126.79 -239.125 1111.51 -213.627 1096.13 -189.696C1036.91 -97.5496 957.799 -20.8755 856.236 11.8199C731.946 51.8316 596.67 23.1747 470.936 -35.619C413.618 -62.4219 357.615 -95.3014 301.804 -126.51L174.167 -197.803C148.614 -211.972 122.708 -225.562 97.4365 -240.437Z" fill="#071F1C"/>
<path d="M113.482 -247.584L116.682 -249.009C190.512 -211.263 263.391 -170.357 336.802 -131.361C376.115 -110.482 415.326 -88.9752 455.58 -71.0129C591.832 -10.2159 730.37 13.1446 860.845 -39.2376C946.487 -73.6201 1016.91 -142.175 1069.82 -221.041C1088.23 -248.479 1104.45 -277.518 1120.23 -307.032L1121.62 -303.631C1121.35 -301.85 1120.68 -300.48 1119.94 -298.941C1107.49 -272.863 1092.03 -248.01 1076.4 -224.366C1009.61 -123.348 920.594 -45.6235 805.752 -17.1754C696.495 9.88939 576.065 -14.5607 466.573 -62.1464C400.14 -91.0185 335.303 -127.937 270.718 -162.672L168.951 -217.296C150.703 -227.043 130.9 -235.969 113.482 -247.584Z" fill="#071F1C"/>
</g>
</g>
<defs>
<clipPath id="clip0_1368_1873">
<rect width="1440" height="788" fill="white"/>
</clipPath>
<clipPath id="clip1_1368_1873">
<rect width="1593.44" height="1080.52" fill="white" transform="translate(-479 16.2896) rotate(-24.007)"/>
</clipPath>
</defs>
</svg>
