<svg width="64" height="64" viewBox="0 0 64 64" fill="none" xmlns="http://www.w3.org/2000/svg">
<rect width="64" height="64" rx="32" fill="#FEDCDC"/>
<mask id="mask0_1604_3958" style="mask-type:alpha" maskUnits="userSpaceOnUse" x="14" y="14" width="31" height="31">
<rect x="14.7998" y="14.8008" width="29.6" height="29.6" fill="#D9D9D9"/>
</mask>
<g mask="url(#mask0_1604_3958)">
<path d="M26.811 42.5318C26.2195 42.5318 25.7143 42.3225 25.2954 41.9038C24.8767 41.4849 24.6674 40.9797 24.6674 40.3881V24.7985H23.0674V23.0651H28.8007V21.6191H35.2007V23.0651H40.934V24.7985H39.334V40.3738C39.334 40.9903 39.1268 41.504 38.7124 41.9151C38.2979 42.3263 37.7906 42.5318 37.1904 42.5318H26.811ZM37.6007 24.7985H26.4007V40.3881C26.4007 40.5079 26.4392 40.6063 26.516 40.6831C26.5929 40.76 26.6913 40.7985 26.811 40.7985H37.1904C37.293 40.7985 37.387 40.7557 37.4724 40.6701C37.5579 40.5848 37.6007 40.4908 37.6007 40.3881V24.7985ZM29.3394 38.3985H31.0724V27.1985H29.3394V38.3985ZM32.929 38.3985H34.662V27.1985H32.929V38.3985Z" fill="#E15E5E"/>
</g>
</svg>
