<svg width="207" height="47" viewBox="0 0 207 47" fill="none" xmlns="http://www.w3.org/2000/svg">
<g clip-path="url(#clip0_1149_37655)">
<path fill-rule="evenodd" clip-rule="evenodd" d="M53.7411 13.6727C53.7411 11.7514 52.4585 10.0029 49.0452 9.07469C48.6322 8.96678 46.5888 8.38394 46.1973 8.27604C43.3493 7.47731 41.7405 6.74333 41.7405 5.10278C41.7405 3.37584 43.458 2.03751 46.7844 2.03751C49.0454 2.03751 50.7847 2.90077 51.9586 4.19615L53.1326 3.05198C51.6543 1.51934 49.415 0.591125 46.7627 0.591125C42.0668 0.591125 40.1537 2.90091 40.1537 5.18911C40.1537 7.6068 42.0668 8.70774 45.3061 9.63595C45.6975 9.74393 48.1324 10.4131 48.5237 10.521C50.9585 11.1902 52.1543 12.3777 52.1543 13.8022C52.1543 15.7666 50.1759 17.0618 46.8932 17.0618C44.6539 17.0618 42.893 16.3493 41.0451 14.6656L39.8057 15.8529C41.5231 17.6447 44.3059 18.5081 46.9799 18.5081C52.0236 18.5081 53.7411 15.9825 53.7411 13.6727ZM68.2642 11.4925C68.2642 14.5793 66.8946 17.105 63.5248 17.105C60.1769 17.105 58.7855 14.5577 58.7855 11.4925C58.7855 8.40553 60.1334 5.87986 63.5248 5.87986C66.8728 5.87986 68.2642 8.40553 68.2642 11.4925ZM69.7207 11.4925C69.7207 7.34775 67.6554 4.47671 63.5031 4.47671C59.3942 4.47671 57.3289 7.39085 57.3289 11.4925C57.3289 15.6155 59.3942 18.5082 63.5251 18.5082C67.612 18.5081 69.7207 15.5936 69.7207 11.4925ZM75.6133 0.159424H74.1781V18.2922H75.6133V0.159424ZM95.7226 4.69259L92.7011 15.0327L92.3968 16.63H92.3313L92.0056 15.0327L88.853 4.69259H87.5924L84.4618 15.0327L84.1569 16.63H84.092L83.7656 15.0327L80.7655 4.69259H79.2006L83.2226 18.2924H84.9179L87.8746 8.55673L88.2223 6.78663H88.2658L88.6136 8.55673L91.5054 18.2924H93.2007L97.2448 4.69259H95.7226ZM110.529 4.69259L106.616 15.0113L105.963 16.8893H105.919L105.289 15.0113L100.854 4.69259H99.2023L105.246 18.2924C104.463 20.2999 103.485 21.552 102.115 21.552C101.415 21.5568 100.721 21.4248 100.072 21.1635V22.4802C100.702 22.7825 101.441 22.9336 102.376 22.9336C103.941 22.9336 105.354 21.7894 106.137 19.8467L112.181 4.6928H110.529V4.69259ZM126.248 16.9538H116.769V16.9107L117.964 15.745L126.182 5.83669V4.71418H115.269V6.05258H124.487V6.09574L123.356 7.1751L115.116 17.105V18.2922H126.248V16.9538ZM53.2845 24.7866H39.1533V26.2329H45.5667L45.458 26.384V42.2722H46.9798V26.384L46.8711 26.2329H53.2844V24.7866H53.2845ZM55.6113 34.8028L55.7635 34.6521C56.1113 31.7163 57.6549 29.8598 60.5245 29.8598C63.3073 29.8598 64.9377 31.7165 65.1551 34.6521L65.3074 34.8028H55.6113ZM66.6553 35.5799C66.6553 31.4137 64.6552 28.4564 60.5028 28.4564C56.5679 28.4564 54.2634 31.3705 54.2634 35.5799C54.2634 39.5735 56.2635 42.4877 60.6114 42.4877C62.5245 42.4877 64.1551 41.8616 65.3942 40.696L64.3725 39.6598C63.3724 40.5665 62.0898 41.0846 60.6114 41.0846C57.7203 41.0846 56.1112 39.4871 55.7416 36.2707L55.5898 36.1412H66.6335C66.653 35.9548 66.6602 35.7673 66.6553 35.5799ZM80.2432 39.6598C79.2654 40.6312 78.0697 41.0846 76.591 41.0846C73.1562 41.0846 71.8086 38.4942 71.8086 35.5799C71.8086 32.5578 73.3521 29.9026 76.6345 29.8591C78.0476 29.8591 79.2654 30.3125 80.0914 31.0896L81.1133 30.0102C80.1348 29.0604 78.6562 28.456 76.6131 28.456C72.6345 28.456 70.352 31.4997 70.352 35.5796C70.352 39.5732 72.3516 42.4874 76.591 42.4874C78.5044 42.4874 80.0914 41.9045 81.2651 40.6956L80.2432 39.6598ZM96.6576 33.486C96.6576 30.4852 95.0492 28.4564 91.3536 28.4564C89.3746 28.4564 87.6793 29.3196 86.6795 30.7447H86.636V24.139H85.1794V42.2718H86.636V34.0905C86.636 31.2626 88.7012 29.8594 91.1141 29.8594C94.4406 29.8594 95.201 31.6296 95.201 33.8098V42.2718H96.6576V33.486ZM113.247 33.5292C113.247 30.2696 111.398 28.4564 107.92 28.4564C106.007 28.4564 104.224 29.2982 103.268 30.7661H103.224V28.6722H101.768V42.272H103.224V34.1552C103.224 31.2845 105.289 29.8594 107.702 29.8594C111.029 29.8594 111.79 31.608 111.79 33.9609V42.2716H113.247V33.5292ZM128.53 35.472C128.53 38.5589 127.16 41.0846 123.791 41.0846C120.443 41.0846 119.052 38.5373 119.052 35.472C119.052 32.3851 120.399 29.8594 123.791 29.8594C127.139 29.8594 128.53 32.3851 128.53 35.472ZM129.987 35.472C129.987 31.3273 127.921 28.4563 123.769 28.4563C119.66 28.4563 117.595 31.3704 117.595 35.472C117.595 39.5951 119.66 42.4878 123.791 42.4878C127.878 42.4877 129.987 39.5732 129.987 35.472ZM135.879 24.139H134.444V42.2718H135.879V24.139ZM151.271 35.472C151.271 38.5589 149.901 41.0846 146.532 41.0846C143.184 41.0846 141.793 38.5373 141.793 35.472C141.793 32.3851 143.141 29.8594 146.532 29.8594C149.88 29.8594 151.271 32.3851 151.271 35.472ZM152.728 35.472C152.728 31.3273 150.663 28.4563 146.51 28.4563C142.401 28.4563 140.336 31.3704 140.336 35.472C140.336 39.5951 142.401 42.4878 146.532 42.4878C150.619 42.4877 152.728 39.5732 152.728 35.472ZM167.273 34.7812C167.273 37.5659 165.794 39.6383 162.468 39.6383C159.424 39.6383 157.881 37.6738 157.881 34.7812C157.881 32.0182 159.337 29.8594 162.468 29.8594C165.577 29.8594 167.273 31.9102 167.273 34.7812ZM167.099 28.6938V30.7445H167.056C166.185 29.3194 164.468 28.4562 162.381 28.4562C158.468 28.4562 156.424 31.284 156.424 34.781C156.424 38.5587 158.381 41.0196 162.403 41.0196C164.425 41.0196 165.968 40.1993 167.056 38.7313H167.099V41.1703C167.099 43.9334 165.533 45.5524 162.62 45.5524C161.186 45.5524 159.599 45.0343 158.49 44.214L157.446 45.2718C158.925 46.3728 160.62 46.9124 162.62 46.9124C166.686 46.9124 168.556 44.8401 168.556 41.1703V28.6938H167.099ZM175.23 28.6938H173.773V42.2718H175.23V28.6938ZM175.6 25.2399C175.6 24.4628 175.23 24.0095 174.513 24.0095C173.817 24.0095 173.426 24.4628 173.426 25.2399C173.426 26.017 173.817 26.4704 174.513 26.4704C175.209 26.4704 175.6 26.017 175.6 25.2399ZM181.035 34.8028L181.187 34.6521C181.535 31.7163 183.079 29.8598 185.948 29.8598C188.731 29.8598 190.362 31.7165 190.579 34.6521L190.732 34.8028H181.035ZM192.079 35.5799C192.079 31.4137 190.079 28.4564 185.926 28.4564C181.992 28.4564 179.687 31.3705 179.687 35.5799C179.687 39.5735 181.687 42.4877 186.035 42.4877C187.949 42.4877 189.579 41.8616 190.818 40.696L189.797 39.6598C188.796 40.5665 187.513 41.0846 186.035 41.0846C183.144 41.0846 181.535 39.4871 181.165 36.2707L181.014 36.1412H192.057C192.077 35.9548 192.084 35.7673 192.079 35.5799ZM206.58 38.6668C206.58 37.0263 205.646 35.8174 202.993 35.0619C202.689 34.9755 201.08 34.4574 200.797 34.3711C198.624 33.7667 197.58 33.1623 197.58 32.0613C197.58 30.8741 198.819 29.8594 201.211 29.8594C202.863 29.8594 204.124 30.5071 205.08 31.5864L206.189 30.5071C204.928 29.1687 203.211 28.4564 201.211 28.4564C197.623 28.4564 196.102 30.2696 196.102 32.1261C196.102 34.0905 197.645 34.9968 200.058 35.7093C200.363 35.7957 202.21 36.357 202.493 36.4218C204.407 36.9615 205.102 37.6307 205.102 38.7532C205.102 40.1131 203.754 41.1061 201.297 41.1061C199.667 41.1061 198.384 40.5665 196.906 39.2065L195.775 40.329C197.232 41.8401 199.341 42.5093 201.363 42.5093C205.21 42.5093 206.58 40.5449 206.58 38.6668Z" fill="white"/>
<path fill-rule="evenodd" clip-rule="evenodd" d="M14.4756 24.367L20.5937 18.292L26.7119 24.367L20.5937 30.442L14.4756 24.367Z" fill="#05C2AE"/>
<path fill-rule="evenodd" clip-rule="evenodd" d="M6.31434 30.4627L12.4208 24.3984L18.5273 30.4627L12.4208 36.527L6.31434 30.4627Z" fill="url(#paint0_linear_1149_37655)"/>
<path fill-rule="evenodd" clip-rule="evenodd" d="M0.243053 36.4918L6.34955 30.4275L12.4561 36.4918L6.34955 42.5561L0.243053 36.4918Z" fill="url(#paint1_linear_1149_37655)"/>
<path fill-rule="evenodd" clip-rule="evenodd" d="M12.3945 24.3551L6.28711 18.2917L12.3945 12.2283L18.5019 18.2917L12.3945 24.3551Z" fill="url(#paint2_linear_1149_37655)"/>
<path fill-rule="evenodd" clip-rule="evenodd" d="M6.32224 18.326L0.214844 12.2626L6.32224 6.19922L12.4296 12.2626L6.32224 18.326Z" fill="url(#paint3_linear_1149_37655)"/>
<path fill-rule="evenodd" clip-rule="evenodd" d="M12.3945 12.2967L6.28711 6.23333L12.3945 0.169922L18.5019 6.23333L12.3945 12.2967Z" fill="url(#paint4_linear_1149_37655)"/>
</g>
<defs>
<linearGradient id="paint0_linear_1149_37655" x1="12.4208" y1="36.527" x2="12.4208" y2="24.3984" gradientUnits="userSpaceOnUse">
<stop offset="0.225962" stop-color="#05C2AE"/>
<stop offset="0.524038" stop-color="#05C2AE"/>
<stop offset="0.913462" stop-color="#00413A"/>
</linearGradient>
<linearGradient id="paint1_linear_1149_37655" x1="6.34955" y1="42.5561" x2="6.34955" y2="30.4275" gradientUnits="userSpaceOnUse">
<stop offset="0.225962" stop-color="#05C2AE"/>
<stop offset="0.524038" stop-color="#05C2AE"/>
<stop offset="0.913462" stop-color="#00413A"/>
</linearGradient>
<linearGradient id="paint2_linear_1149_37655" x1="18.5019" y1="18.2917" x2="6.28711" y2="18.2917" gradientUnits="userSpaceOnUse">
<stop offset="0.225962" stop-color="#05C2AE"/>
<stop offset="0.524038" stop-color="#05C2AE"/>
<stop offset="0.913462" stop-color="#00413A"/>
</linearGradient>
<linearGradient id="paint3_linear_1149_37655" x1="12.4296" y1="12.2626" x2="0.214844" y2="12.2626" gradientUnits="userSpaceOnUse">
<stop offset="0.225962" stop-color="#05C2AE"/>
<stop offset="0.524038" stop-color="#05C2AE"/>
<stop offset="0.913462" stop-color="#00413A"/>
</linearGradient>
<linearGradient id="paint4_linear_1149_37655" x1="18.5019" y1="6.23333" x2="6.28711" y2="6.23333" gradientUnits="userSpaceOnUse">
<stop offset="0.225962" stop-color="#05C2AE"/>
<stop offset="0.524038" stop-color="#05C2AE"/>
<stop offset="0.913462" stop-color="#00413A"/>
</linearGradient>
<clipPath id="clip0_1149_37655">
<rect width="207" height="47" fill="white"/>
</clipPath>
</defs>
</svg>
