<svg width="24" height="24" viewBox="0 0 24 24" fill="none" xmlns="http://www.w3.org/2000/svg">
<path fill-rule="evenodd" clip-rule="evenodd" d="M21.998 5.246C21.9983 4.81982 21.9145 4.39777 21.7516 4.00396C21.5887 3.61015 21.3498 3.2523 21.0486 2.95085C20.7473 2.64941 20.3896 2.41028 19.9959 2.24713C19.6022 2.08397 19.1802 2 18.754 2H5.25C4.39033 2 3.56581 2.34123 2.95756 2.94873C2.34931 3.55623 2.00706 4.38033 2.006 5.24L2 14.662C1.99987 15.0881 2.08368 15.51 2.24665 15.9037C2.40962 16.2974 2.64855 16.6552 2.94979 16.9565C3.25104 17.2578 3.6087 17.4969 4.00234 17.66C4.39599 17.8231 4.81791 17.907 5.244 17.907H5.618C6.215 17.907 6.7 18.391 6.7 18.988V20.916C6.7 21.836 7.776 22.336 8.478 21.742L12.716 18.162C12.911 17.998 13.159 17.907 13.414 17.907H18.748C20.538 17.907 21.991 16.457 21.992 14.666L21.998 5.246ZM7.294 7.743C7.294 7.54409 7.37302 7.35332 7.51367 7.21267C7.65432 7.07202 7.84509 6.993 8.044 6.993H15.954C16.1529 6.993 16.3437 7.07202 16.4843 7.21267C16.625 7.35332 16.704 7.54409 16.704 7.743C16.704 7.94191 16.625 8.13268 16.4843 8.27333C16.3437 8.41398 16.1529 8.493 15.954 8.493H8.044C7.84509 8.493 7.65432 8.41398 7.51367 8.27333C7.37302 8.13268 7.294 7.94191 7.294 7.743ZM8.044 11.415C7.84509 11.415 7.65432 11.494 7.51367 11.6347C7.37302 11.7753 7.294 11.9661 7.294 12.165C7.294 12.3639 7.37302 12.5547 7.51367 12.6953C7.65432 12.836 7.84509 12.915 8.044 12.915H12.501C12.6999 12.915 12.8907 12.836 13.0313 12.6953C13.172 12.5547 13.251 12.3639 13.251 12.165C13.251 11.9661 13.172 11.7753 13.0313 11.6347C12.8907 11.494 12.6999 11.415 12.501 11.415H8.044Z" fill="#04A391"/>
</svg>
