<svg width="24" height="24" viewBox="0 0 24 24" fill="none" xmlns="http://www.w3.org/2000/svg">
<g clip-path="url(#clip0_1865_401)">
<path d="M6.10083 6.38239L16.664 1.8537L12.2902 0.0569001C12.1055 -0.0189667 11.8983 -0.0189667 11.7136 0.0569001L1.20841 4.37254L6.10083 6.38239ZM18.6299 2.66132L8.06355 7.18868L12.0019 8.80662L22.7954 4.37254L18.6299 2.66132ZM11.2432 10.1354L6.96863 8.37934V11.7042C6.96863 12.1232 6.62892 12.4629 6.20994 12.4629C5.79096 12.4629 5.45126 12.1232 5.45126 11.7042V7.75599L0.527344 5.73319V19.0893C0.527342 19.2397 0.572059 19.3867 0.655815 19.5117C0.73957 19.6367 0.858582 19.7339 0.997728 19.7911L11.2432 24V10.1354ZM12.7606 10.1354V24L23.006 19.7911C23.1452 19.7339 23.2642 19.6367 23.348 19.5117C23.4317 19.3867 23.4764 19.2397 23.4764 19.0893V5.73319L12.7606 10.1354Z" fill="#04A391"/>
</g>
<defs>
<clipPath id="clip0_1865_401">
<rect width="24" height="24" fill="white"/>
</clipPath>
</defs>
</svg>
