<svg width="24" height="24" viewBox="0 0 24 24" fill="none" xmlns="http://www.w3.org/2000/svg">
<path d="M2.49609 4.485V17.9175C2.49867 18.9073 2.893 19.8558 3.59289 20.5557C4.29278 21.2556 5.2413 21.6499 6.23109 21.6525H11.2861C11.3581 21.1333 11.5072 20.6277 11.7286 20.1525C12.3342 18.8166 13.4296 17.7643 14.7886 17.2125C14.2989 16.8736 13.8989 16.4207 13.6233 15.8929C13.3476 15.365 13.2044 14.778 13.2061 14.1825C13.2071 13.1982 13.5985 12.2545 14.2946 11.5585C14.9906 10.8624 15.9343 10.471 16.9186 10.47C17.277 10.4686 17.6336 10.5217 17.9761 10.6275C18.5383 10.7938 19.0526 11.0921 19.4761 11.4975V4.485C19.4761 3.49442 19.0826 2.5444 18.3821 1.84396C17.6817 1.14351 16.7317 0.75 15.7411 0.75H6.23109C5.24094 0.751389 4.29173 1.14534 3.59158 1.84549C2.89144 2.54564 2.49748 3.49484 2.49609 4.485ZM7.02609 4.47H14.9461C15.145 4.47 15.3358 4.54902 15.4764 4.68967C15.6171 4.83032 15.6961 5.02109 15.6961 5.22C15.6961 5.41891 15.6171 5.60968 15.4764 5.75033C15.3358 5.89098 15.145 5.97 14.9461 5.97H7.02609C6.82718 5.97 6.63642 5.89098 6.49576 5.75033C6.35511 5.60968 6.27609 5.41891 6.27609 5.22C6.27609 5.02109 6.35511 4.83032 6.49576 4.68967C6.63642 4.54902 6.82718 4.47 7.02609 4.47ZM7.02609 8.46H14.9461C15.145 8.46 15.3358 8.53902 15.4764 8.67967C15.6171 8.82032 15.6961 9.01109 15.6961 9.21C15.6961 9.40891 15.6171 9.59968 15.4764 9.74033C15.3358 9.88098 15.145 9.96 14.9461 9.96H7.02609C6.82718 9.96 6.63642 9.88098 6.49576 9.74033C6.35511 9.59968 6.27609 9.40891 6.27609 9.21C6.27609 9.01109 6.35511 8.82032 6.49576 8.67967C6.63642 8.53902 6.82718 8.46 7.02609 8.46ZM7.02609 12.4425H10.6261C10.825 12.4425 11.0158 12.5215 11.1564 12.6622C11.2971 12.8028 11.3761 12.9936 11.3761 13.1925C11.3761 13.3914 11.2971 13.5822 11.1564 13.7228C11.0158 13.8635 10.825 13.9425 10.6261 13.9425H7.02609C6.82718 13.9425 6.63642 13.8635 6.49576 13.7228C6.35511 13.5822 6.27609 13.3914 6.27609 13.1925C6.27609 12.9936 6.35511 12.8028 6.49576 12.6622C6.63642 12.5215 6.82718 12.4425 7.02609 12.4425Z" fill="black"/>
<path d="M16.9195 16.7707C18.3486 16.7707 19.507 15.6122 19.507 14.1832C19.507 12.7542 18.3486 11.5957 16.9195 11.5957C15.4905 11.5957 14.332 12.7542 14.332 14.1832C14.332 15.6122 15.4905 16.7707 16.9195 16.7707Z" fill="black"/>
<path d="M13.0938 23.2506H20.7513C20.95 23.25 21.1404 23.1708 21.2809 23.0303C21.4214 22.8898 21.5007 22.6994 21.5013 22.5006C21.5013 21.2863 21.0188 20.1216 20.1602 19.263C19.3015 18.4043 18.1369 17.9219 16.9225 17.9219C15.7081 17.9219 14.5435 18.4043 13.6848 19.263C12.8262 20.1216 12.3438 21.2863 12.3438 22.5006C12.3443 22.6994 12.4236 22.8898 12.5641 23.0303C12.7046 23.1708 12.895 23.25 13.0938 23.2506Z" fill="black"/>
</svg>
