<svg width="24" height="24" viewBox="0 0 24 24" fill="none" xmlns="http://www.w3.org/2000/svg">
<path d="M7.75 4.75C8.01522 4.75 8.26957 4.64464 8.45711 4.45711C8.64464 4.26957 8.75 4.01522 8.75 3.75V2.75C8.75 2.48478 8.64464 2.23043 8.45711 2.04289C8.26957 1.85536 8.01522 1.75 7.75 1.75H4.25C3.58696 1.75 2.95107 2.01339 2.48223 2.48223C2.01339 2.95107 1.75 3.58696 1.75 4.25V20.25C1.75 20.913 2.01339 21.5489 2.48223 22.0178C2.95107 22.4866 3.58696 22.75 4.25 22.75H7.75C8.01522 22.75 8.26957 22.6446 8.45711 22.4571C8.64464 22.2696 8.75 22.0152 8.75 21.75V20.75C8.75 20.4848 8.64464 20.2304 8.45711 20.0429C8.26957 19.8554 8.01522 19.75 7.75 19.75H4.75V4.75H7.75Z" fill="#232323"/>
<path d="M16.25 8.24979C16.25 8.05204 16.3087 7.85874 16.4186 7.69433C16.5285 7.52992 16.6846 7.40178 16.8673 7.32611C17.05 7.25044 17.2511 7.23064 17.445 7.2692C17.639 7.30777 17.8171 7.40298 17.957 7.54279L21.957 11.5428C22.1445 11.7303 22.2498 11.9846 22.2498 12.2498C22.2498 12.515 22.1445 12.7693 21.957 12.9568L17.957 16.9568C17.8171 17.0966 17.639 17.1918 17.445 17.2304C17.2511 17.2689 17.05 17.2491 16.8673 17.1735C16.6846 17.0978 16.5285 16.9697 16.4186 16.8052C16.3087 16.6408 16.25 16.4475 16.25 16.2498V13.7498H8.25C7.98478 13.7498 7.73043 13.6444 7.54289 13.4569C7.35536 13.2694 7.25 13.015 7.25 12.7498V11.7498C7.25 11.4846 7.35536 11.2302 7.54289 11.0427C7.73043 10.8551 7.98478 10.7498 8.25 10.7498H16.25V8.24979Z" fill="#232323"/>
</svg>
