<svg width="24" height="24" viewBox="0 0 24 24" fill="none" xmlns="http://www.w3.org/2000/svg">
<g clip-path="url(#clip0_1865_1675)">
<path fill-rule="evenodd" clip-rule="evenodd" d="M4.57031 23.6251H19.4297C19.6879 23.6251 19.8984 23.4145 19.8984 23.1563V22.4072C19.8984 21.7374 19.2125 21.1894 18.3742 21.1894H15.6536V18.3496H21.8377C22.8207 18.3496 23.625 17.5453 23.625 16.5623V4.266C23.625 3.28298 22.8207 2.47866 21.8377 2.47866H17.7185V3.97331H21.8825C22.0188 3.97331 22.1303 4.08488 22.1303 4.22119V15.3389H1.86966V4.22119C1.86966 4.08488 1.98122 3.97331 2.11753 3.97331H6.28148V2.47866H2.16239C1.17933 2.47866 0.375 3.28294 0.375 4.266V16.5623C0.375 17.5453 1.17933 18.3496 2.16239 18.3496H8.34647V21.1894H5.62584C4.78748 21.1894 4.10161 21.7374 4.10161 22.4072V23.1563C4.10156 23.4145 4.31212 23.6251 4.57031 23.6251ZM7.29113 0.375H14.6085V1.85517C14.6085 2.34061 15.0029 2.73502 15.4883 2.73502H16.9685V12.9946C16.9684 13.0635 16.941 13.1294 16.8923 13.1781C16.8437 13.2267 16.7777 13.2541 16.7089 13.2543H7.29113C7.2223 13.2542 7.15632 13.2268 7.10765 13.1781C7.05898 13.1294 7.03157 13.0635 7.03144 12.9946V0.634687C7.03159 0.56586 7.05899 0.499894 7.10766 0.451225C7.15633 0.402556 7.2223 0.375149 7.29113 0.375ZM15.3585 0.3975V1.85517C15.3586 1.88959 15.3723 1.92258 15.3966 1.94692C15.421 1.97125 15.454 1.98495 15.4884 1.98502H16.9461C16.9329 1.95667 16.9148 1.93092 16.8925 1.90898L15.4346 0.451078C15.4127 0.428805 15.3869 0.410657 15.3585 0.3975ZM9.05934 4.73573C8.95989 4.73573 8.8645 4.69623 8.79418 4.6259C8.72385 4.55557 8.68434 4.46019 8.68434 4.36073C8.68434 4.26128 8.72385 4.1659 8.79418 4.09557C8.8645 4.02524 8.95989 3.98573 9.05934 3.98573H14.9407C15.0401 3.98573 15.1355 4.02524 15.2058 4.09557C15.2761 4.1659 15.3157 4.26128 15.3157 4.36073C15.3157 4.46019 15.2761 4.55557 15.2058 4.6259C15.1355 4.69623 15.0401 4.73573 14.9407 4.73573H9.05934ZM9.05934 3.00248C8.95989 3.00248 8.8645 2.96298 8.79418 2.89265C8.72385 2.82232 8.68434 2.72694 8.68434 2.62748C8.68434 2.52803 8.72385 2.43265 8.79418 2.36232C8.8645 2.29199 8.95989 2.25248 9.05934 2.25248H13.2812C13.3807 2.25248 13.4761 2.29199 13.5464 2.36232C13.6167 2.43265 13.6562 2.52803 13.6562 2.62748C13.6562 2.72694 13.6167 2.82232 13.5464 2.89265C13.4761 2.96298 13.3807 3.00248 13.2812 3.00248H9.05934ZM9.05934 11.6686C8.95989 11.6686 8.8645 11.6291 8.79418 11.5588C8.72385 11.4885 8.68434 11.3931 8.68434 11.2936C8.68434 11.1942 8.72385 11.0988 8.79418 11.0285C8.8645 10.9582 8.95989 10.9186 9.05934 10.9186H14.9407C15.0401 10.9186 15.1355 10.9582 15.2058 11.0285C15.2761 11.0988 15.3157 11.1942 15.3157 11.2936C15.3157 11.3931 15.2761 11.4885 15.2058 11.5588C15.1355 11.6291 15.0401 11.6686 14.9407 11.6686H9.05934ZM9.05934 9.93544C8.95989 9.93544 8.8645 9.89593 8.79418 9.8256C8.72385 9.75528 8.68434 9.65989 8.68434 9.56044C8.68434 9.46098 8.72385 9.3656 8.79418 9.29527C8.8645 9.22495 8.95989 9.18544 9.05934 9.18544H14.9407C15.0401 9.18544 15.1355 9.22495 15.2058 9.29527C15.2761 9.3656 15.3157 9.46098 15.3157 9.56044C15.3157 9.65989 15.2761 9.75528 15.2058 9.8256C15.1355 9.89593 15.0401 9.93544 14.9407 9.93544H9.05934ZM9.05934 8.20219C8.95989 8.20219 8.8645 8.16268 8.79418 8.09235C8.72385 8.02203 8.68434 7.92664 8.68434 7.82719C8.68434 7.72773 8.72385 7.63235 8.79418 7.56202C8.8645 7.4917 8.95989 7.45219 9.05934 7.45219H14.9407C15.0401 7.45219 15.1355 7.4917 15.2058 7.56202C15.2761 7.63235 15.3157 7.72773 15.3157 7.82719C15.3157 7.92664 15.2761 8.02203 15.2058 8.09235C15.1355 8.16268 15.0401 8.20219 14.9407 8.20219H9.05934ZM9.05934 6.46894C8.95989 6.46894 8.8645 6.42943 8.79418 6.3591C8.72385 6.28878 8.68434 6.19339 8.68434 6.09394C8.68434 5.99448 8.72385 5.8991 8.79418 5.82877C8.8645 5.75845 8.95989 5.71894 9.05934 5.71894H14.9407C15.0401 5.71894 15.1355 5.75845 15.2058 5.82877C15.2761 5.8991 15.3157 5.99448 15.3157 6.09394C15.3157 6.19339 15.2761 6.28878 15.2058 6.3591C15.1355 6.42943 15.0401 6.46894 14.9407 6.46894H9.05934Z" fill="#04A391"/>
</g>
<defs>
<clipPath id="clip0_1865_1675">
<rect width="24" height="24" fill="white"/>
</clipPath>
</defs>
</svg>
